<?xml version="1.0" encoding="UTF-8" standalone="no"?>
<svg
   xmlns:dc="http://purl.org/dc/elements/1.1/"
   xmlns:cc="http://creativecommons.org/ns#"
   xmlns:rdf="http://www.w3.org/1999/02/22-rdf-syntax-ns#"
   xmlns:svg="http://www.w3.org/2000/svg"
   xmlns="http://www.w3.org/2000/svg"
   xmlns:sodipodi="http://sodipodi.sourceforge.net/DTD/sodipodi-0.dtd"
   xmlns:inkscape="http://www.inkscape.org/namespaces/inkscape"
   height="32"
   width="32"
   version="1.1"
   id="svg5"
   sodipodi:docname="media-optical-audio.svg"
   inkscape:version="0.92.0 r">
  <metadata
     id="metadata9">
    <rdf:RDF>
      <cc:Work
         rdf:about="">
        <dc:format>image/svg+xml</dc:format>
        <dc:type
           rdf:resource="http://purl.org/dc/dcmitype/StillImage" />
        <dc:title></dc:title>
      </cc:Work>
    </rdf:RDF>
  </metadata>
  <defs
     id="defs7" />
  <sodipodi:namedview
     id="namedview1"
     showgrid="true"
     inkscape:zoom="14.75"
     inkscape:cx="19.301049"
     inkscape:cy="15.245227"
     inkscape:window-width="1280"
     inkscape:window-height="766"
     inkscape:window-x="1680"
     inkscape:window-y="250"
     inkscape:window-maximized="1"
     inkscape:current-layer="svg5">
    <inkscape:grid
       type="xygrid"
       id="grid1px"
       empspacing="4" />
    <inkscape:grid
       type="xygrid"
       id="grid1pxdot"
       empspacing="1"
       dotted="true"
       originy="0.5"
       originx="0.5" />
  </sodipodi:namedview>
  <path
     style="color:#000000;font-style:normal;font-variant:normal;font-weight:normal;font-stretch:normal;font-size:medium;line-height:normal;font-family:sans-serif;font-variant-ligatures:normal;font-variant-position:normal;font-variant-caps:normal;font-variant-numeric:normal;font-variant-alternates:normal;font-feature-settings:normal;text-indent:0;text-align:start;text-decoration:none;text-decoration-line:none;text-decoration-style:solid;text-decoration-color:#000000;letter-spacing:normal;word-spacing:normal;text-transform:none;writing-mode:lr-tb;direction:ltr;text-orientation:mixed;dominant-baseline:auto;baseline-shift:baseline;text-anchor:start;white-space:normal;shape-padding:0;clip-rule:nonzero;display:inline;overflow:visible;visibility:visible;opacity:1;isolation:auto;mix-blend-mode:normal;color-interpolation:sRGB;color-interpolation-filters:linearRGB;solid-color:#000000;solid-opacity:1;vector-effect:none;fill:#000000;fill-opacity:1;fill-rule:nonzero;stroke:none;stroke-width:1;stroke-linecap:round;stroke-linejoin:round;stroke-miterlimit:4;stroke-dasharray:none;stroke-dashoffset:0;stroke-opacity:1;color-rendering:auto;image-rendering:auto;shape-rendering:auto;text-rendering:auto;enable-background:accumulate"
     d="M 16 0 C 7.1693663 0 0 7.1693663 0 16 C 0 24.830634 7.1693663 32 16 32 C 17.642367 32 19.226747 31.749611 20.71875 31.289062 A 8 8 0 0 1 19.457031 30.583984 C 18.345711 30.846129 17.191898 31 16 31 C 7.7098064 31 1 24.290194 1 16 C 1 7.7098064 7.7098064 1 16 1 C 24.290194 1 31 7.7098064 31 16 C 31 17.19537 30.845661 18.35252 30.582031 19.466797 A 8 8 0 0 1 31.287109 20.724609 C 31.748816 19.230898 32 17.644515 32 16 C 32 7.1693663 24.830634 0 16 0 z M 16 12 C 13.796783 12 12 13.796783 12 16 C 12 18.203217 13.796783 20 16 20 C 16.422522 20 16.822257 19.915326 17.205078 19.792969 A 8 8 0 0 1 19.794922 17.201172 C 19.91644 16.819544 20 16.421011 20 16 C 20 13.796783 18.203217 12 16 12 z M 16 13 C 17.662777 13 19 14.337223 19 16 C 19 17.662777 17.662777 19 16 19 C 14.337223 19 13 17.662777 13 16 C 13 14.337223 14.337223 13 16 13 z "
     id="path4486" />
  <path
     style="opacity:1;fill:#000000;fill-opacity:1;fill-rule:nonzero;stroke:none;stroke-width:1;stroke-linecap:round;stroke-linejoin:round;stroke-miterlimit:4;stroke-dasharray:none;stroke-dashoffset:0;stroke-opacity:1"
     d="M 24 16 A 8 8 0 0 0 16 24 A 8 8 0 0 0 24 32 A 8 8 0 0 0 32 24 A 8 8 0 0 0 24 16 z M 20.625 20.34375 C 21.27907 20.34375 21.82372 20.469468 22.259766 20.722656 C 22.702845 20.975844 23.029244 21.28936 23.240234 21.662109 C 23.451224 22.027825 23.564059 22.381946 23.578125 22.726562 C 23.578125 22.789862 23.555093 22.847256 23.505859 22.896484 C 23.463659 22.938684 23.408998 22.958984 23.345703 22.958984 L 22.861328 22.958984 C 22.798028 22.958984 22.737902 22.938684 22.681641 22.896484 C 22.632407 22.854284 22.601951 22.79689 22.587891 22.726562 C 22.489429 22.304582 22.29148 21.960614 21.996094 21.693359 C 21.700708 21.426105 21.243905 21.292969 20.625 21.292969 C 20.013129 21.292969 19.53407 21.471395 19.189453 21.830078 C 18.851868 22.181728 18.673442 22.6561 18.652344 23.253906 C 18.64531 23.464896 18.640625 23.760843 18.640625 24.140625 C 18.640625 24.520408 18.64531 24.816354 18.652344 25.027344 C 18.673444 25.625149 18.85187 26.102253 19.189453 26.460938 C 19.53407 26.812587 20.013129 26.990234 20.625 26.990234 C 21.243905 26.990234 21.700708 26.855145 21.996094 26.587891 C 22.29148 26.320637 22.489429 25.976668 22.587891 25.554688 C 22.601957 25.484358 22.632414 25.428917 22.681641 25.386719 C 22.737907 25.344519 22.798033 25.322266 22.861328 25.322266 L 23.345703 25.322266 C 23.409003 25.322266 23.463664 25.347251 23.505859 25.396484 C 23.555093 25.438684 23.578125 25.491392 23.578125 25.554688 C 23.564058 25.899304 23.451224 26.25811 23.240234 26.630859 C 23.029244 26.996575 22.702845 27.305406 22.259766 27.558594 C 21.82372 27.811782 21.27907 27.939453 20.625 27.939453 C 20.034228 27.939453 19.517298 27.816468 19.074219 27.570312 C 18.631139 27.324157 18.287171 26.985654 18.041016 26.556641 C 17.801894 26.120595 17.67149 25.628653 17.650391 25.080078 C 17.643357 24.869088 17.638672 24.555572 17.638672 24.140625 C 17.638672 23.725678 17.643357 23.412162 17.650391 23.201172 C 17.671491 22.652597 17.801894 22.165341 18.041016 21.736328 C 18.287171 21.300281 18.631139 20.959046 19.074219 20.712891 C 19.517298 20.466736 20.034228 20.34375 20.625 20.34375 z M 25.255859 20.449219 L 27.671875 20.449219 C 28.255614 20.449219 28.772544 20.564786 29.222656 20.796875 C 29.679802 21.021932 30.038607 21.353016 30.298828 21.789062 C 30.559049 22.218076 30.692186 22.722901 30.699219 23.306641 C 30.706252 23.517631 30.708984 23.796008 30.708984 24.140625 C 30.708984 24.485242 30.706252 24.763619 30.699219 24.974609 C 30.692185 25.558349 30.561782 26.06786 30.308594 26.503906 C 30.055406 26.93292 29.706751 27.264005 29.263672 27.496094 C 28.820593 27.72115 28.311081 27.833984 27.734375 27.833984 L 25.255859 27.833984 C 25.178497 27.833984 25.110951 27.804314 25.054688 27.748047 C 24.998421 27.69178 24.970703 27.626189 24.970703 27.548828 L 24.970703 20.734375 C 24.970703 20.657012 24.998421 20.589467 25.054688 20.533203 C 25.110953 20.476936 25.178499 20.449219 25.255859 20.449219 z M 25.972656 21.398438 L 25.972656 26.884766 L 27.681641 26.884766 C 28.384941 26.884766 28.89172 26.701654 29.201172 26.335938 C 29.517657 25.97022 29.6832 25.498581 29.697266 24.921875 C 29.704299 24.710884 29.707031 24.450077 29.707031 24.140625 C 29.707031 23.831173 29.704299 23.570365 29.697266 23.359375 C 29.683199 22.789702 29.510238 22.322748 29.179688 21.957031 C 28.849135 21.584282 28.332207 21.398438 27.628906 21.398438 L 25.972656 21.398438 z "
     id="path4485" />
</svg>
