<?xml version="1.0" encoding="UTF-8" standalone="no"?>
<svg
   xmlns:dc="http://purl.org/dc/elements/1.1/"
   xmlns:cc="http://creativecommons.org/ns#"
   xmlns:rdf="http://www.w3.org/1999/02/22-rdf-syntax-ns#"
   xmlns:svg="http://www.w3.org/2000/svg"
   xmlns="http://www.w3.org/2000/svg"
   xmlns:xlink="http://www.w3.org/1999/xlink"
   xmlns:sodipodi="http://sodipodi.sourceforge.net/DTD/sodipodi-0.dtd"
   xmlns:inkscape="http://www.inkscape.org/namespaces/inkscape"
   height="32"
   width="32"
   id="svg2"
   version="1.1"
   inkscape:version="0.91 r13725"
   sodipodi:docname="accessories-calculator.svg">
  <metadata
     id="metadata9">
    <rdf:RDF>
      <cc:Work
         rdf:about="">
        <dc:format>image/svg+xml</dc:format>
        <dc:type
           rdf:resource="http://purl.org/dc/dcmitype/StillImage" />
        <dc:title></dc:title>
      </cc:Work>
    </rdf:RDF>
  </metadata>
  <defs
     id="defs7">
    <linearGradient
       inkscape:collect="always"
       id="linearGradient4139">
      <stop
         style="stop-color:#0064ff;stop-opacity:1"
         offset="0"
         id="stop4141" />
      <stop
         style="stop-color:#00c8ff;stop-opacity:1"
         offset="1"
         id="stop4143" />
    </linearGradient>
    <linearGradient
       inkscape:collect="always"
       xlink:href="#linearGradient4139"
       id="linearGradient4145"
       x1="0"
       y1="32"
       x2="32"
       y2="0"
       gradientUnits="userSpaceOnUse" />
  </defs>
  <sodipodi:namedview
     id="namedview1"
     showgrid="true"
     showguides="false"
     inkscape:zoom="14.75"
     inkscape:cx="18.500659"
     inkscape:cy="13.696526"
     inkscape:window-width="1280"
     inkscape:window-height="766"
     inkscape:window-x="1680"
     inkscape:window-y="250"
     inkscape:window-maximized="1"
     inkscape:current-layer="svg2">
    <inkscape:grid
       type="xygrid"
       id="grid1px"
       empspacing="4" />
    <inkscape:grid
       type="xygrid"
       id="grid1pxdot"
       empspacing="1"
       dotted="true"
       originy="0.5"
       originx="0.5" />
  </sodipodi:namedview>
  <path
     style="opacity:0.98999999;fill:url(#linearGradient4145);fill-opacity:1;fill-rule:nonzero;stroke:none;stroke-width:2;stroke-linecap:round;stroke-linejoin:round;stroke-miterlimit:4;stroke-dasharray:none;stroke-dashoffset:0;stroke-opacity:1"
     d="M 16 0 A 16 16 0 0 0 0.81445312 11 L 6.4179688 11 A 0.50005 0.50005 0 0 1 6.4921875 10.992188 A 0.50005 0.50005 0 0 1 6.5917969 11 L 13.417969 11 A 0.50005 0.50005 0 0 1 13.492188 10.992188 A 0.50005 0.50005 0 0 1 13.591797 11 L 20.417969 11 A 0.50005 0.50005 0 0 1 20.492188 10.992188 A 0.50005 0.50005 0 0 1 20.591797 11 L 26.417969 11 A 0.50005 0.50005 0 0 1 26.492188 10.992188 A 0.50005 0.50005 0 0 1 26.591797 11 L 31.175781 11 A 16 16 0 0 0 16 0 z M 10.060547 2.9140625 C 10.495842 2.9140625 10.867283 3.0038443 11.173828 3.1816406 C 11.486504 3.353306 11.72341 3.5902105 11.882812 3.890625 C 12.042217 4.1849085 12.121094 4.5149581 12.121094 4.8828125 C 12.121094 5.2690596 12.054802 5.6010623 11.919922 5.8769531 C 11.791173 6.1467131 11.566854 6.4211033 11.248047 6.703125 L 9.1972656 8.6171875 L 12.011719 8.6171875 C 12.079159 8.6171875 12.1365 8.6404058 12.185547 8.6894531 C 12.234594 8.7385005 12.259766 8.7977945 12.259766 8.8652344 L 12.259766 9.1953125 C 12.259766 9.2627525 12.234594 9.3220465 12.185547 9.3710938 C 12.1365 9.4201411 12.079159 9.4453125 12.011719 9.4453125 L 8.046875 9.4453125 C 7.979435 9.4453125 7.9220941 9.420141 7.8730469 9.3710938 C 7.8239995 9.3220463 7.7988281 9.2627524 7.7988281 9.1953125 L 7.7988281 8.8652344 C 7.7988281 8.7977944 7.8114142 8.7421351 7.8359375 8.6992188 C 7.8665922 8.6501713 7.9222515 8.5891958 8.0019531 8.515625 L 10.695312 6.0605469 C 10.891502 5.8827505 11.033308 5.7068217 11.119141 5.5351562 C 11.204974 5.3634908 11.248047 5.1464415 11.248047 4.8828125 C 11.248047 4.5394817 11.149314 4.2631383 10.953125 4.0546875 C 10.756936 3.8462366 10.459056 3.7421875 10.060547 3.7421875 C 9.6681687 3.7421875 9.3739234 3.8462366 9.1777344 4.0546875 C 8.9815454 4.2570074 8.8416921 4.5333508 8.7558594 4.8828125 C 8.7374667 4.9502525 8.7069792 5.0022771 8.6640625 5.0390625 C 8.6211465 5.0758478 8.5708035 5.09375 8.515625 5.09375 L 8.09375 5.09375 C 8.038572 5.09375 7.9901822 5.0758478 7.9472656 5.0390625 C 7.9104804 4.9961462 7.890625 4.9477563 7.890625 4.8925781 C 7.9028868 4.5799019 7.9963033 4.269436 8.1679688 3.9628906 C 8.3457651 3.6563453 8.5969369 3.4051734 8.921875 3.2089844 C 9.2468131 3.0127953 9.6252524 2.9140625 10.060547 2.9140625 z M 19.419922 3.0078125 L 23.042969 3.0078125 C 23.110409 3.0078125 23.169703 3.0310308 23.21875 3.0800781 C 23.267797 3.1291255 23.291016 3.1884194 23.291016 3.2558594 L 23.291016 3.5859375 C 23.291016 3.6717702 23.23731 3.7758194 23.126953 3.8984375 L 21.498047 5.65625 C 22.117268 5.668512 22.617931 5.8424878 22.998047 6.1796875 C 23.378164 6.5168874 23.568359 6.9708413 23.568359 7.5410156 C 23.568359 7.9456555 23.46431 8.3008765 23.255859 8.6074219 C 23.053539 8.9078363 22.777196 9.1374714 22.427734 9.296875 C 22.084404 9.4562786 21.700376 9.5371094 21.277344 9.5371094 C 20.756216 9.5371094 20.318483 9.4599134 19.962891 9.3066406 C 19.607299 9.1472371 19.343541 8.9444551 19.171875 8.6992188 C 19.00021 8.4478515 18.908746 8.1824124 18.896484 7.9003906 C 18.896484 7.8452126 18.914385 7.7985043 18.951172 7.7617188 C 18.994085 7.718802 19.042475 7.6972656 19.097656 7.6972656 L 19.521484 7.6972656 C 19.582791 7.6972656 19.631181 7.7188021 19.667969 7.7617188 C 19.710882 7.798504 19.741372 7.8415777 19.759766 7.890625 C 19.839468 8.1419922 19.984909 8.3411395 20.193359 8.4882812 C 20.407941 8.6354231 20.768478 8.7089844 21.277344 8.7089844 C 21.688114 8.7089844 22.025433 8.6102515 22.289062 8.4140625 C 22.558823 8.2117426 22.693359 7.9211319 22.693359 7.5410156 C 22.693359 7.1670303 22.566092 6.8979563 22.308594 6.7324219 C 22.057227 6.5607565 21.712638 6.4746094 21.277344 6.4746094 L 20.513672 6.4746094 C 20.446232 6.4746094 20.388891 6.449438 20.339844 6.4003906 C 20.290797 6.3513433 20.265625 6.2940024 20.265625 6.2265625 L 20.265625 5.8945312 C 20.265625 5.8454839 20.278208 5.8024104 20.302734 5.765625 C 20.327254 5.722709 20.365012 5.6743191 20.414062 5.6191406 L 22.068359 3.8339844 L 19.419922 3.8339844 C 19.352482 3.8339844 19.295141 3.810766 19.246094 3.7617188 C 19.197047 3.7126713 19.171875 3.6533774 19.171875 3.5859375 L 19.171875 3.2558594 C 19.171875 3.1884194 19.197047 3.1291254 19.246094 3.0800781 C 19.29514 3.0310308 19.352481 3.0078125 19.419922 3.0078125 z M 15.505859 4.2304688 L 15.847656 4.2304688 C 15.915096 4.2304688 15.972437 4.253687 16.021484 4.3027344 C 16.070531 4.3517817 16.095703 4.4110758 16.095703 4.4785156 L 16.095703 6.28125 L 17.90625 6.28125 C 17.97369 6.28125 18.032984 6.3044683 18.082031 6.3535156 C 18.131078 6.402563 18.154297 6.461857 18.154297 6.5292969 L 18.154297 6.8144531 C 18.154297 6.8818931 18.131078 6.939234 18.082031 6.9882812 C 18.032985 7.0373286 17.973691 7.0625 17.90625 7.0625 L 16.095703 7.0625 L 16.095703 8.8925781 C 16.095703 8.9600181 16.070531 9.0193121 16.021484 9.0683594 C 15.972438 9.1174067 15.915097 9.140625 15.847656 9.140625 L 15.505859 9.140625 C 15.438419 9.140625 15.381079 9.1174067 15.332031 9.0683594 C 15.282985 9.019312 15.257812 8.9600181 15.257812 8.8925781 L 15.257812 7.0625 L 13.455078 7.0625 C 13.387638 7.0625 13.330297 7.0373287 13.28125 6.9882812 C 13.232203 6.9392339 13.207031 6.8818931 13.207031 6.8144531 L 13.207031 6.5292969 C 13.207031 6.4618569 13.232203 6.4025629 13.28125 6.3535156 C 13.330297 6.3044683 13.387637 6.28125 13.455078 6.28125 L 15.257812 6.28125 L 15.257812 4.4785156 C 15.257813 4.4110757 15.282985 4.3517816 15.332031 4.3027344 C 15.381078 4.253687 15.438419 4.2304688 15.505859 4.2304688 z M 0.52929688 12 A 16 16 0 0 0 0 16 A 16 16 0 0 0 0.140625 18 L 6 18 L 6 12 L 0.52929688 12 z M 7 12 L 7 18 L 13 18 L 13 12 L 7 12 z M 14 12 L 14 18 L 20 18 L 20 12 L 14 12 z M 21 12 L 21 18 L 26 18 L 26 12 L 21 12 z M 27 12 L 27 18 L 31.857422 18 A 16 16 0 0 0 32 16 A 16 16 0 0 0 31.478516 12 L 27 12 z M 0.29296875 19 A 16 16 0 0 0 2.7773438 25 L 6 25 L 6 19 L 0.29296875 19 z M 7 19 L 7 25 L 13 25 L 13 19 L 7 19 z M 14 19 L 14 25 L 20 25 L 20 19 L 19.964844 19 L 14 19 z M 21 19 L 21 25 L 26 25 L 26 19 L 21 19 z M 27 19 L 27 25 L 29.195312 25 A 16 16 0 0 0 31.695312 19 L 27 19 z M 3.5332031 26 A 16 16 0 0 0 6 28.484375 L 6 26 L 3.5332031 26 z M 7 26 L 7 29.208984 A 16 16 0 0 0 13 31.705078 L 13 26 L 7 26 z M 14 26 L 14 31.853516 A 16 16 0 0 0 16 32 A 16 16 0 0 0 20 31.470703 L 20 26 L 14 26 z M 21 26 L 21 31.185547 A 16 16 0 0 0 26 28.451172 L 26 26 L 21 26 z M 27 26 L 27 27.578125 A 16 16 0 0 0 28.460938 26 L 27 26 z "
     id="path4137" />
</svg>
