<?xml version="1.0" encoding="UTF-8" standalone="no"?>
<svg
   xmlns:dc="http://purl.org/dc/elements/1.1/"
   xmlns:cc="http://creativecommons.org/ns#"
   xmlns:rdf="http://www.w3.org/1999/02/22-rdf-syntax-ns#"
   xmlns:svg="http://www.w3.org/2000/svg"
   xmlns="http://www.w3.org/2000/svg"
   xmlns:xlink="http://www.w3.org/1999/xlink"
   xmlns:sodipodi="http://sodipodi.sourceforge.net/DTD/sodipodi-0.dtd"
   xmlns:inkscape="http://www.inkscape.org/namespaces/inkscape"
   height="32"
   width="32"
   id="svg2"
   version="1.1"
   inkscape:version="0.92.2 5c3e80d, 2017-08-06"
   sodipodi:docname="amarok.svg">
  <metadata
     id="metadata9">
    <rdf:RDF>
      <cc:Work
         rdf:about="">
        <dc:format>image/svg+xml</dc:format>
        <dc:type
           rdf:resource="http://purl.org/dc/dcmitype/StillImage" />
        <dc:title></dc:title>
      </cc:Work>
    </rdf:RDF>
  </metadata>
  <defs
     id="defs7">
    <linearGradient
       inkscape:collect="always"
       xlink:href="#linearGradient9482"
       id="linearGradient9488"
       x1="2.0203052"
       y1="1050.2156"
       x2="46.088211"
       y2="1006.6528"
       gradientUnits="userSpaceOnUse"
       gradientTransform="matrix(0.7452015,0,0,0.7530456,-1.8848359,-758.23521)" />
    <linearGradient
       inkscape:collect="always"
       id="linearGradient9482">
      <stop
         style="stop-color:#0064ff;stop-opacity:1"
         offset="0"
         id="stop9484" />
      <stop
         style="stop-color:#00c8ff;stop-opacity:1"
         offset="1"
         id="stop9486" />
    </linearGradient>
  </defs>
  <sodipodi:namedview
     id="namedview1"
     showgrid="true"
     inkscape:zoom="20.85965"
     inkscape:cx="13.26493"
     inkscape:cy="17.112373"
     inkscape:window-width="1680"
     inkscape:window-height="1016"
     inkscape:window-x="0"
     inkscape:window-y="0"
     inkscape:window-maximized="1"
     inkscape:current-layer="svg2">
    <inkscape:grid
       type="xygrid"
       id="grid1px"
       empspacing="4" />
    <inkscape:grid
       type="xygrid"
       id="grid1pxdot"
       empspacing="1"
       dotted="true"
       originy="0.5"
       originx="0.5" />
  </sodipodi:namedview>
  <circle
     style="opacity:0.98999999;fill:#ffffff;fill-opacity:1;fill-rule:nonzero;stroke:none;stroke-width:1;stroke-linecap:round;stroke-linejoin:round;stroke-miterlimit:4;stroke-dasharray:none;stroke-dashoffset:0;stroke-opacity:1;paint-order:fill markers stroke"
     id="path820"
     cx="16"
     cy="16"
     r="16" />
  <path
     inkscape:connector-curvature="0"
     style="opacity:1;fill:url(#linearGradient9488);fill-opacity:1;stroke:none;stroke-width:1.05941474;stroke-linecap:round;stroke-linejoin:round;stroke-miterlimit:4;stroke-dasharray:none;stroke-opacity:1"
     d="M 16,1.0000004e-8 A 15.999695,16.16811 0 0 0 0,16.168419 15.999695,16.16811 0 0 0 1.1512781,22.172192 c 0.4343288,-0.309661 0.7388148,-0.509617 0.8165196,-0.52066 0.3138573,-0.04488 1.2553832,-0.283663 2.206495,-0.794229 L 4.1335387,20.4043 c 0,0 0.6450641,-0.03741 1.4642048,-0.603025 C 5.9383379,19.443428 6.3458558,19.015872 6.3458558,19.015872 5.1683502,18.438587 2.4551803,14.044039 3.3650497,13.744553 3.9409965,13.554936 4.6484858,13.118527 5.603565,12.88561 c 0.9550733,-0.232992 2.8319206,-1.064481 3.4247248,-1.397252 0.5928048,-0.332846 1.5812442,0.03305 2.7668522,-0.100015 1.82524,-0.501302 2.714097,-0.996951 3.155463,-1.33695 l -0.05823,-0.660386 c 0,0 0.3346,0.1478914 0.998454,0.207382 0.443346,-0.012952 1.200764,-0.00264 2.8862,0.1588452 1.478676,0.1415725 1.910208,-0.067127 2.832348,-0.3000412 0.92214,-0.2329923 3.844672,-1.3313869 5.129082,-1.5310946 0.160551,-0.024851 0.304754,-0.018654 0.439552,-0.00738 0.134798,0.011296 0.260149,0.031064 0.381334,0.023532 0.727111,-0.028089 1.171654,0.2000278 1.171654,0.2000278 1e-6,0 0.387156,0.7162239 0.387156,1.2487024 0,0.5324785 -0.228351,1.0885844 -0.698626,1.5413904 -0.443433,0.426902 -2.905121,4.112335 -2.905121,4.112335 l 1.79314,0.204441 1.48167,0.332398 c 0,0 0.197399,0.498536 0.164468,0.764812 -0.03294,0.266202 -0.559388,1.165572 -1.119257,1.298711 -0.55987,0.133062 -3.211876,0.818475 -3.787137,1.264881 -0.60978,0.473138 -2.038475,1.548039 -3.085601,3.156319 -0.31794,0.798906 -0.247429,1.585514 -0.247429,1.585514 h -0.563268 c -0.148878,0.409582 -0.266969,0.840215 -0.336213,1.297239 -0.05531,1.926742 0.503593,3.52696 0.503593,3.52696 0,0 -0.434771,0.0064 -0.758301,0.486832 C 19.457059,30.044968 19.292769,31.183234 19.168551,32 a 15.999695,16.16811 0 0 0 12.831444,-15.831581 15.999695,16.16811 0 0 0 -16,-16.16841929 z"
     id="path9478" />
  <text
     xml:space="preserve"
     style="font-style:normal;font-weight:normal;line-height:0%;font-family:sans-serif;letter-spacing:0px;word-spacing:0px;fill:#000000;fill-opacity:1;stroke:none;stroke-width:1px;stroke-linecap:butt;stroke-linejoin:miter;stroke-opacity:1"
     x="-10.020305"
     y="12.094587"
     id="text18619"><tspan
       sodipodi:role="line"
       id="tspan18621"
       x="-10.020305"
       y="12.094587"
       style="font-size:40px;line-height:1.25"> </tspan></text>
</svg>
