<?xml version="1.0" encoding="UTF-8" standalone="no"?>
<svg
   xmlns:dc="http://purl.org/dc/elements/1.1/"
   xmlns:cc="http://creativecommons.org/ns#"
   xmlns:rdf="http://www.w3.org/1999/02/22-rdf-syntax-ns#"
   xmlns:svg="http://www.w3.org/2000/svg"
   xmlns="http://www.w3.org/2000/svg"
   xmlns:xlink="http://www.w3.org/1999/xlink"
   xmlns:sodipodi="http://sodipodi.sourceforge.net/DTD/sodipodi-0.dtd"
   xmlns:inkscape="http://www.inkscape.org/namespaces/inkscape"
   height="32"
   width="32"
   id="svg2"
   version="1.1"
   inkscape:version="0.91 r13725"
   sodipodi:docname="amarok.svg">
  <metadata
     id="metadata9">
    <rdf:RDF>
      <cc:Work
         rdf:about="">
        <dc:format>image/svg+xml</dc:format>
        <dc:type
           rdf:resource="http://purl.org/dc/dcmitype/StillImage" />
        <dc:title></dc:title>
      </cc:Work>
    </rdf:RDF>
  </metadata>
  <defs
     id="defs7">
    <linearGradient
       inkscape:collect="always"
       xlink:href="#linearGradient9482"
       id="linearGradient9488"
       x1="2.0203052"
       y1="1050.2156"
       x2="46.088211"
       y2="1006.6528"
       gradientUnits="userSpaceOnUse"
       gradientTransform="matrix(0.75,0,0,0.75,-2,-755.32756)" />
    <linearGradient
       inkscape:collect="always"
       id="linearGradient9482">
      <stop
         style="stop-color:#0064ff;stop-opacity:1"
         offset="0"
         id="stop9484" />
      <stop
         style="stop-color:#00c8ff;stop-opacity:1"
         offset="1"
         id="stop9486" />
    </linearGradient>
  </defs>
  <sodipodi:namedview
     id="namedview1"
     showgrid="true"
     inkscape:zoom="10.429825"
     inkscape:cx="12.680605"
     inkscape:cy="19.848157"
     inkscape:window-width="1280"
     inkscape:window-height="766"
     inkscape:window-x="1680"
     inkscape:window-y="250"
     inkscape:window-maximized="1"
     inkscape:current-layer="svg2">
    <inkscape:grid
       type="xygrid"
       id="grid1px"
       empspacing="4" />
    <inkscape:grid
       type="xygrid"
       id="grid1pxdot"
       empspacing="1"
       dotted="true"
       originy="0.5"
       originx="0.5" />
  </sodipodi:namedview>
  <path
     inkscape:connector-curvature="0"
     style="opacity:1;fill:url(#linearGradient9488);fill-opacity:1;stroke:none;stroke-width:1.05941474;stroke-linecap:round;stroke-linejoin:round;stroke-miterlimit:4;stroke-dasharray:none;stroke-opacity:1"
     d="M 16,-0.15893963 A 16.10272,16.10272 0 0 0 -0.10302734,15.944088 16.10272,16.10272 0 0 0 1.0556641,21.92358 c 0.4371255,-0.308409 0.7435722,-0.507556 0.8217773,-0.518555 0.3158783,-0.0447 1.2634669,-0.282515 2.2207031,-0.791016 l -0.041016,-0.451171 c 0,0 0.6492178,-0.03726 1.4736331,-0.600586 0.3427875,-0.3564 0.7529295,-0.782227 0.7529295,-0.782227 -1.1850878,-0.57495 -3.9157283,-4.951725 -3.0000001,-5.25 0.5796555,-0.18885 1.2917004,-0.623494 2.2529296,-0.855469 0.9612232,-0.23205 2.8501559,-1.060176 3.4467772,-1.391601 0.596622,-0.3315 1.5914258,0.03292 2.7846678,-0.09961 1.836993,-0.499275 2.731574,-0.992919 3.175782,-1.3315436 l -0.0586,-0.6577148 c 0,0 0.336755,0.1472933 1.004883,0.2065433 0.446201,-0.0129 1.208496,-0.00263 2.904785,0.1582027 1.488198,0.141 1.922508,-0.066855 2.850586,-0.2988277 0.928078,-0.23205 3.869429,-1.3260023 5.162109,-1.5249023 0.161585,-0.02475 0.306717,-0.018578 0.442383,-0.00735 0.135666,0.01125 0.261824,0.030938 0.383789,0.023437 0.731793,-0.027975 1.179199,0.1992188 1.179199,0.1992188 1e-6,0 0.389649,0.7133272 0.389649,1.2436522 0,0.530325 -0.229822,1.0841809 -0.703125,1.5351559 -0.446288,0.425175 -2.923828,4.095703 -2.923828,4.095703 l 1.804687,0.203614 1.491211,0.331054 c 0,0 0.19867,0.496519 0.165527,0.761719 -0.03315,0.265125 -0.56299,1.160858 -1.126465,1.293458 -0.563475,0.132524 -3.232557,0.815165 -3.811523,1.259765 -0.613706,0.471225 -2.051601,1.541779 -3.105469,3.143554 -0.319988,0.795675 -0.249023,1.579102 -0.249023,1.579102 l -0.566895,0 c -0.149836,0.407925 -0.268688,0.836817 -0.338378,1.291992 -0.05567,1.91895 0.506836,3.512696 0.506836,3.512696 0,0 -0.437571,0.0064 -0.763184,0.484863 -0.103677,1.077778 -0.269025,2.211441 -0.394043,3.024903 A 16.10272,16.10272 0 0 0 32.103027,15.944088 16.10272,16.10272 0 0 0 16,-0.15893963 Z"
     id="path9478" />
  <text
     xml:space="preserve"
     style="font-style:normal;font-weight:normal;font-size:40px;line-height:125%;font-family:sans-serif;letter-spacing:0px;word-spacing:0px;fill:#000000;fill-opacity:1;stroke:none;stroke-width:1px;stroke-linecap:butt;stroke-linejoin:miter;stroke-opacity:1"
     x="-10.020305"
     y="12.094587"
     id="text18619"
     sodipodi:linespacing="125%"><tspan
       sodipodi:role="line"
       id="tspan18621"
       x="-10.020305"
       y="12.094587" /></text>
</svg>
