<?xml version="1.0" encoding="UTF-8" standalone="no"?>
<svg
   xmlns:dc="http://purl.org/dc/elements/1.1/"
   xmlns:cc="http://creativecommons.org/ns#"
   xmlns:rdf="http://www.w3.org/1999/02/22-rdf-syntax-ns#"
   xmlns:svg="http://www.w3.org/2000/svg"
   xmlns="http://www.w3.org/2000/svg"
   xmlns:xlink="http://www.w3.org/1999/xlink"
   xmlns:sodipodi="http://sodipodi.sourceforge.net/DTD/sodipodi-0.dtd"
   xmlns:inkscape="http://www.inkscape.org/namespaces/inkscape"
   height="32"
   width="32"
   version="1.1"
   id="svg5"
   sodipodi:docname="amsynth.svg"
   inkscape:version="0.92.2 5c3e80d, 2017-08-06">
  <metadata
     id="metadata9">
    <rdf:RDF>
      <cc:Work
         rdf:about="">
        <dc:format>image/svg+xml</dc:format>
        <dc:type
           rdf:resource="http://purl.org/dc/dcmitype/StillImage" />
        <dc:title></dc:title>
      </cc:Work>
    </rdf:RDF>
  </metadata>
  <defs
     id="defs7">
    <linearGradient
       inkscape:collect="always"
       id="linearGradient4492">
      <stop
         style="stop-color:#ff6400;stop-opacity:1"
         offset="0"
         id="stop4488" />
      <stop
         style="stop-color:#ffc800;stop-opacity:1"
         offset="1"
         id="stop4490" />
    </linearGradient>
    <linearGradient
       inkscape:collect="always"
       xlink:href="#linearGradient4492"
       id="linearGradient4494"
       x1="0"
       y1="32"
       x2="32"
       y2="0"
       gradientUnits="userSpaceOnUse" />
  </defs>
  <sodipodi:namedview
     id="namedview1"
     showgrid="true"
     inkscape:zoom="10.429825"
     inkscape:cx="18.769733"
     inkscape:cy="4.3133321"
     inkscape:window-width="1280"
     inkscape:window-height="742"
     inkscape:window-x="0"
     inkscape:window-y="24"
     inkscape:window-maximized="1"
     inkscape:current-layer="svg5">
    <inkscape:grid
       type="xygrid"
       id="grid1px"
       empspacing="4" />
    <inkscape:grid
       type="xygrid"
       id="grid1pxdot"
       empspacing="1"
       dotted="true"
       originy="0.5"
       originx="0.5" />
  </sodipodi:namedview>
  <path
     style="opacity:1;fill:url(#linearGradient4494);fill-opacity:1;fill-rule:nonzero;stroke:none;stroke-width:1;stroke-linecap:round;stroke-linejoin:round;stroke-miterlimit:4;stroke-dasharray:none;stroke-dashoffset:0;stroke-opacity:0.94688218"
     d="M 16 0 A 16 16 0 0 0 0 16 A 16 16 0 0 0 16 32 A 16 16 0 0 0 32 16 A 16 16 0 0 0 16 0 z M 8.5 8 L 11.5 8 L 19.5 8 A 0.50005 0.50005 0 0 1 20 8.5 L 20 20 L 23.5 20 A 0.50005 0.50005 0 0 1 24 20.5 L 24 23.5 A 0.50005 0.50005 0 0 1 23.5 24 L 19.5 24 L 16.5 24 A 0.50005 0.50005 0 0 1 16 23.5 L 16 20.5 L 16 12 L 12 12 L 12 23.5 A 0.50005 0.50005 0 0 1 11.5 24 L 8.5 24 A 0.50005 0.50005 0 0 1 8 23.5 L 8 11.5 L 8 8.5 A 0.50005 0.50005 0 0 1 8.5 8 z "
     id="path4486" />
  <path
     style="opacity:0.98999999;fill:#ffffff;fill-opacity:1;fill-rule:nonzero;stroke:none;stroke-width:1.00157475;stroke-linecap:round;stroke-linejoin:round;stroke-miterlimit:4;stroke-dasharray:none;stroke-dashoffset:0;stroke-opacity:1;paint-order:fill markers stroke"
     d="M 8.5 8 A 0.50005 0.50005 0 0 0 8 8.5 L 8 11.5 L 8 23.5 A 0.50005 0.50005 0 0 0 8.5 24 L 11.5 24 A 0.50005 0.50005 0 0 0 12 23.5 L 12 12 L 16 12 L 16 20.5 L 16 23.5 A 0.50005 0.50005 0 0 0 16.5 24 L 19.5 24 L 23.5 24 A 0.50005 0.50005 0 0 0 24 23.5 L 24 20.5 A 0.50005 0.50005 0 0 0 23.5 20 L 20 20 L 20 8.5 A 0.50005 0.50005 0 0 0 19.5 8 L 11.5 8 L 8.5 8 z "
     id="rect818" />
</svg>
