<?xml version="1.0" encoding="UTF-8" standalone="no"?>
<svg
   xmlns:dc="http://purl.org/dc/elements/1.1/"
   xmlns:cc="http://creativecommons.org/ns#"
   xmlns:rdf="http://www.w3.org/1999/02/22-rdf-syntax-ns#"
   xmlns:svg="http://www.w3.org/2000/svg"
   xmlns="http://www.w3.org/2000/svg"
   xmlns:xlink="http://www.w3.org/1999/xlink"
   xmlns:sodipodi="http://sodipodi.sourceforge.net/DTD/sodipodi-0.dtd"
   xmlns:inkscape="http://www.inkscape.org/namespaces/inkscape"
   height="32"
   width="32"
   version="1.1"
   id="svg5"
   sodipodi:docname="bleachbit.svg"
   inkscape:version="0.92.0 r">
  <metadata
     id="metadata9">
    <rdf:RDF>
      <cc:Work
         rdf:about="">
        <dc:format>image/svg+xml</dc:format>
        <dc:type
           rdf:resource="http://purl.org/dc/dcmitype/StillImage" />
        <dc:title></dc:title>
      </cc:Work>
    </rdf:RDF>
  </metadata>
  <defs
     id="defs7">
    <linearGradient
       inkscape:collect="always"
       id="linearGradient4492">
      <stop
         style="stop-color:#0064ff;stop-opacity:1"
         offset="0"
         id="stop4488" />
      <stop
         style="stop-color:#00c8ff;stop-opacity:1"
         offset="1"
         id="stop4490" />
    </linearGradient>
    <linearGradient
       inkscape:collect="always"
       xlink:href="#linearGradient4492"
       id="linearGradient4494"
       x1="0"
       y1="32"
       x2="32"
       y2="0"
       gradientUnits="userSpaceOnUse" />
  </defs>
  <sodipodi:namedview
     id="namedview1"
     showgrid="true"
     inkscape:zoom="10.429825"
     inkscape:cx="24.314357"
     inkscape:cy="26.153395"
     inkscape:window-width="1680"
     inkscape:window-height="1016"
     inkscape:window-x="0"
     inkscape:window-y="0"
     inkscape:window-maximized="1"
     inkscape:current-layer="svg5">
    <inkscape:grid
       type="xygrid"
       id="grid1px"
       empspacing="4" />
    <inkscape:grid
       type="xygrid"
       id="grid1pxdot"
       empspacing="1"
       dotted="true"
       originy="0.5"
       originx="0.5" />
  </sodipodi:namedview>
  <path
     style="opacity:1;fill:url(#linearGradient4494);fill-opacity:1;fill-rule:nonzero;stroke:none;stroke-width:1;stroke-linecap:round;stroke-linejoin:round;stroke-miterlimit:4;stroke-dasharray:none;stroke-dashoffset:0;stroke-opacity:1"
     d="M 16 0 A 16 16 0 0 0 0 16 A 16 16 0 0 0 16 32 A 16 16 0 0 0 32 16 A 16 16 0 0 0 16 0 z M 21.992188 4.5 A 0.50005 0.50005 0 0 1 22.353516 4.6464844 L 27.353516 9.6464844 A 0.50005 0.50005 0 0 1 27.353516 10.353516 L 20.707031 17 L 23.353516 19.646484 A 0.50005 0.50005 0 0 1 23.353516 20.353516 L 16.353516 27.353516 A 0.50005 0.50005 0 0 1 15.646484 27.353516 L 12.646484 24.353516 A 0.50005 0.50005 0 0 1 12.583984 23.722656 L 13.197266 22.802734 L 12.277344 23.416016 A 0.50005 0.50005 0 0 1 11.646484 23.353516 L 11.146484 22.853516 A 0.50005 0.50005 0 0 1 11.146484 22.146484 L 11.8125 21.480469 L 10.697266 21.958984 A 0.50005 0.50005 0 0 1 10.146484 21.853516 L 8.1464844 19.853516 L 4.6464844 16.353516 A 0.50005 0.50005 0 0 1 4.6464844 15.646484 L 11.646484 8.6464844 A 0.50005 0.50005 0 0 1 12.353516 8.6464844 L 15 11.292969 L 21.646484 4.6464844 A 0.50005 0.50005 0 0 1 21.992188 4.5 z "
     id="path4486" />
</svg>
