<?xml version="1.0" encoding="UTF-8" standalone="no"?>
<svg
   xmlns:dc="http://purl.org/dc/elements/1.1/"
   xmlns:cc="http://creativecommons.org/ns#"
   xmlns:rdf="http://www.w3.org/1999/02/22-rdf-syntax-ns#"
   xmlns:svg="http://www.w3.org/2000/svg"
   xmlns="http://www.w3.org/2000/svg"
   xmlns:xlink="http://www.w3.org/1999/xlink"
   xmlns:sodipodi="http://sodipodi.sourceforge.net/DTD/sodipodi-0.dtd"
   xmlns:inkscape="http://www.inkscape.org/namespaces/inkscape"
   height="32"
   width="32"
   version="1.1"
   id="svg5"
   sodipodi:docname="bleachbit.svg"
   inkscape:version="0.92.2 2405546, 2018-03-11">
  <metadata
     id="metadata9">
    <rdf:RDF>
      <cc:Work
         rdf:about="">
        <dc:format>image/svg+xml</dc:format>
        <dc:type
           rdf:resource="http://purl.org/dc/dcmitype/StillImage" />
        <dc:title></dc:title>
      </cc:Work>
    </rdf:RDF>
  </metadata>
  <defs
     id="defs7">
    <linearGradient
       inkscape:collect="always"
       id="linearGradient4492">
      <stop
         style="stop-color:#0064ff;stop-opacity:1"
         offset="0"
         id="stop4488" />
      <stop
         style="stop-color:#00c8ff;stop-opacity:1"
         offset="1"
         id="stop4490" />
    </linearGradient>
    <linearGradient
       inkscape:collect="always"
       xlink:href="#linearGradient4492"
       id="linearGradient4494"
       x1="0"
       y1="32"
       x2="32"
       y2="0"
       gradientUnits="userSpaceOnUse" />
  </defs>
  <sodipodi:namedview
     id="namedview1"
     showgrid="true"
     inkscape:zoom="20.85965"
     inkscape:cx="19.874341"
     inkscape:cy="17.906287"
     inkscape:window-width="1920"
     inkscape:window-height="1046"
     inkscape:window-x="0"
     inkscape:window-y="0"
     inkscape:window-maximized="1"
     inkscape:current-layer="svg5">
    <inkscape:grid
       type="xygrid"
       id="grid1px"
       empspacing="4" />
    <inkscape:grid
       type="xygrid"
       id="grid1pxdot"
       empspacing="1"
       dotted="true"
       originy="0.5"
       originx="0.5" />
  </sodipodi:namedview>
  <path
     style="opacity:1;fill:url(#linearGradient4494);fill-opacity:1;fill-rule:nonzero;stroke:none;stroke-width:1;stroke-linecap:round;stroke-linejoin:round;stroke-miterlimit:4;stroke-dasharray:none;stroke-dashoffset:0;stroke-opacity:1"
     d="M 16 0 A 16 16 0 0 0 0 16 A 16 16 0 0 0 16 32 A 16 16 0 0 0 32 16 A 16 16 0 0 0 16 0 z M 22.048828 4.5019531 A 0.50005 0.50005 0 0 1 22.353516 4.6464844 L 22.404297 4.6972656 A 13 13 0 0 0 22.048828 4.5019531 z M 27.283203 9.5761719 L 27.353516 9.6464844 A 0.50005 0.50005 0 0 1 27.496094 9.9492188 A 13 13 0 0 0 27.283203 9.5761719 z "
     id="path4486" />
  <path
     style="opacity:1;fill:#ffffff;fill-opacity:1;stroke:none;stroke-width:1;stroke-linecap:round;stroke-linejoin:round;stroke-miterlimit:4;stroke-dasharray:none;stroke-dashoffset:0;stroke-opacity:1;paint-order:normal"
     d="M 16 0 A 16 16 0 0 0 14.646484 0.068359375 A 16 16 0 0 1 16 0 z M 17.353516 0.068359375 A 16 16 0 0 1 18.166016 0.16601562 A 16 16 0 0 0 17.353516 0.068359375 z M 13.833984 0.16601562 A 16 16 0 0 0 13.056641 0.28320312 A 16 16 0 0 1 13.833984 0.16601562 z M 18.943359 0.28320312 A 16 16 0 0 1 19.751953 0.46484375 A 16 16 0 0 0 18.943359 0.28320312 z M 12.248047 0.46484375 A 16 16 0 0 0 11.511719 0.65429688 A 16 16 0 0 1 12.248047 0.46484375 z M 20.488281 0.65429688 A 16 16 0 0 1 21.277344 0.91601562 A 16 16 0 0 0 20.488281 0.65429688 z M 10.722656 0.91601562 A 16 16 0 0 0 9.9902344 1.1835938 A 16 16 0 0 1 10.722656 0.91601562 z M 22.009766 1.1835938 A 16 16 0 0 1 22.71875 1.5 A 16 16 0 0 0 22.009766 1.1835938 z M 9.28125 1.5 A 16 16 0 0 0 8.5273438 1.8632812 A 16 16 0 0 1 9.28125 1.5 z M 23.472656 1.8632812 A 16 16 0 0 1 24.150391 2.2519531 A 16 16 0 0 0 23.472656 1.8632812 z M 7.8496094 2.2519531 A 16 16 0 0 0 7.1738281 2.6679688 A 16 16 0 0 1 7.8496094 2.2519531 z M 24.826172 2.6679688 A 16 16 0 0 1 25.503906 3.1503906 A 16 16 0 0 0 24.826172 2.6679688 z M 6.4960938 3.1503906 A 16 16 0 0 0 5.8828125 3.6171875 A 16 16 0 0 1 6.4960938 3.1503906 z M 26.117188 3.6171875 A 16 16 0 0 1 26.722656 4.1503906 A 16 16 0 0 0 26.117188 3.6171875 z M 5.2773438 4.1503906 A 16 16 0 0 0 4.6933594 4.6933594 A 16 16 0 0 1 5.2773438 4.1503906 z M 21.992188 4.5 A 0.50005 0.50005 0 0 0 21.646484 4.6464844 L 15 11.292969 L 12.353516 8.6464844 A 0.50005 0.50005 0 0 0 11.646484 8.6464844 L 4.6464844 15.646484 A 0.50005 0.50005 0 0 0 4.6464844 16.353516 L 8.1464844 19.853516 L 10.146484 21.853516 A 0.50005 0.50005 0 0 0 10.697266 21.958984 L 11.8125 21.480469 L 11.146484 22.146484 A 0.50005 0.50005 0 0 0 11.146484 22.853516 L 11.646484 23.353516 A 0.50005 0.50005 0 0 0 12.277344 23.416016 L 13.197266 22.802734 L 12.583984 23.722656 A 0.50005 0.50005 0 0 0 12.646484 24.353516 L 15.646484 27.353516 A 0.50005 0.50005 0 0 0 16.353516 27.353516 L 23.353516 20.353516 A 0.50005 0.50005 0 0 0 23.353516 19.646484 L 20.707031 17 L 27.353516 10.353516 A 0.50005 0.50005 0 0 0 27.353516 9.6464844 L 22.353516 4.6464844 A 0.50005 0.50005 0 0 0 21.992188 4.5 z M 27.306641 4.6933594 A 16 16 0 0 1 27.849609 5.2773438 A 16 16 0 0 0 27.306641 4.6933594 z M 4.1503906 5.2773438 A 16 16 0 0 0 3.6171875 5.8828125 A 16 16 0 0 1 4.1503906 5.2773438 z M 28.382812 5.8828125 A 16 16 0 0 1 28.849609 6.4960938 A 16 16 0 0 0 28.382812 5.8828125 z M 3.1503906 6.4960938 A 16 16 0 0 0 2.6679688 7.1738281 A 16 16 0 0 1 3.1503906 6.4960938 z M 29.332031 7.1738281 A 16 16 0 0 1 29.748047 7.8496094 A 16 16 0 0 0 29.332031 7.1738281 z M 2.2519531 7.8496094 A 16 16 0 0 0 1.8632812 8.5273438 A 16 16 0 0 1 2.2519531 7.8496094 z M 30.136719 8.5273438 A 16 16 0 0 1 30.5 9.28125 A 16 16 0 0 0 30.136719 8.5273438 z M 1.5 9.28125 A 16 16 0 0 0 1.1835938 9.9902344 A 16 16 0 0 1 1.5 9.28125 z M 30.816406 9.9902344 A 16 16 0 0 1 31.083984 10.722656 A 16 16 0 0 0 30.816406 9.9902344 z M 0.91601562 10.722656 A 16 16 0 0 0 0.65429688 11.511719 A 16 16 0 0 1 0.91601562 10.722656 z M 31.345703 11.511719 A 16 16 0 0 1 31.535156 12.248047 A 16 16 0 0 0 31.345703 11.511719 z M 0.46484375 12.248047 A 16 16 0 0 0 0.28320312 13.056641 A 16 16 0 0 1 0.46484375 12.248047 z M 31.716797 13.056641 A 16 16 0 0 1 31.833984 13.833984 A 16 16 0 0 0 31.716797 13.056641 z M 0.16601562 13.833984 A 16 16 0 0 0 0.068359375 14.646484 A 16 16 0 0 1 0.16601562 13.833984 z M 31.931641 14.646484 A 16 16 0 0 1 32 16 A 16 16 0 0 0 31.931641 14.646484 z M 0 16 A 16 16 0 0 0 0.068359375 17.353516 A 16 16 0 0 1 0 16 z M 31.931641 17.353516 A 16 16 0 0 1 31.833984 18.166016 A 16 16 0 0 0 31.931641 17.353516 z M 0.16601562 18.166016 A 16 16 0 0 0 0.28320312 18.943359 A 16 16 0 0 1 0.16601562 18.166016 z M 31.716797 18.943359 A 16 16 0 0 1 31.535156 19.751953 A 16 16 0 0 0 31.716797 18.943359 z M 0.46484375 19.751953 A 16 16 0 0 0 0.65429688 20.488281 A 16 16 0 0 1 0.46484375 19.751953 z M 31.345703 20.488281 A 16 16 0 0 1 31.083984 21.277344 A 16 16 0 0 0 31.345703 20.488281 z M 0.91601562 21.277344 A 16 16 0 0 0 1.1835938 22.009766 A 16 16 0 0 1 0.91601562 21.277344 z M 30.816406 22.009766 A 16 16 0 0 1 30.5 22.71875 A 16 16 0 0 0 30.816406 22.009766 z M 1.5 22.71875 A 16 16 0 0 0 1.8632812 23.472656 A 16 16 0 0 1 1.5 22.71875 z M 30.136719 23.472656 A 16 16 0 0 1 29.748047 24.150391 A 16 16 0 0 0 30.136719 23.472656 z M 2.2519531 24.150391 A 16 16 0 0 0 2.6679688 24.826172 A 16 16 0 0 1 2.2519531 24.150391 z M 29.332031 24.826172 A 16 16 0 0 1 28.849609 25.503906 A 16 16 0 0 0 29.332031 24.826172 z M 3.1503906 25.503906 A 16 16 0 0 0 3.6171875 26.117188 A 16 16 0 0 1 3.1503906 25.503906 z M 28.382812 26.117188 A 16 16 0 0 1 27.849609 26.722656 A 16 16 0 0 0 28.382812 26.117188 z M 4.1503906 26.722656 A 16 16 0 0 0 4.6933594 27.306641 A 16 16 0 0 1 4.1503906 26.722656 z M 27.306641 27.306641 A 16 16 0 0 1 26.722656 27.849609 A 16 16 0 0 0 27.306641 27.306641 z M 5.2773438 27.849609 A 16 16 0 0 0 5.8828125 28.382812 A 16 16 0 0 1 5.2773438 27.849609 z M 26.117188 28.382812 A 16 16 0 0 1 25.503906 28.849609 A 16 16 0 0 0 26.117188 28.382812 z M 6.4960938 28.849609 A 16 16 0 0 0 7.1738281 29.332031 A 16 16 0 0 1 6.4960938 28.849609 z M 24.826172 29.332031 A 16 16 0 0 1 24.150391 29.748047 A 16 16 0 0 0 24.826172 29.332031 z M 7.8496094 29.748047 A 16 16 0 0 0 8.5273438 30.136719 A 16 16 0 0 1 7.8496094 29.748047 z M 23.472656 30.136719 A 16 16 0 0 1 22.71875 30.5 A 16 16 0 0 0 23.472656 30.136719 z M 9.28125 30.5 A 16 16 0 0 0 9.9902344 30.816406 A 16 16 0 0 1 9.28125 30.5 z M 22.009766 30.816406 A 16 16 0 0 1 21.277344 31.083984 A 16 16 0 0 0 22.009766 30.816406 z M 10.722656 31.083984 A 16 16 0 0 0 11.511719 31.345703 A 16 16 0 0 1 10.722656 31.083984 z M 20.488281 31.345703 A 16 16 0 0 1 19.751953 31.535156 A 16 16 0 0 0 20.488281 31.345703 z M 12.248047 31.535156 A 16 16 0 0 0 13.056641 31.716797 A 16 16 0 0 1 12.248047 31.535156 z M 18.943359 31.716797 A 16 16 0 0 1 18.166016 31.833984 A 16 16 0 0 0 18.943359 31.716797 z M 13.833984 31.833984 A 16 16 0 0 0 14.646484 31.931641 A 16 16 0 0 1 13.833984 31.833984 z M 17.353516 31.931641 A 16 16 0 0 1 16 32 A 16 16 0 0 0 17.353516 31.931641 z "
     id="path818" />
</svg>
