<?xml version="1.0" encoding="UTF-8" standalone="no"?>
<svg
   xmlns:dc="http://purl.org/dc/elements/1.1/"
   xmlns:cc="http://creativecommons.org/ns#"
   xmlns:rdf="http://www.w3.org/1999/02/22-rdf-syntax-ns#"
   xmlns:svg="http://www.w3.org/2000/svg"
   xmlns="http://www.w3.org/2000/svg"
   xmlns:xlink="http://www.w3.org/1999/xlink"
   xmlns:sodipodi="http://sodipodi.sourceforge.net/DTD/sodipodi-0.dtd"
   xmlns:inkscape="http://www.inkscape.org/namespaces/inkscape"
   height="32"
   width="32"
   version="1.1"
   id="svg5"
   sodipodi:docname="camera.svg"
   inkscape:version="1.0.2 (e86c870879, 2021-01-15)">
  <metadata
     id="metadata9">
    <rdf:RDF>
      <cc:Work
         rdf:about="">
        <dc:format>image/svg+xml</dc:format>
        <dc:type
           rdf:resource="http://purl.org/dc/dcmitype/StillImage" />
        <dc:title></dc:title>
      </cc:Work>
    </rdf:RDF>
  </metadata>
  <defs
     id="defs7">
    <linearGradient
       inkscape:collect="always"
       id="linearGradient4492">
      <stop
         style="stop-color:#006464;stop-opacity:1"
         offset="0"
         id="stop4488" />
      <stop
         style="stop-color:#00c8c8;stop-opacity:1"
         offset="1"
         id="stop4490" />
    </linearGradient>
    <linearGradient
       inkscape:collect="always"
       xlink:href="#linearGradient4492"
       id="linearGradient4494"
       x1="0"
       y1="32"
       x2="32"
       y2="0"
       gradientUnits="userSpaceOnUse" />
    <linearGradient
       inkscape:collect="always"
       xlink:href="#linearGradient4492"
       id="linearGradient4494-1"
       x1="0"
       y1="32"
       x2="32"
       y2="0"
       gradientUnits="userSpaceOnUse"
       gradientTransform="matrix(0.5625,0,0,0.5625,7,7)" />
    <linearGradient
       inkscape:collect="always"
       xlink:href="#linearGradient4492"
       id="linearGradient4537"
       gradientUnits="userSpaceOnUse"
       x1="0"
       y1="32"
       x2="32"
       y2="0" />
  </defs>
  <sodipodi:namedview
     id="namedview1"
     showgrid="true"
     inkscape:zoom="20.85965"
     inkscape:cx="7.8048404"
     inkscape:cy="13.437603"
     inkscape:window-width="1920"
     inkscape:window-height="1044"
     inkscape:window-x="6400"
     inkscape:window-y="720"
     inkscape:window-maximized="1"
     inkscape:current-layer="svg5"
     inkscape:document-rotation="0">
    <inkscape:grid
       type="xygrid"
       id="grid1px"
       empspacing="4" />
    <inkscape:grid
       type="xygrid"
       id="grid1pxdot"
       empspacing="1"
       dotted="true"
       originy="0.5"
       originx="0.5" />
  </sodipodi:namedview>
  <path
     id="path4486"
     style="opacity:1;fill:url(#linearGradient4537);fill-opacity:1;fill-rule:nonzero;stroke:none;stroke-width:1;stroke-linecap:round;stroke-linejoin:round;stroke-miterlimit:4;stroke-dasharray:none;stroke-dashoffset:0;stroke-opacity:1"
     d="M 16 0 A 16 16 0 0 0 0 16 A 16 16 0 0 0 16 32 A 16 16 0 0 0 32 16 A 16 16 0 0 0 16 0 z " />
  <path
     id="path841"
     style="fill:#ffffff;fill-opacity:1;stroke-width:1.00157;stroke-linecap:round;stroke-linejoin:round"
     d="M 14,8 A 8,8 0 0 0 8.0859375,10.613281 L 11.5,15.166016 16.558594,8.4199219 A 8,8 0 0 0 14,8 Z M 17.515625,8.8144531 14,13.5 h 7.597656 A 8,8 0 0 0 17.515625,8.8144531 Z M 7.4414062,11.421875 A 8,8 0 0 0 6,16 8,8 0 0 0 6.1425781,17.5 H 12 Z M 16,14.5 20.558594,20.578125 A 8,8 0 0 0 22,16 8,8 0 0 0 21.857422,14.5 Z m 0.5,2.333984 -5.058594,6.746094 A 8,8 0 0 0 14,24 8,8 0 0 0 19.914062,21.386719 Z M 6.4023438,18.5 a 8,8 0 0 0 4.0820312,4.685547 L 14,18.5 Z" />
  <path
     id="rect890"
     style="color:#000000;font-style:normal;font-variant:normal;font-weight:normal;font-stretch:normal;font-size:medium;line-height:normal;font-family:sans-serif;font-variant-ligatures:normal;font-variant-position:normal;font-variant-caps:normal;font-variant-numeric:normal;font-variant-alternates:normal;font-variant-east-asian:normal;font-feature-settings:normal;font-variation-settings:normal;text-indent:0;text-align:start;text-decoration:none;text-decoration-line:none;text-decoration-style:solid;text-decoration-color:#000000;letter-spacing:normal;word-spacing:normal;text-transform:none;writing-mode:lr-tb;direction:ltr;text-orientation:mixed;dominant-baseline:auto;baseline-shift:baseline;text-anchor:start;white-space:normal;shape-padding:0;shape-margin:0;inline-size:0;clip-rule:nonzero;display:inline;overflow:visible;visibility:visible;isolation:auto;mix-blend-mode:normal;color-interpolation:sRGB;color-interpolation-filters:linearRGB;solid-color:#000000;solid-opacity:1;vector-effect:none;fill:#ffffff;fill-opacity:1;fill-rule:nonzero;stroke:none;stroke-linecap:round;stroke-linejoin:round;stroke-miterlimit:4;stroke-dasharray:none;stroke-dashoffset:0;stroke-opacity:1;color-rendering:auto;image-rendering:auto;shape-rendering:auto;text-rendering:auto;enable-background:accumulate;stop-color:#000000;stop-opacity:1;opacity:1"
     d="M 3.5 11 A 0.50083507 0.50083507 0 0 0 3 11.5 L 3 20.5 A 0.50083507 0.50083507 0 0 0 3.5 21 L 6.515625 21 A 9 9 0 0 1 5.9394531 20 L 4 20 L 4 12 L 5.9394531 12 A 9 9 0 0 1 6.5175781 11 L 3.5 11 z M 21.484375 11 A 9 9 0 0 1 22.060547 12 L 29 12 L 29 20 L 22.060547 20 A 9 9 0 0 1 21.482422 21 L 29.5 21 A 0.50083507 0.50083507 0 0 0 30 20.5 L 30 11.5 A 0.50083507 0.50083507 0 0 0 29.5 11 L 21.484375 11 z " />
</svg>
