<?xml version="1.0" encoding="UTF-8" standalone="no"?>
<svg
   xmlns:dc="http://purl.org/dc/elements/1.1/"
   xmlns:cc="http://creativecommons.org/ns#"
   xmlns:rdf="http://www.w3.org/1999/02/22-rdf-syntax-ns#"
   xmlns:svg="http://www.w3.org/2000/svg"
   xmlns="http://www.w3.org/2000/svg"
   xmlns:xlink="http://www.w3.org/1999/xlink"
   xmlns:sodipodi="http://sodipodi.sourceforge.net/DTD/sodipodi-0.dtd"
   xmlns:inkscape="http://www.inkscape.org/namespaces/inkscape"
   height="32"
   width="32"
   version="1.1"
   id="svg5"
   sodipodi:docname="clementine.svg"
   inkscape:version="0.92.0 r">
  <metadata
     id="metadata9">
    <rdf:RDF>
      <cc:Work
         rdf:about="">
        <dc:format>image/svg+xml</dc:format>
        <dc:type
           rdf:resource="http://purl.org/dc/dcmitype/StillImage" />
        <dc:title></dc:title>
      </cc:Work>
    </rdf:RDF>
  </metadata>
  <defs
     id="defs7">
    <linearGradient
       inkscape:collect="always"
       id="linearGradient4492">
      <stop
         style="stop-color:#ff6400;stop-opacity:1"
         offset="0"
         id="stop4488" />
      <stop
         style="stop-color:#ffc800;stop-opacity:1"
         offset="1"
         id="stop4490" />
    </linearGradient>
    <linearGradient
       inkscape:collect="always"
       xlink:href="#linearGradient4492"
       id="linearGradient4494"
       x1="0"
       y1="32"
       x2="32"
       y2="0"
       gradientUnits="userSpaceOnUse"
       gradientTransform="rotate(-48.628408,16,16.019647)" />
  </defs>
  <sodipodi:namedview
     id="namedview1"
     showgrid="true"
     inkscape:zoom="14.75"
     inkscape:cx="19.252453"
     inkscape:cy="8.549582"
     inkscape:window-width="1680"
     inkscape:window-height="1016"
     inkscape:window-x="0"
     inkscape:window-y="0"
     inkscape:window-maximized="1"
     inkscape:current-layer="svg5">
    <inkscape:grid
       type="xygrid"
       id="grid1px"
       empspacing="4" />
    <inkscape:grid
       type="xygrid"
       id="grid1pxdot"
       empspacing="1"
       dotted="true"
       originy="0.5"
       originx="0.5" />
  </sodipodi:namedview>
  <path
     style="opacity:1;fill:url(#linearGradient4494);fill-opacity:1;fill-rule:nonzero;stroke:none;stroke-width:1;stroke-linecap:round;stroke-linejoin:round;stroke-miterlimit:4;stroke-dasharray:none;stroke-dashoffset:0;stroke-opacity:1"
     d="M 3.3172946,6.1820624 A 3.5,3.5 0 0 0 2.7325845,7.1089503 16,16 0 0 0 5.4102184,28.013683 16,16 0 0 0 26.532313,28 a 3.5,3.5 0 0 0 0.799025,-0.667862 3.5,3.5 0 0 0 0.23801,-0.3057 16,16 0 0 0 0.07927,-0.08114 l -0.01759,-0.01549 A 3.5,3.5 0 0 0 27.018092,22.392313 3.5,3.5 0 0 0 23.289921,21.823329 12,12 0 0 1 13.341497,19.008417 12,12 0 0 1 9.3030467,9.46552 3.5,3.5 0 0 0 8.2571202,5.8688159 3.5,3.5 0 0 0 3.3172946,6.1820624 Z"
     id="path4486"
     inkscape:connector-curvature="0"
     inkscape:transform-center-x="1.8838483"
     inkscape:transform-center-y="2.4914342" />
</svg>
