<?xml version="1.0" encoding="UTF-8" standalone="no"?>
<svg
   xmlns:dc="http://purl.org/dc/elements/1.1/"
   xmlns:cc="http://creativecommons.org/ns#"
   xmlns:rdf="http://www.w3.org/1999/02/22-rdf-syntax-ns#"
   xmlns:svg="http://www.w3.org/2000/svg"
   xmlns="http://www.w3.org/2000/svg"
   xmlns:xlink="http://www.w3.org/1999/xlink"
   xmlns:sodipodi="http://sodipodi.sourceforge.net/DTD/sodipodi-0.dtd"
   xmlns:inkscape="http://www.inkscape.org/namespaces/inkscape"
   height="32"
   width="32"
   version="1.1"
   id="svg5"
   sodipodi:docname="discord.svg"
   inkscape:version="0.92.2 2405546, 2018-03-11">
  <metadata
     id="metadata9">
    <rdf:RDF>
      <cc:Work
         rdf:about="">
        <dc:format>image/svg+xml</dc:format>
        <dc:type
           rdf:resource="http://purl.org/dc/dcmitype/StillImage" />
        <dc:title></dc:title>
      </cc:Work>
    </rdf:RDF>
  </metadata>
  <defs
     id="defs7">
    <linearGradient
       id="linearGradient1484"
       inkscape:collect="always">
      <stop
         id="stop1480"
         offset="0"
         style="stop-color:#18275d;stop-opacity:1" />
      <stop
         id="stop1482"
         offset="1"
         style="stop-color:#6d84d7;stop-opacity:1" />
    </linearGradient>
    <inkscape:path-effect
       effect="spiro"
       id="path-effect846"
       is_visible="true" />
    <linearGradient
       inkscape:collect="always"
       id="linearGradient825">
      <stop
         style="stop-color:#2d47a9;stop-opacity:1"
         offset="0"
         id="stop821" />
      <stop
         style="stop-color:#b9c4ec;stop-opacity:1"
         offset="1"
         id="stop823" />
    </linearGradient>
    <linearGradient
       inkscape:collect="always"
       xlink:href="#linearGradient825"
       id="linearGradient827"
       x1="0"
       y1="32"
       x2="32"
       y2="0"
       gradientUnits="userSpaceOnUse" />
    <linearGradient
       inkscape:collect="always"
       xlink:href="#linearGradient825"
       id="linearGradient833"
       gradientUnits="userSpaceOnUse"
       x1="0"
       y1="32"
       x2="32"
       y2="0" />
    <linearGradient
       inkscape:collect="always"
       xlink:href="#linearGradient1484"
       id="linearGradient865"
       gradientUnits="userSpaceOnUse"
       x1="0"
       y1="32"
       x2="32"
       y2="0" />
    <linearGradient
       inkscape:collect="always"
       xlink:href="#linearGradient825"
       id="linearGradient836"
       gradientUnits="userSpaceOnUse"
       x1="0"
       y1="32"
       x2="32"
       y2="0" />
  </defs>
  <sodipodi:namedview
     id="namedview1"
     showgrid="true"
     showguides="false"
     inkscape:zoom="10.429825"
     inkscape:cx="12.027268"
     inkscape:cy="13.167188"
     inkscape:window-width="1920"
     inkscape:window-height="1046"
     inkscape:window-x="0"
     inkscape:window-y="0"
     inkscape:window-maximized="1"
     inkscape:current-layer="svg5">
    <inkscape:grid
       type="xygrid"
       id="grid1px"
       empspacing="4" />
    <inkscape:grid
       type="xygrid"
       id="grid1pxdot"
       empspacing="1"
       dotted="true"
       originy="0.5"
       originx="0.5" />
  </sodipodi:namedview>
  <path
     style="opacity:1;fill:url(#linearGradient836);fill-opacity:1.0;stroke:none;stroke-width:2;stroke-linecap:round;stroke-linejoin:round;stroke-miterlimit:4;stroke-dasharray:none;stroke-opacity:1;paint-order:normal"
     d="M 5.4550781 28 A 16 16 0 0 0 16 32 A 16 16 0 0 0 17.871094 31.871094 A 16 16 0 0 0 21.125 31.125 L 18 28 L 14 28 L 5.4550781 28 z "
     id="path834" />
  <path
     style="opacity:1;fill:url(#linearGradient865);fill-opacity:1;stroke:none;stroke-width:2;stroke-linecap:round;stroke-linejoin:round;stroke-miterlimit:4;stroke-dasharray:none;stroke-opacity:1;paint-order:normal"
     d="M 5.4550781 4 A 16 16 0 0 0 2.1601562 8 A 16 16 0 0 0 0 16 A 16 16 0 0 0 2.1601562 24 A 16 16 0 0 0 5.4550781 28 L 14 28 L 18 28 L 21.125 31.125 A 16 16 0 0 0 22.564453 30.564453 A 16 16 0 0 0 24 29.828125 A 16 16 0 0 0 26.544922 28 A 16 16 0 0 0 29.833984 24 A 16 16 0 0 0 32 16 A 16 16 0 0 0 29.833984 8 A 16 16 0 0 0 26.539062 4 L 5.4550781 4 z "
     id="path833" />
  <path
     style="opacity:1;fill:url(#linearGradient833);fill-opacity:1;stroke:none;stroke-width:2;stroke-linecap:round;stroke-linejoin:round;stroke-miterlimit:4;stroke-dasharray:none;stroke-opacity:1;paint-order:normal"
     d="M 16 0 A 16 16 0 0 0 5.4550781 4 L 26.539062 4 A 16 16 0 0 0 16 0 z "
     id="path819" />
  <path
     style="opacity:1;fill:#ffffff;fill-opacity:1;stroke:none;stroke-width:2.65212607;stroke-linecap:round;stroke-linejoin:round;stroke-miterlimit:4;stroke-dasharray:none;stroke-opacity:1;paint-order:normal"
     d="m 13.412623,9.1677268 c 0,0 -2.228726,-0.047539 -4.5712922,1.7093792 0,0 -2.3413292,4.246222 -2.3413292,9.484458 0,0 1.3645976,2.356959 4.9597864,2.470828 0,0 0.60234,-0.731196 1.090375,-1.349372 -2.066014,-0.618179 -2.8463728,-1.919166 -2.8463728,-1.919166 0,0 0.1630209,0.114505 0.4558338,0.277127 0.01628,0.01627 0.03222,0.0303 0.06475,0.04663 0.0488,0.03254 0.09623,0.05035 0.145038,0.08288 0.406696,0.22775 0.814634,0.405256 1.188794,0.551662 0.66698,0.260285 1.463274,0.522927 2.390541,0.701881 1.220085,0.227805 2.652163,0.308361 4.213875,0.01554 0.764587,-0.13014 1.546068,-0.357667 2.35946,-0.699291 0.569373,-0.211482 1.202975,-0.521645 1.869956,-0.960877 0,0 -0.813707,1.335388 -2.944792,1.937294 0.488035,0.618179 1.074836,1.315704 1.074836,1.315704 C 24.11727,22.71853 25.5,20.361571 25.5,20.361571 25.5,15.123334 23.15608,10.877112 23.15608,10.877112 20.813514,9.1201927 18.584788,9.1677334 18.584788,9.1677334 l -0.227915,0.2615872 c 2.765528,0.8459264 4.050707,2.0642044 4.050707,2.0642044 -1.691852,-0.927266 -3.349594,-1.382796 -4.895037,-1.5617512 -1.171281,-0.1301398 -2.294332,-0.096471 -3.286668,0.033669 -0.09761,0 -0.179515,0.017345 -0.277126,0.033669 -0.569373,0.048799 -1.950046,0.2584492 -3.690703,1.0230372 -0.6019092,0.276552 -0.9608784,0.471374 -0.9608784,0.471374 0,0 1.3504094,-1.283025 4.2786254,-2.1289523 z m -0.455834,6.0682922 c 0.927266,0 1.676492,0.812868 1.660168,1.805207 0,0.992337 -0.732902,1.805208 -1.660168,1.805208 -0.910999,-10e-7 -1.660169,-0.812871 -1.660169,-1.805208 0,-0.992339 0.732903,-1.805207 1.660169,-1.805207 z m 5.938794,0 c 0.927263,0 1.657579,0.812868 1.657579,1.805207 0,0.992337 -0.730314,1.805208 -1.657579,1.805208 -0.910999,-10e-7 -1.66017,-0.812871 -1.66017,-1.805208 0,-0.992339 0.732903,-1.805207 1.66017,-1.805207 z"
     id="rect1477"
     inkscape:connector-curvature="0" />
</svg>
