<?xml version="1.0" encoding="UTF-8" standalone="no"?>
<svg
   xmlns:dc="http://purl.org/dc/elements/1.1/"
   xmlns:cc="http://creativecommons.org/ns#"
   xmlns:rdf="http://www.w3.org/1999/02/22-rdf-syntax-ns#"
   xmlns:svg="http://www.w3.org/2000/svg"
   xmlns="http://www.w3.org/2000/svg"
   xmlns:xlink="http://www.w3.org/1999/xlink"
   xmlns:sodipodi="http://sodipodi.sourceforge.net/DTD/sodipodi-0.dtd"
   xmlns:inkscape="http://www.inkscape.org/namespaces/inkscape"
   height="32"
   width="32"
   id="svg2"
   version="1.1"
   inkscape:version="0.91 r13725"
   sodipodi:docname="geogebra.svg">
  <metadata
     id="metadata9">
    <rdf:RDF>
      <cc:Work
         rdf:about="">
        <dc:format>image/svg+xml</dc:format>
        <dc:type
           rdf:resource="http://purl.org/dc/dcmitype/StillImage" />
        <dc:title></dc:title>
      </cc:Work>
    </rdf:RDF>
  </metadata>
  <defs
     id="defs7">
    <linearGradient
       inkscape:collect="always"
       id="linearGradient4141">
      <stop
         style="stop-color:#6400ff;stop-opacity:1"
         offset="0"
         id="stop4143" />
      <stop
         style="stop-color:#6464ff;stop-opacity:1"
         offset="1"
         id="stop4145" />
    </linearGradient>
    <linearGradient
       inkscape:collect="always"
       xlink:href="#linearGradient4141"
       id="linearGradient4147"
       x1="-5.1509972"
       y1="25.019337"
       x2="27.778414"
       y2="14.172499"
       gradientUnits="userSpaceOnUse"
       gradientTransform="matrix(0.96592583,-0.25881905,0.25881905,0.96592583,0,0)" />
  </defs>
  <sodipodi:namedview
     id="namedview1"
     showgrid="true"
     inkscape:zoom="14.75"
     inkscape:cx="17.046655"
     inkscape:cy="15.610297"
     inkscape:window-width="1280"
     inkscape:window-height="766"
     inkscape:window-x="1680"
     inkscape:window-y="250"
     inkscape:window-maximized="1"
     inkscape:current-layer="svg2">
    <inkscape:grid
       type="xygrid"
       id="grid1px"
       empspacing="4" />
    <inkscape:grid
       type="xygrid"
       id="grid1pxdot"
       empspacing="1"
       dotted="true"
       originy="0.5"
       originx="0.5" />
  </sodipodi:namedview>
  <path
     style="opacity:0.98999999;fill:url(#linearGradient4147);fill-opacity:1;fill-rule:nonzero;stroke:none;stroke-width:1;stroke-linecap:round;stroke-linejoin:round;stroke-miterlimit:4;stroke-dasharray:none;stroke-dashoffset:0;stroke-opacity:1"
     d="M 20 4.5 A 2 2 0 0 0 18 6.5 A 2 2 0 0 0 20 8.5 A 2 2 0 0 0 22 6.5 A 2 2 0 0 0 20 4.5 z M 17.015625 6.6621094 A 9 15 75 0 0 13.669922 7.3066406 A 9 15 75 0 0 9.4960938 8.8515625 C 9.8121419 9.3263653 10 9.8924006 10 10.5 C 10 12.14501 8.6450096 13.5 7 13.5 C 5.9817585 13.5 5.0766332 12.979107 4.5332031 12.193359 A 9 15 75 0 0 1.5117188 19.882812 A 9 15 75 0 0 2.078125 21.222656 C 2.6015935 20.779328 3.2674802 20.5 4 20.5 C 5.6450096 20.5 7 21.85499 7 23.5 C 7 23.916831 6.9105796 24.31352 6.7539062 24.675781 A 9 15 75 0 0 15.130859 25.322266 C 15.054221 25.058886 15 24.786622 15 24.5 C 15 22.85499 16.35499 21.5 18 21.5 C 19.417138 21.5 20.614132 22.507576 20.919922 23.837891 A 9 15 75 0 0 27.789062 19.503906 C 27.304391 18.970185 27 18.270119 27 17.5 C 27 15.85499 28.35499 14.5 30 14.5 C 30.195579 14.5 30.386675 14.520124 30.572266 14.556641 A 9 15 75 0 0 30.488281 12.117188 A 9 15 75 0 0 22.974609 6.7519531 C 22.842924 8.279295 21.558886 9.5 20 9.5 C 18.410379 9.5 17.102633 8.2316908 17.015625 6.6621094 z M 7 8.5 A 2 2 0 0 0 5 10.5 A 2 2 0 0 0 7 12.5 A 2 2 0 0 0 9 10.5 A 2 2 0 0 0 7 8.5 z M 30 15.5 A 2 2 0 0 0 28 17.5 A 2 2 0 0 0 30 19.5 A 2 2 0 0 0 32 17.5 A 2 2 0 0 0 30 15.5 z M 4 21.5 A 2 2 0 0 0 2 23.5 A 2 2 0 0 0 4 25.5 A 2 2 0 0 0 6 23.5 A 2 2 0 0 0 4 21.5 z M 18 22.5 A 2 2 0 0 0 16 24.5 A 2 2 0 0 0 18 26.5 A 2 2 0 0 0 20 24.5 A 2 2 0 0 0 18 22.5 z "
     id="path4139" />
</svg>
