<?xml version="1.0" encoding="UTF-8" standalone="no"?>
<svg
   xmlns:dc="http://purl.org/dc/elements/1.1/"
   xmlns:cc="http://creativecommons.org/ns#"
   xmlns:rdf="http://www.w3.org/1999/02/22-rdf-syntax-ns#"
   xmlns:svg="http://www.w3.org/2000/svg"
   xmlns="http://www.w3.org/2000/svg"
   xmlns:xlink="http://www.w3.org/1999/xlink"
   xmlns:sodipodi="http://sodipodi.sourceforge.net/DTD/sodipodi-0.dtd"
   xmlns:inkscape="http://www.inkscape.org/namespaces/inkscape"
   height="32"
   width="32"
   version="1.1"
   id="svg5"
   sodipodi:docname="idea.svg"
   inkscape:version="0.92.2 2405546, 2018-03-11">
  <metadata
     id="metadata9">
    <rdf:RDF>
      <cc:Work
         rdf:about="">
        <dc:format>image/svg+xml</dc:format>
        <dc:type
           rdf:resource="http://purl.org/dc/dcmitype/StillImage" />
        <dc:title></dc:title>
      </cc:Work>
    </rdf:RDF>
  </metadata>
  <defs
     id="defs7">
    <linearGradient
       inkscape:collect="always"
       id="linearGradient888">
      <stop
         style="stop-color:#0064ff;stop-opacity:1"
         offset="0"
         id="stop884" />
      <stop
         style="stop-color:#00c8ff;stop-opacity:1"
         offset="1"
         id="stop886" />
    </linearGradient>
    <linearGradient
       inkscape:collect="always"
       id="linearGradient880">
      <stop
         style="stop-color:#6400ff;stop-opacity:1"
         offset="0"
         id="stop876" />
      <stop
         style="stop-color:#c800ff;stop-opacity:1"
         offset="1"
         id="stop878" />
    </linearGradient>
    <linearGradient
       inkscape:collect="always"
       id="linearGradient872">
      <stop
         style="stop-color:#ff6400;stop-opacity:1"
         offset="0"
         id="stop868" />
      <stop
         style="stop-color:#ffc800;stop-opacity:1"
         offset="1"
         id="stop870" />
    </linearGradient>
    <linearGradient
       inkscape:collect="always"
       id="linearGradient864">
      <stop
         style="stop-color:#ff6464;stop-opacity:1"
         offset="0"
         id="stop860" />
      <stop
         style="stop-color:#ff64c8;stop-opacity:0.99607843"
         offset="1"
         id="stop862" />
    </linearGradient>
    <linearGradient
       inkscape:collect="always"
       xlink:href="#linearGradient864"
       id="linearGradient866"
       x1="0"
       y1="32"
       x2="32"
       y2="0"
       gradientUnits="userSpaceOnUse" />
    <linearGradient
       inkscape:collect="always"
       xlink:href="#linearGradient872"
       id="linearGradient874"
       x1="0"
       y1="32"
       x2="32"
       y2="0"
       gradientUnits="userSpaceOnUse" />
    <linearGradient
       inkscape:collect="always"
       xlink:href="#linearGradient880"
       id="linearGradient882"
       x1="0"
       y1="32"
       x2="32"
       y2="0"
       gradientUnits="userSpaceOnUse" />
    <linearGradient
       inkscape:collect="always"
       xlink:href="#linearGradient888"
       id="linearGradient890"
       x1="0"
       y1="32"
       x2="32"
       y2="0"
       gradientUnits="userSpaceOnUse" />
  </defs>
  <sodipodi:namedview
     id="namedview1"
     showgrid="true"
     showguides="true"
     inkscape:zoom="14.75"
     inkscape:cx="4.6057151"
     inkscape:cy="16.267901"
     inkscape:window-width="1920"
     inkscape:window-height="1046"
     inkscape:window-x="0"
     inkscape:window-y="0"
     inkscape:window-maximized="1"
     inkscape:current-layer="svg5">
    <inkscape:grid
       type="xygrid"
       id="grid1px"
       empspacing="4" />
    <inkscape:grid
       type="xygrid"
       id="grid1pxdot"
       empspacing="1"
       dotted="true"
       originy="0.5"
       originx="0.5" />
  </sodipodi:namedview>
  <path
     style="opacity:1;fill:url(#linearGradient866);fill-opacity:1;stroke:none;stroke-width:1;stroke-linecap:round;stroke-linejoin:round;stroke-miterlimit:4;stroke-dasharray:none;stroke-dashoffset:0;stroke-opacity:1;paint-order:normal"
     d="M 16.880859 0.044921875 A 16 16 0 0 0 16 0 A 16 16 0 0 0 0.033203125 15.328125 L 11.5 20 L 23.5 9.5 L 16.880859 0.044921875 z "
     id="path852" />
  <path
     style="opacity:1;fill:url(#linearGradient874);fill-opacity:1;stroke:none;stroke-width:1;stroke-linecap:round;stroke-linejoin:round;stroke-miterlimit:4;stroke-dasharray:none;stroke-dashoffset:0;stroke-opacity:1;paint-order:normal"
     d="M 6.4121094 28.789062 L 11.5 20 L 0.033203125 15.328125 A 16 16 0 0 0 0 16 A 16 16 0 0 0 6.4121094 28.789062 z "
     id="path855" />
  <path
     style="opacity:1;fill:url(#linearGradient882);fill-opacity:1;stroke:none;stroke-width:1;stroke-linecap:round;stroke-linejoin:round;stroke-miterlimit:4;stroke-dasharray:none;stroke-dashoffset:0;stroke-opacity:1;paint-order:normal"
     d="M 21.888672 30.861328 L 11.5 20 L 6.4121094 28.789062 A 16 16 0 0 0 16 32 A 16 16 0 0 0 21.888672 30.861328 z "
     id="path858" />
  <path
     style="opacity:1;fill:url(#linearGradient890);fill-opacity:1;stroke:none;stroke-width:1;stroke-linecap:round;stroke-linejoin:round;stroke-miterlimit:4;stroke-dasharray:none;stroke-dashoffset:0;stroke-opacity:1;paint-order:normal"
     d="M 16.880859 0.044921875 L 23.5 9.5 L 11.5 20 L 21.888672 30.861328 A 16 16 0 0 0 32 16 A 16 16 0 0 0 16.880859 0.044921875 z "
     id="path843" />
  <path
     style="opacity:1;fill:#000000;fill-opacity:1;stroke:none;stroke-width:1;stroke-linecap:round;stroke-linejoin:round;stroke-miterlimit:4;stroke-dasharray:none;stroke-dashoffset:0;stroke-opacity:1;paint-order:normal"
     d="M 12 10 C 10.892 10 10 10.892 10 12 L 10 30 C 10 30.327135 10.084541 30.630265 10.222656 30.902344 A 16 16 0 0 0 16 32 A 16 16 0 0 0 32 16 A 16 16 0 0 0 30.921875 10.234375 C 30.644874 10.08974 30.335294 10 30 10 L 12 10 z "
     id="rect894-6" />
  <g
     aria-label="IJ"
     style="font-style:normal;font-variant:normal;font-weight:normal;font-stretch:normal;font-size:15.5550251px;line-height:1.25;font-family:Contemporary;-inkscape-font-specification:Contemporary;letter-spacing:0px;word-spacing:0px;fill:#ffffff;fill-opacity:1;stroke:none;stroke-width:1"
     id="text923">
    <path
       d="m 14.230145,23.117332 q -0.171105,0 -0.295545,-0.12444 -0.12444,-0.12444 -0.12444,-0.295545 V 12.648801 q 0,-0.171106 0.12444,-0.295546 0.12444,-0.12444 0.295545,-0.12444 h 0.637756 q 0.171106,0 0.295546,0.12444 0.12444,0.12444 0.12444,0.295546 v 10.048546 q 0,0.171105 -0.12444,0.295545 -0.12444,0.12444 -0.295546,0.12444 z"
       style="stroke-width:1"
       id="path929" />
    <path
       d="m 23.696593,12.648801 q 0,0 0,6.486445 0,1.337732 -0.606646,2.037708 -0.591091,0.699976 -1.913268,0.699976 -1.135517,0 -1.742163,-0.544425 -0.591091,-0.513316 -0.793306,-1.415508 -0.07778,-0.34221 -0.342211,-0.34221 h -0.793306 q -0.139995,0 -0.24888,0.108885 -0.09333,0.09333 -0.09333,0.233325 0,0.839972 0.513316,1.648833 0.482206,0.777751 1.384398,1.244402 0.902191,0.466651 2.115483,0.466651 1.913268,0 2.955455,-1.073297 1.042186,-1.088852 1.042186,-2.893235 v -6.65755 q 0,-0.171106 -0.12444,-0.295546 -0.12444,-0.12444 -0.295545,-0.12444 h -0.637756 l -0.202216,0.12444 q -0.21777,0.12444 -0.21777,0.295546 z"
       style="stroke-width:1"
       id="path931" />
  </g>
  <g
     aria-label="_"
     transform="scale(1,-1)"
     style="font-style:normal;font-variant:normal;font-weight:normal;font-stretch:normal;font-size:16.44777679px;line-height:1.25;font-family:Contemporary;-inkscape-font-specification:Contemporary;letter-spacing:0px;word-spacing:0px;fill:#ffffff;fill-opacity:1;stroke:none;stroke-width:0.99999994"
     id="text927">
    <path
       d="m 13.651546,-25.83935 q -0.180925,0 -0.312507,-0.131582 -0.131583,-0.131582 -0.131583,-0.312508 v -0.526329 q 0,-0.180925 0.131583,-0.312507 0.131582,-0.131583 0.312507,-0.131583 h 9.457472 q 0.180926,0 0.312508,0.131583 0.131582,0.131582 0.131582,0.312507 v 0.526329 q 0,0.180926 -0.131582,0.312508 -0.131582,0.131582 -0.312508,0.131582 z"
       style="stroke-width:0.99999994"
       id="path934" />
  </g>
</svg>
