<?xml version="1.0" encoding="UTF-8" standalone="no"?>
<svg
   xmlns:dc="http://purl.org/dc/elements/1.1/"
   xmlns:cc="http://creativecommons.org/ns#"
   xmlns:rdf="http://www.w3.org/1999/02/22-rdf-syntax-ns#"
   xmlns:svg="http://www.w3.org/2000/svg"
   xmlns="http://www.w3.org/2000/svg"
   xmlns:xlink="http://www.w3.org/1999/xlink"
   xmlns:sodipodi="http://sodipodi.sourceforge.net/DTD/sodipodi-0.dtd"
   xmlns:inkscape="http://www.inkscape.org/namespaces/inkscape"
   height="32"
   width="32"
   id="svg2"
   version="1.1"
   inkscape:version="0.91 r13725"
   sodipodi:docname="kalzium.svg">
  <metadata
     id="metadata9">
    <rdf:RDF>
      <cc:Work
         rdf:about="">
        <dc:format>image/svg+xml</dc:format>
        <dc:type
           rdf:resource="http://purl.org/dc/dcmitype/StillImage" />
        <dc:title></dc:title>
      </cc:Work>
    </rdf:RDF>
  </metadata>
  <defs
     id="defs7">
    <linearGradient
       inkscape:collect="always"
       id="linearGradient4139">
      <stop
         style="stop-color:#9600ff;stop-opacity:1"
         offset="0"
         id="stop4141" />
      <stop
         style="stop-color:#fa00ff;stop-opacity:1"
         offset="1"
         id="stop4143" />
    </linearGradient>
    <linearGradient
       inkscape:collect="always"
       xlink:href="#linearGradient4139"
       id="linearGradient4145"
       x1="0"
       y1="32"
       x2="32"
       y2="0"
       gradientUnits="userSpaceOnUse" />
  </defs>
  <sodipodi:namedview
     id="namedview1"
     showgrid="true"
     inkscape:zoom="14.75"
     inkscape:cx="15.486164"
     inkscape:cy="14.430841"
     inkscape:window-width="1280"
     inkscape:window-height="766"
     inkscape:window-x="1680"
     inkscape:window-y="250"
     inkscape:window-maximized="1"
     inkscape:current-layer="svg2">
    <inkscape:grid
       type="xygrid"
       id="grid1px"
       empspacing="4" />
    <inkscape:grid
       type="xygrid"
       id="grid1pxdot"
       empspacing="1"
       dotted="true"
       originy="0.5"
       originx="0.5" />
  </sodipodi:namedview>
  <path
     style="opacity:0.98999999;fill:url(#linearGradient4145);fill-opacity:1;fill-rule:nonzero;stroke:none;stroke-width:1;stroke-linecap:round;stroke-linejoin:round;stroke-miterlimit:4;stroke-dasharray:none;stroke-dashoffset:0;stroke-opacity:1"
     d="M 16 0 A 16 16 0 0 0 0 16 A 16 16 0 0 0 16 32 A 16 16 0 0 0 32 16 A 16 16 0 0 0 16 0 z M 10.886719 8.8925781 C 12.110754 8.8925781 13.131242 9.1296956 13.947266 9.6035156 C 14.77645 10.077336 15.388353 10.66376 15.783203 11.361328 C 16.178053 12.045735 16.387739 12.710547 16.414062 13.355469 C 16.414062 13.473923 16.369475 13.57779 16.277344 13.669922 C 16.198374 13.748892 16.098924 13.789064 15.980469 13.789062 L 15.072266 13.789062 C 14.953811 13.789062 14.841621 13.748892 14.736328 13.669922 C 14.644196 13.590952 14.584917 13.487085 14.558594 13.355469 C 14.37433 12.565769 14.005915 11.920065 13.453125 11.419922 C 12.900335 10.919779 12.044945 10.669922 10.886719 10.669922 C 9.7416536 10.669922 8.8460935 11.004537 8.2011719 11.675781 C 7.5694119 12.333865 7.2347975 13.223055 7.1953125 14.341797 C 7.1821505 14.736647 7.1757812 15.28927 7.1757812 16 C 7.1757813 16.71073 7.1821505 17.263353 7.1953125 17.658203 C 7.2347972 18.776944 7.5694115 19.672505 8.2011719 20.34375 C 8.8460935 21.001833 9.7416536 21.330078 10.886719 21.330078 C 12.044945 21.330078 12.900335 21.080221 13.453125 20.580078 C 14.005915 20.079935 14.37433 19.434231 14.558594 18.644531 C 14.58492 18.512915 14.644199 18.409048 14.736328 18.330078 C 14.841621 18.251108 14.953811 18.210937 15.072266 18.210938 L 15.980469 18.210938 C 16.098924 18.210938 16.198374 18.257478 16.277344 18.349609 C 16.369475 18.428579 16.414062 18.526076 16.414062 18.644531 C 16.387742 19.289453 16.178056 19.962588 15.783203 20.660156 C 15.388353 21.344563 14.77645 21.922664 13.947266 22.396484 C 13.131242 22.870304 12.110754 23.107422 10.886719 23.107422 C 9.7811386 23.107422 8.81356 22.876674 7.984375 22.416016 C 7.15519 21.955358 6.5114396 21.324346 6.0507812 20.521484 C 5.6032846 19.705461 5.3597975 18.784423 5.3203125 17.757812 C 5.3071505 17.362963 5.3007813 16.776538 5.3007812 16 C 5.3007812 15.223461 5.3071505 14.637036 5.3203125 14.242188 C 5.3597972 13.215578 5.6032844 12.300908 6.0507812 11.498047 C 6.5114396 10.682024 7.15519 10.044643 7.984375 9.5839844 C 8.81356 9.123326 9.7811386 8.8925781 10.886719 8.8925781 z M 22.59375 12.447266 C 23.817785 12.447266 24.804472 12.78825 25.554688 13.472656 C 26.318063 14.157063 26.699219 15.118272 26.699219 16.355469 L 26.699219 22.376953 C 26.699219 22.521732 26.648262 22.64666 26.542969 22.751953 C 26.437675 22.857246 26.312747 22.910156 26.167969 22.910156 L 25.4375 22.910156 C 25.292721 22.910156 25.16584 22.857246 25.060547 22.751953 C 24.955254 22.64666 24.904297 22.521732 24.904297 22.376953 L 24.904297 21.568359 C 24.69371 22.042179 24.244954 22.416965 23.560547 22.693359 C 22.87614 22.969755 22.19222 23.107422 21.507812 23.107422 C 20.836568 23.107422 20.237404 22.988863 19.710938 22.751953 C 19.18447 22.501881 18.775885 22.165314 18.486328 21.744141 C 18.209933 21.322967 18.072266 20.850685 18.072266 20.324219 C 18.072266 19.337094 18.440681 18.566462 19.177734 18.013672 C 19.914788 17.44772 20.895105 17.066565 22.119141 16.869141 L 24.904297 16.414062 L 24.904297 16.158203 C 24.904297 15.513281 24.686288 15.019938 24.251953 14.677734 C 23.83078 14.32237 23.278157 14.144531 22.59375 14.144531 C 22.067283 14.144531 21.652328 14.235659 21.349609 14.419922 C 21.060053 14.591023 20.784718 14.855571 20.521484 15.210938 C 20.442514 15.31623 20.355803 15.38825 20.263672 15.427734 C 20.17154 15.467221 20.046612 15.486328 19.888672 15.486328 L 19.296875 15.486328 C 19.152097 15.486328 19.020799 15.433418 18.902344 15.328125 C 18.79705 15.222832 18.75051 15.097904 18.763672 14.953125 C 18.803159 14.558275 18.993735 14.170751 19.335938 13.789062 C 19.691303 13.394213 20.159168 13.072338 20.738281 12.822266 C 21.317395 12.572194 21.935667 12.447266 22.59375 12.447266 z M 24.904297 17.994141 L 22.574219 18.369141 C 21.718711 18.500757 21.053898 18.718766 20.580078 19.021484 C 20.106258 19.311041 19.869141 19.679456 19.869141 20.126953 C 19.869141 20.455995 20.021501 20.750439 20.324219 21.013672 C 20.626937 21.276905 21.08648 21.410156 21.705078 21.410156 C 22.652718 21.410156 23.42335 21.139238 24.015625 20.599609 C 24.6079 20.059981 24.904297 19.356951 24.904297 18.488281 L 24.904297 17.994141 z "
     id="path4137" />
</svg>
