<?xml version="1.0" encoding="UTF-8" standalone="no"?>
<svg
   xmlns:dc="http://purl.org/dc/elements/1.1/"
   xmlns:cc="http://creativecommons.org/ns#"
   xmlns:rdf="http://www.w3.org/1999/02/22-rdf-syntax-ns#"
   xmlns:svg="http://www.w3.org/2000/svg"
   xmlns="http://www.w3.org/2000/svg"
   xmlns:xlink="http://www.w3.org/1999/xlink"
   xmlns:sodipodi="http://sodipodi.sourceforge.net/DTD/sodipodi-0.dtd"
   xmlns:inkscape="http://www.inkscape.org/namespaces/inkscape"
   height="32"
   width="32"
   id="svg2"
   version="1.1"
   inkscape:version="1.0.2 (e86c870879, 2021-01-15)"
   sodipodi:docname="libreoffice-draw.svg">
  <metadata
     id="metadata9">
    <rdf:RDF>
      <cc:Work
         rdf:about="">
        <dc:format>image/svg+xml</dc:format>
        <dc:type
           rdf:resource="http://purl.org/dc/dcmitype/StillImage" />
        <dc:title></dc:title>
      </cc:Work>
    </rdf:RDF>
  </metadata>
  <defs
     id="defs7">
    <linearGradient
       inkscape:collect="always"
       id="linearGradient4139">
      <stop
         style="stop-color:#c86400;stop-opacity:1"
         offset="0"
         id="stop4141" />
      <stop
         style="stop-color:#ffff00;stop-opacity:1"
         offset="1"
         id="stop4143" />
    </linearGradient>
    <linearGradient
       inkscape:collect="always"
       xlink:href="#linearGradient4139"
       id="linearGradient4145"
       x1="0"
       y1="32"
       x2="32"
       y2="0"
       gradientUnits="userSpaceOnUse" />
  </defs>
  <sodipodi:namedview
     id="namedview1"
     showgrid="true"
     inkscape:zoom="14.75"
     inkscape:cx="16.215826"
     inkscape:cy="15.620358"
     inkscape:window-width="1920"
     inkscape:window-height="1044"
     inkscape:window-x="2560"
     inkscape:window-y="0"
     inkscape:window-maximized="1"
     inkscape:current-layer="svg2"
     inkscape:document-rotation="0">
    <inkscape:grid
       type="xygrid"
       id="grid1px"
       empspacing="4" />
    <inkscape:grid
       type="xygrid"
       id="grid1pxdot"
       empspacing="1"
       dotted="true"
       originy="0.5"
       originx="0.5" />
  </sodipodi:namedview>
  <path
     style="opacity:0.98999999;fill:url(#linearGradient4145);fill-opacity:1;fill-rule:nonzero;stroke:none;stroke-width:2;stroke-linecap:round;stroke-linejoin:round;stroke-miterlimit:4;stroke-dasharray:none;stroke-dashoffset:0;stroke-opacity:1"
     d="M 16 0 A 16 16 0 0 0 1.8769531 8.5 L 3 8.5 L 4.7617188 8.5 A 2.0002 2.0002 0 0 0 5.0859375 8.9140625 L 21.5 25.328125 L 21.5 31.009766 A 16 16 0 0 0 32 16 A 16 16 0 0 0 16 0 z M 10.328125 8.5 L 21.5 8.5 L 21.5 19.671875 L 10.328125 8.5 z "
     id="path4137" />
  <path
     id="path836"
     style="fill:#ffffff;fill-opacity:1;stroke-width:1.00157;stroke-linecap:round;stroke-linejoin:round"
     d="M 1.8691406,8.5 A 16,16 0 0 0 0,16 16,16 0 0 0 16,32 16,16 0 0 0 21.5,31.023438 v -0.01367 -5.681641 L 5.0859375,8.9140625 A 2.0002,2.0002 0 0 1 4.7617188,8.5 H 1.8769531 Z M 10.328125,8.5 21.5,19.671875 V 8.5 Z" />
  <circle
     style="fill:none;fill-opacity:1;stroke:#000000;stroke-width:1.00157;stroke-linecap:round;stroke-linejoin:round;stroke-opacity:1"
     id="path914"
     cx="16"
     cy="16"
     r="15.5" />
</svg>
