<?xml version="1.0" encoding="UTF-8" standalone="no"?>
<svg
   xmlns:dc="http://purl.org/dc/elements/1.1/"
   xmlns:cc="http://creativecommons.org/ns#"
   xmlns:rdf="http://www.w3.org/1999/02/22-rdf-syntax-ns#"
   xmlns:svg="http://www.w3.org/2000/svg"
   xmlns="http://www.w3.org/2000/svg"
   xmlns:xlink="http://www.w3.org/1999/xlink"
   xmlns:sodipodi="http://sodipodi.sourceforge.net/DTD/sodipodi-0.dtd"
   xmlns:inkscape="http://www.inkscape.org/namespaces/inkscape"
   height="32"
   width="32"
   id="svg2"
   version="1.1"
   inkscape:version="0.91 r13725"
   sodipodi:docname="mail-client.svg">
  <metadata
     id="metadata9">
    <rdf:RDF>
      <cc:Work
         rdf:about="">
        <dc:format>image/svg+xml</dc:format>
        <dc:type
           rdf:resource="http://purl.org/dc/dcmitype/StillImage" />
        <dc:title></dc:title>
      </cc:Work>
    </rdf:RDF>
  </metadata>
  <defs
     id="defs7">
    <linearGradient
       inkscape:collect="always"
       id="linearGradient4139">
      <stop
         style="stop-color:#c80000;stop-opacity:1"
         offset="0"
         id="stop4141" />
      <stop
         style="stop-color:#ff6464;stop-opacity:1"
         offset="1"
         id="stop4143" />
    </linearGradient>
    <linearGradient
       inkscape:collect="always"
       xlink:href="#linearGradient4139"
       id="linearGradient4363"
       x1="0"
       y1="16.5"
       x2="32"
       y2="16.5"
       gradientUnits="userSpaceOnUse" />
  </defs>
  <sodipodi:namedview
     id="namedview1"
     showgrid="true"
     inkscape:zoom="14.75"
     inkscape:cx="16.870286"
     inkscape:cy="16.245491"
     inkscape:window-width="1280"
     inkscape:window-height="766"
     inkscape:window-x="1680"
     inkscape:window-y="250"
     inkscape:window-maximized="1"
     inkscape:current-layer="svg2">
    <inkscape:grid
       type="xygrid"
       id="grid1px"
       empspacing="4" />
    <inkscape:grid
       type="xygrid"
       id="grid1pxdot"
       empspacing="1"
       dotted="true"
       originy="0.5"
       originx="0.5" />
  </sodipodi:namedview>
  <path
     style="opacity:0.98999999;fill:url(#linearGradient4363);fill-opacity:1.0;fill-rule:nonzero;stroke:none;stroke-width:1;stroke-linecap:round;stroke-linejoin:round;stroke-miterlimit:4;stroke-dasharray:none;stroke-dashoffset:0;stroke-opacity:1"
     d="M 7.5 1 A 0.50005 0.50005 0 0 0 7 1.5 L 7 8 L 16 14.75 L 25 8 L 25 1.5 A 0.50005 0.50005 0 0 0 24.5 1 L 7.5 1 z M 8.4648438 2 A 0.50005 0.50005 0 0 1 8.5 2 L 23.5 2 A 0.50005 0.50005 0 1 1 23.5 3 L 8.5 3 A 0.50030889 0.50030889 0 0 1 8.4648438 2 z M 8.4648438 4 A 0.50005 0.50005 0 0 1 8.5 4 L 23.5 4 A 0.50005 0.50005 0 1 1 23.5 5 L 8.5 5 A 0.50030889 0.50030889 0 0 1 8.4648438 4 z M 8.4648438 6 A 0.50005 0.50005 0 0 1 8.5 6 L 23.5 6 A 0.50005 0.50005 0 1 1 23.5 7 L 8.5 7 A 0.50030889 0.50030889 0 0 1 8.4648438 6 z M 28.787109 6.4101562 L 16 16 L 3.2148438 6.4121094 A 16 16 0 0 0 0 16 A 16 16 0 0 0 16 32 A 16 16 0 0 0 32 16 A 16 16 0 0 0 28.787109 6.4101562 z M 9.4648438 8 A 0.50005 0.50005 0 0 1 9.5 8 L 22.5 8 A 0.50005 0.50005 0 1 1 22.5 9 L 9.5 9 A 0.50030889 0.50030889 0 0 1 9.4648438 8 z M 12.464844 10 A 0.50005 0.50005 0 0 1 12.5 10 L 19.5 10 A 0.50005 0.50005 0 1 1 19.5 11 L 12.5 11 A 0.50030889 0.50030889 0 0 1 12.464844 10 z M 14.464844 12 A 0.50005 0.50005 0 0 1 14.5 12 L 17.5 12 A 0.50005 0.50005 0 1 1 17.5 13 L 14.5 13 A 0.50030889 0.50030889 0 0 1 14.464844 12 z M 15.871094 18.546875 C 17.464919 18.546875 18.732657 18.934953 19.671875 19.712891 C 20.62058 20.490829 21.137273 21.586429 21.222656 23 C 21.24163 23.398457 21.251953 23.703395 21.251953 23.912109 C 21.251953 24.367488 21.24163 24.689165 21.222656 24.878906 C 21.18471 25.561974 20.971002 26.078667 20.582031 26.429688 C 20.202549 26.771222 19.723241 26.943359 19.144531 26.943359 C 18.755562 26.943359 18.415192 26.881145 18.121094 26.757812 C 17.836482 26.624994 17.616636 26.469316 17.464844 26.289062 C 17.322538 26.469317 17.195876 26.610486 17.082031 26.714844 C 16.977674 26.809714 16.805536 26.894806 16.568359 26.970703 C 16.340671 27.0466 16.033501 27.085937 15.644531 27.085938 C 14.904541 27.085938 14.335956 26.8142 13.9375 26.273438 C 13.539044 25.723188 13.339844 25.025989 13.339844 24.181641 C 13.339844 23.337293 13.539044 22.640093 13.9375 22.089844 C 14.335956 21.539594 14.904541 21.265625 15.644531 21.265625 C 16.242215 21.265625 16.715385 21.473194 17.066406 21.890625 L 17.066406 21.763672 C 17.066406 21.659314 17.105745 21.568083 17.181641 21.492188 C 17.257537 21.416291 17.346815 21.378906 17.451172 21.378906 L 17.90625 21.378906 C 18.010607 21.378906 18.101838 21.416291 18.177734 21.492188 C 18.253631 21.568083 18.291016 21.659314 18.291016 21.763672 L 18.291016 24.794922 C 18.291016 25.098508 18.367739 25.339277 18.519531 25.519531 C 18.671324 25.699785 18.878893 25.791016 19.144531 25.791016 C 19.448117 25.791016 19.666009 25.691416 19.798828 25.492188 C 19.941134 25.29296 20.017856 25.064744 20.027344 24.808594 C 20.046317 24.637826 20.056641 24.366088 20.056641 23.996094 C 20.056641 23.701995 20.042132 23.394826 20.013672 23.072266 C 19.785983 20.823834 18.404137 19.699219 15.871094 19.699219 C 15.216487 19.699219 14.610517 19.827834 14.050781 20.083984 C 13.491045 20.340135 13.026245 20.719842 12.65625 21.222656 C 12.286255 21.72547 12.068362 22.341762 12.001953 23.072266 C 11.973493 23.328416 11.958984 23.735186 11.958984 24.294922 C 11.958984 24.759787 11.973493 25.116617 12.001953 25.363281 C 12.06836 26.084297 12.286252 26.696405 12.65625 27.199219 C 13.026245 27.702033 13.491045 28.075602 14.050781 28.322266 C 14.610517 28.578416 15.216487 28.707031 15.871094 28.707031 C 16.59211 28.707031 17.152325 28.644816 17.550781 28.521484 C 17.949237 28.40764 18.343453 28.218762 18.732422 27.953125 C 18.760882 27.934152 18.80859 27.905134 18.875 27.867188 C 18.941413 27.819754 18.997491 27.786551 19.044922 27.767578 C 19.101842 27.748605 19.164057 27.740234 19.230469 27.740234 L 19.857422 27.740234 C 19.971267 27.740234 20.064729 27.777619 20.140625 27.853516 C 20.216522 27.929412 20.249724 28.024827 20.240234 28.138672 C 20.240234 28.214568 20.207032 28.285153 20.140625 28.351562 C 19.685246 28.816428 19.116661 29.181628 18.433594 29.447266 C 17.760012 29.72239 16.905182 29.859375 15.871094 29.859375 C 14.998285 29.859375 14.18893 29.685006 13.439453 29.333984 C 12.689976 28.982964 12.077868 28.474641 11.603516 27.810547 C 11.129163 27.136966 10.85324 26.344351 10.777344 25.433594 C 10.75837 25.111034 10.748047 24.745834 10.748047 24.337891 C 10.748047 23.806615 10.75837 23.360508 10.777344 23 C 10.834264 22.09873 11.099863 21.312253 11.574219 20.638672 C 12.058058 19.965091 12.674351 19.448399 13.423828 19.087891 C 14.182793 18.727383 14.998285 18.546875 15.871094 18.546875 z M 15.800781 22.417969 C 15.373864 22.417969 15.056372 22.598476 14.847656 22.958984 C 14.648428 23.310006 14.548828 23.716775 14.548828 24.181641 C 14.548828 24.646507 14.648428 25.055229 14.847656 25.40625 C 15.056372 25.757271 15.373864 25.931641 15.800781 25.931641 C 16.265647 25.931641 16.593462 25.786286 16.783203 25.492188 C 16.972944 25.188602 17.066406 24.750864 17.066406 24.181641 C 17.066406 23.612418 16.972944 23.176633 16.783203 22.873047 C 16.593462 22.569461 16.265647 22.417969 15.800781 22.417969 z "
     id="rect4150-9" />
</svg>
