<?xml version="1.0" encoding="UTF-8" standalone="no"?>
<svg
   xmlns:dc="http://purl.org/dc/elements/1.1/"
   xmlns:cc="http://creativecommons.org/ns#"
   xmlns:rdf="http://www.w3.org/1999/02/22-rdf-syntax-ns#"
   xmlns:svg="http://www.w3.org/2000/svg"
   xmlns="http://www.w3.org/2000/svg"
   xmlns:xlink="http://www.w3.org/1999/xlink"
   xmlns:sodipodi="http://sodipodi.sourceforge.net/DTD/sodipodi-0.dtd"
   xmlns:inkscape="http://www.inkscape.org/namespaces/inkscape"
   height="32"
   width="32"
   version="1.1"
   id="svg5"
   sodipodi:docname="minecraft.svg"
   inkscape:version="0.92.2 2405546, 2018-03-11">
  <metadata
     id="metadata9">
    <rdf:RDF>
      <cc:Work
         rdf:about="">
        <dc:format>image/svg+xml</dc:format>
        <dc:type
           rdf:resource="http://purl.org/dc/dcmitype/StillImage" />
        <dc:title></dc:title>
      </cc:Work>
    </rdf:RDF>
  </metadata>
  <defs
     id="defs7">
    <linearGradient
       id="linearGradient842"
       inkscape:collect="always">
      <stop
         id="stop838"
         offset="0"
         style="stop-color:#006400;stop-opacity:1" />
      <stop
         id="stop840"
         offset="1"
         style="stop-color:#00c800;stop-opacity:1" />
    </linearGradient>
    <linearGradient
       inkscape:collect="always"
       id="linearGradient825">
      <stop
         style="stop-color:#783c00;stop-opacity:1"
         offset="0"
         id="stop821" />
      <stop
         style="stop-color:#ff952d;stop-opacity:1"
         offset="1"
         id="stop823" />
    </linearGradient>
    <linearGradient
       inkscape:collect="always"
       xlink:href="#linearGradient825"
       id="linearGradient827"
       x1="0"
       y1="32"
       x2="32"
       y2="0"
       gradientUnits="userSpaceOnUse" />
    <linearGradient
       inkscape:collect="always"
       xlink:href="#linearGradient842"
       id="linearGradient836"
       gradientUnits="userSpaceOnUse"
       x1="0"
       y1="32"
       x2="32"
       y2="0" />
  </defs>
  <sodipodi:namedview
     id="namedview1"
     showgrid="true"
     inkscape:zoom="20.85965"
     inkscape:cx="17.990824"
     inkscape:cy="15.367213"
     inkscape:window-width="1920"
     inkscape:window-height="1046"
     inkscape:window-x="0"
     inkscape:window-y="0"
     inkscape:window-maximized="1"
     inkscape:current-layer="svg5">
    <inkscape:grid
       type="xygrid"
       id="grid1px"
       empspacing="4" />
    <inkscape:grid
       type="xygrid"
       id="grid1pxdot"
       empspacing="1"
       dotted="true"
       originy="0.5"
       originx="0.5" />
  </sodipodi:namedview>
  <path
     style="opacity:1;fill:url(#linearGradient827);fill-opacity:1;stroke:none;stroke-width:1;stroke-linecap:round;stroke-linejoin:round;stroke-miterlimit:4;stroke-dasharray:none;stroke-dashoffset:0;stroke-opacity:1;paint-order:normal"
     d="M 31 10.46875 L 31 11 L 29 11 L 29 10 L 27 10 L 27 12 L 25 12 L 25 8 L 23 8 L 23 10 L 21 10 L 21 9 L 19 9 L 19 11 L 17 11 L 17 7 L 15 7 L 15 9 L 13 9 L 13 8 L 11 8 L 11 10 L 9 10 L 9 9 L 7 9 L 7 7 L 5.0097656 7 L 5 10 L 3 10 L 3.0078125 7 L 2.7734375 7 A 16 16 0 0 0 0 16 A 16 16 0 0 0 16 32 A 16 16 0 0 0 32 16 A 16 16 0 0 0 31 10.46875 z "
     id="path832" />
  <path
     style="opacity:1;fill:url(#linearGradient836);fill-opacity:1;stroke:none;stroke-width:1;stroke-linecap:round;stroke-linejoin:round;stroke-miterlimit:4;stroke-dasharray:none;stroke-dashoffset:0;stroke-opacity:1;paint-order:normal"
     d="M 16 0 A 16 16 0 0 0 2.7734375 7 L 3.0078125 7 L 3 10 L 5 10 L 5.0097656 7 L 7 7 L 7 9 L 9 9 L 9 10 L 11 10 L 11 8 L 13 8 L 13 9 L 15 9 L 15 7 L 17 7 L 17 11 L 19 11 L 19 9 L 21 9 L 21 10 L 23 10 L 23 8 L 25 8 L 25 12 L 27 12 L 27 10 L 29 10 L 29 11 L 31 11 L 31 10.46875 A 16 16 0 0 0 16 0 z "
     id="path819" />
</svg>
