<?xml version="1.0" encoding="UTF-8" standalone="no"?>
<svg
   xmlns:dc="http://purl.org/dc/elements/1.1/"
   xmlns:cc="http://creativecommons.org/ns#"
   xmlns:rdf="http://www.w3.org/1999/02/22-rdf-syntax-ns#"
   xmlns:svg="http://www.w3.org/2000/svg"
   xmlns="http://www.w3.org/2000/svg"
   xmlns:sodipodi="http://sodipodi.sourceforge.net/DTD/sodipodi-0.dtd"
   xmlns:inkscape="http://www.inkscape.org/namespaces/inkscape"
   height="32"
   width="32"
   version="1.1"
   id="svg5"
   sodipodi:docname="msword.svg"
   inkscape:version="0.92.2 5c3e80d, 2017-08-06">
  <metadata
     id="metadata9">
    <rdf:RDF>
      <cc:Work
         rdf:about="">
        <dc:format>image/svg+xml</dc:format>
        <dc:type
           rdf:resource="http://purl.org/dc/dcmitype/StillImage" />
        <dc:title></dc:title>
      </cc:Work>
    </rdf:RDF>
  </metadata>
  <defs
     id="defs7" />
  <sodipodi:namedview
     id="namedview1"
     showgrid="true"
     inkscape:zoom="20.85965"
     inkscape:cx="7.4332526"
     inkscape:cy="16.666204"
     inkscape:window-width="1680"
     inkscape:window-height="1016"
     inkscape:window-x="0"
     inkscape:window-y="0"
     inkscape:window-maximized="1"
     inkscape:current-layer="svg5">
    <inkscape:grid
       type="xygrid"
       id="grid1px"
       empspacing="4" />
    <inkscape:grid
       type="xygrid"
       id="grid1pxdot"
       empspacing="1"
       dotted="true"
       originy="0.5"
       originx="0.5" />
  </sodipodi:namedview>
  <path
     style="fill:#2a5699;stroke:none;stroke-width:1px;stroke-linecap:butt;stroke-linejoin:miter;stroke-opacity:1;fill-opacity:1"
     d="M 16,4 4,8 v 16 l 12,4 z"
     id="path821"
     inkscape:connector-curvature="0" />
  <path
     inkscape:connector-curvature="0"
     id="path827"
     style="font-style:normal;font-variant:normal;font-weight:normal;font-stretch:normal;font-size:medium;line-height:1.25;font-family:Contemporary;-inkscape-font-specification:Contemporary;letter-spacing:0px;word-spacing:0px;fill:#ffffff;fill-opacity:1;stroke:none;stroke-width:1"
     d="m 11.809584,18.440318 1.146443,-6.215526 Q 12.989746,12.067438 13.079663,12 q 0.101158,-0.07868 0.224794,-0.07868 h 0.449586 q 0.101157,0 0.168594,0.07868 0.07868,0.06744 0.07868,0.168594 l -0.01128,0.08991 -1.382476,6.946104 q -0.06744,0.30347 -0.179834,0.449585 -0.112401,0.134876 -0.370909,0.134876 h -0.449586 q -0.247273,0 -0.370909,-0.146116 -0.123636,-0.157354 -0.202313,-0.438345 L 10,15.450572 8.9659523,19.204615 q -0.078677,0.280992 -0.2023136,0.438346 -0.1236361,0.146116 -0.3709084,0.146116 h -0.449586 q -0.2585119,0 -0.3709083,-0.134876 -0.1123961,-0.146115 -0.1798344,-0.449586 l -1.3824768,-6.946104 -0.011243,-0.08991 q 0,-0.101157 0.067438,-0.168594 0.078677,-0.07868 0.1798344,-0.07868 h 0.4495895 q 0.1236362,0 0.2135534,0.07868 0.1011571,0.06744 0.1348757,0.224792 l 1.1464442,6.215526 1.2363614,-4.450901 q 0.022479,-0.112401 0.112396,-0.213554 0.089917,-0.1124 0.2697516,-0.1124 h 0.382148 q 0.179835,0 0.269752,0.1124 0.08991,0.101158 0.1124,0.213554 z" />
  <rect
     style="fill:#ffffff;fill-opacity:1;stroke:#2a5699;stroke-width:1;stroke-linecap:round;stroke-linejoin:round;stroke-miterlimit:4;stroke-dasharray:none;stroke-opacity:1"
     id="rect831"
     width="12"
     height="15"
     x="15.5"
     y="8.5" />
</svg>
