<?xml version="1.0" encoding="UTF-8" standalone="no"?>
<svg
   xmlns:dc="http://purl.org/dc/elements/1.1/"
   xmlns:cc="http://creativecommons.org/ns#"
   xmlns:rdf="http://www.w3.org/1999/02/22-rdf-syntax-ns#"
   xmlns:svg="http://www.w3.org/2000/svg"
   xmlns="http://www.w3.org/2000/svg"
   xmlns:xlink="http://www.w3.org/1999/xlink"
   xmlns:sodipodi="http://sodipodi.sourceforge.net/DTD/sodipodi-0.dtd"
   xmlns:inkscape="http://www.inkscape.org/namespaces/inkscape"
   height="32"
   width="32"
   version="1.1"
   id="svg5"
   sodipodi:docname="multimedia-volume-control.svg"
   inkscape:version="1.0.2 (e86c870879, 2021-01-15)">
  <metadata
     id="metadata9">
    <rdf:RDF>
      <cc:Work
         rdf:about="">
        <dc:format>image/svg+xml</dc:format>
        <dc:type
           rdf:resource="http://purl.org/dc/dcmitype/StillImage" />
        <dc:title></dc:title>
      </cc:Work>
    </rdf:RDF>
  </metadata>
  <defs
     id="defs7">
    <linearGradient
       inkscape:collect="always"
       id="linearGradient907">
      <stop
         style="stop-color:#646464;stop-opacity:1"
         offset="0"
         id="stop903" />
      <stop
         style="stop-color:#c8c8c8;stop-opacity:1"
         offset="1"
         id="stop905" />
    </linearGradient>
    <linearGradient
       inkscape:collect="always"
       id="linearGradient894">
      <stop
         style="stop-color:#ff0000;stop-opacity:1"
         offset="0"
         id="stop890" />
      <stop
         style="stop-color:#ff6400;stop-opacity:1"
         offset="1"
         id="stop892" />
    </linearGradient>
    <linearGradient
       inkscape:collect="always"
       id="linearGradient886">
      <stop
         style="stop-color:#0000ff;stop-opacity:1"
         offset="0"
         id="stop882" />
      <stop
         style="stop-color:#0064ff;stop-opacity:1"
         offset="1"
         id="stop884" />
    </linearGradient>
    <linearGradient
       inkscape:collect="always"
       xlink:href="#linearGradient886"
       id="linearGradient888"
       x1="0"
       y1="32"
       x2="32"
       y2="0"
       gradientUnits="userSpaceOnUse" />
    <linearGradient
       inkscape:collect="always"
       xlink:href="#linearGradient894"
       id="linearGradient896"
       x1="0"
       y1="32"
       x2="32"
       y2="0"
       gradientUnits="userSpaceOnUse" />
    <linearGradient
       inkscape:collect="always"
       xlink:href="#linearGradient907"
       id="linearGradient909"
       x1="0"
       y1="32"
       x2="32"
       y2="0"
       gradientUnits="userSpaceOnUse" />
  </defs>
  <sodipodi:namedview
     id="namedview1"
     showgrid="true"
     inkscape:document-rotation="0"
     inkscape:zoom="21.46875"
     inkscape:cx="16"
     inkscape:cy="15.532757"
     inkscape:window-width="1920"
     inkscape:window-height="1044"
     inkscape:window-x="6400"
     inkscape:window-y="720"
     inkscape:window-maximized="1"
     inkscape:current-layer="svg5">
    <inkscape:grid
       type="xygrid"
       id="grid1px"
       empspacing="4" />
    <inkscape:grid
       type="xygrid"
       id="grid1pxdot"
       empspacing="1"
       dotted="true"
       originy="0.5"
       originx="0.5" />
  </sodipodi:namedview>
  <path
     id="path834"
     style="fill:url(#linearGradient896);stroke:none;stroke-width:1.00157;stroke-linecap:round;stroke-linejoin:round;fill-opacity:1"
     d="M 31.734375 13.097656 L 27.84375 14.070312 A 12 12 0 0 1 28 16 A 12 12 0 0 1 24.484375 24.484375 L 27.3125 27.3125 A 16 16 0 0 0 32 16 A 16 16 0 0 0 31.734375 13.097656 z " />
  <path
     id="path853"
     style="fill:url(#linearGradient888);stroke:none;stroke-width:1.00157;stroke-linecap:round;stroke-linejoin:round;fill-opacity:1"
     d="M 16 0 A 16 16 0 0 0 0 16 A 16 16 0 0 0 4.6875 27.3125 L 7.515625 24.484375 A 12 12 0 0 1 4 16 A 12 12 0 0 1 16 4 A 12 12 0 0 1 27.357422 12.128906 L 31.248047 11.15625 A 16 16 0 0 0 16 0 z " />
  <path
     id="path839"
     style="fill:url(#linearGradient909);fill-opacity:1;stroke:#ffffff;stroke-width:1.00157;stroke-linecap:round;stroke-linejoin:round;stroke-opacity:1"
     d="m 26.253048,5.7469527 -5.69138,1.3548274 a 10,10 0 0 0 -11.6327357,1.8271531 10,10 0 0 0 6e-7,14.1421358 10,10 0 0 0 14.1421351,-1e-6 10,10 0 0 0 1.827153,-11.632735 z" />
</svg>
