<?xml version="1.0" encoding="UTF-8" standalone="no"?>
<svg
   xmlns:dc="http://purl.org/dc/elements/1.1/"
   xmlns:cc="http://creativecommons.org/ns#"
   xmlns:rdf="http://www.w3.org/1999/02/22-rdf-syntax-ns#"
   xmlns:svg="http://www.w3.org/2000/svg"
   xmlns="http://www.w3.org/2000/svg"
   xmlns:xlink="http://www.w3.org/1999/xlink"
   xmlns:sodipodi="http://sodipodi.sourceforge.net/DTD/sodipodi-0.dtd"
   xmlns:inkscape="http://www.inkscape.org/namespaces/inkscape"
   height="32"
   width="32"
   id="svg2"
   version="1.1"
   inkscape:version="0.91 r13725"
   sodipodi:docname="okular.svg">
  <metadata
     id="metadata9">
    <rdf:RDF>
      <cc:Work
         rdf:about="">
        <dc:format>image/svg+xml</dc:format>
        <dc:type
           rdf:resource="http://purl.org/dc/dcmitype/StillImage" />
        <dc:title></dc:title>
      </cc:Work>
    </rdf:RDF>
  </metadata>
  <defs
     id="defs7">
    <linearGradient
       inkscape:collect="always"
       id="linearGradient4139">
      <stop
         style="stop-color:#0000ff;stop-opacity:1"
         offset="0"
         id="stop4141" />
      <stop
         style="stop-color:#0096ff;stop-opacity:1"
         offset="1"
         id="stop4143" />
    </linearGradient>
    <linearGradient
       inkscape:collect="always"
       xlink:href="#linearGradient4139"
       id="linearGradient4145"
       x1="0"
       y1="32"
       x2="32"
       y2="0"
       gradientUnits="userSpaceOnUse" />
  </defs>
  <sodipodi:namedview
     id="namedview1"
     showgrid="true"
     inkscape:zoom="14.75"
     inkscape:cx="14.390956"
     inkscape:cy="15.104816"
     inkscape:window-width="1280"
     inkscape:window-height="766"
     inkscape:window-x="1680"
     inkscape:window-y="250"
     inkscape:window-maximized="1"
     inkscape:current-layer="svg2">
    <inkscape:grid
       type="xygrid"
       id="grid1px"
       empspacing="4" />
    <inkscape:grid
       type="xygrid"
       id="grid1pxdot"
       empspacing="1"
       dotted="true"
       originy="0.5"
       originx="0.5" />
  </sodipodi:namedview>
  <path
     style="opacity:0.98999999;fill:url(#linearGradient4145);fill-opacity:1;fill-rule:nonzero;stroke:none;stroke-width:1;stroke-linecap:round;stroke-linejoin:round;stroke-miterlimit:4;stroke-dasharray:none;stroke-dashoffset:0;stroke-opacity:1"
     d="M 16 0 A 16 16 0 0 0 0 16 A 16 16 0 0 0 16 32 A 16 16 0 0 0 32 16 A 16 16 0 0 0 29.933594 8.1738281 C 29.695199 8.7632839 29.411476 9.3759586 29.066406 10.023438 C 27.504475 12.954198 25.4769 15.295061 22.982422 17.046875 C 20.492369 18.790387 17.942902 19.662109 15.335938 19.662109 C 12.72067 19.662109 11.093091 18.790387 10.453125 17.046875 C 9.8214612 15.303364 10.289112 12.9625 11.855469 10.023438 C 13.421825 7.0843749 15.451354 4.7435117 17.941406 3 C 19.169231 2.1405872 20.409165 1.4944389 21.664062 1.0566406 A 16 16 0 0 0 16 0 z M 24.421875 2.4199219 C 22.63154 2.4460766 20.85164 3.122109 19.082031 4.4570312 C 17.285359 5.8186308 15.760013 7.6738479 14.507812 10.023438 C 13.260037 12.364725 12.808938 14.216526 13.154297 15.578125 C 13.507957 16.939724 14.599245 17.621094 16.425781 17.621094 C 18.252317 17.621094 20.059288 16.939724 21.847656 15.578125 C 23.644326 14.216526 25.166287 12.364725 26.414062 10.023438 C 27.424365 8.1277362 27.904646 6.5591977 27.875 5.3066406 A 16 16 0 0 0 24.421875 2.4199219 z "
     id="path4137" />
</svg>
