<?xml version="1.0" encoding="UTF-8" standalone="no"?>
<svg
   xmlns:dc="http://purl.org/dc/elements/1.1/"
   xmlns:cc="http://creativecommons.org/ns#"
   xmlns:rdf="http://www.w3.org/1999/02/22-rdf-syntax-ns#"
   xmlns:svg="http://www.w3.org/2000/svg"
   xmlns="http://www.w3.org/2000/svg"
   xmlns:xlink="http://www.w3.org/1999/xlink"
   xmlns:sodipodi="http://sodipodi.sourceforge.net/DTD/sodipodi-0.dtd"
   xmlns:inkscape="http://www.inkscape.org/namespaces/inkscape"
   height="32"
   width="32"
   id="svg2"
   version="1.1"
   inkscape:version="0.91 r13725"
   sodipodi:docname="opera.svg">
  <metadata
     id="metadata9">
    <rdf:RDF>
      <cc:Work
         rdf:about="">
        <dc:format>image/svg+xml</dc:format>
        <dc:type
           rdf:resource="http://purl.org/dc/dcmitype/StillImage" />
        <dc:title></dc:title>
      </cc:Work>
    </rdf:RDF>
  </metadata>
  <defs
     id="defs7">
    <linearGradient
       inkscape:collect="always"
       id="linearGradient4141">
      <stop
         style="stop-color:#ff0000;stop-opacity:1"
         offset="0"
         id="stop4143" />
      <stop
         style="stop-color:#ff6464;stop-opacity:1"
         offset="1"
         id="stop4145" />
    </linearGradient>
    <linearGradient
       inkscape:collect="always"
       xlink:href="#linearGradient4141"
       id="linearGradient4147"
       x1="0"
       y1="32"
       x2="32"
       y2="0"
       gradientUnits="userSpaceOnUse" />
  </defs>
  <sodipodi:namedview
     id="namedview1"
     showgrid="true"
     inkscape:zoom="10.429825"
     inkscape:cx="23.334451"
     inkscape:cy="16.653425"
     inkscape:window-width="1280"
     inkscape:window-height="766"
     inkscape:window-x="1680"
     inkscape:window-y="250"
     inkscape:window-maximized="1"
     inkscape:current-layer="svg2">
    <inkscape:grid
       type="xygrid"
       id="grid1px"
       empspacing="4" />
    <inkscape:grid
       type="xygrid"
       id="grid1pxdot"
       empspacing="1"
       dotted="true"
       originy="0.5"
       originx="0.5" />
  </sodipodi:namedview>
  <path
     style="opacity:0.98999999;fill:url(#linearGradient4147);fill-opacity:1;fill-rule:nonzero;stroke:none;stroke-width:2;stroke-linecap:round;stroke-linejoin:round;stroke-miterlimit:4;stroke-dasharray:none;stroke-dashoffset:0;stroke-opacity:1"
     d="M 16 0 A 16 16 0 0 0 0 16 A 16 16 0 0 0 16 32 A 16 16 0 0 0 17.947266 31.867188 C 11.556329 29.42163 7 23.242555 7 16 C 7 8.7626818 11.549944 2.5878797 17.933594 0.13867188 A 16 16 0 0 0 16 0 z M 21.949219 1.15625 C 16.406459 1.9131534 11.847591 5.6785091 9.9550781 10.765625 A 8 8 0 0 1 16 8 A 8 8 0 0 1 24 16 A 8 8 0 0 1 16 24 A 8 8 0 0 1 9.9492188 21.21875 C 11.837273 26.31133 16.396555 30.08159 21.941406 30.841797 A 16 16 0 0 0 32 16 A 16 16 0 0 0 21.949219 1.15625 z "
     id="path4139" />
</svg>
