<?xml version="1.0" encoding="UTF-8" standalone="no"?>
<svg
   xmlns:dc="http://purl.org/dc/elements/1.1/"
   xmlns:cc="http://creativecommons.org/ns#"
   xmlns:rdf="http://www.w3.org/1999/02/22-rdf-syntax-ns#"
   xmlns:svg="http://www.w3.org/2000/svg"
   xmlns="http://www.w3.org/2000/svg"
   xmlns:xlink="http://www.w3.org/1999/xlink"
   xmlns:sodipodi="http://sodipodi.sourceforge.net/DTD/sodipodi-0.dtd"
   xmlns:inkscape="http://www.inkscape.org/namespaces/inkscape"
   height="32"
   width="32"
   id="svg2"
   version="1.1"
   inkscape:version="0.91 r13725"
   sodipodi:docname="partitionmanager.svg">
  <metadata
     id="metadata9">
    <rdf:RDF>
      <cc:Work
         rdf:about="">
        <dc:format>image/svg+xml</dc:format>
        <dc:type
           rdf:resource="http://purl.org/dc/dcmitype/StillImage" />
        <dc:title></dc:title>
      </cc:Work>
    </rdf:RDF>
  </metadata>
  <defs
     id="defs7">
    <linearGradient
       inkscape:collect="always"
       id="linearGradient4139">
      <stop
         style="stop-color:#006464;stop-opacity:1"
         offset="0"
         id="stop4141" />
      <stop
         style="stop-color:#00c8c8;stop-opacity:1"
         offset="1"
         id="stop4143" />
    </linearGradient>
    <linearGradient
       inkscape:collect="always"
       xlink:href="#linearGradient4139"
       id="linearGradient4145"
       x1="0"
       y1="32"
       x2="32"
       y2="0"
       gradientUnits="userSpaceOnUse" />
  </defs>
  <sodipodi:namedview
     id="namedview1"
     showgrid="true"
     inkscape:zoom="14.75"
     inkscape:cx="14.070216"
     inkscape:cy="13.196526"
     inkscape:window-width="1280"
     inkscape:window-height="766"
     inkscape:window-x="1680"
     inkscape:window-y="250"
     inkscape:window-maximized="1"
     inkscape:current-layer="svg2">
    <inkscape:grid
       type="xygrid"
       id="grid1px"
       empspacing="4" />
    <inkscape:grid
       type="xygrid"
       id="grid1pxdot"
       empspacing="1"
       dotted="true"
       originy="0.5"
       originx="0.5" />
  </sodipodi:namedview>
  <path
     style="opacity:0.98999999;fill:url(#linearGradient4145);fill-opacity:1;fill-rule:nonzero;stroke:none;stroke-width:1;stroke-linecap:round;stroke-linejoin:round;stroke-miterlimit:4;stroke-dasharray:none;stroke-opacity:1"
     d="M 16 0 A 16 16 0 0 0 14.646484 0.068359375 A 16 16 0 0 0 13.833984 0.16601562 A 16 16 0 0 0 13.056641 0.28320312 A 16 16 0 0 0 12.958984 0.3046875 L 7.4824219 29.521484 A 16 16 0 0 0 7.8496094 29.748047 A 16 16 0 0 0 8.5273438 30.136719 A 16 16 0 0 0 9.28125 30.5 A 16 16 0 0 0 9.9902344 30.816406 A 16 16 0 0 0 10.722656 31.083984 A 16 16 0 0 0 11.511719 31.345703 A 16 16 0 0 0 12.248047 31.535156 A 16 16 0 0 0 13.056641 31.716797 A 16 16 0 0 0 13.833984 31.833984 A 16 16 0 0 0 14.646484 31.931641 A 16 16 0 0 0 16 32 A 16 16 0 0 0 17.353516 31.931641 A 16 16 0 0 0 18.166016 31.833984 A 16 16 0 0 0 18.943359 31.716797 A 16 16 0 0 0 19.041016 31.695312 L 24.517578 2.4785156 A 16 16 0 0 0 24.150391 2.2519531 A 16 16 0 0 0 23.472656 1.8632812 A 16 16 0 0 0 22.71875 1.5 A 16 16 0 0 0 22.009766 1.1835938 A 16 16 0 0 0 21.277344 0.91601562 A 16 16 0 0 0 20.488281 0.65429688 A 16 16 0 0 0 19.751953 0.46484375 A 16 16 0 0 0 18.943359 0.28320312 A 16 16 0 0 0 18.166016 0.16601562 A 16 16 0 0 0 17.353516 0.068359375 A 16 16 0 0 0 16 0 z M 10.816406 0.88476562 A 16 16 0 0 0 10.722656 0.91601562 A 16 16 0 0 0 9.9902344 1.1835938 A 16 16 0 0 0 9.28125 1.5 A 16 16 0 0 0 8.5273438 1.8632812 A 16 16 0 0 0 7.8496094 2.2519531 A 16 16 0 0 0 7.1738281 2.6679688 A 16 16 0 0 0 6.4960938 3.1503906 A 16 16 0 0 0 5.8828125 3.6171875 A 16 16 0 0 0 5.2773438 4.1503906 A 16 16 0 0 0 4.6933594 4.6933594 A 16 16 0 0 0 4.1503906 5.2773438 A 16 16 0 0 0 3.6171875 5.8828125 A 16 16 0 0 0 3.1503906 6.4960938 A 16 16 0 0 0 2.6679688 7.1738281 A 16 16 0 0 0 2.2519531 7.8496094 A 16 16 0 0 0 1.8632812 8.5273438 A 16 16 0 0 0 1.5 9.28125 A 16 16 0 0 0 1.1835938 9.9902344 A 16 16 0 0 0 0.91601562 10.722656 A 16 16 0 0 0 0.65429688 11.511719 A 16 16 0 0 0 0.46484375 12.248047 A 16 16 0 0 0 0.28320312 13.056641 A 16 16 0 0 0 0.16601562 13.833984 A 16 16 0 0 0 0.068359375 14.646484 A 16 16 0 0 0 0 16 A 16 16 0 0 0 0.068359375 17.353516 A 16 16 0 0 0 0.16601562 18.166016 A 16 16 0 0 0 0.28320312 18.943359 A 16 16 0 0 0 0.46484375 19.751953 A 16 16 0 0 0 0.65429688 20.488281 A 16 16 0 0 0 0.91601562 21.277344 A 16 16 0 0 0 1.1835938 22.009766 A 16 16 0 0 0 1.5 22.71875 A 16 16 0 0 0 1.8632812 23.472656 A 16 16 0 0 0 2.2519531 24.150391 A 16 16 0 0 0 2.6679688 24.826172 A 16 16 0 0 0 3.1503906 25.503906 A 16 16 0 0 0 3.6171875 26.117188 A 16 16 0 0 0 4.1503906 26.722656 A 16 16 0 0 0 4.6933594 27.306641 A 16 16 0 0 0 5.2773438 27.849609 A 16 16 0 0 0 5.6933594 28.214844 L 10.816406 0.88476562 z M 26.306641 3.7851562 L 21.183594 31.115234 A 16 16 0 0 0 21.277344 31.083984 A 16 16 0 0 0 22.009766 30.816406 A 16 16 0 0 0 22.71875 30.5 A 16 16 0 0 0 23.472656 30.136719 A 16 16 0 0 0 24.150391 29.748047 A 16 16 0 0 0 24.826172 29.332031 A 16 16 0 0 0 25.503906 28.849609 A 16 16 0 0 0 26.117188 28.382812 A 16 16 0 0 0 26.722656 27.849609 A 16 16 0 0 0 27.306641 27.306641 A 16 16 0 0 0 27.849609 26.722656 A 16 16 0 0 0 28.382812 26.117188 A 16 16 0 0 0 28.849609 25.503906 A 16 16 0 0 0 29.332031 24.826172 A 16 16 0 0 0 29.748047 24.150391 A 16 16 0 0 0 30.136719 23.472656 A 16 16 0 0 0 30.5 22.71875 A 16 16 0 0 0 30.816406 22.009766 A 16 16 0 0 0 31.083984 21.277344 A 16 16 0 0 0 31.345703 20.488281 A 16 16 0 0 0 31.535156 19.751953 A 16 16 0 0 0 31.716797 18.943359 A 16 16 0 0 0 31.833984 18.166016 A 16 16 0 0 0 31.931641 17.353516 A 16 16 0 0 0 32 16 A 16 16 0 0 0 31.931641 14.646484 A 16 16 0 0 0 31.833984 13.833984 A 16 16 0 0 0 31.716797 13.056641 A 16 16 0 0 0 31.535156 12.248047 A 16 16 0 0 0 31.345703 11.511719 A 16 16 0 0 0 31.083984 10.722656 A 16 16 0 0 0 30.816406 9.9902344 A 16 16 0 0 0 30.5 9.28125 A 16 16 0 0 0 30.136719 8.5273438 A 16 16 0 0 0 29.748047 7.8496094 A 16 16 0 0 0 29.332031 7.1738281 A 16 16 0 0 0 28.849609 6.4960938 A 16 16 0 0 0 28.382812 5.8828125 A 16 16 0 0 0 27.849609 5.2773438 A 16 16 0 0 0 27.306641 4.6933594 A 16 16 0 0 0 26.722656 4.1503906 A 16 16 0 0 0 26.306641 3.7851562 z M 19.958984 5.0976562 L 20.283203 5.1777344 C 20.34919 5.193973 20.399366 5.2312152 20.435547 5.2910156 C 20.471727 5.3508156 20.481084 5.4144818 20.464844 5.4804688 L 20.275391 6.2539062 L 21.517578 6.5585938 C 21.583565 6.5748324 21.633741 6.6140274 21.669922 6.6738281 C 21.706102 6.7336281 21.715459 6.7953411 21.699219 6.8613281 L 21.609375 7.2304688 C 21.593135 7.296456 21.555891 7.3485848 21.496094 7.3847656 C 21.436294 7.420947 21.372628 7.4303012 21.306641 7.4140625 L 20.064453 7.1074219 L 19.369141 9.9335938 C 19.352901 9.999581 19.315657 10.05171 19.255859 10.087891 C 19.196059 10.124071 19.132394 10.133426 19.066406 10.117188 L 18.742188 10.037109 C 18.700194 10.026776 18.655505 10.002126 18.607422 9.9648438 C 18.553335 9.9260856 18.507881 9.8837402 18.46875 9.8359375 L 15.443359 6.0761719 C 15.325959 5.9327632 15.281499 5.7978503 15.3125 5.671875 L 15.402344 5.3125 C 15.418584 5.2465127 15.455828 5.194384 15.515625 5.1582031 C 15.575425 5.1220218 15.63909 5.1126669 15.705078 5.1289062 L 19.464844 6.0546875 L 19.65625 5.28125 C 19.67249 5.2152627 19.709735 5.163134 19.769531 5.1269531 C 19.829331 5.0907718 19.892996 5.0814169 19.958984 5.0976562 z M 5.5683594 6.1289062 C 5.6704656 6.1294218 5.7737533 6.1416112 5.8808594 6.1679688 C 6.105782 6.2233197 6.2883574 6.3096536 6.4296875 6.4277344 C 6.568326 6.5413664 6.6978635 6.7114346 6.8164062 6.9375 L 7.6367188 8.40625 L 8.0390625 6.7675781 C 8.0487272 6.7283055 8.0718319 6.697314 8.1074219 6.6757812 C 8.1430125 6.6542479 8.1814312 6.6485385 8.2207031 6.6582031 L 8.4121094 6.7070312 C 8.451382 6.716696 8.4823738 6.7378468 8.5039062 6.7734375 C 8.5254397 6.8090282 8.531149 6.8474467 8.5214844 6.8867188 L 7.953125 9.1953125 C 7.9434603 9.2345845 7.9223093 9.2636238 7.8867188 9.2851562 C 7.851128 9.3066897 7.8127094 9.312399 7.7734375 9.3027344 L 7.5800781 9.2558594 C 7.5408059 9.2461949 7.5117112 9.2313681 7.4902344 9.2109375 C 7.4660654 9.186058 7.4376705 9.1448462 7.40625 9.0878906 L 6.3632812 7.1679688 C 6.2878603 7.0282432 6.204853 6.9202863 6.1171875 6.8457031 C 6.0295221 6.7711199 5.909378 6.7155136 5.7558594 6.6777344 C 5.5559281 6.6285336 5.3819235 6.6460942 5.2324219 6.7304688 C 5.0829203 6.8148432 4.9789831 6.9730151 4.921875 7.2050781 C 4.8656457 7.433571 4.8852436 7.6195535 4.9785156 7.7636719 C 5.0682176 7.9069116 5.2072363 8.0288442 5.3984375 8.1289062 C 5.4350742 8.149281 5.4612918 8.1748148 5.4765625 8.2050781 C 5.4918332 8.2353415 5.4961887 8.2666968 5.4882812 8.2988281 L 5.4277344 8.5449219 C 5.419827 8.5770539 5.4006175 8.6033275 5.3730469 8.6230469 C 5.3427835 8.6383182 5.3133813 8.6407198 5.28125 8.6328125 C 5.1009266 8.5808648 4.9332064 8.4837386 4.7792969 8.3398438 C 4.6262658 8.1923784 4.514947 8.0103041 4.4472656 7.7929688 C 4.3795843 7.5756333 4.3770735 7.3394217 4.4394531 7.0859375 C 4.5018327 6.8324532 4.6064411 6.6295936 4.7539062 6.4765625 C 4.8986797 6.3190827 5.0717482 6.2157902 5.2695312 6.1660156 C 5.3666377 6.1406891 5.4662531 6.1283907 5.5683594 6.1289062 z M 16.716797 6.2851562 L 18.775391 8.8613281 L 19.255859 6.9082031 L 16.716797 6.2851562 z M 14.759766 8.96875 L 15.082031 9.0488281 C 15.148018 9.0650668 15.200147 9.1023086 15.236328 9.1621094 C 15.272508 9.2219094 15.281865 9.2855755 15.265625 9.3515625 L 14.851562 11.035156 L 20.097656 12.326172 C 20.163643 12.342412 20.215772 12.379654 20.251953 12.439453 C 20.288133 12.499253 20.29749 12.56292 20.28125 12.628906 L 20.189453 12.996094 C 20.173213 13.06208 20.135969 13.114209 20.076172 13.150391 C 20.016372 13.186571 19.952706 13.195927 19.886719 13.179688 L 14.642578 11.888672 L 14.228516 13.572266 C 14.212276 13.638252 14.173079 13.688427 14.113281 13.724609 C 14.053481 13.760789 13.991769 13.772099 13.925781 13.755859 L 13.601562 13.675781 C 13.535578 13.659541 13.483448 13.620346 13.447266 13.560547 C 13.411086 13.500747 13.401729 13.439034 13.417969 13.373047 L 14.457031 9.1523438 C 14.473271 9.0863571 14.510517 9.0361815 14.570312 9 C 14.630115 8.9638187 14.693778 8.9525107 14.759766 8.96875 z M 4.0859375 9.3769531 L 4.2792969 9.4238281 C 4.3292795 9.4361281 4.3819103 9.4845711 4.4375 9.5664062 L 5.2265625 10.765625 C 5.32244 10.406792 5.4972134 10.14178 5.7480469 9.96875 C 5.9988802 9.7957197 6.2890651 9.7483697 6.6210938 9.8300781 C 6.856727 9.8880648 7.0486275 10.0007 7.1972656 10.166016 C 7.3432121 10.326883 7.4377228 10.519749 7.4804688 10.746094 C 7.5240934 10.968868 7.5157008 11.204828 7.4550781 11.451172 C 7.3803983 11.754639 7.2730254 11.998487 7.1328125 12.183594 C 6.9890292 12.367823 6.833424 12.491819 6.6660156 12.556641 C 6.495037 12.620581 6.3261426 12.636789 6.1601562 12.603516 C 6.1280242 12.595609 6.10404 12.577475 6.0878906 12.550781 C 6.06905 12.519635 6.0643596 12.487205 6.0722656 12.455078 L 6.1328125 12.208984 C 6.1415985 12.173284 6.1611436 12.148086 6.1914062 12.132812 C 6.218979 12.113093 6.2481009 12.101336 6.2792969 12.097656 C 6.4370973 12.087263 6.5738971 12.031939 6.6894531 11.931641 C 6.8058885 11.82777 6.8997336 11.628358 6.9726562 11.332031 C 7.0315215 11.092828 7.0237328 10.882805 6.9472656 10.701172 C 6.8681068 10.515089 6.7174461 10.394316 6.4960938 10.339844 C 6.2783115 10.28625 6.102046 10.322992 5.96875 10.449219 C 5.8327623 10.570997 5.7342546 10.758235 5.671875 11.011719 L 5.5625 11.455078 C 5.5528353 11.494351 5.5297313 11.525342 5.4941406 11.546875 C 5.45855 11.568408 5.4220844 11.57412 5.3828125 11.564453 L 5.1894531 11.517578 C 5.1608911 11.510551 5.1370473 11.498069 5.1191406 11.478516 C 5.0976633 11.458082 5.0758839 11.429045 5.0507812 11.392578 L 4.2480469 10.171875 L 3.8691406 11.714844 C 3.8594753 11.754117 3.8363708 11.785107 3.8007812 11.806641 C 3.7651907 11.828174 3.7287248 11.833885 3.6894531 11.824219 L 3.4960938 11.777344 C 3.4568218 11.767677 3.4258302 11.744571 3.4042969 11.708984 C 3.3827635 11.673391 3.3770539 11.634972 3.3867188 11.595703 L 3.90625 9.4863281 C 3.9159147 9.4470561 3.9390187 9.4160647 3.9746094 9.3945312 C 4.0102 9.3729981 4.0466656 9.3672885 4.0859375 9.3769531 z M 27.820312 11.492188 C 27.898072 11.480085 27.970014 11.47994 28.035156 11.492188 C 28.06817 11.496519 28.092488 11.513775 28.111328 11.544922 C 28.126601 11.575182 28.130954 11.606539 28.123047 11.638672 L 28.068359 11.857422 C 28.057819 11.900262 28.042991 11.931312 28.023438 11.949219 C 28.000317 11.966245 27.962721 11.98252 27.910156 11.996094 C 27.785423 12.02598 27.652016 12.098393 27.509766 12.214844 C 27.368395 12.327724 27.269999 12.500359 27.212891 12.732422 C 27.160177 12.946634 27.163163 13.140783 27.222656 13.314453 C 27.28303 13.484553 27.401567 13.590836 27.580078 13.634766 C 27.701465 13.664639 27.810134 13.653638 27.90625 13.601562 C 27.999675 13.545038 28.094355 13.450678 28.1875 13.318359 C 28.277956 13.181591 28.398438 12.971975 28.550781 12.691406 C 28.758046 12.310761 28.961774 12.056876 29.160156 11.927734 C 29.355848 11.794144 29.587704 11.760278 29.855469 11.826172 C 30.069681 11.878885 30.242596 11.986632 30.376953 12.148438 C 30.512189 12.306668 30.59944 12.505468 30.638672 12.746094 C 30.677905 12.986719 30.662084 13.24954 30.591797 13.535156 C 30.526784 13.799351 30.419186 14.027521 30.265625 14.220703 C 30.112065 14.413885 29.942082 14.5554 29.757812 14.642578 C 29.569974 14.728877 29.399417 14.757204 29.244141 14.726562 C 29.212007 14.718658 29.188028 14.700521 29.171875 14.673828 C 29.153028 14.642688 29.146384 14.610258 29.154297 14.578125 L 29.208984 14.359375 C 29.218651 14.320102 29.235772 14.290131 29.259766 14.269531 C 29.280199 14.248051 29.315503 14.23265 29.367188 14.222656 C 29.509771 14.197163 29.652868 14.121639 29.796875 13.998047 C 29.94176 13.870886 30.047191 13.67664 30.111328 13.416016 C 30.175461 13.155391 30.174155 12.922544 30.107422 12.716797 C 30.037983 12.506602 29.910596 12.378792 29.728516 12.333984 C 29.610699 12.304991 29.500703 12.329183 29.398438 12.40625 C 29.293478 12.478867 29.195531 12.591135 29.101562 12.742188 C 29.004025 12.892359 28.875154 13.116524 28.714844 13.414062 C 28.540366 13.73841 28.350109 13.956135 28.144531 14.068359 C 27.935382 14.179706 27.704992 14.206031 27.455078 14.144531 C 27.269428 14.098845 27.109929 14.0081 26.976562 13.873047 C 26.843196 13.737994 26.752077 13.562216 26.703125 13.345703 C 26.654172 13.12919 26.663695 12.884617 26.730469 12.613281 C 26.797241 12.341946 26.909221 12.11855 27.066406 11.941406 C 27.220022 11.763384 27.387605 11.63735 27.568359 11.564453 C 27.658737 11.528004 27.742554 11.504287 27.820312 11.492188 z M 3.3535156 12.351562 L 3.546875 12.398438 C 3.586147 12.408103 3.6171385 12.43121 3.6386719 12.466797 C 3.6602052 12.50239 3.6659147 12.538856 3.65625 12.578125 L 3.4101562 13.580078 L 6.53125 14.349609 C 6.570522 14.359276 6.6015135 14.380429 6.6230469 14.416016 C 6.6445802 14.451609 6.6502897 14.490028 6.640625 14.529297 L 6.5859375 14.748047 C 6.5762722 14.78732 6.5551214 14.81831 6.5195312 14.839844 C 6.4839407 14.861377 6.4455217 14.867089 6.40625 14.857422 L 3.2851562 14.089844 L 3.0390625 15.089844 C 3.0293972 15.129117 3.0062931 15.160107 2.9707031 15.181641 C 2.9351125 15.203174 2.8966936 15.208885 2.8574219 15.199219 L 2.6660156 15.152344 C 2.6267436 15.142677 2.595752 15.119571 2.5742188 15.083984 C 2.5526853 15.048391 2.546976 15.011926 2.5566406 14.972656 L 3.1738281 12.460938 C 3.1834935 12.421663 3.2065982 12.390674 3.2421875 12.369141 C 3.2777782 12.347607 3.314244 12.341898 3.3535156 12.351562 z M 13.425781 14.191406 C 13.455775 14.198786 13.486011 14.217287 13.517578 14.244141 L 15.832031 16.941406 L 19.25 15.539062 C 19.28442 15.52845 19.319473 15.528229 19.355469 15.537109 C 19.409455 15.550396 19.452714 15.582439 19.484375 15.634766 C 19.511508 15.679612 19.517193 15.72921 19.503906 15.783203 L 19.400391 16.207031 C 19.375297 16.309011 19.338821 16.378836 19.291016 16.417969 C 19.243216 16.457102 19.181315 16.491685 19.103516 16.523438 L 16.365234 17.644531 L 18.269531 19.908203 C 18.323711 19.97243 18.364493 20.032993 18.388672 20.089844 C 18.412859 20.14669 18.411839 20.226143 18.386719 20.328125 L 18.291016 20.714844 C 18.277729 20.76883 18.247499 20.812566 18.201172 20.845703 C 18.150319 20.871363 18.098907 20.876568 18.044922 20.863281 C 18.008929 20.854421 17.978692 20.837873 17.953125 20.8125 L 15.558594 17.970703 L 12.269531 19.318359 C 12.229111 19.327499 12.19406 19.327719 12.164062 19.320312 C 12.110076 19.307026 12.070107 19.279222 12.042969 19.234375 C 12.011309 19.182048 12.000385 19.128207 12.013672 19.074219 L 12.119141 18.652344 C 12.144234 18.550364 12.182522 18.479062 12.236328 18.441406 C 12.291608 18.397753 12.359705 18.359879 12.4375 18.328125 L 15.025391 17.267578 L 13.224609 15.164062 C 13.170429 15.099838 13.127836 15.038795 13.097656 14.980469 C 13.062956 14.914669 13.058891 14.830494 13.083984 14.728516 L 13.179688 14.341797 C 13.192973 14.28781 13.224537 14.248318 13.275391 14.222656 C 13.321717 14.189523 13.371791 14.178126 13.425781 14.191406 z M 26.490234 14.441406 L 26.683594 14.490234 C 26.722867 14.499901 26.751904 14.521054 26.773438 14.556641 C 26.79497 14.592234 26.802635 14.630653 26.792969 14.669922 L 26.359375 16.431641 L 27.595703 16.736328 L 28.001953 15.082031 C 28.01162 15.042758 28.034727 15.011768 28.070312 14.990234 C 28.105906 14.968701 28.144324 14.96299 28.183594 14.972656 L 28.375 15.019531 C 28.414273 15.029198 28.445264 15.052304 28.466797 15.087891 C 28.48833 15.123484 28.494042 15.159949 28.484375 15.199219 L 28.078125 16.855469 L 29.480469 17.199219 C 29.519742 17.208885 29.550732 17.231991 29.572266 17.267578 C 29.593799 17.303171 29.59951 17.341591 29.589844 17.380859 L 29.535156 17.599609 C 29.52549 17.638883 29.504337 17.669873 29.46875 17.691406 C 29.433163 17.71294 29.394744 17.718651 29.355469 17.708984 L 25.896484 16.857422 C 25.857211 16.847755 25.826221 16.824649 25.804688 16.789062 C 25.783154 16.753469 25.777443 16.717004 25.787109 16.677734 L 26.310547 14.550781 C 26.320214 14.511508 26.34332 14.480518 26.378906 14.458984 C 26.414493 14.437451 26.450958 14.43174 26.490234 14.441406 z M 6.1953125 15.835938 C 6.2274445 15.843842 6.2526444 15.863385 6.2714844 15.894531 C 6.2876337 15.921225 6.2911111 15.950289 6.2832031 15.982422 L 6.234375 16.181641 C 6.2080177 16.288747 6.1459907 16.347255 6.0488281 16.357422 L 5.2675781 16.458984 L 4.8105469 18.318359 L 5.4550781 18.771484 C 5.5364252 18.825584 5.5634664 18.906569 5.5371094 19.013672 L 5.4882812 19.210938 C 5.4803732 19.243071 5.4631169 19.269343 5.4355469 19.289062 C 5.4052835 19.304336 5.3739282 19.308695 5.3417969 19.300781 C 5.3239462 19.296381 5.3001024 19.281946 5.2714844 19.259766 L 2.2148438 17.117188 C 2.1084493 17.041778 2.0695422 16.946275 2.0976562 16.832031 L 2.1777344 16.511719 C 2.205849 16.397472 2.2848241 16.331872 2.4140625 16.314453 L 6.1132812 15.837891 C 6.1489274 15.831491 6.1774612 15.831536 6.1953125 15.835938 z M 4.7402344 16.529297 L 2.6464844 16.796875 L 4.375 18.011719 L 4.7402344 16.529297 z M 25.753906 17.4375 L 25.945312 17.484375 C 25.984587 17.494042 26.015576 17.517148 26.037109 17.552734 C 26.058643 17.588321 26.064354 17.62674 26.054688 17.666016 L 25.808594 18.666016 L 28.929688 19.435547 C 28.968961 19.445214 28.999951 19.466366 29.021484 19.501953 C 29.043018 19.53754 29.04873 19.575959 29.039062 19.615234 L 28.986328 19.833984 C 28.976661 19.873258 28.953555 19.904248 28.917969 19.925781 C 28.882382 19.947315 28.843964 19.953026 28.804688 19.943359 L 25.683594 19.175781 L 25.4375 20.177734 C 25.427833 20.217008 25.404727 20.246045 25.369141 20.267578 C 25.333554 20.289111 25.295135 20.294823 25.255859 20.285156 L 25.064453 20.238281 C 25.02518 20.228615 24.99419 20.205509 24.972656 20.169922 C 24.951123 20.134335 24.945411 20.09787 24.955078 20.058594 L 25.572266 17.546875 C 25.581932 17.507602 25.605038 17.476611 25.640625 17.455078 C 25.676212 17.433545 25.714631 17.427833 25.753906 17.4375 z M 1.84375 18.486328 L 2.0371094 18.535156 C 2.0763814 18.544823 2.107373 18.565976 2.1289062 18.601562 C 2.1504397 18.637149 2.156149 18.675568 2.1464844 18.714844 L 1.7128906 20.476562 L 2.9492188 20.78125 L 3.3574219 19.126953 C 3.3670872 19.08768 3.3901912 19.05669 3.4257812 19.035156 C 3.461372 19.013623 3.4978377 19.007911 3.5371094 19.017578 L 3.7304688 19.064453 C 3.7697413 19.07412 3.7987798 19.097226 3.8203125 19.132812 C 3.8418458 19.168406 3.8495082 19.204871 3.8398438 19.244141 L 3.4316406 20.900391 L 4.8339844 21.244141 C 4.873257 21.253807 4.9042486 21.276913 4.9257812 21.3125 C 4.9473147 21.348087 4.953024 21.386505 4.9433594 21.425781 L 4.890625 21.644531 C 4.8809597 21.683805 4.857855 21.714795 4.8222656 21.736328 C 4.786675 21.757861 4.7482561 21.763573 4.7089844 21.753906 L 1.25 20.902344 C 1.2107273 20.892677 1.1797358 20.869571 1.1582031 20.833984 C 1.1366698 20.798398 1.1309603 20.761932 1.140625 20.722656 L 1.6640625 18.595703 C 1.6737278 18.55643 1.6968325 18.527393 1.7324219 18.505859 C 1.7680125 18.484326 1.8044783 18.476661 1.84375 18.486328 z M 12.011719 20.130859 L 12.335938 20.210938 C 12.401923 20.227174 12.454054 20.264419 12.490234 20.324219 C 12.526414 20.384019 12.535771 20.447685 12.519531 20.513672 L 11.792969 23.464844 L 13.691406 23.931641 L 14.369141 21.179688 C 14.385377 21.113699 14.422622 21.061571 14.482422 21.025391 C 14.542222 20.989211 14.605888 20.979854 14.671875 20.996094 L 14.996094 21.076172 C 15.062082 21.092409 15.112255 21.129653 15.148438 21.189453 C 15.184617 21.249253 15.195925 21.31292 15.179688 21.378906 L 14.501953 24.130859 L 16.472656 24.617188 L 17.216797 21.59375 C 17.233034 21.527762 17.270278 21.475633 17.330078 21.439453 C 17.389879 21.403273 17.453545 21.393916 17.519531 21.410156 L 17.841797 21.490234 C 17.907785 21.506472 17.959914 21.543716 17.996094 21.603516 C 18.032274 21.663316 18.041631 21.726982 18.025391 21.792969 L 17.130859 25.427734 C 17.114623 25.493722 17.077378 25.543898 17.017578 25.580078 C 16.957778 25.616258 16.894112 25.627568 16.828125 25.611328 L 11.015625 24.179688 C 10.949636 24.16345 10.899461 24.126206 10.863281 24.066406 C 10.827101 24.006606 10.815791 23.94294 10.832031 23.876953 L 11.708984 20.314453 C 11.725221 20.248464 11.764419 20.196336 11.824219 20.160156 C 11.88402 20.123976 11.945732 20.114619 12.011719 20.130859 z M 24.921875 20.818359 L 28.380859 21.669922 C 28.420133 21.679589 28.451123 21.702695 28.472656 21.738281 C 28.49419 21.773868 28.499901 21.810333 28.490234 21.849609 L 28.443359 22.037109 C 28.431939 22.083523 28.407567 22.119429 28.371094 22.144531 C 28.334627 22.169638 28.288361 22.193064 28.230469 22.212891 L 25.183594 23.308594 L 27.818359 23.957031 C 27.857633 23.966698 27.88667 23.989804 27.908203 24.025391 C 27.929736 24.060977 27.937401 24.097443 27.927734 24.136719 L 27.873047 24.357422 C 27.86338 24.396695 27.840273 24.425732 27.804688 24.447266 C 27.769101 24.468799 27.732635 24.47451 27.693359 24.464844 L 24.232422 23.613281 C 24.193149 23.603615 24.164111 23.582462 24.142578 23.546875 C 24.121045 23.511288 24.115333 23.47287 24.125 23.433594 L 24.169922 23.246094 C 24.181342 23.19968 24.205714 23.163775 24.242188 23.138672 C 24.278652 23.113572 24.324921 23.092099 24.382812 23.072266 L 27.431641 21.976562 L 24.796875 21.328125 C 24.757602 21.318458 24.726611 21.295352 24.705078 21.259766 C 24.683545 21.224172 24.677833 21.185753 24.6875 21.146484 L 24.740234 20.927734 C 24.749901 20.888461 24.773007 20.857471 24.808594 20.835938 C 24.844187 20.814404 24.882606 20.808693 24.921875 20.818359 z "
     id="path4137" />
</svg>
