<?xml version="1.0" encoding="UTF-8" standalone="no"?>
<svg
   xmlns:dc="http://purl.org/dc/elements/1.1/"
   xmlns:cc="http://creativecommons.org/ns#"
   xmlns:rdf="http://www.w3.org/1999/02/22-rdf-syntax-ns#"
   xmlns:svg="http://www.w3.org/2000/svg"
   xmlns="http://www.w3.org/2000/svg"
   xmlns:sodipodi="http://sodipodi.sourceforge.net/DTD/sodipodi-0.dtd"
   xmlns:inkscape="http://www.inkscape.org/namespaces/inkscape"
   height="32"
   width="32"
   version="1.1"
   id="svg5"
   sodipodi:docname="preference-system-locale.svg"
   inkscape:version="0.92.1 r">
  <metadata
     id="metadata9">
    <rdf:RDF>
      <cc:Work
         rdf:about="">
        <dc:format>image/svg+xml</dc:format>
        <dc:type
           rdf:resource="http://purl.org/dc/dcmitype/StillImage" />
        <dc:title></dc:title>
      </cc:Work>
    </rdf:RDF>
  </metadata>
  <defs
     id="defs7" />
  <sodipodi:namedview
     id="namedview1"
     showgrid="true"
     inkscape:zoom="20.85965"
     inkscape:cx="13.133813"
     inkscape:cy="15.128723"
     inkscape:window-width="1680"
     inkscape:window-height="1016"
     inkscape:window-x="0"
     inkscape:window-y="0"
     inkscape:window-maximized="1"
     inkscape:current-layer="svg5">
    <inkscape:grid
       type="xygrid"
       id="grid1px"
       empspacing="4" />
    <inkscape:grid
       type="xygrid"
       id="grid1pxdot"
       empspacing="1"
       dotted="true"
       originy="0.5"
       originx="0.5" />
  </sodipodi:namedview>
  <path
     style="opacity:0.98999999;fill:none;fill-opacity:1;fill-rule:nonzero;stroke:#000000;stroke-width:1;stroke-linecap:round;stroke-linejoin:round;stroke-miterlimit:4;stroke-dasharray:none;stroke-dashoffset:0;stroke-opacity:1;paint-order:fill markers stroke"
     d="m 2.5,5.5 v 22 l 8,-8 h 19 v -14 z"
     id="path4497"
     inkscape:connector-curvature="0" />
  <path
     style="opacity:0.98999999;fill:#000000;fill-opacity:1;fill-rule:nonzero;stroke:none;stroke-width:1;stroke-linecap:round;stroke-linejoin:round;stroke-miterlimit:4;stroke-dasharray:none;stroke-dashoffset:0;stroke-opacity:1;paint-order:fill markers stroke"
     d="M 2.5 5.5 L 2.5 27.5 L 10.5 19.5 L 15.5 19.5 L 15.5 5.5 L 2.5 5.5 z M 8.6601562 7.9179688 L 9.5 7.9179688 C 9.7984482 7.9179688 10.007662 8.0711314 10.128906 8.3789062 L 13.542969 17.207031 C 13.580275 17.29097 13.597656 17.355712 13.597656 17.402344 C 13.597656 17.486282 13.565287 17.561667 13.5 17.626953 C 13.44404 17.682913 13.374953 17.710938 13.291016 17.710938 L 12.773438 17.710938 C 12.493642 17.710938 12.310501 17.594491 12.226562 17.361328 L 11.5 15.5 L 6.6464844 15.5 L 5.9179688 17.361328 C 5.8340302 17.594491 5.6528422 17.710938 5.3730469 17.710938 L 4.8554688 17.710938 C 4.7715302 17.710938 4.6961449 17.682913 4.6308594 17.626953 C 4.5749 17.561666 4.546875 17.486282 4.546875 17.402344 C 4.546875 17.35571 4.5662096 17.290969 4.6035156 17.207031 L 8.03125 8.3789062 C 8.1524946 8.0711314 8.3617078 7.9179688 8.6601562 7.9179688 z M 9.0800781 9.2460938 L 7.1347656 14.240234 L 11.009766 14.240234 L 9.0800781 9.2460938 z "
     id="path4499" />
  <text
     xml:space="preserve"
     style="font-style:normal;font-variant:normal;font-weight:normal;font-stretch:normal;font-size:10.8348074px;line-height:13.72015667px;font-family:contemporary;-inkscape-font-specification:'contemporary, Normal';text-align:start;letter-spacing:0px;word-spacing:0px;writing-mode:lr-tb;text-anchor:start;fill:#000000;fill-opacity:1;stroke:none;stroke-width:1px;stroke-linecap:butt;stroke-linejoin:miter;stroke-opacity:1"
     x="17.212395"
     y="16.402124"
     id="text4509"><tspan
       sodipodi:role="line"
       id="tspan4507"
       x="17.212395"
       y="16.402124"
       style="stroke-width:1px">文</tspan></text>
</svg>
