<?xml version="1.0" encoding="UTF-8" standalone="no"?>
<svg
   xmlns:dc="http://purl.org/dc/elements/1.1/"
   xmlns:cc="http://creativecommons.org/ns#"
   xmlns:rdf="http://www.w3.org/1999/02/22-rdf-syntax-ns#"
   xmlns:svg="http://www.w3.org/2000/svg"
   xmlns="http://www.w3.org/2000/svg"
   xmlns:sodipodi="http://sodipodi.sourceforge.net/DTD/sodipodi-0.dtd"
   xmlns:inkscape="http://www.inkscape.org/namespaces/inkscape"
   height="32"
   width="32"
   version="1.1"
   id="svg5"
   sodipodi:docname="preferences-desktop-sound.svg"
   inkscape:version="0.92.0 r">
  <metadata
     id="metadata9">
    <rdf:RDF>
      <cc:Work
         rdf:about="">
        <dc:format>image/svg+xml</dc:format>
        <dc:type
           rdf:resource="http://purl.org/dc/dcmitype/StillImage" />
        <dc:title></dc:title>
      </cc:Work>
    </rdf:RDF>
  </metadata>
  <defs
     id="defs7" />
  <sodipodi:namedview
     id="namedview1"
     showgrid="true"
     inkscape:zoom="14.75"
     inkscape:cx="14.765833"
     inkscape:cy="24.110959"
     inkscape:window-width="1680"
     inkscape:window-height="1016"
     inkscape:window-x="0"
     inkscape:window-y="0"
     inkscape:window-maximized="1"
     inkscape:current-layer="svg5">
    <inkscape:grid
       type="xygrid"
       id="grid1px"
       empspacing="4" />
    <inkscape:grid
       type="xygrid"
       id="grid1pxdot"
       empspacing="1"
       dotted="true"
       originy="0.5"
       originx="0.5" />
  </sodipodi:namedview>
  <path
     style="opacity:1;fill:#000000;fill-opacity:1;fill-rule:nonzero;stroke:none;stroke-width:1;stroke-linecap:round;stroke-linejoin:round;stroke-miterlimit:4;stroke-dasharray:none;stroke-dashoffset:0;stroke-opacity:1"
     d="M 16 0 A 16 16 0 0 0 0 16 A 16 16 0 0 0 16 32 A 16 16 0 0 0 32 16 A 16 16 0 0 0 16 0 z M 13.888672 8 A 0.53338669 0.53338669 0 0 1 14.4375 8.5332031 L 14.4375 23.466797 A 0.53338669 0.53338669 0 0 1 13.525391 23.841797 L 8.7539062 19.021484 L 5.6914062 19.021484 A 0.53338669 0.53338669 0 0 1 5.1582031 18.488281 L 5.1582031 13.511719 A 0.53338669 0.53338669 0 0 1 5.6914062 12.978516 L 8.7539062 12.978516 L 13.525391 8.1582031 A 0.53338669 0.53338669 0 0 1 13.888672 8 z M 24.982422 9.328125 A 0.53338669 0.53338669 0 0 1 25.492188 9.6484375 C 27.322675 13.864639 27.257068 18.140331 25.496094 22.345703 A 0.53338669 0.53338669 0 0 1 24.673828 22.558594 L 16.859375 16.419922 A 0.53338669 0.53338669 0 0 1 16.859375 15.580078 L 24.673828 9.4414062 A 0.53338669 0.53338669 0 0 1 24.982422 9.328125 z "
     id="path4486" />
</svg>
