<?xml version="1.0" encoding="UTF-8" standalone="no"?>
<svg
   xmlns:dc="http://purl.org/dc/elements/1.1/"
   xmlns:cc="http://creativecommons.org/ns#"
   xmlns:rdf="http://www.w3.org/1999/02/22-rdf-syntax-ns#"
   xmlns:svg="http://www.w3.org/2000/svg"
   xmlns="http://www.w3.org/2000/svg"
   xmlns:sodipodi="http://sodipodi.sourceforge.net/DTD/sodipodi-0.dtd"
   xmlns:inkscape="http://www.inkscape.org/namespaces/inkscape"
   height="32"
   width="32"
   version="1.1"
   id="svg5"
   sodipodi:docname="preferences-desktop-about.svg"
   inkscape:version="0.92.2 5c3e80d, 2017-08-06">
  <metadata
     id="metadata9">
    <rdf:RDF>
      <cc:Work
         rdf:about="">
        <dc:format>image/svg+xml</dc:format>
        <dc:type
           rdf:resource="http://purl.org/dc/dcmitype/StillImage" />
        <dc:title></dc:title>
      </cc:Work>
    </rdf:RDF>
  </metadata>
  <defs
     id="defs7" />
  <sodipodi:namedview
     id="namedview1"
     showgrid="true"
     inkscape:zoom="20.85965"
     inkscape:cx="14.275021"
     inkscape:cy="12.68135"
     inkscape:window-width="1680"
     inkscape:window-height="1016"
     inkscape:window-x="0"
     inkscape:window-y="0"
     inkscape:window-maximized="1"
     inkscape:current-layer="svg5">
    <inkscape:grid
       type="xygrid"
       id="grid1px"
       empspacing="4" />
    <inkscape:grid
       type="xygrid"
       id="grid1pxdot"
       empspacing="1"
       dotted="true"
       originy="0.5"
       originx="0.5" />
  </sodipodi:namedview>
  <rect
     style="opacity:0.98999999;fill:#0064c8;fill-opacity:1;fill-rule:nonzero;stroke:none;stroke-width:1;stroke-linecap:round;stroke-linejoin:round;stroke-miterlimit:4;stroke-dasharray:none;stroke-dashoffset:0;stroke-opacity:1;paint-order:fill markers stroke"
     id="rect815"
     width="30"
     height="30"
     x="1"
     y="1"
     ry="3" />
  <path
     inkscape:connector-curvature="0"
     style="opacity:0.98999999;fill:#ffffff;fill-opacity:1;fill-rule:nonzero;stroke:none;stroke-width:1;stroke-linecap:round;stroke-linejoin:round;stroke-miterlimit:4;stroke-dasharray:none;stroke-dashoffset:0;stroke-opacity:1"
     d="M 16,4 A 12,12 0 0 0 4,16 12,12 0 0 0 16,28 12,12 0 0 0 28,16 12,12 0 0 0 16,4 Z m 0,3 a 1.50015,1.50015 0 0 1 0.105465,0.003 1.50015,1.50015 0 0 1 0.149415,0.0147 1.50015,1.50015 0 0 1 0.14649,0.03222 1.50015,1.50015 0 0 1 0.14355,0.04395 1.50015,1.50015 0 0 1 0.1377,0.05859 1.50015,1.50015 0 0 1 0.12891,0.073245 1.50015,1.50015 0 0 1 0.433593,0.410157 1.50015,1.50015 0 0 1 0.08204,0.12597 1.50015,1.50015 0 0 1 0.12012,0.27246 1.50015,1.50015 0 0 1 0.03808,0.14649 1.50015,1.50015 0 0 1 0.02637,0.14649 1.50015,1.50015 0 0 1 0.003,0.2988285 1.50015,1.50015 0 0 1 -0.05272,0.2958975 1.50015,1.50015 0 0 1 -0.0498,0.140625 1.50015,1.50015 0 0 1 -0.140625,0.266601 1.50015,1.50015 0 0 1 -0.298829,0.331056 1.50015,1.50015 0 0 1 -0.251952,0.166992 1.50015,1.50015 0 0 1 -0.134759,0.061515 1.50015,1.50015 0 0 1 -0.140625,0.0498 1.50015,1.50015 0 0 1 -0.146491,0.03516 1.50015,1.50015 0 0 1 -0.14942,0.020505 A 1.50015,1.50015 0 0 1 16,10 1.50015,1.50015 0 0 1 16,7 Z m -0.02345,4.479492 A 1.50015,1.50015 0 0 1 17.5,13 v 12 a 1.50015,1.50015 0 1 1 -3,0 V 13 a 1.50015,1.50015 0 0 1 1.476563,-1.520508 z"
     id="path4139" />
</svg>
