<?xml version="1.0" encoding="UTF-8" standalone="no"?>
<svg
   xmlns:dc="http://purl.org/dc/elements/1.1/"
   xmlns:cc="http://creativecommons.org/ns#"
   xmlns:rdf="http://www.w3.org/1999/02/22-rdf-syntax-ns#"
   xmlns:svg="http://www.w3.org/2000/svg"
   xmlns="http://www.w3.org/2000/svg"
   xmlns:sodipodi="http://sodipodi.sourceforge.net/DTD/sodipodi-0.dtd"
   xmlns:inkscape="http://www.inkscape.org/namespaces/inkscape"
   height="32"
   width="32"
   version="1.1"
   id="svg5"
   sodipodi:docname="preferences-system-time.svg"
   inkscape:version="0.92.2 5c3e80d, 2017-08-06">
  <metadata
     id="metadata9">
    <rdf:RDF>
      <cc:Work
         rdf:about="">
        <dc:format>image/svg+xml</dc:format>
        <dc:type
           rdf:resource="http://purl.org/dc/dcmitype/StillImage" />
        <dc:title></dc:title>
      </cc:Work>
    </rdf:RDF>
  </metadata>
  <defs
     id="defs7" />
  <sodipodi:namedview
     id="namedview1"
     showgrid="true"
     inkscape:zoom="20.85965"
     inkscape:cx="16.375536"
     inkscape:cy="19.636357"
     inkscape:window-width="1680"
     inkscape:window-height="1016"
     inkscape:window-x="0"
     inkscape:window-y="0"
     inkscape:window-maximized="1"
     inkscape:current-layer="svg5">
    <inkscape:grid
       type="xygrid"
       id="grid1px"
       empspacing="4" />
    <inkscape:grid
       type="xygrid"
       id="grid1pxdot"
       empspacing="1"
       dotted="true"
       originy="0.5"
       originx="0.5" />
  </sodipodi:namedview>
  <rect
     style="opacity:0.98999999;fill:#006464;fill-opacity:1;fill-rule:nonzero;stroke:none;stroke-width:1;stroke-linecap:round;stroke-linejoin:round;stroke-miterlimit:4;stroke-dasharray:none;stroke-dashoffset:0;stroke-opacity:1;paint-order:fill markers stroke"
     id="rect817"
     width="30"
     height="30"
     x="1"
     y="1"
     ry="2.75" />
  <path
     style="opacity:0.98999999;fill:#ffffff;fill-opacity:1;fill-rule:nonzero;stroke:none;stroke-width:0.99999994;stroke-linecap:round;stroke-linejoin:round;stroke-miterlimit:4;stroke-dasharray:none;stroke-dashoffset:0;stroke-opacity:1;paint-order:fill markers stroke"
     d="m 4.5,4.5 v 7.666667 h 23 V 4.5 Z m 3.4123988,0.3460648 h 3.9448062 c 0.07285,0 0.135027,0.026882 0.188006,0.079861 0.05298,0.052979 0.07986,0.1151593 0.07986,0.1880064 v 0.3577112 c 0,0.072847 -0.02688,0.1366906 -0.07986,0.1896701 -0.05298,0.052979 -0.115159,0.078197 -0.188006,0.078197 H 8.5878906 V 8.035518 h 3.0696614 c 0.07285,0 0.13669,0.025218 0.18967,0.078197 0.05298,0.052979 0.0782,0.1168228 0.0782,0.1896701 v 0.3577112 c 0,0.072847 -0.02521,0.1350267 -0.0782,0.1880064 -0.05298,0.052979 -0.116823,0.079861 -0.18967,0.079861 H 8.5878906 v 2.6021403 c 0,0.07285 -0.025217,0.136692 -0.078197,0.18967 -0.052979,0.05298 -0.116823,0.07986 -0.1896701,0.07986 H 7.9123988 c -0.072847,0 -0.1350267,-0.02688 -0.1880065,-0.07986 -0.052979,-0.05298 -0.079861,-0.116823 -0.079861,-0.18967 V 5.1139323 c 2e-7,-0.072847 0.026882,-0.1350267 0.079861,-0.1880064 0.05298,-0.052979 0.1151593,-0.079861 0.1880065,-0.079861 z m 5.7233792,0 h 3.934824 c 0.07285,0 0.135027,0.026882 0.188006,0.079861 0.05298,0.052979 0.07986,0.1151594 0.07986,0.1880064 v 0.3577112 c 0,0.072847 -0.02688,0.1366907 -0.07986,0.1896701 -0.05298,0.052979 -0.115159,0.078197 -0.188006,0.078197 H 14.31127 v 2.0963541 h 3.039714 c 0.07285,0 0.13669,0.026882 0.18967,0.079861 0.05298,0.05298 0.07986,0.1151593 0.07986,0.1880064 v 0.3577111 c 0,0.072847 -0.02688,0.1366907 -0.07986,0.1896702 -0.05298,0.052979 -0.116824,0.079861 -0.18967,0.079861 H 14.31127 v 2.1745507 h 3.339193 c 0.07285,0 0.135027,0.02689 0.188006,0.07986 0.05298,0.05298 0.07986,0.115159 0.07986,0.188006 v 0.357711 c 0,0.07285 -0.02688,0.136692 -0.07986,0.18967 -0.05298,0.05298 -0.115159,0.07986 -0.188006,0.07986 h -4.014685 c -0.07285,2e-6 -0.135026,-0.02688 -0.188006,-0.07986 -0.05298,-0.05298 -0.07986,-0.116823 -0.07986,-0.18967 V 5.1139323 c 0,-0.072847 0.02688,-0.1350269 0.07986,-0.1880064 0.05298,-0.052979 0.115159,-0.079861 0.188006,-0.079861 z m 5.879775,0 h 2.662037 c 0.523174,0 0.946622,0.102502 1.271123,0.307798 0.3245,0.1986737 0.556385,0.4406396 0.695457,0.7254051 0.13907,0.2847657 0.207971,0.5636936 0.207972,0.8352142 0,0.3708575 -0.08906,0.6716429 -0.267869,0.9034288 -0.178806,0.2251635 -0.353568,0.3898451 -0.525751,0.4958044 0.278143,0.1854287 0.503308,0.4240344 0.675492,0.7154224 0.178806,0.2847657 0.267867,0.6023519 0.267867,0.9533421 0,0.3443672 -0.0857,0.6736982 -0.257885,0.9849532 -0.165561,0.304633 -0.414247,0.551656 -0.745371,0.743707 -0.331122,0.192052 -0.724329,0.289496 -1.181278,0.289496 h -2.801794 c -0.07285,0 -0.136691,-0.02688 -0.18967,-0.07986 -0.05298,-0.05298 -0.0782,-0.116823 -0.0782,-0.18967 V 5.1139323 c 0,-0.072847 0.02521,-0.1350267 0.0782,-0.1880064 0.05298,-0.052979 0.116823,-0.079861 0.18967,-0.079861 z m 0.675492,0.8934462 v 2.0081742 h 1.886719 c 0.437081,0 0.768108,-0.087365 0.993272,-0.2595486 C 23.2962,7.3159528 23.408782,7.0689303 23.408782,6.74443 23.408782,6.4199297 23.2962,6.1712435 23.071036,5.9990596 22.845872,5.8268758 22.514845,5.739511 22.077764,5.739511 Z m 0,2.9016204 v 2.2643946 h 2.026475 c 0.423837,0 0.751504,-0.105862 0.98329,-0.31778 0.238409,-0.218541 0.357712,-0.487388 0.357712,-0.8052662 0,-0.3245004 -0.112583,-0.5950442 -0.337747,-0.8135851 C 22.995613,8.7503536 22.661225,8.6411314 22.21752,8.6411314 Z"
     id="rect4486"
     inkscape:connector-curvature="0" />
  <rect
     style="opacity:0.98999999;fill:none;fill-opacity:1;fill-rule:nonzero;stroke:#ffffff;stroke-width:0.99999994;stroke-linecap:round;stroke-linejoin:round;stroke-miterlimit:4;stroke-dasharray:none;stroke-dashoffset:0;stroke-opacity:1;paint-order:fill markers stroke"
     id="rect4488"
     width="23"
     height="23"
     x="4.5"
     y="4.5"
     ry="6.1624664e-06" />
  <g
     aria-label="15"
     style="font-style:normal;font-variant:normal;font-weight:normal;font-stretch:normal;font-size:16.81768608px;line-height:21.29629707px;font-family:contemporary;-inkscape-font-specification:'contemporary, Normal';text-align:start;letter-spacing:0px;word-spacing:0px;writing-mode:lr-tb;text-anchor:start;fill:#ffffff;fill-opacity:1;stroke:none;stroke-width:0.99999994px;stroke-linecap:butt;stroke-linejoin:miter;stroke-opacity:1"
     id="text4509">
    <path
       d="m 12.462075,24.915576 q 0,0.184995 -0.134541,0.319536 -0.134542,0.134542 -0.319536,0.134542 h -0.689525 q -0.184995,0 -0.319536,-0.134542 -0.134542,-0.134541 -0.134542,-0.319536 V 15.649031 L 8.13993,17.717607 q -0.1177238,0.100906 -0.2859007,0.100906 -0.2186299,0 -0.3531714,-0.168177 L 7.0972335,17.128988 q -0.1009062,-0.134542 -0.1009062,-0.285901 0,-0.21863 0.1849946,-0.353172 l 3.5989851,-2.7581 q 0.184994,-0.134542 0.538166,-0.134542 h 0.689525 q 0.184994,0 0.319536,0.134542 0.134541,0.134541 0.134541,0.319536 z"
       style="fill:#ffffff;fill-opacity:1;stroke-width:0.99999994px"
       id="path819" />
    <path
       d="m 21.236966,24.024239 q 1.16042,0 1.917216,-0.622255 0.756796,-0.639072 0.756796,-1.81631 0,-1.177238 -0.756796,-1.799492 -0.756796,-0.639072 -1.917216,-0.639072 -0.689525,0 -1.076332,0.168177 -0.386807,0.151359 -0.773614,0.420442 -0.201812,0.151359 -0.353171,0.235447 -0.134541,0.06727 -0.319536,0.06727 h -0.857702 q -0.151359,0 -0.269083,-0.100906 -0.100906,-0.117724 -0.100906,-0.269083 l 0.504531,-5.617107 q 0,-0.184995 0.134541,-0.319536 0.134542,-0.134542 0.319536,-0.134542 h 5.936643 q 0.184995,0 0.319536,0.134542 0.134542,0.134541 0.134542,0.319536 v 0.605437 q 0,0.184994 -0.134542,0.319536 -0.134541,0.134541 -0.319536,0.134541 h -4.893946 l -0.269083,2.90946 q 0.857702,-0.386807 2.018122,-0.386807 1.194056,0 2.152664,0.487713 0.975426,0.470895 1.547227,1.37905 0.571801,0.891338 0.571801,2.085393 0,1.194056 -0.571801,2.102211 -0.571801,0.891337 -1.547227,1.37905 -0.958608,0.470896 -2.152664,0.470896 -1.109967,0 -2.085393,-0.403625 -0.975426,-0.420442 -1.564045,-1.16042 -0.588619,-0.739978 -0.605437,-1.664951 0,-0.151359 0.100906,-0.252265 0.117724,-0.117724 0.269083,-0.117724 h 0.773614 q 0.151359,0 0.269083,0.100906 0.117724,0.100906 0.168177,0.269083 0.21863,0.773613 0.958608,1.244509 0.739978,0.470895 1.715404,0.470895 z"
       style="fill:#ffffff;fill-opacity:1;stroke-width:0.99999994px"
       id="path821" />
  </g>
</svg>
