<?xml version="1.0" encoding="UTF-8" standalone="no"?>
<svg
   xmlns:dc="http://purl.org/dc/elements/1.1/"
   xmlns:cc="http://creativecommons.org/ns#"
   xmlns:rdf="http://www.w3.org/1999/02/22-rdf-syntax-ns#"
   xmlns:svg="http://www.w3.org/2000/svg"
   xmlns="http://www.w3.org/2000/svg"
   xmlns:sodipodi="http://sodipodi.sourceforge.net/DTD/sodipodi-0.dtd"
   xmlns:inkscape="http://www.inkscape.org/namespaces/inkscape"
   height="32"
   width="32"
   version="1.1"
   id="svg5"
   sodipodi:docname="preferences-system-time.svg"
   inkscape:version="0.92.1 r">
  <metadata
     id="metadata9">
    <rdf:RDF>
      <cc:Work
         rdf:about="">
        <dc:format>image/svg+xml</dc:format>
        <dc:type
           rdf:resource="http://purl.org/dc/dcmitype/StillImage" />
        <dc:title></dc:title>
      </cc:Work>
    </rdf:RDF>
  </metadata>
  <defs
     id="defs7" />
  <sodipodi:namedview
     id="namedview1"
     showgrid="true"
     inkscape:zoom="10.429825"
     inkscape:cx="-4.9548075"
     inkscape:cy="28.016422"
     inkscape:window-width="1680"
     inkscape:window-height="1016"
     inkscape:window-x="0"
     inkscape:window-y="0"
     inkscape:window-maximized="1"
     inkscape:current-layer="svg5">
    <inkscape:grid
       type="xygrid"
       id="grid1px"
       empspacing="4" />
    <inkscape:grid
       type="xygrid"
       id="grid1pxdot"
       empspacing="1"
       dotted="true"
       originy="0.5"
       originx="0.5" />
  </sodipodi:namedview>
  <path
     style="opacity:0.98999999;fill:#000000;fill-opacity:1;fill-rule:nonzero;stroke:none;stroke-width:0.99999994;stroke-linecap:round;stroke-linejoin:round;stroke-miterlimit:4;stroke-dasharray:none;stroke-dashoffset:0;stroke-opacity:1;paint-order:fill markers stroke"
     d="M 2.5 2.5 L 2.5 11.5 L 29.5 11.5 L 29.5 2.5 L 2.5 2.5 z M 6.5058594 2.90625 L 11.136719 2.90625 C 11.222235 2.90625 11.295229 2.9378067 11.357422 3 C 11.419615 3.0621933 11.451172 3.1351869 11.451172 3.2207031 L 11.451172 3.640625 C 11.451172 3.726141 11.419615 3.8010878 11.357422 3.8632812 C 11.295229 3.9254746 11.222235 3.9550781 11.136719 3.9550781 L 7.2988281 3.9550781 L 7.2988281 6.6503906 L 10.902344 6.6503906 C 10.98786 6.6503906 11.062806 6.6799942 11.125 6.7421875 C 11.187193 6.8043808 11.216797 6.8793274 11.216797 6.9648438 L 11.216797 7.3847656 C 11.216797 7.4702816 11.187193 7.5432752 11.125 7.6054688 C 11.062807 7.6676621 10.98786 7.6992188 10.902344 7.6992188 L 7.2988281 7.6992188 L 7.2988281 10.753906 C 7.2988281 10.839422 7.2692246 10.91437 7.2070312 10.976562 C 7.144838 11.038756 7.0698912 11.070312 6.984375 11.070312 L 6.5058594 11.070312 C 6.4203434 11.070312 6.3473498 11.038756 6.2851562 10.976562 C 6.2229629 10.914369 6.1914063 10.839422 6.1914062 10.753906 L 6.1914062 3.2207031 C 6.1914064 3.1351871 6.2229629 3.0621935 6.2851562 3 C 6.3473496 2.9378067 6.4203432 2.90625 6.5058594 2.90625 z M 13.224609 2.90625 L 17.84375 2.90625 C 17.929266 2.90625 18.00226 2.9378067 18.064453 3 C 18.126646 3.0621935 18.158203 3.1351871 18.158203 3.2207031 L 18.158203 3.640625 C 18.158203 3.7261412 18.126646 3.801088 18.064453 3.8632812 C 18.00226 3.9254746 17.929266 3.9550781 17.84375 3.9550781 L 14.017578 3.9550781 L 14.017578 6.4160156 L 17.585938 6.4160156 C 17.671453 6.4160156 17.7464 6.4475723 17.808594 6.5097656 C 17.870787 6.5719591 17.902344 6.6449527 17.902344 6.7304688 L 17.902344 7.1503906 C 17.902344 7.2359068 17.870787 7.3108535 17.808594 7.3730469 C 17.7464 7.4352402 17.671453 7.4667969 17.585938 7.4667969 L 14.017578 7.4667969 L 14.017578 10.019531 L 17.9375 10.019531 C 18.023016 10.019531 18.09601 10.051088 18.158203 10.113281 C 18.220396 10.175475 18.251953 10.248468 18.251953 10.333984 L 18.251953 10.753906 C 18.251953 10.839422 18.220396 10.91437 18.158203 10.976562 C 18.09601 11.038756 18.023016 11.070314 17.9375 11.070312 L 13.224609 11.070312 C 13.139093 11.070314 13.0661 11.038756 13.003906 10.976562 C 12.941713 10.914369 12.910156 10.839422 12.910156 10.753906 L 12.910156 3.2207031 C 12.910156 3.1351869 12.941713 3.0621933 13.003906 3 C 13.0661 2.9378067 13.139093 2.90625 13.224609 2.90625 z M 20.126953 2.90625 L 23.251953 2.90625 C 23.866114 2.90625 24.363205 3.0265784 24.744141 3.2675781 C 25.125076 3.5008037 25.397289 3.7848506 25.560547 4.1191406 C 25.723804 4.4534307 25.804687 4.7808678 25.804688 5.0996094 C 25.804688 5.5349638 25.700137 5.8880598 25.490234 6.1601562 C 25.280331 6.4244786 25.075176 6.6178005 24.873047 6.7421875 C 25.199563 6.9598647 25.463887 7.239967 25.666016 7.5820312 C 25.875919 7.9163214 25.980469 8.2891399 25.980469 8.7011719 C 25.980469 9.1054295 25.879864 9.4920351 25.677734 9.8574219 C 25.48338 10.215034 25.191444 10.505017 24.802734 10.730469 C 24.414025 10.955921 23.952434 11.070312 23.416016 11.070312 L 20.126953 11.070312 C 20.041437 11.070312 19.96649 11.038756 19.904297 10.976562 C 19.842104 10.914369 19.8125 10.839422 19.8125 10.753906 L 19.8125 3.2207031 C 19.8125 3.1351871 19.842104 3.0621935 19.904297 3 C 19.96649 2.9378067 20.041437 2.90625 20.126953 2.90625 z M 20.919922 3.9550781 L 20.919922 6.3125 L 23.134766 6.3125 C 23.647862 6.3125 24.036459 6.2099414 24.300781 6.0078125 C 24.565104 5.8056837 24.697266 5.5157008 24.697266 5.1347656 C 24.697266 4.7538305 24.565104 4.4618945 24.300781 4.2597656 C 24.036459 4.0576368 23.647862 3.9550781 23.134766 3.9550781 L 20.919922 3.9550781 z M 20.919922 7.3613281 L 20.919922 10.019531 L 23.298828 10.019531 C 23.796376 10.019531 24.181028 9.8952581 24.453125 9.6464844 C 24.732996 9.3899362 24.873047 9.0743328 24.873047 8.7011719 C 24.873047 8.3202367 24.740885 8.0026418 24.476562 7.7460938 C 24.212241 7.4895455 23.819699 7.3613281 23.298828 7.3613281 L 20.919922 7.3613281 z "
     id="rect4486" />
  <rect
     style="opacity:0.98999999;fill:none;fill-opacity:1;fill-rule:nonzero;stroke:#000000;stroke-width:1;stroke-linecap:round;stroke-linejoin:round;stroke-miterlimit:4;stroke-dasharray:none;stroke-dashoffset:0;stroke-opacity:1;paint-order:fill markers stroke"
     id="rect4488"
     width="27"
     height="27"
     x="2.5"
     y="2.5"
     ry="7.2342e-06" />
  <text
     xml:space="preserve"
     style="font-style:normal;font-variant:normal;font-weight:normal;font-stretch:normal;font-size:19.74250031px;line-height:25px;font-family:contemporary;-inkscape-font-specification:'contemporary, Normal';text-align:start;letter-spacing:0px;word-spacing:0px;writing-mode:lr-tb;text-anchor:start;fill:#000000;fill-opacity:1;stroke:none;stroke-width:1px;stroke-linecap:butt;stroke-linejoin:miter;stroke-opacity:1"
     x="3.4167364"
     y="26.999159"
     id="text4509"><tspan
       sodipodi:role="line"
       id="tspan4507"
       x="3.4167364"
       y="26.999159">15</tspan></text>
</svg>
