<?xml version="1.0" encoding="UTF-8" standalone="no"?>
<svg
   xmlns:dc="http://purl.org/dc/elements/1.1/"
   xmlns:cc="http://creativecommons.org/ns#"
   xmlns:rdf="http://www.w3.org/1999/02/22-rdf-syntax-ns#"
   xmlns:svg="http://www.w3.org/2000/svg"
   xmlns="http://www.w3.org/2000/svg"
   xmlns:sodipodi="http://sodipodi.sourceforge.net/DTD/sodipodi-0.dtd"
   xmlns:inkscape="http://www.inkscape.org/namespaces/inkscape"
   height="32"
   width="32"
   version="1.1"
   id="svg5"
   sodipodi:docname="preferences-desktop-bar.svg"
   inkscape:version="0.92.1 r">
  <metadata
     id="metadata9">
    <rdf:RDF>
      <cc:Work
         rdf:about="">
        <dc:format>image/svg+xml</dc:format>
        <dc:type
           rdf:resource="http://purl.org/dc/dcmitype/StillImage" />
        <dc:title></dc:title>
      </cc:Work>
    </rdf:RDF>
  </metadata>
  <defs
     id="defs7" />
  <sodipodi:namedview
     id="namedview1"
     showgrid="true"
     inkscape:zoom="20.85965"
     inkscape:cx="16.069651"
     inkscape:cy="25.47357"
     inkscape:window-width="1680"
     inkscape:window-height="1016"
     inkscape:window-x="0"
     inkscape:window-y="0"
     inkscape:window-maximized="1"
     inkscape:current-layer="svg5">
    <inkscape:grid
       type="xygrid"
       id="grid1px"
       empspacing="4" />
    <inkscape:grid
       type="xygrid"
       id="grid1pxdot"
       empspacing="1"
       dotted="true"
       originy="0.5"
       originx="0.5" />
  </sodipodi:namedview>
  <path
     style="opacity:0.98999999;fill:#000003;fill-opacity:1;fill-rule:nonzero;stroke:none;stroke-width:1;stroke-linecap:round;stroke-linejoin:round;stroke-miterlimit:4;stroke-dasharray:none;stroke-dashoffset:0;stroke-opacity:1;paint-order:fill markers stroke"
     d="M 2.5,11 A 0.50005,0.50005 0 0 0 2,11.5 v 9 A 0.50005,0.50005 0 0 0 2.5,21 h 27 A 0.50005,0.50005 0 0 0 30,20.5 v -9 A 0.50005,0.50005 0 0 0 29.5,11 Z m 1,1 h 4 a 0.50005,0.50005 0 1 1 0,1 h -4 a 0.50005,0.50005 0 1 1 0,-1 z m 6,0 h 3 a 0.50005,0.50005 0 1 1 0,1 h -3 a 0.50005,0.50005 0 1 1 0,-1 z m -4,2.5 A 2.5,2.5 0 0 1 8,17 2.5,2.5 0 0 1 5.5,19.5 2.5,2.5 0 0 1 3,17 2.5,2.5 0 0 1 5.5,14.5 Z"
     id="rect4488"
     inkscape:connector-curvature="0" />
</svg>
