<?xml version="1.0" encoding="UTF-8" standalone="no"?>
<svg
   xmlns:dc="http://purl.org/dc/elements/1.1/"
   xmlns:cc="http://creativecommons.org/ns#"
   xmlns:rdf="http://www.w3.org/1999/02/22-rdf-syntax-ns#"
   xmlns:svg="http://www.w3.org/2000/svg"
   xmlns="http://www.w3.org/2000/svg"
   xmlns:sodipodi="http://sodipodi.sourceforge.net/DTD/sodipodi-0.dtd"
   xmlns:inkscape="http://www.inkscape.org/namespaces/inkscape"
   height="32"
   width="32"
   version="1.1"
   id="svg5"
   sodipodi:docname="preferences-desktop-font.svg"
   inkscape:version="0.92.0 r">
  <metadata
     id="metadata9">
    <rdf:RDF>
      <cc:Work
         rdf:about="">
        <dc:format>image/svg+xml</dc:format>
        <dc:type
           rdf:resource="http://purl.org/dc/dcmitype/StillImage" />
        <dc:title></dc:title>
      </cc:Work>
    </rdf:RDF>
  </metadata>
  <defs
     id="defs7" />
  <sodipodi:namedview
     id="namedview1"
     showgrid="true"
     inkscape:zoom="14.75"
     inkscape:cx="15.495972"
     inkscape:cy="15.975366"
     inkscape:window-width="1280"
     inkscape:window-height="766"
     inkscape:window-x="1680"
     inkscape:window-y="250"
     inkscape:window-maximized="1"
     inkscape:current-layer="svg5">
    <inkscape:grid
       type="xygrid"
       id="grid1px"
       empspacing="4" />
    <inkscape:grid
       type="xygrid"
       id="grid1pxdot"
       empspacing="1"
       dotted="true"
       originy="0.5"
       originx="0.5" />
  </sodipodi:namedview>
  <path
     style="opacity:1;fill:#000000;fill-opacity:1;fill-rule:nonzero;stroke:none;stroke-width:1;stroke-linecap:round;stroke-linejoin:round;stroke-miterlimit:4;stroke-dasharray:none;stroke-dashoffset:0;stroke-opacity:1"
     d="M 16 0 A 16 16 0 0 0 0 16 A 16 16 0 0 0 16 32 A 16 16 0 0 0 32 16 A 16 16 0 0 0 16 0 z M 11.205078 2.4824219 L 12.175781 2.4824219 C 12.520744 2.4824219 12.764156 2.6598818 12.904297 3.015625 L 16.849609 13.21875 C 16.892729 13.315771 16.914062 13.391413 16.914062 13.445312 C 16.914062 13.542335 16.876242 13.629617 16.800781 13.705078 C 16.736101 13.769758 16.655615 13.800781 16.558594 13.800781 L 15.958984 13.800781 C 15.635581 13.800781 15.425146 13.665986 15.328125 13.396484 L 14.488281 11.246094 L 8.8769531 11.246094 L 8.0371094 13.396484 C 7.9400885 13.665986 7.7296529 13.800781 7.40625 13.800781 L 6.8066406 13.800781 C 6.7096198 13.800781 6.6242888 13.769758 6.5488281 13.705078 C 6.4841475 13.629617 6.4511719 13.542335 6.4511719 13.445312 C 6.4511719 13.391412 6.472505 13.315771 6.515625 13.21875 L 10.478516 3.015625 C 10.618657 2.6598818 10.860115 2.4824219 11.205078 2.4824219 z M 11.691406 4.0175781 L 9.4433594 9.7910156 L 13.921875 9.7910156 L 11.691406 4.0175781 z M 21.5 5.2304688 C 22.502549 5.2304688 23.311316 5.5117006 23.925781 6.0722656 C 24.551027 6.6328306 24.863281 7.4202645 24.863281 8.4335938 L 24.863281 13.365234 C 24.863281 13.483815 24.820616 13.585634 24.734375 13.671875 C 24.648134 13.758116 24.546316 13.800781 24.427734 13.800781 L 23.830078 13.800781 C 23.711497 13.800781 23.607725 13.758116 23.521484 13.671875 C 23.435244 13.585634 23.392578 13.483815 23.392578 13.365234 L 23.392578 12.701172 C 23.220097 13.089255 22.853534 13.396665 22.292969 13.623047 C 21.732404 13.849429 21.171893 13.962891 20.611328 13.962891 C 20.061543 13.962891 19.571829 13.865917 19.140625 13.671875 C 18.709421 13.467054 18.373881 13.19262 18.136719 12.847656 C 17.910337 12.502693 17.798828 12.114798 17.798828 11.683594 C 17.798828 10.875087 18.09944 10.24378 18.703125 9.7910156 C 19.30681 9.3274714 20.110732 9.0152171 21.113281 8.8535156 L 23.392578 8.4824219 L 23.392578 8.2714844 C 23.392578 7.7432596 23.215118 7.3388763 22.859375 7.0585938 C 22.514412 6.7675311 22.060565 6.6210937 21.5 6.6210938 C 21.068796 6.6210938 20.730364 6.6967349 20.482422 6.8476562 C 20.24526 6.9877974 20.018336 7.203078 19.802734 7.4941406 C 19.738054 7.5803814 19.667258 7.6414878 19.591797 7.6738281 C 19.516336 7.7061681 19.414518 7.7207031 19.285156 7.7207031 L 18.800781 7.7207031 C 18.6822 7.7207031 18.573583 7.6780377 18.476562 7.5917969 C 18.390322 7.5055561 18.352501 7.4037374 18.363281 7.2851562 C 18.395621 6.9617533 18.551749 6.6427009 18.832031 6.3300781 C 19.123094 6.0066753 19.506145 5.7438844 19.980469 5.5390625 C 20.454793 5.3342407 20.960995 5.2304687 21.5 5.2304688 z M 23.392578 9.7753906 L 21.484375 10.082031 C 20.783668 10.189833 20.239646 10.367292 19.851562 10.615234 C 19.463479 10.852396 19.269531 11.154961 19.269531 11.521484 C 19.269531 11.790987 19.392683 12.034398 19.640625 12.25 C 19.888568 12.465601 20.266773 12.572266 20.773438 12.572266 C 21.549604 12.572266 22.180911 12.35214 22.666016 11.910156 C 23.15112 11.468173 23.392578 10.891173 23.392578 10.179688 L 23.392578 9.7753906 z M 10.871094 15.396484 L 12.181641 15.396484 L 16.681641 26.988281 L 15.173828 26.988281 L 13.783203 23.412109 L 9.2050781 23.412109 L 7.8300781 26.988281 L 6.3613281 26.988281 L 10.871094 15.396484 z M 11.501953 16.896484 C 11.344042 17.528131 11.17761 18.105845 11.003906 18.626953 L 9.6933594 22.125 L 13.349609 22.125 L 12.054688 18.626953 L 11.501953 16.896484 z M 21.347656 18.175781 C 22.395136 18.175781 23.174966 18.407886 23.685547 18.871094 C 24.196128 19.334301 24.451172 20.071397 24.451172 21.082031 L 24.451172 26.988281 L 23.416016 26.988281 L 23.140625 25.755859 L 23.078125 25.755859 C 22.6465 26.298022 22.214828 26.66657 21.783203 26.861328 C 21.356842 27.050821 20.816764 27.146484 20.164062 27.146484 C 19.311341 27.146484 18.642466 26.922025 18.158203 26.474609 C 17.673941 26.027193 17.431641 25.395955 17.431641 24.580078 C 17.431641 22.821996 18.81977 21.900626 21.59375 21.816406 L 23.060547 21.761719 L 23.060547 21.248047 C 23.060547 20.590082 22.919007 20.105481 22.634766 19.794922 C 22.350525 19.479099 21.895914 19.320313 21.269531 19.320312 C 20.811588 19.320312 20.377367 19.390487 19.966797 19.527344 C 19.56149 19.6642 19.180198 19.815936 18.822266 19.984375 L 18.386719 18.917969 C 18.823607 18.686365 19.300562 18.50464 19.816406 18.373047 C 20.33225 18.241454 20.842339 18.175781 21.347656 18.175781 z M 23.044922 22.748047 L 21.765625 22.802734 C 20.770782 22.839581 20.045834 22.998367 19.587891 23.277344 C 19.135211 23.556321 18.908203 23.995639 18.908203 24.595703 C 18.908203 25.048382 19.044646 25.396541 19.318359 25.638672 C 19.597337 25.880803 19.988228 26 20.488281 26 C 21.283103 26 21.906695 25.787689 22.359375 25.361328 C 22.817318 24.929703 23.044922 24.318855 23.044922 23.529297 L 23.044922 22.748047 z "
     id="path4486" />
</svg>
