<?xml version="1.0" encoding="UTF-8" standalone="no"?>
<svg
   xmlns:dc="http://purl.org/dc/elements/1.1/"
   xmlns:cc="http://creativecommons.org/ns#"
   xmlns:rdf="http://www.w3.org/1999/02/22-rdf-syntax-ns#"
   xmlns:svg="http://www.w3.org/2000/svg"
   xmlns="http://www.w3.org/2000/svg"
   xmlns:xlink="http://www.w3.org/1999/xlink"
   xmlns:sodipodi="http://sodipodi.sourceforge.net/DTD/sodipodi-0.dtd"
   xmlns:inkscape="http://www.inkscape.org/namespaces/inkscape"
   height="32"
   width="32"
   version="1.1"
   id="svg5"
   sodipodi:docname="qtcreator.svg"
   inkscape:version="0.92.0 r">
  <metadata
     id="metadata9">
    <rdf:RDF>
      <cc:Work
         rdf:about="">
        <dc:format>image/svg+xml</dc:format>
        <dc:type
           rdf:resource="http://purl.org/dc/dcmitype/StillImage" />
        <dc:title></dc:title>
      </cc:Work>
    </rdf:RDF>
  </metadata>
  <defs
     id="defs7">
    <linearGradient
       inkscape:collect="always"
       id="linearGradient4492">
      <stop
         style="stop-color:#006400;stop-opacity:1"
         offset="0"
         id="stop4488" />
      <stop
         style="stop-color:#00c800;stop-opacity:0.94688219"
         offset="1"
         id="stop4490" />
    </linearGradient>
    <linearGradient
       inkscape:collect="always"
       xlink:href="#linearGradient4492"
       id="linearGradient4494"
       x1="0"
       y1="32"
       x2="32"
       y2="0"
       gradientUnits="userSpaceOnUse" />
  </defs>
  <sodipodi:namedview
     id="namedview1"
     showgrid="true"
     inkscape:zoom="20.85965"
     inkscape:cx="16.414437"
     inkscape:cy="21.479355"
     inkscape:window-width="1680"
     inkscape:window-height="1016"
     inkscape:window-x="0"
     inkscape:window-y="0"
     inkscape:window-maximized="1"
     inkscape:current-layer="svg5">
    <inkscape:grid
       type="xygrid"
       id="grid1px"
       empspacing="4" />
    <inkscape:grid
       type="xygrid"
       id="grid1pxdot"
       empspacing="1"
       dotted="true"
       originy="0.5"
       originx="0.5" />
  </sodipodi:namedview>
  <path
     style="opacity:1;fill:url(#linearGradient4494);fill-opacity:1;fill-rule:nonzero;stroke:none;stroke-width:1;stroke-linecap:round;stroke-linejoin:round;stroke-miterlimit:4;stroke-dasharray:none;stroke-dashoffset:0;stroke-opacity:1"
     d="M 16 0 A 16 16 0 0 0 0 16 A 16 16 0 0 0 7.4296875 29.488281 C 8.0816701 28.64054 8.9928776 27.857456 10.251953 27.160156 C 14.245516 25.000731 18.823027 25.497069 23.183594 25.005859 C 25.680356 24.520569 27.086728 23.146444 28.931641 22.130859 C 28.379252 25.233896 26.571703 27.573697 24.324219 29.646484 A 16 16 0 0 0 32 16 A 16 16 0 0 0 16 0 z M 11.716797 6.3496094 C 12.835538 6.3496094 13.803117 6.5867269 14.619141 7.0605469 C 15.435164 7.5343669 16.053436 8.1800698 16.474609 8.9960938 C 16.908945 9.7989548 17.139688 10.698932 17.166016 11.699219 C 17.192336 12.488919 17.205078 13.075343 17.205078 13.457031 C 17.205078 13.838719 17.192336 14.425144 17.166016 15.214844 C 17.139689 15.97822 16.995652 16.68762 16.732422 17.345703 C 16.48235 18.003786 16.120304 18.571102 15.646484 19.044922 L 17.107422 21.039062 C 17.146902 21.118032 17.166016 21.183678 17.166016 21.236328 C 17.166016 21.354783 17.125845 21.45228 17.046875 21.53125 C 16.981068 21.610221 16.889941 21.650391 16.771484 21.650391 L 15.84375 21.650391 C 15.633163 21.650391 15.461695 21.603849 15.330078 21.511719 C 15.211623 21.432749 15.105802 21.326929 15.013672 21.195312 L 14.185547 20.070312 C 13.461656 20.399354 12.638114 20.564453 11.716797 20.564453 C 10.598055 20.564453 9.6304764 20.327336 8.8144531 19.853516 C 8.0115901 19.379696 7.3933194 18.742315 6.9589844 17.939453 C 6.537811 17.12343 6.3070631 16.21513 6.2675781 15.214844 C 6.2544171 14.819994 6.2480469 14.233569 6.2480469 13.457031 C 6.2480469 12.680493 6.2544171 12.094069 6.2675781 11.699219 C 6.2939015 10.698932 6.5182798 9.7989548 6.9394531 8.9960938 C 7.3737882 8.1800698 7.9984298 7.5343669 8.8144531 7.0605469 C 9.6304767 6.5867269 10.598055 6.3496094 11.716797 6.3496094 z M 21.25 6.3496094 L 21.980469 6.3496094 C 22.125247 6.3496094 22.250175 6.4025192 22.355469 6.5078125 C 22.460762 6.6131058 22.513672 6.7380342 22.513672 6.8828125 L 22.513672 10.101562 L 25.021484 10.101562 C 25.166262 10.101563 25.291191 10.154472 25.396484 10.259766 C 25.501778 10.365059 25.554686 10.489988 25.554688 10.634766 L 25.554688 11.265625 C 25.554687 11.410404 25.501778 11.535332 25.396484 11.640625 C 25.291191 11.745918 25.166262 11.798828 25.021484 11.798828 L 22.513672 11.798828 L 22.513672 16.912109 C 22.513672 17.478061 22.625861 17.912126 22.849609 18.214844 C 23.086519 18.517562 23.526954 18.669922 24.171875 18.669922 L 25.21875 18.669922 C 25.363528 18.669922 25.488457 18.720879 25.59375 18.826172 C 25.699043 18.931465 25.751953 19.058347 25.751953 19.203125 L 25.751953 19.833984 C 25.751953 19.978763 25.699043 20.103691 25.59375 20.208984 C 25.488457 20.314278 25.363528 20.367186 25.21875 20.367188 L 23.974609 20.367188 C 22.855868 20.367188 22.03428 20.07716 21.507812 19.498047 C 20.981346 18.905772 20.716797 18.044013 20.716797 16.912109 L 20.716797 11.798828 L 19.255859 11.798828 C 19.111081 11.798828 18.986153 11.745918 18.880859 11.640625 C 18.775566 11.535332 18.722656 11.410404 18.722656 11.265625 L 18.722656 10.634766 C 18.722656 10.489988 18.775566 10.365059 18.880859 10.259766 C 18.986153 10.154472 19.111081 10.101562 19.255859 10.101562 L 20.716797 10.101562 L 20.716797 6.8828125 C 20.716797 6.7380342 20.769707 6.6131058 20.875 6.5078125 C 20.980293 6.4025194 21.105222 6.3496094 21.25 6.3496094 z M 11.716797 8.1269531 C 10.663864 8.1269531 9.8148518 8.4360885 9.1699219 9.0546875 C 8.5250002 9.6732855 8.1840163 10.587955 8.1445312 11.798828 C 8.1313673 12.193678 8.1230469 12.746301 8.1230469 13.457031 C 8.1230469 14.167761 8.1313702 14.720384 8.1445312 15.115234 C 8.1840166 16.326108 8.5250005 17.240777 9.1699219 17.859375 C 9.8148438 18.477974 10.663864 18.787109 11.716797 18.787109 C 12.29591 18.787109 12.810317 18.695982 13.257812 18.511719 L 11.855469 16.595703 C 11.815989 16.516733 11.796875 16.451087 11.796875 16.398438 C 11.796875 16.279982 11.828721 16.182486 11.894531 16.103516 C 11.973501 16.024545 12.072951 15.984375 12.191406 15.984375 L 13.119141 15.984375 C 13.329727 15.984375 13.494826 16.030917 13.613281 16.123047 C 13.744898 16.202017 13.855136 16.305883 13.947266 16.4375 L 14.658203 17.40625 C 15.053053 16.813975 15.264696 16.049712 15.291016 15.115234 C 15.317336 14.325534 15.330078 13.772911 15.330078 13.457031 C 15.330078 13.141151 15.317336 12.588528 15.291016 11.798828 C 15.251529 10.587955 14.908592 9.6732855 14.263672 9.0546875 C 13.618751 8.4360895 12.76973 8.1269531 11.716797 8.1269531 z "
     id="path4486" />
</svg>
