<?xml version="1.0" encoding="UTF-8" standalone="no"?>
<svg
   xmlns:dc="http://purl.org/dc/elements/1.1/"
   xmlns:cc="http://creativecommons.org/ns#"
   xmlns:rdf="http://www.w3.org/1999/02/22-rdf-syntax-ns#"
   xmlns:svg="http://www.w3.org/2000/svg"
   xmlns="http://www.w3.org/2000/svg"
   xmlns:xlink="http://www.w3.org/1999/xlink"
   xmlns:sodipodi="http://sodipodi.sourceforge.net/DTD/sodipodi-0.dtd"
   xmlns:inkscape="http://www.inkscape.org/namespaces/inkscape"
   height="32"
   width="32"
   version="1.1"
   id="svg5"
   sodipodi:docname="ring.svg"
   inkscape:version="0.92.0 r">
  <metadata
     id="metadata9">
    <rdf:RDF>
      <cc:Work
         rdf:about="">
        <dc:format>image/svg+xml</dc:format>
        <dc:type
           rdf:resource="http://purl.org/dc/dcmitype/StillImage" />
        <dc:title></dc:title>
      </cc:Work>
    </rdf:RDF>
  </metadata>
  <defs
     id="defs7">
    <linearGradient
       inkscape:collect="always"
       id="linearGradient4492">
      <stop
         style="stop-color:#0064ff;stop-opacity:1"
         offset="0"
         id="stop4488" />
      <stop
         style="stop-color:#00c8ff;stop-opacity:1"
         offset="1"
         id="stop4490" />
    </linearGradient>
    <linearGradient
       inkscape:collect="always"
       xlink:href="#linearGradient4492"
       id="linearGradient4494"
       x1="0"
       y1="32"
       x2="32"
       y2="0"
       gradientUnits="userSpaceOnUse" />
  </defs>
  <sodipodi:namedview
     id="namedview1"
     showgrid="true"
     inkscape:zoom="20.85965"
     inkscape:cx="14.577303"
     inkscape:cy="15.479084"
     inkscape:window-width="1680"
     inkscape:window-height="1016"
     inkscape:window-x="0"
     inkscape:window-y="0"
     inkscape:window-maximized="1"
     inkscape:current-layer="svg5">
    <inkscape:grid
       type="xygrid"
       id="grid1px"
       empspacing="4" />
    <inkscape:grid
       type="xygrid"
       id="grid1pxdot"
       empspacing="1"
       dotted="true"
       originy="0.5"
       originx="0.5" />
  </sodipodi:namedview>
  <path
     style="opacity:1;fill:url(#linearGradient4494);fill-opacity:1;fill-rule:nonzero;stroke:none;stroke-width:1;stroke-linecap:round;stroke-linejoin:round;stroke-miterlimit:4;stroke-dasharray:none;stroke-dashoffset:0;stroke-opacity:1"
     d="M 16 0 A 16 16 0 0 0 0 16 A 16 16 0 0 0 16 32 A 16 16 0 0 0 32 16 A 16 16 0 0 0 16 0 z M 9.6289062 5.5996094 A 0.50005 0.50005 0 0 1 9.9902344 5.7460938 L 16 11.755859 L 22.009766 5.7460938 A 0.50005 0.50005 0 0 1 22.716797 5.7460938 L 26.253906 9.2832031 A 0.50005 0.50005 0 0 1 26.253906 9.9902344 L 23.244141 13 L 27.5 13 A 0.50005 0.50005 0 0 1 28 13.5 L 28 18.5 A 0.50005 0.50005 0 0 1 27.5 19 L 23.244141 19 L 26.253906 22.009766 A 0.50005 0.50005 0 0 1 26.253906 22.716797 L 22.716797 26.253906 A 0.50005 0.50005 0 0 1 22.009766 26.253906 L 16 20.244141 L 9.9902344 26.253906 A 0.50005 0.50005 0 0 1 9.2832031 26.253906 L 5.7460938 22.716797 A 0.50005 0.50005 0 0 1 5.7460938 22.009766 L 8.7558594 19 L 4.5 19 A 0.50005 0.50005 0 0 1 4 18.5 L 4 13.5 A 0.50005 0.50005 0 0 1 4.5 13 L 8.7558594 13 L 5.7460938 9.9902344 A 0.50005 0.50005 0 0 1 5.7460938 9.2832031 L 9.2832031 5.7460938 A 0.50005 0.50005 0 0 1 9.6289062 5.5996094 z "
     id="path4486" />
</svg>
