<?xml version="1.0" encoding="UTF-8" standalone="no"?>
<svg
   xmlns:dc="http://purl.org/dc/elements/1.1/"
   xmlns:cc="http://creativecommons.org/ns#"
   xmlns:rdf="http://www.w3.org/1999/02/22-rdf-syntax-ns#"
   xmlns:svg="http://www.w3.org/2000/svg"
   xmlns="http://www.w3.org/2000/svg"
   xmlns:xlink="http://www.w3.org/1999/xlink"
   xmlns:sodipodi="http://sodipodi.sourceforge.net/DTD/sodipodi-0.dtd"
   xmlns:inkscape="http://www.inkscape.org/namespaces/inkscape"
   height="32"
   width="32"
   version="1.1"
   id="svg5"
   sodipodi:docname="system-software-update.svg"
   inkscape:version="0.92.1 r">
  <metadata
     id="metadata9">
    <rdf:RDF>
      <cc:Work
         rdf:about="">
        <dc:format>image/svg+xml</dc:format>
        <dc:type
           rdf:resource="http://purl.org/dc/dcmitype/StillImage" />
        <dc:title></dc:title>
      </cc:Work>
    </rdf:RDF>
  </metadata>
  <defs
     id="defs7">
    <linearGradient
       inkscape:collect="always"
       id="linearGradient4492">
      <stop
         style="stop-color:#006400;stop-opacity:1"
         offset="0"
         id="stop4488" />
      <stop
         style="stop-color:#00c800;stop-opacity:1"
         offset="1"
         id="stop4490" />
    </linearGradient>
    <linearGradient
       inkscape:collect="always"
       xlink:href="#linearGradient4492"
       id="linearGradient4593"
       x1="0"
       y1="32"
       x2="32"
       y2="0"
       gradientUnits="userSpaceOnUse" />
  </defs>
  <sodipodi:namedview
     id="namedview1"
     showgrid="true"
     inkscape:zoom="29.5"
     inkscape:cx="14.22698"
     inkscape:cy="11.110222"
     inkscape:window-width="1680"
     inkscape:window-height="1016"
     inkscape:window-x="0"
     inkscape:window-y="0"
     inkscape:window-maximized="1"
     inkscape:current-layer="svg5">
    <inkscape:grid
       type="xygrid"
       id="grid1px"
       empspacing="4" />
    <inkscape:grid
       type="xygrid"
       id="grid1pxdot"
       empspacing="1"
       dotted="true"
       originy="0.5"
       originx="0.5" />
  </sodipodi:namedview>
  <path
     style="opacity:1;fill:url(#linearGradient4593);fill-opacity:1;fill-rule:nonzero;stroke:none;stroke-width:0.99999994;stroke-linecap:round;stroke-linejoin:round;stroke-miterlimit:4;stroke-dasharray:none;stroke-dashoffset:0;stroke-opacity:1;paint-order:fill markers stroke"
     d="M 12.5 2 A 0.50005 0.50005 0 0 0 12.076172 2.234375 L 7.0761719 10.234375 A 0.50005 0.50005 0 0 0 7.5 11 L 24.5 11 A 0.50005 0.50005 0 0 0 24.923828 10.234375 L 19.923828 2.234375 A 0.50005 0.50005 0 0 0 19.5 2 L 12.5 2 z M 7.5 12 A 0.50004997 0.50004997 0 0 0 7 12.5 L 7 29.5 A 0.50004997 0.50004997 0 0 0 7.5 30 L 24.5 30 A 0.50004997 0.50004997 0 0 0 25 29.5 L 25 12.5 A 0.50004997 0.50004997 0 0 0 24.5 12 L 7.5 12 z M 15.992188 18.5 A 0.50005 0.50005 0 0 1 16.353516 18.646484 L 21.853516 24.146484 A 0.50005 0.50005 0 0 1 21.5 25 L 10.5 25 A 0.50005 0.50005 0 0 1 10.146484 24.146484 L 15.646484 18.646484 A 0.50005 0.50005 0 0 1 15.992188 18.5 z "
     id="rect4496" />
</svg>
