<?xml version="1.0" encoding="UTF-8" standalone="no"?>
<svg
   xmlns:dc="http://purl.org/dc/elements/1.1/"
   xmlns:cc="http://creativecommons.org/ns#"
   xmlns:rdf="http://www.w3.org/1999/02/22-rdf-syntax-ns#"
   xmlns:svg="http://www.w3.org/2000/svg"
   xmlns="http://www.w3.org/2000/svg"
   xmlns:xlink="http://www.w3.org/1999/xlink"
   xmlns:sodipodi="http://sodipodi.sourceforge.net/DTD/sodipodi-0.dtd"
   xmlns:inkscape="http://www.inkscape.org/namespaces/inkscape"
   height="32"
   width="32"
   version="1.1"
   id="svg5"
   sodipodi:docname="system-software-install.svg"
   inkscape:version="0.92.0 r">
  <metadata
     id="metadata9">
    <rdf:RDF>
      <cc:Work
         rdf:about="">
        <dc:format>image/svg+xml</dc:format>
        <dc:type
           rdf:resource="http://purl.org/dc/dcmitype/StillImage" />
        <dc:title></dc:title>
      </cc:Work>
    </rdf:RDF>
  </metadata>
  <defs
     id="defs7">
    <linearGradient
       inkscape:collect="always"
       id="linearGradient4492">
      <stop
         style="stop-color:#006400;stop-opacity:1"
         offset="0"
         id="stop4488" />
      <stop
         style="stop-color:#00c800;stop-opacity:1"
         offset="1"
         id="stop4490" />
    </linearGradient>
    <linearGradient
       inkscape:collect="always"
       xlink:href="#linearGradient4492"
       id="linearGradient4494"
       x1="0"
       y1="32"
       x2="32"
       y2="0"
       gradientUnits="userSpaceOnUse" />
  </defs>
  <sodipodi:namedview
     id="namedview1"
     showgrid="true"
     inkscape:zoom="14.75"
     inkscape:cx="15.780147"
     inkscape:cy="18.42363"
     inkscape:window-width="1680"
     inkscape:window-height="1016"
     inkscape:window-x="0"
     inkscape:window-y="0"
     inkscape:window-maximized="1"
     inkscape:current-layer="svg5">
    <inkscape:grid
       type="xygrid"
       id="grid1px"
       empspacing="4" />
    <inkscape:grid
       type="xygrid"
       id="grid1pxdot"
       empspacing="1"
       dotted="true"
       originy="0.5"
       originx="0.5" />
  </sodipodi:namedview>
  <path
     style="opacity:1;fill:url(#linearGradient4494);fill-opacity:1;fill-rule:nonzero;stroke:none;stroke-width:1;stroke-linecap:round;stroke-linejoin:round;stroke-miterlimit:4;stroke-dasharray:none;stroke-dashoffset:0;stroke-opacity:1"
     d="M 16 0 A 16 16 0 0 0 0 16 A 16 16 0 0 0 16 32 A 16 16 0 0 0 32 16 A 16 16 0 0 0 16 0 z M 12.5 7 L 19.5 7 A 0.50005 0.50005 0 0 1 19.890625 7.1875 L 23.740234 12 L 8.2597656 12 L 12.109375 7.1875 A 0.50005 0.50005 0 0 1 12.5 7 z M 8 13 L 24 13 L 24 23.5 A 0.50005 0.50005 0 0 1 23.5 24 L 8.5 24 A 0.50005 0.50005 0 0 1 8 23.5 L 8 13 z M 15.623047 14.080078 C 15.350638 14.080078 15.159493 14.219079 15.048828 14.5 L 11.919922 22.558594 C 11.885869 22.635206 11.869141 22.693761 11.869141 22.736328 C 11.869141 22.812945 11.894232 22.88182 11.945312 22.941406 C 12.004902 22.992486 12.073776 23.017578 12.150391 23.017578 L 12.623047 23.017578 C 12.87843 23.017578 13.044479 22.912037 13.121094 22.699219 L 13.785156 21 L 18.214844 21 L 18.878906 22.699219 C 18.955521 22.912037 19.12157 23.017578 19.376953 23.017578 L 19.849609 23.017578 C 19.926221 23.017578 19.989936 22.992486 20.041016 22.941406 C 20.100602 22.881817 20.130859 22.812943 20.130859 22.736328 C 20.130859 22.693765 20.114131 22.635209 20.080078 22.558594 L 16.964844 14.5 C 16.854178 14.219079 16.66108 14.080078 16.388672 14.080078 L 15.623047 14.080078 z M 16.005859 15.292969 L 17.767578 19.851562 L 14.232422 19.851562 L 16.005859 15.292969 z "
     id="path4486" />
</svg>
