<?xml version="1.0" encoding="UTF-8" standalone="no"?>
<svg
   xmlns:dc="http://purl.org/dc/elements/1.1/"
   xmlns:cc="http://creativecommons.org/ns#"
   xmlns:rdf="http://www.w3.org/1999/02/22-rdf-syntax-ns#"
   xmlns:svg="http://www.w3.org/2000/svg"
   xmlns="http://www.w3.org/2000/svg"
   xmlns:xlink="http://www.w3.org/1999/xlink"
   xmlns:sodipodi="http://sodipodi.sourceforge.net/DTD/sodipodi-0.dtd"
   xmlns:inkscape="http://www.inkscape.org/namespaces/inkscape"
   height="32"
   width="32"
   version="1.1"
   id="svg5"
   sodipodi:docname="system-software-install.svg"
   inkscape:version="0.92.1 r">
  <metadata
     id="metadata9">
    <rdf:RDF>
      <cc:Work
         rdf:about="">
        <dc:format>image/svg+xml</dc:format>
        <dc:type
           rdf:resource="http://purl.org/dc/dcmitype/StillImage" />
        <dc:title></dc:title>
      </cc:Work>
    </rdf:RDF>
  </metadata>
  <defs
     id="defs7">
    <linearGradient
       inkscape:collect="always"
       xlink:href="#linearGradient4492"
       id="linearGradient4593"
       x1="0"
       y1="32"
       x2="32"
       y2="0"
       gradientUnits="userSpaceOnUse" />
    <linearGradient
       inkscape:collect="always"
       id="linearGradient4492">
      <stop
         style="stop-color:#006400;stop-opacity:1"
         offset="0"
         id="stop4488" />
      <stop
         style="stop-color:#00c800;stop-opacity:1"
         offset="1"
         id="stop4490" />
    </linearGradient>
  </defs>
  <sodipodi:namedview
     id="namedview1"
     showgrid="true"
     inkscape:zoom="14.75"
     inkscape:cx="-3.5757852"
     inkscape:cy="18.42363"
     inkscape:window-width="1680"
     inkscape:window-height="1016"
     inkscape:window-x="0"
     inkscape:window-y="0"
     inkscape:window-maximized="1"
     inkscape:current-layer="svg5">
    <inkscape:grid
       type="xygrid"
       id="grid1px"
       empspacing="4" />
    <inkscape:grid
       type="xygrid"
       id="grid1pxdot"
       empspacing="1"
       dotted="true"
       originy="0.5"
       originx="0.5" />
  </sodipodi:namedview>
  <path
     inkscape:connector-curvature="0"
     style="opacity:1;fill:url(#linearGradient4593);fill-opacity:1;fill-rule:nonzero;stroke:none;stroke-width:0.99999994;stroke-linecap:round;stroke-linejoin:round;stroke-miterlimit:4;stroke-dasharray:none;stroke-dashoffset:0;stroke-opacity:1;paint-order:fill markers stroke"
     d="m 12.5,2 a 0.50005,0.50005 0 0 0 -0.423828,0.234375 l -5.0000001,8 A 0.50005,0.50005 0 0 0 7.5,11 h 17 a 0.50005,0.50005 0 0 0 0.423828,-0.765625 l -5,-8 A 0.50005,0.50005 0 0 0 19.5,2 Z m -5,10 A 0.50004997,0.50004997 0 0 0 7,12.5 v 17 A 0.50004997,0.50004997 0 0 0 7.5,30 h 17 A 0.50004997,0.50004997 0 0 0 25,29.5 v -17 A 0.50004997,0.50004997 0 0 0 24.5,12 Z m 7.806641,2.027344 h 1.183593 c 0.421174,0 0.717571,0.218009 0.888672,0.652344 l 4.81836,12.457031 c 0.05265,0.118454 0.07813,0.211535 0.07813,0.277343 0,0.118455 -0.04654,0.222322 -0.138672,0.314454 -0.07897,0.07897 -0.176467,0.11914 -0.294922,0.11914 h -0.730469 c -0.39485,0 -0.651076,-0.165098 -0.769531,-0.49414 l -1.027344,-2.625 h -6.851562 l -1.025391,2.625 c -0.118455,0.329042 -0.374681,0.49414 -0.769531,0.49414 H 9.9375 c -0.118455,0 -0.2242747,-0.04017 -0.3164062,-0.11914 -0.07897,-0.09213 -0.1191407,-0.195999 -0.1191407,-0.314454 0,-0.06581 0.027432,-0.158887 0.080078,-0.277343 L 14.417969,14.679688 c 0.171102,-0.434336 0.467498,-0.652344 0.888672,-0.652344 z m 0.591797,1.875 -2.744141,7.048828 h 5.46875 z"
     id="rect4496" />
</svg>
