<?xml version="1.0" encoding="UTF-8" standalone="no"?>
<svg
   xmlns:dc="http://purl.org/dc/elements/1.1/"
   xmlns:cc="http://creativecommons.org/ns#"
   xmlns:rdf="http://www.w3.org/1999/02/22-rdf-syntax-ns#"
   xmlns:svg="http://www.w3.org/2000/svg"
   xmlns="http://www.w3.org/2000/svg"
   xmlns:sodipodi="http://sodipodi.sourceforge.net/DTD/sodipodi-0.dtd"
   xmlns:inkscape="http://www.inkscape.org/namespaces/inkscape"
   height="32"
   width="32"
   version="1.1"
   id="svg5"
   sodipodi:docname="thedesk-notifications.svg"
   inkscape:version="1.0.2 (e86c870879, 2021-01-15)">
  <metadata
     id="metadata9">
    <rdf:RDF>
      <cc:Work
         rdf:about="">
        <dc:format>image/svg+xml</dc:format>
        <dc:type
           rdf:resource="http://purl.org/dc/dcmitype/StillImage" />
        <dc:title></dc:title>
      </cc:Work>
    </rdf:RDF>
  </metadata>
  <defs
     id="defs7" />
  <sodipodi:namedview
     id="namedview1"
     showgrid="true"
     inkscape:document-rotation="0"
     inkscape:zoom="16"
     inkscape:cx="15.194578"
     inkscape:cy="15.916506"
     inkscape:window-width="1920"
     inkscape:window-height="1044"
     inkscape:window-x="2560"
     inkscape:window-y="0"
     inkscape:window-maximized="1"
     inkscape:current-layer="svg5">
    <inkscape:grid
       type="xygrid"
       id="grid1px"
       empspacing="4" />
    <inkscape:grid
       type="xygrid"
       id="grid1pxdot"
       empspacing="1"
       dotted="true"
       originy="0.5"
       originx="0.5" />
  </sodipodi:namedview>
  <rect
     style="opacity:0.99;fill:#009664;fill-opacity:1;fill-rule:nonzero;stroke:none;stroke-width:1;stroke-linecap:round;stroke-linejoin:round;stroke-miterlimit:4;stroke-dasharray:none;stroke-dashoffset:0;stroke-opacity:1;paint-order:fill markers stroke"
     id="rect815"
     width="30"
     height="30"
     x="1"
     y="1"
     ry="3" />
  <path
     id="rect846"
     style="color:#000000;font-style:normal;font-variant:normal;font-weight:normal;font-stretch:normal;font-size:medium;line-height:normal;font-family:sans-serif;font-variant-ligatures:normal;font-variant-position:normal;font-variant-caps:normal;font-variant-numeric:normal;font-variant-alternates:normal;font-variant-east-asian:normal;font-feature-settings:normal;font-variation-settings:normal;text-indent:0;text-align:start;text-decoration:none;text-decoration-line:none;text-decoration-style:solid;text-decoration-color:#000000;letter-spacing:normal;word-spacing:normal;text-transform:none;writing-mode:lr-tb;direction:ltr;text-orientation:mixed;dominant-baseline:auto;baseline-shift:baseline;text-anchor:start;white-space:normal;shape-padding:0;shape-margin:0;inline-size:0;clip-rule:nonzero;display:inline;overflow:visible;visibility:visible;isolation:auto;mix-blend-mode:normal;color-interpolation:sRGB;color-interpolation-filters:linearRGB;solid-color:#000000;solid-opacity:1;vector-effect:none;fill:#ffffff;fill-opacity:1;fill-rule:nonzero;stroke:none;stroke-linecap:round;stroke-linejoin:round;stroke-miterlimit:4;stroke-dasharray:none;stroke-dashoffset:0;stroke-opacity:1;color-rendering:auto;image-rendering:auto;shape-rendering:auto;text-rendering:auto;enable-background:accumulate;stop-color:#000000;stop-opacity:1;opacity:1"
     d="M 10 6 C 7.8012972 6 6 7.8012972 6 10 L 6 22 C 6 24.198703 7.8012972 26 10 26 L 22 26 C 24.198703 26 26 24.198703 26 22 L 26 16.689453 L 24 18.689453 L 24 22 C 24 23.125297 23.125297 24 22 24 L 10 24 C 8.8747028 24 8 23.125297 8 22 L 8 10 C 8 8.8747028 8.8747028 8 10 8 L 13.310547 8 L 15.3125 6 L 10 6 z M 18.140625 6 L 16.140625 8 L 22 8 C 23.125297 8 24 8.8747028 24 10 L 24 15.861328 L 26 13.861328 L 26 10.138672 L 21.859375 6 L 18.140625 6 z " />
  <path
     style="opacity:0.99;fill:#ffffff;fill-opacity:1;fill-rule:nonzero;stroke:none;stroke-width:1.00157;stroke-linecap:round;stroke-linejoin:round;stroke-miterlimit:4;stroke-dasharray:none;stroke-dashoffset:0;stroke-opacity:1;paint-order:fill markers stroke"
     d="m 19.951919,4.0000003 c -0.799392,0.012746 -1.562376,0.3360432 -2.127567,0.9015116 l -4.923455,4.9234552 c -1.193756,1.1942489 -1.193756,3.1570469 0,4.3512959 l 4.923455,4.923455 c 1.194249,1.193757 3.157046,1.193757 4.351296,0 l 4.923455,-4.923455 c 1.193757,-1.194249 1.193757,-3.157047 0,-4.3512959 L 22.175648,4.9015119 C 21.58693,4.3125216 20.784587,3.9872477 19.951919,4.0000003 Z"
     id="path916"
     inkscape:connector-curvature="0" />
</svg>
