<?xml version="1.0" encoding="UTF-8" standalone="no"?>
<!-- Created with Inkscape (http://www.inkscape.org/) -->

<svg
   xmlns:dc="http://purl.org/dc/elements/1.1/"
   xmlns:cc="http://creativecommons.org/ns#"
   xmlns:rdf="http://www.w3.org/1999/02/22-rdf-syntax-ns#"
   xmlns:svg="http://www.w3.org/2000/svg"
   xmlns="http://www.w3.org/2000/svg"
   xmlns:xlink="http://www.w3.org/1999/xlink"
   xmlns:sodipodi="http://sodipodi.sourceforge.net/DTD/sodipodi-0.dtd"
   xmlns:inkscape="http://www.inkscape.org/namespaces/inkscape"
   width="32"
   height="32"
   viewBox="0 0 32 32.000001"
   id="svg2"
   version="1.1"
   inkscape:version="0.91 r13725"
   sodipodi:docname="icon.svg">
  <defs
     id="defs4">
    <linearGradient
       inkscape:collect="always"
       id="linearGradient4138">
      <stop
         style="stop-color:#ff6400;stop-opacity:1;"
         offset="0"
         id="stop4140" />
      <stop
         style="stop-color:#ffc800;stop-opacity:1"
         offset="1"
         id="stop4142" />
    </linearGradient>
    <linearGradient
       inkscape:collect="always"
       xlink:href="#linearGradient4138"
       id="linearGradient4144"
       x1="1.0101526"
       y1="1051.3521"
       x2="30.935923"
       y2="1021.4263"
       gradientUnits="userSpaceOnUse"
       gradientTransform="translate(0,-1020.3622)" />
  </defs>
  <sodipodi:namedview
     id="base"
     pagecolor="#ffffff"
     bordercolor="#666666"
     borderopacity="1.0"
     inkscape:pageopacity="0.0"
     inkscape:pageshadow="2"
     inkscape:zoom="22.4"
     inkscape:cx="16.942745"
     inkscape:cy="16.158323"
     inkscape:document-units="px"
     inkscape:current-layer="layer1"
     showgrid="false"
     units="px"
     inkscape:window-width="1280"
     inkscape:window-height="766"
     inkscape:window-x="0"
     inkscape:window-y="0"
     inkscape:window-maximized="1" />
  <metadata
     id="metadata7">
    <rdf:RDF>
      <cc:Work
         rdf:about="">
        <dc:format>image/svg+xml</dc:format>
        <dc:type
           rdf:resource="http://purl.org/dc/dcmitype/StillImage" />
        <dc:title></dc:title>
      </cc:Work>
    </rdf:RDF>
  </metadata>
  <g
     inkscape:label="Layer 1"
     inkscape:groupmode="layer"
     id="layer1"
     transform="translate(0,-1020.3622)">
    <path
       style="opacity:1;fill:url(#linearGradient4144);fill-opacity:1;stroke:none;stroke-width:1;stroke-linecap:round;stroke-linejoin:miter;stroke-miterlimit:4;stroke-dasharray:none;stroke-opacity:1"
       d="M 16 1.5 A 14.5 14.5 0 0 0 1.5 16 A 14.5 14.5 0 0 0 16 30.5 A 14.5 14.5 0 0 0 30.5 16 A 14.5 14.5 0 0 0 16 1.5 z M 13 10 C 14.770406 10 16.359654 10.77595 17.458984 12 L 21 12 L 21 10.5 L 21 10 L 27 10 L 27 12 L 28 12 L 28 20 L 17.458984 20 C 16.359654 21.22405 14.770406 22 13 22 C 11.229594 22 9.6403461 21.22405 8.5410156 20 L 4 20 L 4 12.5 L 4 12 L 8.5410156 12 C 9.6403461 10.77595 11.229594 10 13 10 z M 13 11 C 10.232654 11 8 13.2327 8 16 C 8 18.7674 10.232654 21 13 21 C 15.767346 21 18 18.7674 18 16 C 18 13.2327 15.767346 11 13 11 z M 22 11 L 22 12 L 26 12 L 26 11 L 22 11 z M 5 13 L 5 19 L 7.8105469 19 C 7.2974131 18.116248 7 17.093181 7 16 C 7 14.906819 7.2974131 13.883752 7.8105469 13 L 5 13 z M 18.189453 13 C 18.702587 13.883752 19 14.906819 19 16 C 19 17.093181 18.702587 18.116248 18.189453 19 L 27 19 L 27 13 L 21 13 L 18.189453 13 z "
       transform="translate(0,1020.3622)"
       id="path4136" />
  </g>
</svg>
