<?xml version="1.0" encoding="UTF-8" standalone="no"?>
<svg
   xmlns:dc="http://purl.org/dc/elements/1.1/"
   xmlns:cc="http://creativecommons.org/ns#"
   xmlns:rdf="http://www.w3.org/1999/02/22-rdf-syntax-ns#"
   xmlns:svg="http://www.w3.org/2000/svg"
   xmlns="http://www.w3.org/2000/svg"
   xmlns:xlink="http://www.w3.org/1999/xlink"
   xmlns:sodipodi="http://sodipodi.sourceforge.net/DTD/sodipodi-0.dtd"
   xmlns:inkscape="http://www.inkscape.org/namespaces/inkscape"
   height="32"
   width="32"
   id="svg2"
   version="1.1"
   inkscape:version="0.91 r13725"
   sodipodi:docname="utilities-system-monitor.svg">
  <metadata
     id="metadata9">
    <rdf:RDF>
      <cc:Work
         rdf:about="">
        <dc:format>image/svg+xml</dc:format>
        <dc:type
           rdf:resource="http://purl.org/dc/dcmitype/StillImage" />
        <dc:title></dc:title>
      </cc:Work>
    </rdf:RDF>
  </metadata>
  <defs
     id="defs7">
    <linearGradient
       inkscape:collect="always"
       id="linearGradient4139">
      <stop
         style="stop-color:#006400;stop-opacity:1"
         offset="0"
         id="stop4141" />
      <stop
         style="stop-color:#00c800;stop-opacity:1"
         offset="1"
         id="stop4143" />
    </linearGradient>
    <linearGradient
       inkscape:collect="always"
       xlink:href="#linearGradient4139"
       id="linearGradient4145"
       x1="0"
       y1="32"
       x2="32"
       y2="0"
       gradientUnits="userSpaceOnUse" />
  </defs>
  <sodipodi:namedview
     id="namedview1"
     showgrid="true"
     inkscape:zoom="14.75"
     inkscape:cx="14.864505"
     inkscape:cy="15.991332"
     inkscape:window-width="1280"
     inkscape:window-height="766"
     inkscape:window-x="1680"
     inkscape:window-y="250"
     inkscape:window-maximized="1"
     inkscape:current-layer="svg2">
    <inkscape:grid
       type="xygrid"
       id="grid1px"
       empspacing="4" />
    <inkscape:grid
       type="xygrid"
       id="grid1pxdot"
       empspacing="1"
       dotted="true"
       originy="0.5"
       originx="0.5" />
  </sodipodi:namedview>
  <path
     style="opacity:0.98999999;fill:url(#linearGradient4145);fill-opacity:1;fill-rule:nonzero;stroke:none;stroke-width:1;stroke-linecap:round;stroke-linejoin:round;stroke-miterlimit:4;stroke-dasharray:none;stroke-dashoffset:0;stroke-opacity:1"
     d="M 16 0 A 16 16 0 0 0 0 16 A 16 16 0 0 0 16 32 A 16 16 0 0 0 32 16 A 16 16 0 0 0 16 0 z M 16 4 A 12 12 0 0 1 28 16 L 25.808594 16 L 24.947266 14.277344 A 0.50005 0.50005 0 0 0 24.083984 14.222656 L 22.5 16.597656 L 20.916016 14.222656 A 0.50005 0.50005 0 0 0 20.025391 14.341797 L 18.595703 18.628906 L 16.988281 11.390625 A 0.50005 0.50005 0 0 0 16.476562 11 A 0.50005 0.50005 0 0 0 16.019531 11.363281 L 14.462891 16.808594 L 12.974609 12.341797 A 0.50005 0.50005 0 0 0 12.015625 12.378906 L 10.34375 19.068359 L 8.9472656 16.277344 A 0.50005 0.50005 0 0 0 8.5 16 L 4 16 A 12 12 0 0 1 16 4 z M 16.439453 13.53125 L 18.011719 20.609375 A 0.50005 0.50005 0 0 0 18.974609 20.658203 L 20.650391 15.628906 L 22.083984 17.777344 A 0.50005 0.50005 0 0 0 22.916016 17.777344 L 24.4375 15.494141 L 25.052734 16.722656 A 0.50005 0.50005 0 0 0 25.5 17 L 27.949219 17 A 12 12 0 0 1 16 28 A 12 12 0 0 1 4.046875 17 L 8.1914062 17 L 10.052734 20.722656 A 0.50005 0.50005 0 0 0 10.984375 20.621094 L 12.568359 14.287109 L 14.025391 18.658203 A 0.50005 0.50005 0 0 0 14.980469 18.636719 L 16.439453 13.53125 z "
     id="path4137" />
</svg>
