<?xml version="1.0" encoding="UTF-8" standalone="no"?>
<svg
   xmlns:dc="http://purl.org/dc/elements/1.1/"
   xmlns:cc="http://creativecommons.org/ns#"
   xmlns:rdf="http://www.w3.org/1999/02/22-rdf-syntax-ns#"
   xmlns:svg="http://www.w3.org/2000/svg"
   xmlns="http://www.w3.org/2000/svg"
   xmlns:sodipodi="http://sodipodi.sourceforge.net/DTD/sodipodi-0.dtd"
   xmlns:inkscape="http://www.inkscape.org/namespaces/inkscape"
   height="32"
   width="32"
   id="svg2"
   version="1.1"
   inkscape:version="0.92.2 2405546, 2018-03-11"
   sodipodi:docname="utilities-terminal-rtl.svg">
  <metadata
     id="metadata9">
    <rdf:RDF>
      <cc:Work
         rdf:about="">
        <dc:format>image/svg+xml</dc:format>
        <dc:type
           rdf:resource="http://purl.org/dc/dcmitype/StillImage" />
        <dc:title></dc:title>
      </cc:Work>
    </rdf:RDF>
  </metadata>
  <defs
     id="defs7" />
  <sodipodi:namedview
     id="namedview1"
     showgrid="true"
     inkscape:zoom="20.85965"
     inkscape:cx="17.457529"
     inkscape:cy="16.029535"
     inkscape:window-width="1920"
     inkscape:window-height="1046"
     inkscape:window-x="0"
     inkscape:window-y="0"
     inkscape:window-maximized="1"
     inkscape:current-layer="svg2">
    <inkscape:grid
       type="xygrid"
       id="grid1px"
       empspacing="4" />
    <inkscape:grid
       type="xygrid"
       id="grid1pxdot"
       empspacing="1"
       dotted="true"
       originy="0.5"
       originx="0.5" />
  </sodipodi:namedview>
  <path
     style="opacity:1;fill:#000000;fill-opacity:1;fill-rule:nonzero;stroke:none;stroke-width:1;stroke-linecap:round;stroke-linejoin:round;stroke-miterlimit:4;stroke-dasharray:none;stroke-dashoffset:0;stroke-opacity:1;paint-order:fill markers stroke"
     d="M 2.5 2 A 0.50005 0.50005 0 0 0 2 2.5 L 2 29.5 A 0.50005 0.50005 0 0 0 2.5 30 L 29.5 30 A 0.50005 0.50005 0 0 0 30 29.5 L 30 2.5 A 0.50005 0.50005 0 0 0 29.5 2 L 2.5 2 z M 22.693359 7.1015625 L 23.503906 7.1015625 C 23.64867 7.1015625 23.773624 7.1544832 23.878906 7.2597656 C 23.984189 7.3650481 24.037109 7.4900024 24.037109 7.6347656 L 24.037109 8.9570312 C 24.839887 9.075474 25.543063 9.3317535 26.148438 9.7265625 C 26.766972 10.121371 27.241305 10.570221 27.570312 11.070312 C 27.89932 11.570404 28.077195 12.030043 28.103516 12.451172 C 28.116676 12.569615 28.076497 12.675456 27.984375 12.767578 C 27.892253 12.84654 27.786411 12.884766 27.667969 12.884766 L 26.859375 12.884766 C 26.701451 12.884766 26.582868 12.859281 26.503906 12.806641 C 26.424945 12.740841 26.340169 12.622257 26.248047 12.451172 C 26.037482 12.043203 25.66899 11.642856 25.142578 11.248047 C 24.629327 10.853238 23.943311 10.654297 23.087891 10.654297 C 22.298273 10.654297 21.626951 10.832172 21.074219 11.1875 C 20.534647 11.542828 20.265625 12.049016 20.265625 12.707031 C 20.265625 13.154481 20.39695 13.522973 20.660156 13.8125 C 20.936522 14.088867 21.345193 14.332404 21.884766 14.542969 C 22.437498 14.740373 23.265628 14.983911 24.371094 15.273438 C 25.871368 15.668246 26.932247 16.155322 27.550781 16.734375 C 28.182476 17.300268 28.498047 18.077431 28.498047 19.064453 C 28.498047 20.143598 28.089376 21.045715 27.273438 21.769531 C 26.470659 22.493348 25.39262 22.921131 24.037109 23.052734 L 24.037109 24.335938 C 24.037109 24.480701 23.984189 24.605655 23.878906 24.710938 C 23.773624 24.81622 23.64867 24.867188 23.503906 24.867188 L 22.693359 24.867188 C 22.548596 24.867188 22.423641 24.81622 22.318359 24.710938 C 22.213077 24.605655 22.160156 24.480701 22.160156 24.335938 L 22.160156 23.011719 C 21.357378 22.893276 20.635089 22.643367 19.990234 22.261719 C 19.34538 21.88007 18.837238 21.439545 18.46875 20.939453 C 18.100261 20.426202 17.909645 19.920013 17.896484 19.419922 C 17.896484 19.301479 17.936663 19.202008 18.015625 19.123047 C 18.107747 19.030925 18.213589 18.986328 18.332031 18.986328 L 19.140625 18.986328 C 19.285388 18.986328 19.403972 19.018184 19.496094 19.083984 C 19.588216 19.136624 19.672991 19.248837 19.751953 19.419922 C 19.962518 19.893693 20.343752 20.327848 20.896484 20.722656 C 21.462378 21.117466 22.226798 21.314453 23.1875 21.314453 C 24.148201 21.314453 24.957219 21.111094 25.615234 20.703125 C 26.28641 20.281995 26.623047 19.735628 26.623047 19.064453 C 26.623047 18.630164 26.445172 18.268042 26.089844 17.978516 C 25.747676 17.675828 25.273343 17.42592 24.667969 17.228516 C 24.062595 17.017951 23.17322 16.761671 22.001953 16.458984 C 20.725404 16.129976 19.804175 15.655643 19.238281 15.037109 C 18.672389 14.405415 18.390625 13.628253 18.390625 12.707031 C 18.390625 12.101657 18.528322 11.536178 18.804688 11.009766 C 19.094214 10.470194 19.521997 10.016926 20.087891 9.6484375 C 20.653783 9.2799491 21.344218 9.0427825 22.160156 8.9375 L 22.160156 7.6347656 C 22.160156 7.4900024 22.213077 7.3650481 22.318359 7.2597656 C 22.423641 7.1544832 22.548596 7.1015625 22.693359 7.1015625 z M 4.0625 22.060547 L 15.414062 22.060547 C 15.558841 22.060547 15.683772 22.113457 15.789062 22.21875 C 15.894357 22.324043 15.947266 22.448971 15.947266 22.59375 L 15.947266 23.226562 C 15.947266 23.371341 15.894357 23.496271 15.789062 23.601562 C 15.683771 23.706857 15.558841 23.759766 15.414062 23.759766 L 4.0625 23.759766 C 3.917722 23.759766 3.792793 23.706858 3.6875 23.601562 C 3.582207 23.496272 3.5292969 23.371343 3.5292969 23.226562 L 3.5292969 22.59375 C 3.5292969 22.448971 3.582207 22.324043 3.6875 22.21875 C 3.792793 22.113457 3.917722 22.060547 4.0625 22.060547 z "
     id="rect4491" />
</svg>
