<?xml version="1.0" encoding="UTF-8" standalone="no"?>
<svg
   xmlns:dc="http://purl.org/dc/elements/1.1/"
   xmlns:cc="http://creativecommons.org/ns#"
   xmlns:rdf="http://www.w3.org/1999/02/22-rdf-syntax-ns#"
   xmlns:svg="http://www.w3.org/2000/svg"
   xmlns="http://www.w3.org/2000/svg"
   xmlns:xlink="http://www.w3.org/1999/xlink"
   xmlns:sodipodi="http://sodipodi.sourceforge.net/DTD/sodipodi-0.dtd"
   xmlns:inkscape="http://www.inkscape.org/namespaces/inkscape"
   height="32"
   width="32"
   version="1.1"
   id="svg5"
   sodipodi:docname="utilities-file-archiver.svg"
   inkscape:version="0.92.0 r">
  <metadata
     id="metadata9">
    <rdf:RDF>
      <cc:Work
         rdf:about="">
        <dc:format>image/svg+xml</dc:format>
        <dc:type
           rdf:resource="http://purl.org/dc/dcmitype/StillImage" />
        <dc:title></dc:title>
      </cc:Work>
    </rdf:RDF>
  </metadata>
  <defs
     id="defs7">
    <linearGradient
       inkscape:collect="always"
       id="linearGradient4492">
      <stop
         style="stop-color:#640064;stop-opacity:1"
         offset="0"
         id="stop4488" />
      <stop
         style="stop-color:#c800c8;stop-opacity:1"
         offset="1"
         id="stop4490" />
    </linearGradient>
    <linearGradient
       inkscape:collect="always"
       xlink:href="#linearGradient4492"
       id="linearGradient4494"
       x1="0"
       y1="32"
       x2="32"
       y2="0"
       gradientUnits="userSpaceOnUse" />
    <linearGradient
       inkscape:collect="always"
       xlink:href="#linearGradient4492"
       id="linearGradient4514"
       gradientUnits="userSpaceOnUse"
       x1="0"
       y1="32"
       x2="32"
       y2="0" />
  </defs>
  <sodipodi:namedview
     id="namedview1"
     showgrid="true"
     inkscape:zoom="20.85965"
     inkscape:cx="20.341256"
     inkscape:cy="9.7509609"
     inkscape:window-width="1680"
     inkscape:window-height="1016"
     inkscape:window-x="0"
     inkscape:window-y="0"
     inkscape:window-maximized="1"
     inkscape:current-layer="svg5">
    <inkscape:grid
       type="xygrid"
       id="grid1px"
       empspacing="4" />
    <inkscape:grid
       type="xygrid"
       id="grid1pxdot"
       empspacing="1"
       dotted="true"
       originy="0.5"
       originx="0.5" />
  </sodipodi:namedview>
  <path
     style="opacity:1;fill:url(#linearGradient4514);fill-opacity:1;fill-rule:nonzero;stroke:none;stroke-width:1;stroke-linecap:round;stroke-linejoin:round;stroke-miterlimit:4;stroke-dasharray:none;stroke-dashoffset:0;stroke-opacity:1"
     d="M 16 0 A 16 16 0 0 0 0 16 A 16 16 0 0 0 16 32 A 16 16 0 0 0 32 16 A 16 16 0 0 0 16 0 z M 12.5 7 L 13.806641 7 L 12.138672 12 L 8.2597656 12 L 12.109375 7.1875 A 0.50005 0.50005 0 0 1 12.5 7 z M 14.861328 7 L 17.138672 7 L 18.806641 12 L 13.193359 12 L 14.861328 7 z M 18.193359 7 L 19.5 7 A 0.50005 0.50005 0 0 1 19.890625 7.1875 L 23.740234 12 L 19.861328 12 L 18.193359 7 z M 8 13 L 12 13 L 12 14 L 9.5 14 A 0.50005 0.50005 0 0 0 9 14.5 L 9 15.5 A 0.50005 0.50005 0 0 0 9.5 16 L 12 16 L 12 18 L 8 18 L 8 13 z M 13 13 L 19 13 L 19 18 L 13 18 L 13 15.5 L 13 14.5 L 13 13 z M 20 13 L 24 13 L 24 18 L 20 18 L 20 13 z M 8 19 L 12 19 L 12 24 L 8.5 24 A 0.50005 0.50005 0 0 1 8 23.5 L 8 19 z M 13 19 L 19 19 L 19 24 L 13 24 L 13 19 z M 20 19 L 24 19 L 24 23.5 A 0.50005 0.50005 0 0 1 23.5 24 L 20 24 L 20 19 z "
     id="path4486" />
</svg>
