<?xml version="1.0" encoding="UTF-8" standalone="no"?>
<svg
   xmlns:dc="http://purl.org/dc/elements/1.1/"
   xmlns:cc="http://creativecommons.org/ns#"
   xmlns:rdf="http://www.w3.org/1999/02/22-rdf-syntax-ns#"
   xmlns:svg="http://www.w3.org/2000/svg"
   xmlns="http://www.w3.org/2000/svg"
   xmlns:xlink="http://www.w3.org/1999/xlink"
   xmlns:sodipodi="http://sodipodi.sourceforge.net/DTD/sodipodi-0.dtd"
   xmlns:inkscape="http://www.inkscape.org/namespaces/inkscape"
   height="32"
   width="32"
   id="svg2"
   version="1.1"
   inkscape:version="0.91 r13725"
   sodipodi:docname="vlc.svg">
  <metadata
     id="metadata9">
    <rdf:RDF>
      <cc:Work
         rdf:about="">
        <dc:format>image/svg+xml</dc:format>
        <dc:type
           rdf:resource="http://purl.org/dc/dcmitype/StillImage" />
        <dc:title></dc:title>
      </cc:Work>
    </rdf:RDF>
  </metadata>
  <defs
     id="defs7">
    <linearGradient
       inkscape:collect="always"
       id="linearGradient4139">
      <stop
         style="stop-color:#966400;stop-opacity:1"
         offset="0"
         id="stop4141" />
      <stop
         style="stop-color:#ff6400;stop-opacity:1"
         offset="1"
         id="stop4143" />
    </linearGradient>
    <linearGradient
       inkscape:collect="always"
       xlink:href="#linearGradient4139"
       id="linearGradient4145"
       x1="0"
       y1="32"
       x2="32"
       y2="0"
       gradientUnits="userSpaceOnUse" />
  </defs>
  <sodipodi:namedview
     id="namedview1"
     showgrid="true"
     inkscape:zoom="14.75"
     inkscape:cx="18.92769"
     inkscape:cy="15.620358"
     inkscape:window-width="1280"
     inkscape:window-height="766"
     inkscape:window-x="1680"
     inkscape:window-y="250"
     inkscape:window-maximized="1"
     inkscape:current-layer="svg2">
    <inkscape:grid
       type="xygrid"
       id="grid1px"
       empspacing="4" />
    <inkscape:grid
       type="xygrid"
       id="grid1pxdot"
       empspacing="1"
       dotted="true"
       originy="0.5"
       originx="0.5" />
  </sodipodi:namedview>
  <path
     style="opacity:0.98999999;fill:url(#linearGradient4145);fill-opacity:1;fill-rule:nonzero;stroke:none;stroke-width:2;stroke-linecap:round;stroke-linejoin:round;stroke-miterlimit:4;stroke-dasharray:none;stroke-dashoffset:0;stroke-opacity:1"
     d="M 18.152344 0.1640625 L 24.960938 21.5 L 31 21.5 A 16 16 0 0 0 31.060547 21.345703 A 16 16 0 0 0 31.210938 20.933594 A 16 16 0 0 0 31.494141 19.908203 A 16 16 0 0 0 31.634766 19.363281 A 16 16 0 0 0 31.798828 18.404297 A 16 16 0 0 0 31.892578 17.773438 A 16 16 0 0 0 31.957031 16.876953 A 16 16 0 0 0 32 16 A 16 16 0 0 0 31.931641 14.646484 A 16 16 0 0 0 31.833984 13.833984 A 16 16 0 0 0 31.716797 13.056641 A 16 16 0 0 0 31.535156 12.248047 A 16 16 0 0 0 31.345703 11.511719 A 16 16 0 0 0 31.083984 10.722656 A 16 16 0 0 0 30.816406 9.9902344 A 16 16 0 0 0 30.5 9.28125 A 16 16 0 0 0 30.136719 8.5273438 A 16 16 0 0 0 29.748047 7.8496094 A 16 16 0 0 0 29.332031 7.1738281 A 16 16 0 0 0 28.849609 6.4960938 A 16 16 0 0 0 28.382812 5.8828125 A 16 16 0 0 0 27.849609 5.2773438 A 16 16 0 0 0 27.306641 4.6933594 A 16 16 0 0 0 26.722656 4.1503906 A 16 16 0 0 0 26.117188 3.6171875 A 16 16 0 0 0 25.503906 3.1503906 A 16 16 0 0 0 24.826172 2.6679688 A 16 16 0 0 0 24.150391 2.2519531 A 16 16 0 0 0 23.472656 1.8632812 A 16 16 0 0 0 22.71875 1.5 A 16 16 0 0 0 22.009766 1.1835938 A 16 16 0 0 0 21.277344 0.91601562 A 16 16 0 0 0 20.488281 0.65429688 A 16 16 0 0 0 19.751953 0.46484375 A 16 16 0 0 0 18.943359 0.28320312 A 16 16 0 0 0 18.166016 0.16601562 A 16 16 0 0 0 18.152344 0.1640625 z M 13.8125 0.16992188 A 16 16 0 0 0 13.033203 0.2890625 A 16 16 0 0 0 12.3125 0.45117188 A 16 16 0 0 0 11.486328 0.66210938 A 16 16 0 0 0 10.800781 0.890625 A 16 16 0 0 0 9.9433594 1.203125 A 16 16 0 0 0 9.3886719 1.4511719 A 16 16 0 0 0 8.484375 1.8886719 A 16 16 0 0 0 7.9765625 2.1816406 A 16 16 0 0 0 7.1074219 2.7148438 A 16 16 0 0 0 6.6679688 3.0292969 A 16 16 0 0 0 5.8046875 3.6855469 A 16 16 0 0 0 5.4550781 3.9921875 A 16 16 0 0 0 4.6269531 4.765625 A 16 16 0 0 0 4.3125 5.1015625 A 16 16 0 0 0 3.5488281 5.9726562 A 16 16 0 0 0 3.3085938 6.2890625 A 16 16 0 0 0 2.6113281 7.265625 A 16 16 0 0 0 2.3339844 7.7167969 A 16 16 0 0 0 1.8769531 8.5 A 16 16 0 0 0 0 16 A 16 16 0 0 0 0.99609375 21.5 L 6.0976562 21.5 L 13.8125 0.16992188 z M 15.880859 6.2089844 L 10.349609 21.5 L 20.761719 21.5 L 15.880859 6.2089844 z M 3.1484375 25.5 A 16 16 0 0 0 16 32 A 16 16 0 0 0 21.5 31.009766 A 16 16 0 0 0 24.375 29.617188 A 16 16 0 0 0 25.662109 28.736328 A 16 16 0 0 0 25.695312 28.712891 A 16 16 0 0 0 25.703125 28.707031 A 16 16 0 0 0 26.892578 27.701172 A 16 16 0 0 0 26.916016 27.681641 A 16 16 0 0 0 26.921875 27.675781 A 16 16 0 0 0 27.974609 26.587891 A 16 16 0 0 0 28.041016 26.517578 A 16 16 0 0 0 28.847656 25.5 L 23.576172 25.5 L 7.84375 25.5 A 2.0002 2.0002 0 0 1 7.1425781 25.5 L 3.1484375 25.5 z "
     id="path4137" />
</svg>
