<?xml version="1.0" encoding="UTF-8" standalone="no"?>
<svg
   xmlns:dc="http://purl.org/dc/elements/1.1/"
   xmlns:cc="http://creativecommons.org/ns#"
   xmlns:rdf="http://www.w3.org/1999/02/22-rdf-syntax-ns#"
   xmlns:svg="http://www.w3.org/2000/svg"
   xmlns="http://www.w3.org/2000/svg"
   xmlns:xlink="http://www.w3.org/1999/xlink"
   xmlns:sodipodi="http://sodipodi.sourceforge.net/DTD/sodipodi-0.dtd"
   xmlns:inkscape="http://www.inkscape.org/namespaces/inkscape"
   height="32"
   width="32"
   id="svg2"
   version="1.1"
   inkscape:version="0.92.2 2405546, 2018-03-11"
   sodipodi:docname="vlc.svg">
  <metadata
     id="metadata9">
    <rdf:RDF>
      <cc:Work
         rdf:about="">
        <dc:format>image/svg+xml</dc:format>
        <dc:type
           rdf:resource="http://purl.org/dc/dcmitype/StillImage" />
        <dc:title></dc:title>
      </cc:Work>
    </rdf:RDF>
  </metadata>
  <defs
     id="defs7">
    <linearGradient
       inkscape:collect="always"
       id="linearGradient824">
      <stop
         style="stop-color:#ff3200;stop-opacity:1"
         offset="0"
         id="stop820" />
      <stop
         style="stop-color:#ff9600;stop-opacity:1"
         offset="1"
         id="stop822" />
    </linearGradient>
    <linearGradient
       inkscape:collect="always"
       id="linearGradient4139">
      <stop
         style="stop-color:#966400;stop-opacity:1"
         offset="0"
         id="stop4141" />
      <stop
         style="stop-color:#ff6400;stop-opacity:1"
         offset="1"
         id="stop4143" />
    </linearGradient>
    <linearGradient
       inkscape:collect="always"
       xlink:href="#linearGradient4139"
       id="linearGradient4145"
       x1="0"
       y1="32"
       x2="32"
       y2="0"
       gradientUnits="userSpaceOnUse" />
    <linearGradient
       inkscape:collect="always"
       xlink:href="#linearGradient824"
       id="linearGradient826"
       x1="0"
       y1="32"
       x2="32"
       y2="0"
       gradientUnits="userSpaceOnUse" />
  </defs>
  <sodipodi:namedview
     id="namedview1"
     showgrid="true"
     inkscape:zoom="14.75"
     inkscape:cx="-2.720313"
     inkscape:cy="19.00102"
     inkscape:window-width="1920"
     inkscape:window-height="1046"
     inkscape:window-x="0"
     inkscape:window-y="0"
     inkscape:window-maximized="1"
     inkscape:current-layer="svg2">
    <inkscape:grid
       type="xygrid"
       id="grid1px"
       empspacing="4" />
    <inkscape:grid
       type="xygrid"
       id="grid1pxdot"
       empspacing="1"
       dotted="true"
       originy="0.5"
       originx="0.5" />
  </sodipodi:namedview>
  <circle
     style="opacity:1;fill:url(#linearGradient826);fill-opacity:1;stroke:none;stroke-width:2;stroke-linecap:round;stroke-linejoin:round;stroke-miterlimit:4;stroke-dasharray:none;stroke-opacity:1;paint-order:normal"
     id="path818"
     cx="16"
     cy="16"
     r="16" />
  <path
     style="fill:#ffffff;stroke:none;stroke-width:1px;stroke-linecap:round;stroke-linejoin:round;stroke-opacity:1;fill-opacity:0.78431374"
     d="M 15.964844 4 A 0.50005 0.50005 0 0 0 15.546875 4.2871094 L 13.806641 8 L 18.193359 8 L 16.453125 4.2871094 A 0.50005 0.50005 0 0 0 16.015625 4 A 0.50005 0.50005 0 0 0 15.964844 4 z M 12.400391 11 L 10.994141 14 L 21.005859 14 L 19.599609 11 L 12.400391 11 z M 9.5878906 17 L 8.1816406 20 L 4.5 20 A 0.50005 0.50005 0 0 0 4 20.5 L 4 23.5 A 0.50005 0.50005 0 0 0 4.5 24 L 27.5 24 A 0.50005 0.50005 0 0 0 28 23.5 L 28 20.5 A 0.50005 0.50005 0 0 0 27.5 20 L 23.818359 20 L 22.412109 17 L 9.5878906 17 z "
     id="path828" />
</svg>
