<?xml version="1.0" encoding="UTF-8" standalone="no"?>
<svg
   xmlns:dc="http://purl.org/dc/elements/1.1/"
   xmlns:cc="http://creativecommons.org/ns#"
   xmlns:rdf="http://www.w3.org/1999/02/22-rdf-syntax-ns#"
   xmlns:svg="http://www.w3.org/2000/svg"
   xmlns="http://www.w3.org/2000/svg"
   xmlns:sodipodi="http://sodipodi.sourceforge.net/DTD/sodipodi-0.dtd"
   xmlns:inkscape="http://www.inkscape.org/namespaces/inkscape"
   height="32"
   width="32"
   id="svg2"
   version="1.1"
   inkscape:version="0.92.0 r"
   sodipodi:docname="application-ogg.svg">
  <metadata
     id="metadata9">
    <rdf:RDF>
      <cc:Work
         rdf:about="">
        <dc:format>image/svg+xml</dc:format>
        <dc:type
           rdf:resource="http://purl.org/dc/dcmitype/StillImage" />
        <dc:title></dc:title>
      </cc:Work>
    </rdf:RDF>
  </metadata>
  <defs
     id="defs7" />
  <sodipodi:namedview
     id="namedview1"
     showgrid="true"
     inkscape:zoom="7.375"
     inkscape:cx="24.268228"
     inkscape:cy="20.808852"
     inkscape:window-width="1280"
     inkscape:window-height="766"
     inkscape:window-x="0"
     inkscape:window-y="0"
     inkscape:window-maximized="1"
     inkscape:current-layer="svg2">
    <inkscape:grid
       type="xygrid"
       id="grid1px"
       empspacing="4" />
    <inkscape:grid
       type="xygrid"
       id="grid1pxdot"
       empspacing="1"
       dotted="true"
       originy="0.5"
       originx="0.5" />
  </sodipodi:namedview>
  <path
     style="opacity:0.98999999;fill:#00c8ff;fill-opacity:1;fill-rule:nonzero;stroke:#000000;stroke-width:1;stroke-linecap:round;stroke-linejoin:round;stroke-miterlimit:4;stroke-dasharray:none;stroke-opacity:1"
     d="M 5.5,1.5000001 5.5,30.5 l 21,0 0,-21.9999999 -7,0 0,-7 z"
     id="path4145"
     inkscape:connector-curvature="0" />
  <path
     style="opacity:0.98999999;fill:#00c8ff;fill-opacity:1;fill-rule:nonzero;stroke:#000000;stroke-width:1;stroke-linecap:round;stroke-linejoin:round;stroke-miterlimit:4;stroke-dasharray:none;stroke-opacity:1"
     d="m 7.5,15.5 h 2 l 2,-3 2,5 3,-8 3,7 1,-1 1,-1 1,1 h 2"
     id="path4146"
     inkscape:connector-curvature="0" />
  <path
     style="opacity:0.98999999;fill:#ffffff;fill-opacity:1;fill-rule:nonzero;stroke:#000000;stroke-width:1;stroke-linecap:round;stroke-linejoin:round;stroke-miterlimit:4;stroke-dasharray:none;stroke-opacity:1"
     d="m 19.5,1.5 0,7 7,0 z"
     id="path4137"
     inkscape:connector-curvature="0" />
  <g
     aria-label="ogg"
     style="font-style:normal;font-variant:normal;font-weight:normal;font-stretch:normal;font-size:9.39253998px;line-height:11.89380836px;font-family:contemporary;-inkscape-font-specification:'contemporary, Normal';text-align:start;letter-spacing:0px;word-spacing:0px;writing-mode:lr-tb;text-anchor:start;fill:#000000;fill-opacity:1;stroke:none;stroke-width:0.99999994px;stroke-linecap:butt;stroke-linejoin:miter;stroke-opacity:1"
     id="text821">
    <path
       d="m 12.750544,23.10547 q 0.01879,0.206635 0.01879,0.450841 0,0.225421 -0.01879,0.432057 -0.08453,0.958039 -0.66687,1.530984 -0.572945,0.563553 -1.559162,0.563553 -0.9862163,0 -1.5685538,-0.563553 -0.5729449,-0.572945 -0.6574778,-1.530984 -0.00939,-0.103318 -0.00939,-0.432057 0,-0.347523 0.00939,-0.450841 0.07514,-0.95804 0.6574778,-1.521592 0.5823375,-0.572945 1.5685538,-0.572945 0.986217,0 1.568555,0.572945 0.582337,0.563552 0.657477,1.521592 z m -0.854721,0.04696 q -0.05635,-0.601122 -0.403879,-0.967431 -0.338131,-0.366309 -0.967432,-0.366309 -0.6292998,0 -0.9768238,0.366309 -0.3381314,0.366309 -0.3944867,0.967431 -0.00939,0.112711 -0.00939,0.403879 0,0.281777 0.00939,0.385095 0.056355,0.601122 0.3944867,0.967431 0.347524,0.366309 0.9768238,0.366309 0.629301,0 0.967432,-0.366309 0.347524,-0.366309 0.403879,-0.967431 0.01878,-0.206636 0.01878,-0.385095 0,-0.178458 -0.01878,-0.403879 z"
       style="stroke-width:0.99999994px"
       id="path823" />
    <path
       d="m 15.832912,21.010933 q 0.525982,0 0.882899,0.187851 0.366309,0.178458 0.572945,0.450842 v -0.291169 q 0,-0.103318 0.07514,-0.178458 0.07514,-0.07514 0.178458,-0.07514 h 0.347524 q 0.103318,0 0.178458,0.07514 0.07514,0.07514 0.07514,0.178458 v 4.564775 q 0,0.995609 -0.563553,1.559161 -0.563552,0.572945 -1.653087,0.572945 -0.70444,0 -1.18346,-0.216028 -0.479019,-0.216029 -0.713833,-0.535375 -0.225421,-0.319346 -0.244206,-0.648085 -0.0094,-0.103318 0.06575,-0.178459 0.08453,-0.07514 0.187851,-0.07514 h 0.281776 q 0.11271,0 0.178458,0.05635 0.06575,0.05636 0.131496,0.197244 0.09392,0.216028 0.356916,0.403879 0.262991,0.187851 0.845329,0.187851 1.455844,0 1.455844,-1.211638 v -0.59173 q -0.47902,0.638693 -1.455844,0.638693 -0.582338,0 -1.061357,-0.272384 -0.469627,-0.272384 -0.760796,-0.770188 -0.281776,-0.507197 -0.309954,-1.18346 l -0.0094,-0.309954 0.0094,-0.309954 q 0.02818,-0.676263 0.309954,-1.174067 0.291169,-0.507198 0.760796,-0.779581 0.469627,-0.272384 1.061357,-0.272384 z m 0.09393,0.807759 q -0.610515,0 -0.976824,0.394486 -0.356916,0.394487 -0.394487,1.07075 l -0.0094,0.262991 0.0094,0.262991 q 0.03757,0.676263 0.394487,1.07075 0.366309,0.394486 0.976824,0.394486 0.601123,0 0.967432,-0.366309 0.366309,-0.375701 0.394487,-1.023787 0.0094,-0.09392 0.0094,-0.338131 0,-0.244206 -0.0094,-0.338131 -0.02818,-0.657478 -0.394487,-1.023787 -0.366309,-0.366309 -0.967432,-0.366309 z"
       style="stroke-width:0.99999994px"
       id="path825" />
    <path
       d="m 21.446422,21.010933 q 0.525982,0 0.882899,0.187851 0.366309,0.178458 0.572945,0.450842 v -0.291169 q 0,-0.103318 0.07514,-0.178458 0.07514,-0.07514 0.178458,-0.07514 h 0.347524 q 0.103318,0 0.178459,0.07514 0.07514,0.07514 0.07514,0.178458 v 4.564775 q 0,0.995609 -0.563553,1.559161 -0.563552,0.572945 -1.653087,0.572945 -0.70444,0 -1.18346,-0.216028 -0.479019,-0.216029 -0.713833,-0.535375 -0.225421,-0.319346 -0.244206,-0.648085 -0.0094,-0.103318 0.06575,-0.178459 0.08453,-0.07514 0.187851,-0.07514 h 0.281776 q 0.112711,0 0.178458,0.05635 0.06575,0.05636 0.131496,0.197244 0.09392,0.216028 0.356916,0.403879 0.262992,0.187851 0.845329,0.187851 1.455844,0 1.455844,-1.211638 v -0.59173 q -0.47902,0.638693 -1.455844,0.638693 -0.582337,0 -1.061357,-0.272384 -0.469627,-0.272384 -0.760796,-0.770188 -0.281776,-0.507197 -0.309954,-1.18346 l -0.0094,-0.309954 0.0094,-0.309954 q 0.02818,-0.676263 0.309954,-1.174067 0.291169,-0.507198 0.760796,-0.779581 0.469627,-0.272384 1.061357,-0.272384 z m 0.09393,0.807759 q -0.610515,0 -0.976824,0.394486 -0.356916,0.394487 -0.394486,1.07075 l -0.0094,0.262991 0.0094,0.262991 q 0.03757,0.676263 0.394486,1.07075 0.366309,0.394486 0.976824,0.394486 0.601123,0 0.967432,-0.366309 0.366309,-0.375701 0.394487,-1.023787 0.0094,-0.09392 0.0094,-0.338131 0,-0.244206 -0.0094,-0.338131 -0.02818,-0.657478 -0.394487,-1.023787 -0.366309,-0.366309 -0.967432,-0.366309 z"
       style="stroke-width:0.99999994px"
       id="path827" />
  </g>
</svg>
