<?xml version="1.0" encoding="UTF-8" standalone="no"?>
<svg
   xmlns:dc="http://purl.org/dc/elements/1.1/"
   xmlns:cc="http://creativecommons.org/ns#"
   xmlns:rdf="http://www.w3.org/1999/02/22-rdf-syntax-ns#"
   xmlns:svg="http://www.w3.org/2000/svg"
   xmlns="http://www.w3.org/2000/svg"
   xmlns:sodipodi="http://sodipodi.sourceforge.net/DTD/sodipodi-0.dtd"
   xmlns:inkscape="http://www.inkscape.org/namespaces/inkscape"
   height="32"
   width="32"
   id="svg2"
   version="1.1"
   inkscape:version="0.91 r13725"
   sodipodi:docname="audio-x-flac.svg">
  <metadata
     id="metadata9">
    <rdf:RDF>
      <cc:Work
         rdf:about="">
        <dc:format>image/svg+xml</dc:format>
        <dc:type
           rdf:resource="http://purl.org/dc/dcmitype/StillImage" />
        <dc:title></dc:title>
      </cc:Work>
    </rdf:RDF>
  </metadata>
  <defs
     id="defs7" />
  <sodipodi:namedview
     id="namedview1"
     showgrid="true"
     inkscape:zoom="14.75"
     inkscape:cx="16.840133"
     inkscape:cy="17.550284"
     inkscape:window-width="1280"
     inkscape:window-height="766"
     inkscape:window-x="1680"
     inkscape:window-y="250"
     inkscape:window-maximized="1"
     inkscape:current-layer="text4137">
    <inkscape:grid
       type="xygrid"
       id="grid1px"
       empspacing="4" />
    <inkscape:grid
       type="xygrid"
       id="grid1pxdot"
       empspacing="1"
       dotted="true"
       originy="0.5"
       originx="0.5" />
  </sodipodi:namedview>
  <path
     style="opacity:0.98999999;fill:#00c8ff;fill-opacity:1;fill-rule:nonzero;stroke:#000000;stroke-width:1;stroke-linecap:round;stroke-linejoin:round;stroke-miterlimit:4;stroke-dasharray:none;stroke-opacity:1"
     d="M 5.5,1.5000001 5.5,30.5 l 21,0 0,-21.9999999 -7,0 0,-7 z"
     id="path4145"
     inkscape:connector-curvature="0" />
  <path
     style="opacity:0.98999999;fill:#00c8ff;fill-opacity:1;fill-rule:nonzero;stroke:#000000;stroke-width:1;stroke-linecap:round;stroke-linejoin:round;stroke-miterlimit:4;stroke-dasharray:none;stroke-opacity:1"
     d="m 7.5,17.5 2,0 2,-3 2,5 3,-8 3,7 1,-1 1,-1 1,1 2,0"
     id="path4146"
     inkscape:connector-curvature="0" />
  <path
     style="opacity:0.98999999;fill:#ffffff;fill-opacity:1;fill-rule:nonzero;stroke:#000000;stroke-width:1;stroke-linecap:round;stroke-linejoin:round;stroke-miterlimit:4;stroke-dasharray:none;stroke-opacity:1"
     d="m 19.5,1.5 0,7 7,0 z"
     id="path4137"
     inkscape:connector-curvature="0" />
  <g
     style="font-style:normal;font-variant:normal;font-weight:normal;font-stretch:normal;font-size:11.60690689px;line-height:125%;font-family:contemporary;-inkscape-font-specification:'contemporary, Normal';text-align:start;letter-spacing:0px;word-spacing:0px;writing-mode:lr-tb;text-anchor:start;fill:#000000;fill-opacity:1;stroke:none;stroke-width:1px;stroke-linecap:butt;stroke-linejoin:miter;stroke-opacity:1"
     id="text4137">
    <path
       d="m 12.175014,28.708647 q 0,0.127676 -0.09285,0.220531 -0.09286,0.09286 -0.220531,0.09286 l -0.429456,0 q -0.127676,0 -0.220531,-0.09286 -0.09286,-0.09286 -0.09286,-0.220531 l 0,-4.724011 -2.4490577,0 0,4.724011 q 0,0.127676 -0.092855,0.220531 -0.092855,0.09286 -0.2205312,0.09286 l -0.4294556,0 q -0.1276759,0 -0.2205312,-0.09286 -0.092855,-0.09286 -0.092855,-0.220531 l 0,-4.724011 -0.9749802,0 q -0.127676,0 -0.2205313,-0.09285 -0.092855,-0.09286 -0.092855,-0.220531 l 0,-0.371421 q 0,-0.127676 0.092855,-0.220532 0.092855,-0.09286 0.2205313,-0.09286 l 0.9749802,0 0,-0.580345 q 0,-0.998194 0.4642762,-1.485684 0.4642763,-0.48749 1.4508634,-0.48749 l 0.7312356,0 q 0.127676,0 0.220531,0.09286 0.09286,0.09286 0.09286,0.220531 l 0,0.371421 q 0,0.127676 -0.09286,0.220531 -0.09286,0.09286 -0.220531,0.09286 l -0.6151665,0 q -0.5687385,0 -0.7776628,0.266958 -0.1973174,0.266959 -0.1973174,0.766056 l 0,0.522311 2.4490577,0 0,-2.240133 q 0,-0.127676 0.09286,-0.220531 0.09286,-0.09286 0.220531,-0.09286 l 0.429456,0 q 0.127676,0 0.220531,0.09286 0.09285,0.09286 0.09285,0.220531 l 0,7.962338 z"
       style=""
       id="path4142" />
    <path
       d="m 17.498595,25.203361 0,-0.150889 q 0,-0.568739 -0.383028,-0.870518 -0.371421,-0.313387 -0.97498,-0.313387 -0.464277,0 -0.731235,0.162497 -0.255352,0.15089 -0.487491,0.464276 -0.06964,0.09286 -0.150889,0.127676 -0.08125,0.03482 -0.220532,0.03482 l -0.348207,0 q -0.127676,0 -0.232138,-0.09286 -0.09286,-0.09286 -0.08125,-0.220531 0.03482,-0.348207 0.3366,-0.684807 0.313387,-0.348207 0.82409,-0.568739 0.510704,-0.220531 1.09105,-0.220531 1.079442,0 1.741036,0.603559 0.6732,0.603559 0.6732,1.694609 l 0,3.540106 q 0,0.127676 -0.09286,0.220531 -0.09286,0.09286 -0.220531,0.09286 l -0.429456,0 q -0.127676,0 -0.220531,-0.09286 -0.09285,-0.09286 -0.09285,-0.220531 l 0,-0.475883 q -0.185711,0.417849 -0.78927,0.661594 -0.603559,0.243745 -1.207118,0.243745 -0.591952,0 -1.056229,-0.208925 -0.464276,-0.220531 -0.719628,-0.591952 -0.243745,-0.371421 -0.243745,-0.835697 0,-0.870518 0.649987,-1.358008 0.649987,-0.499097 1.729429,-0.673201 l 1.636574,-0.266959 z m 0,0.928553 -1.369615,0.220531 q -0.754449,0.116069 -1.172298,0.383028 -0.417848,0.255352 -0.417848,0.649987 0,0.290172 0.266958,0.522311 0.266959,0.232138 0.812484,0.232138 0.835697,0 1.358008,-0.475883 0.522311,-0.475884 0.522311,-1.241939 l 0,-0.290173 z"
       style=""
       id="path4144" />
    <path
       d="m 22.697038,28.139909 q 1.160691,0 1.566932,-0.905339 0.08125,-0.174104 0.162497,-0.243745 0.08125,-0.06964 0.220531,-0.06964 l 0.348208,0 q 0.127676,0 0.220531,0.09286 0.09286,0.08125 0.09286,0.197317 0,0.394635 -0.313386,0.847304 -0.313387,0.45267 -0.905339,0.766056 -0.591952,0.313387 -1.392829,0.313387 -0.82409,0 -1.42765,-0.348207 -0.603559,-0.348208 -0.928552,-0.951767 -0.324993,-0.615166 -0.359814,-1.369615 -0.01161,-0.139283 -0.01161,-0.533918 0,-0.278565 0.01161,-0.394634 0.104462,-1.183905 0.800876,-1.926747 0.696415,-0.742842 1.91514,-0.742842 0.800877,0 1.381222,0.313387 0.591952,0.301779 0.893732,0.754448 0.313386,0.441063 0.3366,0.835698 0.01161,0.127676 -0.09286,0.220531 -0.09286,0.09286 -0.220531,0.09286 l -0.348208,0 q -0.139283,0 -0.220531,-0.06964 -0.08125,-0.06964 -0.162497,-0.243745 -0.406241,-0.905339 -1.566932,-0.905339 -0.63838,0 -1.114263,0.429456 -0.475883,0.429455 -0.545525,1.299973 -0.01161,0.127676 -0.01161,0.417849 0,0.266959 0.01161,0.394635 0.08125,0.870518 0.545525,1.299973 0.475883,0.429456 1.114263,0.429456 z"
       style=""
       id="path4147" />
  </g>
</svg>
