<?xml version="1.0" encoding="UTF-8" standalone="no"?>
<svg
   xmlns:dc="http://purl.org/dc/elements/1.1/"
   xmlns:cc="http://creativecommons.org/ns#"
   xmlns:rdf="http://www.w3.org/1999/02/22-rdf-syntax-ns#"
   xmlns:svg="http://www.w3.org/2000/svg"
   xmlns="http://www.w3.org/2000/svg"
   xmlns:sodipodi="http://sodipodi.sourceforge.net/DTD/sodipodi-0.dtd"
   xmlns:inkscape="http://www.inkscape.org/namespaces/inkscape"
   height="32"
   width="32"
   id="svg2"
   version="1.1"
   inkscape:version="0.91 r13725"
   sodipodi:docname="audio-mp3.svg">
  <metadata
     id="metadata9">
    <rdf:RDF>
      <cc:Work
         rdf:about="">
        <dc:format>image/svg+xml</dc:format>
        <dc:type
           rdf:resource="http://purl.org/dc/dcmitype/StillImage" />
        <dc:title></dc:title>
      </cc:Work>
    </rdf:RDF>
  </metadata>
  <defs
     id="defs7" />
  <sodipodi:namedview
     id="namedview1"
     showgrid="true"
     inkscape:zoom="10.429825"
     inkscape:cx="11.842553"
     inkscape:cy="6.5312498"
     inkscape:window-width="1280"
     inkscape:window-height="766"
     inkscape:window-x="1680"
     inkscape:window-y="250"
     inkscape:window-maximized="1"
     inkscape:current-layer="svg2">
    <inkscape:grid
       type="xygrid"
       id="grid1px"
       empspacing="4" />
    <inkscape:grid
       type="xygrid"
       id="grid1pxdot"
       empspacing="1"
       dotted="true"
       originy="0.5"
       originx="0.5" />
  </sodipodi:namedview>
  <path
     style="opacity:0.98999999;fill:#00c8ff;fill-opacity:1;fill-rule:nonzero;stroke:#000000;stroke-width:1;stroke-linecap:round;stroke-linejoin:round;stroke-miterlimit:4;stroke-dasharray:none;stroke-opacity:1"
     d="M 5.5,1.5000001 5.5,30.5 l 21,0 0,-21.9999999 -7,0 0,-7 z"
     id="path4145"
     inkscape:connector-curvature="0" />
  <path
     style="opacity:0.98999999;fill:#00c8ff;fill-opacity:1;fill-rule:nonzero;stroke:#000000;stroke-width:1;stroke-linecap:round;stroke-linejoin:round;stroke-miterlimit:4;stroke-dasharray:none;stroke-opacity:1"
     d="m 7.5,17.5 2,0 2,-3 2,5 3,-8 3,7 1,-1 1,-1 1,1 2,0"
     id="path4146"
     inkscape:connector-curvature="0" />
  <path
     style="opacity:0.98999999;fill:#ffffff;fill-opacity:1;fill-rule:nonzero;stroke:#000000;stroke-width:1;stroke-linecap:round;stroke-linejoin:round;stroke-miterlimit:4;stroke-dasharray:none;stroke-opacity:1"
     d="m 19.5,1.5 0,7 7,0 z"
     id="path4137"
     inkscape:connector-curvature="0" />
  <g
     style="font-style:normal;font-variant:normal;font-weight:normal;font-stretch:normal;font-size:9.24638653px;line-height:125%;font-family:contemporary;-inkscape-font-specification:'contemporary, Normal';text-align:start;letter-spacing:0px;word-spacing:0px;writing-mode:lr-tb;text-anchor:start;fill:#000000;fill-opacity:1;stroke:none;stroke-width:1px;stroke-linecap:butt;stroke-linejoin:miter;stroke-opacity:1"
     id="text4137">
    <path
       d="m 7.9734053,23.297421 q 0.2219133,-0.286638 0.4993049,-0.453073 0.2773916,-0.175681 0.7397109,-0.175681 1.0818269,0 1.5164079,0.804436 0.268145,-0.388348 0.610261,-0.591769 0.342116,-0.212667 0.8969,-0.212667 0.906145,0 1.340726,0.545537 0.443826,0.545537 0.443826,1.544147 l 0,2.561249 q 0,0.10171 -0.07397,0.175681 -0.07397,0.07397 -0.175681,0.07397 l -0.342117,0 q -0.10171,0 -0.175681,-0.07397 -0.07397,-0.07397 -0.07397,-0.175681 l 0,-2.468786 q 0,-1.386958 -1.091074,-1.386958 -0.499305,0 -0.795189,0.33287 -0.295884,0.33287 -0.295884,0.989364 l 0,2.53351 q 0,0.10171 -0.07397,0.175681 -0.07397,0.07397 -0.175682,0.07397 l -0.342116,0 q -0.10171,0 -0.175681,-0.07397 -0.07397,-0.07397 -0.07397,-0.175681 l 0,-2.468786 q 0,-1.386958 -1.0910741,-1.386958 -0.4993048,0 -0.7951892,0.33287 -0.2958844,0.33287 -0.2958844,0.989364 l 0,2.53351 q 0,0.10171 -0.073971,0.175681 -0.073971,0.07397 -0.1756813,0.07397 l -0.3421163,0 q -0.1017103,0 -0.1756813,-0.07397 -0.073971,-0.07397 -0.073971,-0.175681 l 0,-4.308817 q 0,-0.10171 0.073971,-0.175681 0.073971,-0.07397 0.1756813,-0.07397 l 0.3421163,0 q 0.1017103,0 0.1756813,0.07397 0.073971,0.07397 0.073971,0.175681 l 0,0.286638 z"
       style=""
       id="path4142" />
    <path
       d="m 16.208468,29.076413 q 0,0.10171 -0.07397,0.175681 -0.07397,0.07397 -0.175682,0.07397 l -0.342116,0 q -0.10171,0 -0.175681,-0.07397 -0.07397,-0.07397 -0.07397,-0.175681 l 0,-6.06563 q 0,-0.10171 0.07397,-0.175681 0.07397,-0.07397 0.175681,-0.07397 l 0.342116,0 q 0.101711,0 0.175682,0.07397 0.07397,0.07397 0.07397,0.175681 l 0,0.286638 q 0.471566,-0.628754 1.43319,-0.628754 0.573276,0 1.035595,0.268145 0.471566,0.268146 0.748957,0.76745 0.286638,0.499305 0.314378,1.165045 0.0092,0.09246 0.0092,0.295885 0,0.212666 -0.0092,0.30513 -0.02774,0.66574 -0.314378,1.165045 -0.277391,0.490058 -0.73971,0.758204 -0.46232,0.268145 -1.044842,0.268145 -0.517798,0 -0.878407,-0.175681 -0.351363,-0.184928 -0.554783,-0.453073 l 0,2.043451 z m 0,-3.578352 q 0.02774,0.647247 0.388348,1.007857 0.360609,0.360609 0.952378,0.360609 0.601015,0 0.952378,-0.388349 0.360609,-0.388348 0.397594,-1.054088 0.0092,-0.09246 0.0092,-0.258898 0,-0.166435 -0.0092,-0.258899 -0.03699,-0.66574 -0.397594,-1.054088 -0.351363,-0.388349 -0.952378,-0.388349 -0.573276,0 -0.943131,0.360609 -0.369856,0.351363 -0.397595,0.943132 l -0.0092,0.360609 0.0092,0.369855 z"
       style=""
       id="path4144" />
    <path
       d="m 23.103093,26.829541 q 0.619508,0 1.017103,-0.295884 0.406841,-0.305131 0.406841,-0.878407 0,-0.56403 -0.388348,-0.813682 -0.379102,-0.258899 -1.035596,-0.258899 l -0.76745,0 q -0.10171,0 -0.175681,-0.07397 -0.07397,-0.07397 -0.07397,-0.175681 l 0,-0.33287 q 0,-0.07397 0.03699,-0.12945 0.03699,-0.06472 0.110957,-0.147942 l 1.66435,-1.793799 -2.66296,0 q -0.10171,0 -0.175681,-0.07397 -0.07397,-0.07397 -0.07397,-0.175681 l 0,-0.33287 q 0,-0.10171 0.07397,-0.175681 0.07397,-0.07397 0.175681,-0.07397 l 3.643077,0 q 0.10171,0 0.175681,0.07397 0.07397,0.07397 0.07397,0.175681 l 0,0.33287 q 0,0.129449 -0.166435,0.314377 l -1.63661,1.76606 q 0.933885,0.01849 1.507161,0.527044 0.573276,0.508551 0.573276,1.368465 0,0.610262 -0.314378,1.072581 -0.30513,0.453073 -0.832174,0.693479 -0.517798,0.240406 -1.155799,0.240406 -0.785942,0 -1.322233,-0.23116 -0.53629,-0.240406 -0.795189,-0.610261 -0.258899,-0.379102 -0.277392,-0.804436 0,-0.08322 0.05548,-0.138696 0.06472,-0.06472 0.147942,-0.06472 l 0.425334,0 q 0.09246,0 0.147942,0.06472 0.06472,0.05548 0.09246,0.12945 0.120203,0.379102 0.43458,0.601015 0.323623,0.221913 1.091073,0.221913 z"
       style=""
       id="path4147" />
  </g>
</svg>
