<?xml version="1.0" encoding="UTF-8" standalone="no"?>
<svg
   xmlns:dc="http://purl.org/dc/elements/1.1/"
   xmlns:cc="http://creativecommons.org/ns#"
   xmlns:rdf="http://www.w3.org/1999/02/22-rdf-syntax-ns#"
   xmlns:svg="http://www.w3.org/2000/svg"
   xmlns="http://www.w3.org/2000/svg"
   xmlns:sodipodi="http://sodipodi.sourceforge.net/DTD/sodipodi-0.dtd"
   xmlns:inkscape="http://www.inkscape.org/namespaces/inkscape"
   height="32"
   width="32"
   id="svg2"
   version="1.1"
   inkscape:version="0.91 r13725"
   sodipodi:docname="image-x-krita.svg">
  <metadata
     id="metadata9">
    <rdf:RDF>
      <cc:Work
         rdf:about="">
        <dc:format>image/svg+xml</dc:format>
        <dc:type
           rdf:resource="http://purl.org/dc/dcmitype/StillImage" />
        <dc:title></dc:title>
      </cc:Work>
    </rdf:RDF>
  </metadata>
  <defs
     id="defs7" />
  <sodipodi:namedview
     id="namedview1"
     showgrid="true"
     inkscape:zoom="14.75"
     inkscape:cx="20.178214"
     inkscape:cy="12.516719"
     inkscape:window-width="1280"
     inkscape:window-height="766"
     inkscape:window-x="1680"
     inkscape:window-y="250"
     inkscape:window-maximized="1"
     inkscape:current-layer="g4158">
    <inkscape:grid
       type="xygrid"
       id="grid1px"
       empspacing="4" />
    <inkscape:grid
       type="xygrid"
       id="grid1pxdot"
       empspacing="1"
       dotted="true"
       originy="0.5"
       originx="0.5" />
  </sodipodi:namedview>
  <path
     style="opacity:0.98999999;fill:#00ff00;fill-opacity:1;fill-rule:nonzero;stroke:#000000;stroke-width:1;stroke-linecap:round;stroke-linejoin:round;stroke-miterlimit:4;stroke-dasharray:none;stroke-opacity:1"
     d="m 5.5,1.5 0,29 21,0 0,-22 -7,0 0,-7 z"
     id="path4145"
     inkscape:connector-curvature="0" />
  <g
     id="g4158"
     transform="translate(0,-8)">
    <circle
       r="6.5"
       cy="17"
       cx="16"
       id="path4138"
       style="opacity:0.98999999;fill:#ffff00;fill-opacity:1;fill-rule:nonzero;stroke:#000000;stroke-width:1;stroke-linecap:round;stroke-linejoin:round;stroke-miterlimit:4;stroke-dasharray:none;stroke-opacity:1" />
    <path
       inkscape:connector-curvature="0"
       id="path4142"
       d="m 21.5,23.5 3,3"
       style="opacity:0.98999999;fill:#ffff00;fill-opacity:1;fill-rule:nonzero;stroke:#000000;stroke-width:1;stroke-linecap:round;stroke-linejoin:round;stroke-miterlimit:4;stroke-dasharray:none;stroke-opacity:1" />
    <path
       inkscape:connector-curvature="0"
       id="path4144"
       d="M 10.5,10.5 9.8050847,9.8050847"
       style="opacity:0.98999999;fill:#ffff00;fill-opacity:1;fill-rule:nonzero;stroke:#000000;stroke-width:1;stroke-linecap:round;stroke-linejoin:round;stroke-miterlimit:4;stroke-dasharray:none;stroke-opacity:1" />
    <path
       inkscape:connector-curvature="0"
       id="path4148"
       d="m 10.5,23.5 -3,3"
       style="opacity:0.98999999;fill:#ffff00;fill-opacity:1;fill-rule:nonzero;stroke:#000000;stroke-width:1;stroke-linecap:round;stroke-linejoin:round;stroke-miterlimit:4;stroke-dasharray:none;stroke-opacity:1" />
    <path
       inkscape:connector-curvature="0"
       id="path4150"
       d="M 8,17 5.5,17"
       style="opacity:0.98999999;fill:#ffff00;fill-opacity:1;fill-rule:nonzero;stroke:#000000;stroke-width:1;stroke-linecap:round;stroke-linejoin:round;stroke-miterlimit:4;stroke-dasharray:none;stroke-opacity:1" />
    <path
       inkscape:connector-curvature="0"
       id="path4156"
       d="M 16,25.5 16,29"
       style="opacity:0.98999999;fill:#ffff00;fill-opacity:1;fill-rule:nonzero;stroke:#000000;stroke-width:1;stroke-linecap:round;stroke-linejoin:round;stroke-miterlimit:4;stroke-dasharray:none;stroke-opacity:1" />
    <g
       style="font-style:normal;font-variant:normal;font-weight:normal;font-stretch:normal;font-size:9.28960323px;line-height:125%;font-family:contemporary;-inkscape-font-specification:'contemporary, Normal';text-align:start;letter-spacing:0px;word-spacing:0px;writing-mode:lr-tb;text-anchor:start;fill:#000000;fill-opacity:1;stroke:none;stroke-width:1px;stroke-linecap:butt;stroke-linejoin:miter;stroke-opacity:1"
       id="text4146">
      <path
         d="m 7.8943381,37.023396 q 0,0.102186 -0.074317,0.176503 -0.074317,0.07432 -0.1765024,0.07432 l -0.3437153,0 q -0.1021857,0 -0.1765025,-0.07432 -0.074317,-0.07432 -0.074317,-0.176503 l 0,-6.093979 q 0,-0.102186 0.074317,-0.176503 0.074317,-0.07432 0.1765025,-0.07432 l 0.3437153,0 q 0.1021856,0 0.1765024,0.07432 0.074317,0.07432 0.074317,0.176503 l 0,3.074858 1.8114726,-1.40273 q 0.1021856,-0.07432 0.1765025,-0.111475 0.074317,-0.04645 0.1857918,-0.04645 l 0.46448,0 q 0.0929,0 0.157924,0.06503 0.06503,0.06503 0.06503,0.157923 0,0.102186 -0.102186,0.185793 L 8.4145558,34.59881 10.88559,36.874763 q 0.0929,0.0929 0.0929,0.176502 0,0.0929 -0.06503,0.157923 -0.06503,0.06503 -0.157923,0.06503 l -0.436611,0 q -0.195082,0 -0.3808742,-0.157924 l -2.0437127,-1.885789 0,1.792893 z"
         style=""
         id="path4281" />
      <path
         d="m 14.255103,32.443622 q 0.102186,0 0.176503,0.07432 0.07432,0.07432 0.07432,0.176502 l 0,0.297268 q 0,0.102185 -0.07432,0.176502 -0.07432,0.07432 -0.176503,0.07432 l -0.538797,0 q -0.520217,0 -0.798905,0.278688 -0.269399,0.269398 -0.269399,0.789616 l 0,2.712564 q 0,0.102186 -0.07432,0.176503 -0.07432,0.07432 -0.176502,0.07432 l -0.343716,0 q -0.102185,0 -0.176502,-0.07432 -0.07432,-0.07432 -0.07432,-0.176503 l 0,-4.328955 q 0,-0.102185 0.07432,-0.176502 0.07432,-0.07432 0.176502,-0.07432 l 0.343716,0 q 0.102185,0 0.176502,0.07432 0.07432,0.07432 0.07432,0.176502 l 0,0.287978 q 0.185792,-0.278688 0.445901,-0.408743 0.260109,-0.130054 0.678141,-0.130054 l 0.483059,0 z"
         style=""
         id="path4283" />
      <path
         d="m 16.260787,31.542531 q 0,0.102185 -0.07432,0.176502 -0.07432,0.07432 -0.176502,0.07432 l -0.529508,0 q -0.102185,0 -0.176502,-0.07432 -0.07432,-0.07432 -0.07432,-0.176502 l 0,-0.529508 q 0,-0.102186 0.07432,-0.176502 0.07432,-0.07432 0.176502,-0.07432 l 0.529508,0 q 0.102185,0 0.176502,0.07432 0.07432,0.07432 0.07432,0.176502 l 0,0.529508 z m -0.0929,5.480865 q 0,0.102186 -0.07432,0.176503 -0.07432,0.07432 -0.176502,0.07432 l -0.343716,0 q -0.102185,0 -0.176502,-0.07432 -0.07432,-0.07432 -0.07432,-0.176503 l 0,-4.328955 q 0,-0.102185 0.07432,-0.176502 0.07432,-0.07432 0.176502,-0.07432 l 0.343716,0 q 0.102185,0 0.176502,0.07432 0.07432,0.07432 0.07432,0.176502 l 0,4.328955 z"
         style=""
         id="path4285" />
      <path
         d="m 18.817605,35.648535 q 0,0.399453 0.157923,0.613114 0.167213,0.213661 0.622404,0.213661 l 0.492349,0 q 0.102185,0 0.176502,0.07432 0.07432,0.07432 0.07432,0.176502 l 0,0.297267 q 0,0.102186 -0.07432,0.176503 -0.07432,0.07432 -0.176502,0.07432 l -0.585245,0 q -0.789617,0 -1.161201,-0.408743 -0.371584,-0.418032 -0.371584,-1.216938 l 0,-2.406007 -0.687431,0 q -0.102185,0 -0.176502,-0.07432 -0.07432,-0.07432 -0.07432,-0.176502 l 0,-0.297268 q 0,-0.102185 0.07432,-0.176502 0.07432,-0.07432 0.176502,-0.07432 l 0.687431,0 0,-1.514205 q 0,-0.102186 0.07432,-0.176503 0.07432,-0.07432 0.176502,-0.07432 l 0.343716,0 q 0.102185,0 0.176502,0.07432 0.07432,0.07432 0.07432,0.176503 l 0,1.514205 1.17978,0 q 0.102185,0 0.176502,0.07432 0.07432,0.07432 0.07432,0.176502 l 0,0.297268 q 0,0.102185 -0.07432,0.176502 -0.07432,0.07432 -0.176502,0.07432 l -1.17978,0 0,2.406007 z"
         style=""
         id="path4287" />
      <path
         d="m 24.144176,34.217936 0,-0.120765 q 0,-0.45519 -0.306557,-0.69672 -0.297267,-0.250819 -0.780326,-0.250819 -0.371584,0 -0.585245,0.130054 -0.204372,0.120765 -0.390164,0.371584 -0.05574,0.07432 -0.120764,0.102186 -0.06503,0.02787 -0.176503,0.02787 l -0.278688,0 q -0.102186,0 -0.185792,-0.07432 -0.07432,-0.07432 -0.06503,-0.176502 0.02787,-0.278689 0.269398,-0.548087 0.250819,-0.278688 0.659562,-0.455191 0.408743,-0.176502 0.873223,-0.176502 0.863933,0 1.39344,0.483059 0.538797,0.48306 0.538797,1.356282 l 0,2.833329 q 0,0.102186 -0.07432,0.176503 -0.07432,0.07432 -0.176502,0.07432 l -0.343715,0 q -0.102186,0 -0.176503,-0.07432 -0.07432,-0.07432 -0.07432,-0.176503 l 0,-0.380873 q -0.148633,0.334425 -0.631693,0.529507 -0.483059,0.195082 -0.966118,0.195082 -0.47377,0 -0.845354,-0.167213 -0.371584,-0.176503 -0.575956,-0.47377 -0.195081,-0.297267 -0.195081,-0.668851 0,-0.696721 0.520217,-1.086884 0.520218,-0.399453 1.384151,-0.538797 l 1.309834,-0.213661 z m 0,0.743168 -1.096173,0.176503 q -0.603824,0.0929 -0.93825,0.306557 -0.334426,0.204371 -0.334426,0.520218 0,0.23224 0.213661,0.418032 0.213661,0.185792 0.650273,0.185792 0.668851,0 1.086883,-0.380874 0.418032,-0.380874 0.418032,-0.993987 l 0,-0.232241 z"
         style=""
         id="path4289" />
    </g>
  </g>
  <path
     style="opacity:0.98999999;fill:#ffffff;fill-opacity:1;fill-rule:nonzero;stroke:#000000;stroke-width:1;stroke-linecap:round;stroke-linejoin:round;stroke-miterlimit:4;stroke-dasharray:none;stroke-opacity:1"
     d="m 19.5,1.5000003 0,7 7,0 z"
     id="path4137"
     inkscape:connector-curvature="0" />
</svg>
