<?xml version="1.0" encoding="UTF-8" standalone="no"?>
<svg
   xmlns:dc="http://purl.org/dc/elements/1.1/"
   xmlns:cc="http://creativecommons.org/ns#"
   xmlns:rdf="http://www.w3.org/1999/02/22-rdf-syntax-ns#"
   xmlns:svg="http://www.w3.org/2000/svg"
   xmlns="http://www.w3.org/2000/svg"
   xmlns:sodipodi="http://sodipodi.sourceforge.net/DTD/sodipodi-0.dtd"
   xmlns:inkscape="http://www.inkscape.org/namespaces/inkscape"
   height="32"
   width="32"
   id="svg2"
   version="1.1"
   inkscape:version="0.91 r13725"
   sodipodi:docname="image-jpeg.svg">
  <metadata
     id="metadata9">
    <rdf:RDF>
      <cc:Work
         rdf:about="">
        <dc:format>image/svg+xml</dc:format>
        <dc:type
           rdf:resource="http://purl.org/dc/dcmitype/StillImage" />
        <dc:title></dc:title>
      </cc:Work>
    </rdf:RDF>
  </metadata>
  <defs
     id="defs7" />
  <sodipodi:namedview
     id="namedview1"
     showgrid="true"
     inkscape:zoom="14.75"
     inkscape:cx="20.178214"
     inkscape:cy="15.228583"
     inkscape:window-width="1280"
     inkscape:window-height="766"
     inkscape:window-x="1680"
     inkscape:window-y="250"
     inkscape:window-maximized="1"
     inkscape:current-layer="g4158">
    <inkscape:grid
       type="xygrid"
       id="grid1px"
       empspacing="4" />
    <inkscape:grid
       type="xygrid"
       id="grid1pxdot"
       empspacing="1"
       dotted="true"
       originy="0.5"
       originx="0.5" />
  </sodipodi:namedview>
  <path
     style="opacity:0.98999999;fill:#00ff00;fill-opacity:1;fill-rule:nonzero;stroke:#000000;stroke-width:1;stroke-linecap:round;stroke-linejoin:round;stroke-miterlimit:4;stroke-dasharray:none;stroke-opacity:1"
     d="m 5.5,1.5 0,29 21,0 0,-22 -7,0 0,-7 z"
     id="path4145"
     inkscape:connector-curvature="0" />
  <g
     id="g4158"
     transform="translate(0,-8)">
    <circle
       r="6.5"
       cy="17"
       cx="16"
       id="path4138"
       style="opacity:0.98999999;fill:#ffff00;fill-opacity:1;fill-rule:nonzero;stroke:#000000;stroke-width:1;stroke-linecap:round;stroke-linejoin:round;stroke-miterlimit:4;stroke-dasharray:none;stroke-opacity:1" />
    <path
       inkscape:connector-curvature="0"
       id="path4142"
       d="m 21.5,23.5 3,3"
       style="opacity:0.98999999;fill:#ffff00;fill-opacity:1;fill-rule:nonzero;stroke:#000000;stroke-width:1;stroke-linecap:round;stroke-linejoin:round;stroke-miterlimit:4;stroke-dasharray:none;stroke-opacity:1" />
    <path
       inkscape:connector-curvature="0"
       id="path4144"
       d="M 10.5,10.5 9.8050847,9.8050847"
       style="opacity:0.98999999;fill:#ffff00;fill-opacity:1;fill-rule:nonzero;stroke:#000000;stroke-width:1;stroke-linecap:round;stroke-linejoin:round;stroke-miterlimit:4;stroke-dasharray:none;stroke-opacity:1" />
    <path
       inkscape:connector-curvature="0"
       id="path4148"
       d="m 10.5,23.5 -3,3"
       style="opacity:0.98999999;fill:#ffff00;fill-opacity:1;fill-rule:nonzero;stroke:#000000;stroke-width:1;stroke-linecap:round;stroke-linejoin:round;stroke-miterlimit:4;stroke-dasharray:none;stroke-opacity:1" />
    <path
       inkscape:connector-curvature="0"
       id="path4150"
       d="M 8,17 5.5,17"
       style="opacity:0.98999999;fill:#ffff00;fill-opacity:1;fill-rule:nonzero;stroke:#000000;stroke-width:1;stroke-linecap:round;stroke-linejoin:round;stroke-miterlimit:4;stroke-dasharray:none;stroke-opacity:1" />
    <path
       inkscape:connector-curvature="0"
       id="path4156"
       d="M 16,25.5 16,29"
       style="opacity:0.98999999;fill:#ffff00;fill-opacity:1;fill-rule:nonzero;stroke:#000000;stroke-width:1;stroke-linecap:round;stroke-linejoin:round;stroke-miterlimit:4;stroke-dasharray:none;stroke-opacity:1" />
    <g
       style="font-style:normal;font-variant:normal;font-weight:normal;font-stretch:normal;font-size:9.28960323px;line-height:125%;font-family:contemporary;-inkscape-font-specification:'contemporary, Normal';text-align:start;letter-spacing:0px;word-spacing:0px;writing-mode:lr-tb;text-anchor:start;fill:#000000;fill-opacity:1;stroke:none;stroke-width:1px;stroke-linecap:butt;stroke-linejoin:miter;stroke-opacity:1"
       id="text4146">
      <path
         d="m 11.571165,29.847615 q 0,0.102185 -0.07432,0.176502 -0.07432,0.07432 -0.176503,0.07432 l -0.529507,0 q -0.102186,0 -0.176502,-0.07432 -0.07432,-0.07432 -0.07432,-0.176502 l 0,-0.529508 q 0,-0.102185 0.07432,-0.176502 0.07432,-0.07432 0.176502,-0.07432 l 0.529507,0 q 0.102186,0 0.176503,0.07432 0.07432,0.07432 0.07432,0.176502 l 0,0.529508 z m -1.198359,1.699997 q -0.102186,0 -0.176503,-0.07432 -0.07432,-0.07432 -0.07432,-0.176502 l 0,-0.297267 q 0,-0.102186 0.07432,-0.176503 0.07432,-0.07432 0.176503,-0.07432 l 1.365572,0 q 0.102185,0 0.176502,0.07432 0.07432,0.07432 0.07432,0.176503 l 0,4.719118 q 0,0.798906 -0.371584,1.207648 -0.371584,0.418033 -1.161201,0.418033 l -0.176502,0 q -0.102186,0 -0.176503,-0.07432 -0.07432,-0.07432 -0.07432,-0.176503 l 0,-0.297267 q 0,-0.102186 0.07432,-0.176503 0.07432,-0.07432 0.176503,-0.07432 l 0.08361,0 q 0.455191,0 0.613114,-0.213661 0.167213,-0.213661 0.167213,-0.613114 l 0,-4.171032 -0.771037,0 z"
         style=""
         id="path4151" />
      <path
         d="m 14.227266,37.093505 q 0,0.102186 -0.07432,0.176503 -0.07432,0.07432 -0.176503,0.07432 l -0.343715,0 q -0.102186,0 -0.176503,-0.07432 -0.07432,-0.07432 -0.07432,-0.176503 l 0,-6.093979 q 0,-0.102186 0.07432,-0.176503 0.07432,-0.07432 0.176503,-0.07432 l 0.343715,0 q 0.102186,0 0.176503,0.07432 0.07432,0.07432 0.07432,0.176503 l 0,0.287977 q 0.473769,-0.631693 1.439888,-0.631693 0.575955,0 1.040436,0.269399 0.473769,0.269398 0.752457,0.771037 0.287978,0.501638 0.315847,1.17049 0.0093,0.0929 0.0093,0.297267 0,0.213661 -0.0093,0.306557 -0.02787,0.668851 -0.315847,1.17049 -0.278688,0.492349 -0.743168,0.761747 -0.46448,0.269399 -1.049725,0.269399 -0.520218,0 -0.882512,-0.176503 -0.353005,-0.185792 -0.557376,-0.45519 l 0,2.053002 z m 0,-3.595076 q 0.02787,0.650272 0.390163,1.012567 0.362294,0.362294 0.956829,0.362294 0.603824,0 0.956829,-0.390163 0.362295,-0.390164 0.399453,-1.059015 0.0093,-0.0929 0.0093,-0.260109 0,-0.167213 -0.0093,-0.260109 -0.03716,-0.668851 -0.399453,-1.059015 -0.353005,-0.390163 -0.956829,-0.390163 -0.575955,0 -0.94754,0.362295 -0.371584,0.353005 -0.399452,0.947539 l -0.0093,0.362295 0.0093,0.371584 z"
         style=""
         id="path4153" />
      <path
         d="m 20.810401,30.65581 q 0.520218,0 0.873223,0.185792 0.362294,0.176503 0.566665,0.445901 l 0,-0.287977 q 0,-0.102186 0.07432,-0.176503 0.07432,-0.07432 0.176503,-0.07432 l 0.343715,0 q 0.102186,0 0.176502,0.07432 0.07432,0.07432 0.07432,0.176503 l 0,4.514747 q 0,0.984698 -0.557376,1.542074 -0.557376,0.566666 -1.63497,0.566666 -0.69672,0 -1.17049,-0.213661 -0.47377,-0.213661 -0.70601,-0.529508 -0.22295,-0.315846 -0.24153,-0.640982 -0.0093,-0.102186 0.06503,-0.176503 0.08361,-0.07432 0.185792,-0.07432 l 0.278688,0 q 0.111475,0 0.176502,0.05574 0.06503,0.05574 0.130055,0.195082 0.0929,0.213661 0.353005,0.399453 0.260108,0.185792 0.836064,0.185792 1.439888,0 1.439888,-1.198359 l 0,-0.585245 q -0.473769,0.631693 -1.439888,0.631693 -0.575956,0 -1.049725,-0.269399 -0.464481,-0.269398 -0.752458,-0.761747 -0.278688,-0.501639 -0.306557,-1.17049 l -0.0093,-0.306557 0.0093,-0.306557 q 0.02787,-0.668851 0.306557,-1.1612 0.287977,-0.501639 0.752458,-0.771037 0.46448,-0.269399 1.049725,-0.269399 z m 0.0929,0.798906 q -0.603824,0 -0.966119,0.390163 -0.353005,0.390164 -0.390163,1.059015 l -0.0093,0.260109 0.0093,0.260109 q 0.03716,0.668851 0.390163,1.059015 0.362295,0.390163 0.966119,0.390163 0.594534,0 0.956829,-0.362294 0.362294,-0.371585 0.390163,-1.012567 0.0093,-0.0929 0.0093,-0.334426 0,-0.24153 -0.0093,-0.334426 -0.02787,-0.650272 -0.390163,-1.012566 -0.362295,-0.362295 -0.956829,-0.362295 z"
         style=""
         id="path4155" />
    </g>
  </g>
  <path
     style="opacity:0.98999999;fill:#ffffff;fill-opacity:1;fill-rule:nonzero;stroke:#000000;stroke-width:1;stroke-linecap:round;stroke-linejoin:round;stroke-miterlimit:4;stroke-dasharray:none;stroke-opacity:1"
     d="m 19.5,1.5000003 0,7 7,0 z"
     id="path4137"
     inkscape:connector-curvature="0" />
</svg>
