<?xml version="1.0" encoding="UTF-8" standalone="no"?>
<svg
   xmlns:dc="http://purl.org/dc/elements/1.1/"
   xmlns:cc="http://creativecommons.org/ns#"
   xmlns:rdf="http://www.w3.org/1999/02/22-rdf-syntax-ns#"
   xmlns:svg="http://www.w3.org/2000/svg"
   xmlns="http://www.w3.org/2000/svg"
   xmlns:sodipodi="http://sodipodi.sourceforge.net/DTD/sodipodi-0.dtd"
   xmlns:inkscape="http://www.inkscape.org/namespaces/inkscape"
   height="32"
   width="32"
   id="svg2"
   version="1.1"
   inkscape:version="0.91 r13725"
   sodipodi:docname="image-ico.svg">
  <metadata
     id="metadata9">
    <rdf:RDF>
      <cc:Work
         rdf:about="">
        <dc:format>image/svg+xml</dc:format>
        <dc:type
           rdf:resource="http://purl.org/dc/dcmitype/StillImage" />
        <dc:title></dc:title>
      </cc:Work>
    </rdf:RDF>
  </metadata>
  <defs
     id="defs7" />
  <sodipodi:namedview
     id="namedview1"
     showgrid="true"
     inkscape:zoom="14.75"
     inkscape:cx="20.178214"
     inkscape:cy="15.228583"
     inkscape:window-width="1280"
     inkscape:window-height="766"
     inkscape:window-x="1680"
     inkscape:window-y="250"
     inkscape:window-maximized="1"
     inkscape:current-layer="g4158">
    <inkscape:grid
       type="xygrid"
       id="grid1px"
       empspacing="4" />
    <inkscape:grid
       type="xygrid"
       id="grid1pxdot"
       empspacing="1"
       dotted="true"
       originy="0.5"
       originx="0.5" />
  </sodipodi:namedview>
  <path
     style="opacity:0.98999999;fill:#00ff00;fill-opacity:1;fill-rule:nonzero;stroke:#000000;stroke-width:1;stroke-linecap:round;stroke-linejoin:round;stroke-miterlimit:4;stroke-dasharray:none;stroke-opacity:1"
     d="m 5.5,1.5 0,29 21,0 0,-22 -7,0 0,-7 z"
     id="path4145"
     inkscape:connector-curvature="0" />
  <g
     id="g4158"
     transform="translate(0,-8)">
    <circle
       r="6.5"
       cy="17"
       cx="16"
       id="path4138"
       style="opacity:0.98999999;fill:#ffff00;fill-opacity:1;fill-rule:nonzero;stroke:#000000;stroke-width:1;stroke-linecap:round;stroke-linejoin:round;stroke-miterlimit:4;stroke-dasharray:none;stroke-opacity:1" />
    <path
       inkscape:connector-curvature="0"
       id="path4142"
       d="m 21.5,23.5 3,3"
       style="opacity:0.98999999;fill:#ffff00;fill-opacity:1;fill-rule:nonzero;stroke:#000000;stroke-width:1;stroke-linecap:round;stroke-linejoin:round;stroke-miterlimit:4;stroke-dasharray:none;stroke-opacity:1" />
    <path
       inkscape:connector-curvature="0"
       id="path4144"
       d="M 10.5,10.5 9.8050847,9.8050847"
       style="opacity:0.98999999;fill:#ffff00;fill-opacity:1;fill-rule:nonzero;stroke:#000000;stroke-width:1;stroke-linecap:round;stroke-linejoin:round;stroke-miterlimit:4;stroke-dasharray:none;stroke-opacity:1" />
    <path
       inkscape:connector-curvature="0"
       id="path4148"
       d="m 10.5,23.5 -3,3"
       style="opacity:0.98999999;fill:#ffff00;fill-opacity:1;fill-rule:nonzero;stroke:#000000;stroke-width:1;stroke-linecap:round;stroke-linejoin:round;stroke-miterlimit:4;stroke-dasharray:none;stroke-opacity:1" />
    <path
       inkscape:connector-curvature="0"
       id="path4150"
       d="M 8,17 5.5,17"
       style="opacity:0.98999999;fill:#ffff00;fill-opacity:1;fill-rule:nonzero;stroke:#000000;stroke-width:1;stroke-linecap:round;stroke-linejoin:round;stroke-miterlimit:4;stroke-dasharray:none;stroke-opacity:1" />
    <path
       inkscape:connector-curvature="0"
       id="path4156"
       d="M 16,25.5 16,29"
       style="opacity:0.98999999;fill:#ffff00;fill-opacity:1;fill-rule:nonzero;stroke:#000000;stroke-width:1;stroke-linecap:round;stroke-linejoin:round;stroke-miterlimit:4;stroke-dasharray:none;stroke-opacity:1" />
    <g
       style="font-style:normal;font-variant:normal;font-weight:normal;font-stretch:normal;font-size:9.28960323px;line-height:125%;font-family:contemporary;-inkscape-font-specification:'contemporary, Normal';text-align:start;letter-spacing:0px;word-spacing:0px;writing-mode:lr-tb;text-anchor:start;fill:#000000;fill-opacity:1;stroke:none;stroke-width:1px;stroke-linecap:butt;stroke-linejoin:miter;stroke-opacity:1"
       id="text4146">
      <path
         d="m 11.580454,31.067955 q 0,0.102186 -0.07432,0.176503 -0.07432,0.07432 -0.176503,0.07432 l -0.529507,0 q -0.102186,0 -0.176503,-0.07432 -0.07432,-0.07432 -0.07432,-0.176503 l 0,-0.529507 q 0,-0.102186 0.07432,-0.176502 0.07432,-0.07432 0.176503,-0.07432 l 0.529507,0 q 0.102186,0 0.176503,0.07432 0.07432,0.07432 0.07432,0.176502 l 0,0.529507 z m -0.0929,5.480866 q 0,0.102186 -0.07432,0.176503 -0.07432,0.07432 -0.176502,0.07432 l -0.343715,0 q -0.102186,0 -0.176503,-0.07432 -0.07432,-0.07432 -0.07432,-0.176503 l 0,-4.328955 q 0,-0.102185 0.07432,-0.176502 0.07432,-0.07432 0.176503,-0.07432 l 0.343715,0 q 0.102186,0 0.176502,0.07432 0.07432,0.07432 0.07432,0.176502 l 0,4.328955 z"
         style=""
         id="path4229" />
      <path
         d="m 14.824703,36.093631 q 0.92896,0 1.254097,-0.724589 0.06503,-0.139344 0.130054,-0.195082 0.06503,-0.05574 0.176502,-0.05574 l 0.278689,0 q 0.102185,0 0.176502,0.07432 0.07432,0.06503 0.07432,0.157924 0,0.315846 -0.250819,0.678141 -0.25082,0.362294 -0.724589,0.613113 -0.47377,0.25082 -1.114753,0.25082 -0.659562,0 -1.142621,-0.278688 -0.483059,-0.278689 -0.743168,-0.761748 -0.260109,-0.492349 -0.287978,-1.096173 -0.0093,-0.111475 -0.0093,-0.427322 0,-0.22295 0.0093,-0.315846 0.08361,-0.94754 0.640983,-1.542074 0.557376,-0.594535 1.532784,-0.594535 0.640983,0 1.105463,0.250819 0.47377,0.24153 0.715299,0.603824 0.25082,0.353005 0.269399,0.668852 0.0093,0.102186 -0.07432,0.176502 -0.07432,0.07432 -0.176502,0.07432 l -0.278689,0 q -0.111475,0 -0.176502,-0.05574 -0.06503,-0.05574 -0.130054,-0.195082 -0.325137,-0.724589 -1.254097,-0.724589 -0.510928,0 -0.891802,0.343715 -0.380873,0.343715 -0.436611,1.040436 -0.0093,0.102185 -0.0093,0.334425 0,0.213661 0.0093,0.315847 0.06503,0.69672 0.436611,1.040435 0.380874,0.343716 0.891802,0.343716 z"
         style=""
         id="path4231" />
      <path
         d="m 22.207035,33.947732 q 0.01858,0.204372 0.01858,0.445901 0,0.222951 -0.01858,0.427322 -0.08361,0.94754 -0.659562,1.514205 -0.566666,0.557377 -1.542074,0.557377 -0.975408,0 -1.551364,-0.557377 -0.566666,-0.566665 -0.650272,-1.514205 -0.0093,-0.102185 -0.0093,-0.427322 0,-0.343715 0.0093,-0.445901 0.07432,-0.947539 0.650272,-1.504915 0.575956,-0.566666 1.551364,-0.566666 0.975408,0 1.551364,0.566666 0.575955,0.557376 0.650272,1.504915 z m -0.845354,0.04645 q -0.05574,-0.594534 -0.399453,-0.956829 -0.334426,-0.362294 -0.956829,-0.362294 -0.622403,0 -0.966119,0.362294 -0.334425,0.362295 -0.390163,0.956829 -0.0093,0.111476 -0.0093,0.399453 0,0.278689 0.0093,0.380874 0.05574,0.594535 0.390163,0.956829 0.343716,0.362295 0.966119,0.362295 0.622403,0 0.956829,-0.362295 0.343715,-0.362294 0.399453,-0.956829 0.01858,-0.204371 0.01858,-0.380874 0,-0.176502 -0.01858,-0.399453 z"
         style=""
         id="path4233" />
    </g>
  </g>
  <path
     style="opacity:0.98999999;fill:#ffffff;fill-opacity:1;fill-rule:nonzero;stroke:#000000;stroke-width:1;stroke-linecap:round;stroke-linejoin:round;stroke-miterlimit:4;stroke-dasharray:none;stroke-opacity:1"
     d="m 19.5,1.5000003 0,7 7,0 z"
     id="path4137"
     inkscape:connector-curvature="0" />
</svg>
