<?xml version="1.0" encoding="UTF-8" standalone="no"?>
<svg
   xmlns:dc="http://purl.org/dc/elements/1.1/"
   xmlns:cc="http://creativecommons.org/ns#"
   xmlns:rdf="http://www.w3.org/1999/02/22-rdf-syntax-ns#"
   xmlns:svg="http://www.w3.org/2000/svg"
   xmlns="http://www.w3.org/2000/svg"
   xmlns:sodipodi="http://sodipodi.sourceforge.net/DTD/sodipodi-0.dtd"
   xmlns:inkscape="http://www.inkscape.org/namespaces/inkscape"
   height="32"
   width="32"
   id="svg2"
   version="1.1"
   inkscape:version="0.91 r13725"
   sodipodi:docname="image-x-psd.svg">
  <metadata
     id="metadata9">
    <rdf:RDF>
      <cc:Work
         rdf:about="">
        <dc:format>image/svg+xml</dc:format>
        <dc:type
           rdf:resource="http://purl.org/dc/dcmitype/StillImage" />
        <dc:title></dc:title>
      </cc:Work>
    </rdf:RDF>
  </metadata>
  <defs
     id="defs7" />
  <sodipodi:namedview
     id="namedview1"
     showgrid="true"
     inkscape:zoom="14.75"
     inkscape:cx="20.178214"
     inkscape:cy="15.228583"
     inkscape:window-width="1280"
     inkscape:window-height="766"
     inkscape:window-x="1680"
     inkscape:window-y="250"
     inkscape:window-maximized="1"
     inkscape:current-layer="g4158">
    <inkscape:grid
       type="xygrid"
       id="grid1px"
       empspacing="4" />
    <inkscape:grid
       type="xygrid"
       id="grid1pxdot"
       empspacing="1"
       dotted="true"
       originy="0.5"
       originx="0.5" />
  </sodipodi:namedview>
  <path
     style="opacity:0.98999999;fill:#00ff00;fill-opacity:1;fill-rule:nonzero;stroke:#000000;stroke-width:1;stroke-linecap:round;stroke-linejoin:round;stroke-miterlimit:4;stroke-dasharray:none;stroke-opacity:1"
     d="m 5.5,1.5 0,29 21,0 0,-22 -7,0 0,-7 z"
     id="path4145"
     inkscape:connector-curvature="0" />
  <g
     id="g4158"
     transform="translate(0,-8)">
    <circle
       r="6.5"
       cy="17"
       cx="16"
       id="path4138"
       style="opacity:0.98999999;fill:#ffff00;fill-opacity:1;fill-rule:nonzero;stroke:#000000;stroke-width:1;stroke-linecap:round;stroke-linejoin:round;stroke-miterlimit:4;stroke-dasharray:none;stroke-opacity:1" />
    <path
       inkscape:connector-curvature="0"
       id="path4142"
       d="m 21.5,23.5 3,3"
       style="opacity:0.98999999;fill:#ffff00;fill-opacity:1;fill-rule:nonzero;stroke:#000000;stroke-width:1;stroke-linecap:round;stroke-linejoin:round;stroke-miterlimit:4;stroke-dasharray:none;stroke-opacity:1" />
    <path
       inkscape:connector-curvature="0"
       id="path4144"
       d="M 10.5,10.5 9.8050847,9.8050847"
       style="opacity:0.98999999;fill:#ffff00;fill-opacity:1;fill-rule:nonzero;stroke:#000000;stroke-width:1;stroke-linecap:round;stroke-linejoin:round;stroke-miterlimit:4;stroke-dasharray:none;stroke-opacity:1" />
    <path
       inkscape:connector-curvature="0"
       id="path4148"
       d="m 10.5,23.5 -3,3"
       style="opacity:0.98999999;fill:#ffff00;fill-opacity:1;fill-rule:nonzero;stroke:#000000;stroke-width:1;stroke-linecap:round;stroke-linejoin:round;stroke-miterlimit:4;stroke-dasharray:none;stroke-opacity:1" />
    <path
       inkscape:connector-curvature="0"
       id="path4150"
       d="M 8,17 5.5,17"
       style="opacity:0.98999999;fill:#ffff00;fill-opacity:1;fill-rule:nonzero;stroke:#000000;stroke-width:1;stroke-linecap:round;stroke-linejoin:round;stroke-miterlimit:4;stroke-dasharray:none;stroke-opacity:1" />
    <path
       inkscape:connector-curvature="0"
       id="path4156"
       d="M 16,25.5 16,29"
       style="opacity:0.98999999;fill:#ffff00;fill-opacity:1;fill-rule:nonzero;stroke:#000000;stroke-width:1;stroke-linecap:round;stroke-linejoin:round;stroke-miterlimit:4;stroke-dasharray:none;stroke-opacity:1" />
    <g
       style="font-style:normal;font-variant:normal;font-weight:normal;font-stretch:normal;font-size:9.28960323px;line-height:125%;font-family:contemporary;-inkscape-font-specification:'contemporary, Normal';text-align:start;letter-spacing:0px;word-spacing:0px;writing-mode:lr-tb;text-anchor:start;fill:#000000;fill-opacity:1;stroke:none;stroke-width:1px;stroke-linecap:butt;stroke-linejoin:miter;stroke-opacity:1"
       id="text4146">
      <path
         d="m 9.5892534,37.364692 q 0,0.102186 -0.074317,0.176503 -0.074317,0.07432 -0.1765024,0.07432 l -0.3437153,0 q -0.1021857,0 -0.1765025,-0.07432 -0.074317,-0.07432 -0.074317,-0.176503 l 0,-6.09398 q 0,-0.102185 0.074317,-0.176502 0.074317,-0.07432 0.1765025,-0.07432 l 0.3437153,0 q 0.1021856,0 0.1765024,0.07432 0.074317,0.07432 0.074317,0.176502 l 0,0.287978 q 0.4737696,-0.631693 1.4398886,-0.631693 0.575955,0 1.040435,0.269399 0.47377,0.269398 0.752458,0.771037 0.287978,0.501638 0.315847,1.17049 0.0093,0.0929 0.0093,0.297267 0,0.213661 -0.0093,0.306557 -0.02787,0.668851 -0.315847,1.17049 -0.278688,0.492349 -0.743168,0.761747 -0.46448,0.269399 -1.049725,0.269399 -0.520218,0 -0.882512,-0.176503 -0.3530054,-0.185792 -0.5573766,-0.45519 l 0,2.053002 z m 0,-3.595076 q 0.027869,0.650272 0.3901633,1.012566 0.3622943,0.362295 0.9568293,0.362295 0.603824,0 0.956829,-0.390163 0.362294,-0.390164 0.399453,-1.059015 0.0093,-0.0929 0.0093,-0.260109 0,-0.167213 -0.0093,-0.260109 -0.03716,-0.668851 -0.399453,-1.059015 -0.353005,-0.390163 -0.956829,-0.390163 -0.575956,0 -0.9475397,0.362294 -0.3715841,0.353005 -0.3994529,0.94754 l -0.00929,0.362295 0.00929,0.371584 z"
         style=""
         id="path4255" />
      <path
         d="m 15.457089,33.704588 q -1.356282,-0.287977 -1.356282,-1.38415 0,-0.380874 0.204372,-0.696721 0.204371,-0.315846 0.603824,-0.501638 0.408742,-0.195082 0.993987,-0.195082 0.575956,0 0.993988,0.167213 0.418032,0.167213 0.631693,0.418032 0.22295,0.250819 0.22295,0.483059 0,0.0929 -0.07432,0.167213 -0.07432,0.06503 -0.176503,0.06503 l -0.306557,0 q -0.176502,0 -0.278688,-0.130054 -0.287978,-0.371584 -1.012567,-0.371584 -0.427321,0 -0.69672,0.157923 -0.260109,0.157923 -0.260109,0.436612 0,0.23224 0.130055,0.353004 0.130054,0.120765 0.390163,0.195082 0.260109,0.07432 0.919671,0.222951 0.817485,0.176502 1.1612,0.538797 0.343715,0.362294 0.343715,0.882512 0,0.380874 -0.241529,0.70601 -0.23224,0.325136 -0.678141,0.529507 -0.436612,0.195082 -1.021857,0.195082 -0.575955,0 -1.021856,-0.176503 -0.436611,-0.185792 -0.678141,-0.445901 -0.24153,-0.260109 -0.24153,-0.492349 0,-0.0929 0.07432,-0.157923 0.07432,-0.07432 0.176503,-0.07432 l 0.334425,0 q 0.08361,0 0.148634,0.01858 0.06503,0.01858 0.120765,0.102185 0.306557,0.427322 1.086883,0.427322 0.436612,0 0.761748,-0.176503 0.334426,-0.185792 0.334426,-0.45519 0,-0.222951 -0.167213,-0.353005 -0.157924,-0.139344 -0.46448,-0.222951 -0.306557,-0.0929 -0.95683,-0.23224 z"
         style=""
         id="path4257" />
      <path
         d="m 22.31151,29.505688 q 0,-0.102186 0.07432,-0.176503 0.07432,-0.07432 0.176503,-0.07432 l 0.343715,0 q 0.102186,0 0.176502,0.07432 0.07432,0.07432 0.07432,0.176503 l 0,6.093979 q 0,0.102186 -0.07432,0.176503 -0.07432,0.07432 -0.176502,0.07432 l -0.343715,0 q -0.102186,0 -0.176503,-0.07432 -0.07432,-0.07432 -0.07432,-0.176503 l 0,-0.287977 q -0.473769,0.631693 -1.439888,0.631693 -0.575955,0 -1.049725,-0.269399 -0.46448,-0.269398 -0.752458,-0.771037 -0.278688,-0.501638 -0.306557,-1.17049 l -0.0093,-0.306557 0.0093,-0.297267 q 0.02787,-0.668851 0.306557,-1.1612 0.287978,-0.501639 0.752458,-0.771037 0.46448,-0.269399 1.049725,-0.269399 0.520218,0 0.873223,0.185792 0.362294,0.176503 0.566665,0.445901 l 0,-2.053002 z m 0,3.595076 q -0.02787,-0.650272 -0.390163,-1.012567 -0.362294,-0.362294 -0.956829,-0.362294 -0.603824,0 -0.966119,0.390163 -0.353005,0.390164 -0.390163,1.059015 l -0.0093,0.260109 0.0093,0.260109 q 0.03716,0.668851 0.390163,1.059015 0.362295,0.390163 0.966119,0.390163 0.575955,0 0.947539,-0.353005 0.371585,-0.362295 0.399453,-0.956829 0.0093,-0.0929 0.0093,-0.371584 0,-0.269399 -0.0093,-0.362295 z"
         style=""
         id="path4259" />
    </g>
  </g>
  <path
     style="opacity:0.98999999;fill:#ffffff;fill-opacity:1;fill-rule:nonzero;stroke:#000000;stroke-width:1;stroke-linecap:round;stroke-linejoin:round;stroke-miterlimit:4;stroke-dasharray:none;stroke-opacity:1"
     d="m 19.5,1.5000003 0,7 7,0 z"
     id="path4137"
     inkscape:connector-curvature="0" />
</svg>
