<?xml version="1.0" encoding="UTF-8" standalone="no"?>
<svg
   xmlns:dc="http://purl.org/dc/elements/1.1/"
   xmlns:cc="http://creativecommons.org/ns#"
   xmlns:rdf="http://www.w3.org/1999/02/22-rdf-syntax-ns#"
   xmlns:svg="http://www.w3.org/2000/svg"
   xmlns="http://www.w3.org/2000/svg"
   xmlns:sodipodi="http://sodipodi.sourceforge.net/DTD/sodipodi-0.dtd"
   xmlns:inkscape="http://www.inkscape.org/namespaces/inkscape"
   height="32"
   width="32"
   id="svg2"
   version="1.1"
   inkscape:version="0.92.0 r"
   sodipodi:docname="package-x-generic.svg">
  <metadata
     id="metadata9">
    <rdf:RDF>
      <cc:Work
         rdf:about="">
        <dc:format>image/svg+xml</dc:format>
        <dc:type
           rdf:resource="http://purl.org/dc/dcmitype/StillImage" />
        <dc:title></dc:title>
      </cc:Work>
    </rdf:RDF>
  </metadata>
  <defs
     id="defs7" />
  <sodipodi:namedview
     id="namedview1"
     showgrid="true"
     inkscape:zoom="16"
     inkscape:cx="18.330088"
     inkscape:cy="18.447856"
     inkscape:window-width="1280"
     inkscape:window-height="766"
     inkscape:window-x="0"
     inkscape:window-y="0"
     inkscape:window-maximized="1"
     inkscape:current-layer="svg2">
    <inkscape:grid
       type="xygrid"
       id="grid1px"
       empspacing="4" />
    <inkscape:grid
       type="xygrid"
       id="grid1pxdot"
       empspacing="1"
       dotted="true"
       originy="0.5"
       originx="0.5" />
  </sodipodi:namedview>
  <path
     style="opacity:0.98999999;fill:#006464;fill-opacity:1;fill-rule:nonzero;stroke:#000000;stroke-width:1;stroke-linecap:round;stroke-linejoin:round;stroke-miterlimit:4;stroke-dasharray:none;stroke-opacity:1"
     d="m 5.5,1.5 0,29 21,0 0,-22 -7,0 0,-7 z"
     id="path4145"
     inkscape:connector-curvature="0" />
  <path
     style="opacity:0.98999999;fill:#ffffff;fill-opacity:1;fill-rule:nonzero;stroke:#000000;stroke-width:1;stroke-linecap:round;stroke-linejoin:round;stroke-miterlimit:4;stroke-dasharray:none;stroke-opacity:1"
     d="m 19.5,1.5000003 0,7 7,0 z"
     id="path4137"
     inkscape:connector-curvature="0" />
  <path
     style="opacity:1;fill:#ffffff;fill-opacity:1;fill-rule:nonzero;stroke:none;stroke-width:1;stroke-linecap:round;stroke-linejoin:round;stroke-miterlimit:4;stroke-dasharray:none;stroke-dashoffset:0;stroke-opacity:1"
     d="M 26,9.1484375 25.910156,9.2011719 26,9.3574219 Z m -0.955078,0.5527344 -0.867188,0.5000001 0.5,0.865234 0.867188,-0.5 z m 0.5,0.8652341 L 26,11.355469 v -1.052735 z m -0.867188,0.5 -0.865234,0.5 0.5,0.867188 0.865234,-0.5 z m 0.5,0.867188 0.5,0.865234 L 26,12.613281 v -1.154297 z m -0.865234,0.5 -0.867188,0.5 0.5,0.865234 0.867188,-0.5 z m -0.867188,0.5 -0.5,-0.867188 -0.865234,0.5 0.5,0.867188 z m -0.865234,0.5 -0.865234,0.5 0.5,0.865234 0.865234,-0.5 z m -0.865234,0.5 -0.5,-0.867188 -0.867188,0.5 0.5,0.867188 z m -0.867188,0.5 -0.865234,0.5 0.5,0.865234 0.865234,-0.5 z m -0.865234,0.5 -0.5,-0.867188 -0.867188,0.5 0.5,0.867188 z m -0.867188,0.5 -0.865234,0.5 0.5,0.865234 0.865234,-0.5 z m -0.865234,0.5 -0.5,-0.867188 -0.865234,0.5 0.5,0.867188 z m -0.865234,0.5 -0.867188,0.5 0.5,0.865234 0.867188,-0.5 z m -0.867188,0.5 -0.5,-0.867188 -0.865234,0.5 0.5,0.867188 z m -0.865234,0.5 -0.867188,0.5 0.5,0.865234 0.867188,-0.5 z m -0.867188,0.5 -0.5,-0.867188 -0.865234,0.5 0.5,0.867188 z m -0.865234,0.5 -0.865234,0.5 0.5,0.865234 0.865234,-0.5 z m -0.865234,0.5 -0.5,-0.867188 -0.867188,0.5 0.5,0.867188 z m -0.867188,0.5 -0.865234,0.5 0.5,0.865234 0.865234,-0.5 z m -0.865234,0.5 -0.5,-0.867188 -0.8671879,0.5 0.4999999,0.867188 z m -0.867188,0.5 -0.8652342,0.5 0.5000002,0.865234 0.865234,-0.5 z m -0.8652342,0.5 -0.5,-0.867188 -0.8652344,0.5 0.5,0.867188 z m -0.8652344,0.5 -0.8671875,0.5 0.5,0.865234 0.8671875,-0.5 z m -0.8671875,0.5 -0.5,-0.867188 -0.8652344,0.5 0.5,0.867188 z m -0.8652344,0.5 -0.8671875,0.5 0.5,0.865234 0.8671875,-0.5 z M 6.125,22.933594 6,22.716797 v 0.289062 z M 6.4921875,21.566406 6,20.714844 v 1.134765 z m 0.8652344,-0.5 0.8671875,-0.5 -0.5,-0.865234 -0.8671875,0.5 z m 1.7324219,-1 0.8652343,-0.5 -0.5,-0.865234 -0.8652343,0.5 z m 1.7324222,-1 0.865234,-0.5 -0.5,-0.865234 -0.865234,0.5 z m 1.732422,-1 0.865234,-0.5 -0.5,-0.865234 -0.865234,0.5 z m 1.730468,-1 0.867188,-0.5 -0.5,-0.865234 -0.867188,0.5 z m 1.732422,-1 0.867188,-0.5 -0.5,-0.865234 -0.867188,0.5 z m 1.732422,-1 0.865234,-0.5 -0.5,-0.865234 -0.865234,0.5 z m 1.732422,-1 0.865234,-0.5 -0.5,-0.865234 -0.865234,0.5 z m 1.732422,-1 0.865234,-0.5 -0.5,-0.865234 -0.865234,0.5 z m 1.730468,-1 0.867188,-0.5 -0.5,-0.865234 -0.867188,0.5 z"
     id="rect817-6-5"
     inkscape:connector-curvature="0" />
  <path
     style="opacity:1;fill:#01ff00;fill-opacity:1;fill-rule:nonzero;stroke:none;stroke-width:1;stroke-linecap:round;stroke-linejoin:round;stroke-miterlimit:4;stroke-dasharray:none;stroke-dashoffset:0;stroke-opacity:1"
     d="m 17.244037,14.201923 -1.732008,1 L 17.011992,17.8 18.744,16.8 Z m -2.598013,1.5 -1.732007,1 -2.231996,0.133975 L 9.45,18.701923 10.949963,21.3 13.181959,21.166025 14.41398,19.3 l 1.732007,-1 z m -2.098024,2.366026 0.499987,0.866025 -0.616009,0.933013 -1.115999,0.06699 -0.499988,-0.866025 0.616011,-0.933013 z"
     id="rect970"
     inkscape:connector-curvature="0" />
</svg>
