<?xml version="1.0" encoding="UTF-8" standalone="no"?>
<svg
   xmlns:dc="http://purl.org/dc/elements/1.1/"
   xmlns:cc="http://creativecommons.org/ns#"
   xmlns:rdf="http://www.w3.org/1999/02/22-rdf-syntax-ns#"
   xmlns:svg="http://www.w3.org/2000/svg"
   xmlns="http://www.w3.org/2000/svg"
   xmlns:sodipodi="http://sodipodi.sourceforge.net/DTD/sodipodi-0.dtd"
   xmlns:inkscape="http://www.inkscape.org/namespaces/inkscape"
   height="32"
   width="32"
   id="svg2"
   version="1.1"
   inkscape:version="0.92.0 r"
   sodipodi:docname="text-x-csrc.svg">
  <metadata
     id="metadata9">
    <rdf:RDF>
      <cc:Work
         rdf:about="">
        <dc:format>image/svg+xml</dc:format>
        <dc:type
           rdf:resource="http://purl.org/dc/dcmitype/StillImage" />
        <dc:title></dc:title>
      </cc:Work>
    </rdf:RDF>
  </metadata>
  <defs
     id="defs7" />
  <sodipodi:namedview
     id="namedview1"
     showgrid="true"
     inkscape:zoom="20.85965"
     inkscape:cx="24.306176"
     inkscape:cy="13.962829"
     inkscape:window-width="1680"
     inkscape:window-height="1016"
     inkscape:window-x="0"
     inkscape:window-y="0"
     inkscape:window-maximized="1"
     inkscape:current-layer="svg2">
    <inkscape:grid
       type="xygrid"
       id="grid1px"
       empspacing="4" />
    <inkscape:grid
       type="xygrid"
       id="grid1pxdot"
       empspacing="1"
       dotted="true"
       originy="0.5"
       originx="0.5" />
  </sodipodi:namedview>
  <path
     style="opacity:0.98999999;fill:#f9ff08;fill-opacity:1;fill-rule:nonzero;stroke:#000000;stroke-width:1;stroke-linecap:round;stroke-linejoin:round;stroke-miterlimit:4;stroke-dasharray:none;stroke-opacity:1"
     d="m 5.5,1.5 0,29 21,0 0,-22 -7,0 0,-7 z"
     id="path4145"
     inkscape:connector-curvature="0" />
  <path
     style="opacity:0.98999999;fill:#ffffff;fill-opacity:1;fill-rule:nonzero;stroke:#000000;stroke-width:1;stroke-linecap:round;stroke-linejoin:round;stroke-miterlimit:4;stroke-dasharray:none;stroke-opacity:1"
     d="m 19.5,1.5000003 0,7 7,0 z"
     id="path4137"
     inkscape:connector-curvature="0" />
  <g
     aria-label="{"
     style="font-style:normal;font-variant:normal;font-weight:normal;font-stretch:normal;font-size:19.74250031px;line-height:25px;font-family:contemporary;-inkscape-font-specification:'contemporary, Normal';text-align:start;letter-spacing:0px;word-spacing:0px;writing-mode:lr-tb;text-anchor:start;fill:#000000;fill-opacity:1;stroke:none;stroke-width:1px;stroke-linecap:butt;stroke-linejoin:miter;stroke-opacity:1"
     id="text817">
    <path
       d="m 14.495304,19.899547 q 0.217168,0 0.375108,0.15794 0.15794,0.15794 0.15794,0.375108 v 0.63176 q 0,0.217167 -0.15794,0.375107 -0.15794,0.15794 -0.375108,0.15794 -2.033477,0 -3.198285,-1.520172 -1.145065,-1.50043 -1.145065,-4.10644 0,-1.10558 -0.2171675,-1.697855 -0.197425,-0.612018 -0.829185,-0.908155 -0.2961375,-0.138198 -0.47382,-0.335623 -0.15794,-0.217167 -0.15794,-0.454077 v -0.454078 q 0,-0.23691 0.15794,-0.434335 0.1776825,-0.217167 0.47382,-0.355365 0.63176,-0.296137 0.829185,-0.888412 0.2171675,-0.5922752 0.2171675,-1.6978552 0,-2.60601 1.145065,-4.1064401 1.164808,-1.5201725 3.198285,-1.5201725 0.217168,0 0.375108,0.15794 0.15794,0.15794 0.15794,0.3751075 v 0.63176 q 0,0.2171675 -0.15794,0.3751075 -0.15794,0.15794 -0.375108,0.15794 -1.283262,0 -1.915022,1.0266101 -0.63176,1.02661 -0.63176,3.4154525 0,1.1055802 -0.355365,1.9150222 -0.355366,0.809443 -1.046353,1.164808 0.690987,0.335622 1.046353,1.164807 0.355365,0.829185 0.355365,1.954508 0,2.388842 0.63176,3.415452 0.63176,1.02661 1.915022,1.02661 z"
       style=""
       id="path849" />
  </g>
  <g
     aria-label="C"
     style="font-style:normal;font-variant:normal;font-weight:normal;font-stretch:normal;font-size:12.90755749px;line-height:16.34488678px;font-family:contemporary;-inkscape-font-specification:'contemporary, Normal';text-align:start;letter-spacing:0px;word-spacing:0px;writing-mode:lr-tb;text-anchor:start;fill:#000000;fill-opacity:1;stroke:none;stroke-width:1px;stroke-linecap:butt;stroke-linejoin:miter;stroke-opacity:1"
     id="text821">
    <path
       d="m 17.935623,25.46447 q 0.03872,1.097143 0.658286,1.755428 0.63247,0.645378 1.755427,0.645378 1.135866,0 1.677983,-0.490487 0.542117,-0.490487 0.722823,-1.264941 0.02581,-0.129075 0.116168,-0.206521 0.103261,-0.07745 0.219429,-0.07745 h 0.593747 q 0.116168,0 0.193614,0.09035 0.09035,0.07745 0.09035,0.193613 -0.02582,0.63247 -0.413042,1.316571 -0.387227,0.671193 -1.200403,1.135865 -0.800269,0.464672 -2.000672,0.464672 -1.084234,0 -1.897411,-0.451764 -0.813176,-0.451765 -1.26494,-1.239126 -0.438857,-0.800268 -0.47758,-1.807058 -0.01291,-0.387227 -0.01291,-1.148773 0,-0.761545 0.01291,-1.148772 0.03872,-1.00679 0.47758,-1.794151 0.451764,-0.800268 1.26494,-1.252033 0.813177,-0.451764 1.897411,-0.451764 1.200403,0 2.000672,0.464672 0.813176,0.464672 1.200403,1.148772 0.387226,0.671193 0.413042,1.303664 0,0.116168 -0.09035,0.206521 -0.07745,0.07744 -0.193614,0.07744 h -0.593747 q -0.116168,0 -0.219429,-0.07744 -0.09035,-0.07745 -0.116168,-0.206521 -0.180706,-0.774454 -0.722823,-1.264941 -0.542117,-0.490487 -1.677983,-0.490487 -1.122957,0 -1.755427,0.658285 -0.619563,0.645378 -0.658286,1.742521 -0.01291,0.387226 -0.01291,1.084234 0,0.697009 0.01291,1.084235 z"
       style="stroke-width:1px"
       id="path846" />
  </g>
</svg>
