<?xml version="1.0" encoding="UTF-8" standalone="no"?>
<svg
   xmlns:dc="http://purl.org/dc/elements/1.1/"
   xmlns:cc="http://creativecommons.org/ns#"
   xmlns:rdf="http://www.w3.org/1999/02/22-rdf-syntax-ns#"
   xmlns:svg="http://www.w3.org/2000/svg"
   xmlns="http://www.w3.org/2000/svg"
   xmlns:sodipodi="http://sodipodi.sourceforge.net/DTD/sodipodi-0.dtd"
   xmlns:inkscape="http://www.inkscape.org/namespaces/inkscape"
   height="16"
   width="16"
   id="svg2"
   version="1.1"
   inkscape:version="0.92.1 r"
   sodipodi:docname="flag-nz.svg">
  <metadata
     id="metadata9">
    <rdf:RDF>
      <cc:Work
         rdf:about="">
        <dc:format>image/svg+xml</dc:format>
        <dc:type
           rdf:resource="http://purl.org/dc/dcmitype/StillImage" />
        <dc:title></dc:title>
      </cc:Work>
    </rdf:RDF>
  </metadata>
  <defs
     id="defs7" />
  <sodipodi:namedview
     id="namedview1"
     showgrid="true"
     inkscape:zoom="90.509668"
     inkscape:cx="4.0920597"
     inkscape:cy="11.434135"
     inkscape:window-width="1680"
     inkscape:window-height="1016"
     inkscape:window-x="0"
     inkscape:window-y="0"
     inkscape:window-maximized="1"
     inkscape:current-layer="svg2">
    <inkscape:grid
       type="xygrid"
       id="grid1px"
       empspacing="4" />
    <inkscape:grid
       type="xygrid"
       id="grid1pxdot"
       empspacing="1"
       dotted="true"
       originy="0.5"
       originx="0.5" />
  </sodipodi:namedview>
  <rect
     style="opacity:0.98999999;fill:#0000fc;fill-opacity:1;fill-rule:nonzero;stroke:#0000fd;stroke-width:1;stroke-linecap:round;stroke-linejoin:round;stroke-miterlimit:4;stroke-dasharray:none;stroke-dashoffset:0;stroke-opacity:1;paint-order:fill markers stroke"
     id="rect4495"
     width="17"
     height="12"
     x="-0.5"
     y="2.5" />
  <rect
     style="opacity:0.98999999;fill:#ffffff;fill-opacity:1;fill-rule:nonzero;stroke:#ffffff;stroke-width:1;stroke-linecap:round;stroke-linejoin:round;stroke-miterlimit:4;stroke-dasharray:none;stroke-dashoffset:0;stroke-opacity:1;paint-order:fill markers stroke"
     id="rect4497"
     width="7"
     height="5"
     x="0.5"
     y="2.5" />
  <path
     sodipodi:type="star"
     style="opacity:0.98999999;fill:#ff0002;fill-opacity:1;fill-rule:nonzero;stroke:none;stroke-width:1;stroke-linecap:round;stroke-linejoin:round;stroke-miterlimit:4;stroke-dasharray:none;stroke-dashoffset:0;stroke-opacity:1;paint-order:fill markers stroke"
     id="path4499"
     sodipodi:sides="5"
     sodipodi:cx="13"
     sodipodi:cy="5"
     sodipodi:r1="1.4142137"
     sodipodi:r2="0.70710677"
     sodipodi:arg1="-0.78539816"
     sodipodi:arg2="-0.15707963"
     inkscape:flatsided="false"
     inkscape:rounded="0.25"
     inkscape:randomized="0"
     d="m 14,3.9999999 c 0.166016,0.1660164 -0.338327,0.6574922 -0.301599,0.8893842 0.03673,0.2318921 0.668262,0.5434626 0.561673,0.7526555 C 14.153485,5.8512324 13.530213,5.5234477 13.32102,5.6300367 13.111827,5.7366258 13.01066,6.4335304 12.778768,6.3968023 12.546876,6.3600742 12.666016,5.6660164 12.5,5.5 12.333984,5.3339836 11.639926,5.4531238 11.603198,5.2212318 11.56647,4.9893397 12.263374,4.8881731 12.369963,4.6789802 12.476552,4.4697874 12.148768,3.8465155 12.35796,3.7399264 12.567153,3.6333373 12.878724,4.2648708 13.110616,4.3015989 13.342508,4.338327 13.833984,3.8339835 14,3.9999999 Z"
     inkscape:transform-center-x="0.063013436"
     inkscape:transform-center-y="0.063013436" />
  <path
     sodipodi:type="star"
     style="opacity:0.98999999;fill:#ff0002;fill-opacity:1;fill-rule:nonzero;stroke:none;stroke-width:1;stroke-linecap:round;stroke-linejoin:round;stroke-miterlimit:4;stroke-dasharray:none;stroke-dashoffset:0;stroke-opacity:1;paint-order:fill markers stroke"
     id="path4501"
     sodipodi:sides="5"
     sodipodi:cx="15"
     sodipodi:cy="8"
     sodipodi:r1="1.4142137"
     sodipodi:r2="0.70710677"
     sodipodi:arg1="-0.78539816"
     sodipodi:arg2="-0.15707963"
     inkscape:flatsided="false"
     inkscape:rounded="0.25"
     inkscape:randomized="0"
     d="m 16,6.9999999 c 0.166016,0.1660164 -0.338327,0.6574922 -0.301599,0.8893842 0.03673,0.2318921 0.668262,0.5434626 0.561673,0.7526555 C 16.153485,8.8512324 15.530213,8.5234477 15.32102,8.6300367 15.111827,8.7366258 15.01066,9.4335304 14.778768,9.3968023 14.546876,9.3600742 14.666016,8.6660164 14.5,8.5 14.333984,8.3339836 13.639926,8.4531238 13.603198,8.2212318 13.56647,7.9893397 14.263374,7.8881731 14.369963,7.6789802 14.476552,7.4697874 14.148768,6.8465155 14.35796,6.7399264 14.567153,6.6333373 14.878724,7.2648708 15.110616,7.3015989 15.342508,7.338327 15.833984,6.8339835 16,6.9999999 Z"
     inkscape:transform-center-x="0.063013436"
     inkscape:transform-center-y="0.063013436" />
  <path
     sodipodi:type="star"
     style="opacity:0.98999999;fill:#ff0002;fill-opacity:1;fill-rule:nonzero;stroke:none;stroke-width:1;stroke-linecap:round;stroke-linejoin:round;stroke-miterlimit:4;stroke-dasharray:none;stroke-dashoffset:0;stroke-opacity:1;paint-order:fill markers stroke"
     id="path4503"
     sodipodi:sides="5"
     sodipodi:cx="11"
     sodipodi:cy="9"
     sodipodi:r1="1.8027756"
     sodipodi:r2="0.90138781"
     sodipodi:arg1="-0.52359878"
     sodipodi:arg2="0.10471976"
     inkscape:flatsided="false"
     inkscape:rounded="0.25"
     inkscape:randomized="0"
     d="m 12.561249,8.0986122 c 0.149646,0.259193 -0.633515,0.6979577 -0.664799,0.9956085 -0.03128,0.2976507 0.643538,0.8896556 0.443273,1.1120713 C 12.139459,10.428708 11.480159,9.8194644 11.187409,9.8816903 10.894659,9.9439163 10.54016,10.76865 10.266745,10.646917 9.9933298,10.525185 10.36902,9.7098869 10.219375,9.4506939 10.06973,9.1915009 9.1758158,9.1092094 9.2071002,8.8115586 9.2383845,8.5139079 10.129874,8.6192698 10.330138,8.3968538 c 0.200265,-0.222416 0.0023,-1.0980085 0.295044,-1.1602344 0.29275,-0.062226 0.46803,0.8181895 0.741445,0.9399219 0.273416,0.1217323 1.044977,-0.3371221 1.194622,-0.077929 z"
     inkscape:transform-center-x="0.10673322"
     inkscape:transform-center-y="-0.05368294" />
  <path
     sodipodi:type="star"
     style="opacity:0.98999999;fill:#ff0002;fill-opacity:1;fill-rule:nonzero;stroke:none;stroke-width:1;stroke-linecap:round;stroke-linejoin:round;stroke-miterlimit:4;stroke-dasharray:none;stroke-dashoffset:0;stroke-opacity:1;paint-order:fill markers stroke"
     id="path4505"
     sodipodi:sides="5"
     sodipodi:cx="14"
     sodipodi:cy="12.5"
     sodipodi:r1="1.8027756"
     sodipodi:r2="0.90138781"
     sodipodi:arg1="-1.0471976"
     sodipodi:arg2="-0.41887902"
     inkscape:flatsided="false"
     inkscape:rounded="0.25"
     inkscape:randomized="0"
     d="m 14.901388,10.93875 c 0.259193,0.149646 -0.199662,0.921207 -0.07793,1.194623 0.121732,0.273415 1.002148,0.448695 0.939922,0.741445 -0.06223,0.29275 -0.937819,0.09478 -1.160235,0.295044 -0.222416,0.200264 -0.117054,1.091753 -0.414705,1.123038 -0.29765,0.03128 -0.379942,-0.86263 -0.639135,-1.012275 -0.259193,-0.149645 -1.074491,0.226045 -1.196223,-0.04737 -0.121733,-0.273415 0.703001,-0.627914 0.765227,-0.920664 0.06223,-0.29275 -0.547018,-0.95205 -0.324602,-1.152314 0.222416,-0.200265 0.814421,0.474557 1.112071,0.443273 0.297651,-0.03128 0.736416,-0.814445 0.995609,-0.6648 z"
     inkscape:transform-center-x="-0.05368294"
     inkscape:transform-center-y="0.10673322" />
</svg>
