<?xml version="1.0" encoding="UTF-8" standalone="no"?>
<svg
   xmlns:dc="http://purl.org/dc/elements/1.1/"
   xmlns:cc="http://creativecommons.org/ns#"
   xmlns:rdf="http://www.w3.org/1999/02/22-rdf-syntax-ns#"
   xmlns:svg="http://www.w3.org/2000/svg"
   xmlns="http://www.w3.org/2000/svg"
   xmlns:xlink="http://www.w3.org/1999/xlink"
   xmlns:sodipodi="http://sodipodi.sourceforge.net/DTD/sodipodi-0.dtd"
   xmlns:inkscape="http://www.inkscape.org/namespaces/inkscape"
   height="16"
   width="16"
   version="1.1"
   id="svg5"
   sodipodi:docname="flag-es-spanish.svg"
   inkscape:version="0.92.2 2405546, 2018-03-11">
  <metadata
     id="metadata9">
    <rdf:RDF>
      <cc:Work
         rdf:about="">
        <dc:format>image/svg+xml</dc:format>
        <dc:type
           rdf:resource="http://purl.org/dc/dcmitype/StillImage" />
        <dc:title></dc:title>
      </cc:Work>
    </rdf:RDF>
  </metadata>
  <defs
     id="defs7">
    <linearGradient
       inkscape:collect="always"
       id="linearGradient960">
      <stop
         style="stop-color:#fde212;stop-opacity:1;"
         offset="0"
         id="stop956" />
      <stop
         id="stop964"
         offset="0.25"
         style="stop-color:#fde212;stop-opacity:1" />
      <stop
         style="stop-color:#d60b14;stop-opacity:1"
         offset="0.25"
         id="stop966" />
      <stop
         id="stop968"
         offset="0.5"
         style="stop-color:#d60b14;stop-opacity:1;" />
      <stop
         style="stop-color:#fde212;stop-opacity:1"
         offset="0.5"
         id="stop970" />
      <stop
         id="stop972"
         offset="0.75"
         style="stop-color:#fde212;stop-opacity:1" />
      <stop
         style="stop-color:#d60b14;stop-opacity:1;"
         offset="0.75"
         id="stop974" />
      <stop
         id="stop976"
         offset="1"
         style="stop-color:#d60b14;stop-opacity:1;" />
    </linearGradient>
    <linearGradient
       inkscape:collect="always"
       xlink:href="#linearGradient960"
       id="linearGradient962"
       x1="5"
       y1="9.25"
       x2="6"
       y2="9.25"
       gradientUnits="userSpaceOnUse" />
    <linearGradient
       inkscape:collect="always"
       xlink:href="#linearGradient960"
       id="linearGradient993"
       gradientUnits="userSpaceOnUse"
       x1="5"
       y1="8.75"
       x2="5.5"
       y2="8.75"
       gradientTransform="translate(-2.298097)" />
    <linearGradient
       inkscape:collect="always"
       xlink:href="#linearGradient960"
       id="linearGradient995"
       gradientUnits="userSpaceOnUse"
       x1="5.5"
       y1="9.25"
       x2="6"
       y2="9.25"
       gradientTransform="translate(-2.298097)" />
  </defs>
  <sodipodi:namedview
     id="namedview1"
     showgrid="true"
     inkscape:zoom="8"
     inkscape:cx="-0.97109863"
     inkscape:cy="18.925223"
     inkscape:window-width="1280"
     inkscape:window-height="742"
     inkscape:window-x="0"
     inkscape:window-y="24"
     inkscape:window-maximized="1"
     inkscape:current-layer="svg5"
     showguides="false">
    <inkscape:grid
       type="xygrid"
       id="grid1px"
       empspacing="4"
       enabled="false"
       visible="false" />
    <inkscape:grid
       type="xygrid"
       id="grid1pxdot"
       empspacing="1"
       dotted="true"
       originy="0.25"
       originx="0.25"
       spacingx="0.25"
       spacingy="0.25"
       enabled="false" />
  </sodipodi:namedview>
  <rect
     style="opacity:1;fill:#ee0b14;fill-opacity:1;stroke:none;stroke-width:1.00157475;stroke-linecap:round;stroke-linejoin:round;stroke-miterlimit:4;stroke-dasharray:none;stroke-opacity:1"
     id="rect820"
     width="16"
     height="3"
     x="0"
     y="3" />
  <rect
     style="opacity:1;fill:#ee0b14;fill-opacity:1;stroke:none;stroke-width:1.00157475;stroke-linecap:round;stroke-linejoin:round;stroke-miterlimit:4;stroke-dasharray:none;stroke-opacity:1"
     id="rect822"
     width="16"
     height="3"
     x="0"
     y="10" />
  <rect
     style="opacity:1;fill:#fbbd14;fill-opacity:1;stroke:none;stroke-width:1.00157475;stroke-linecap:round;stroke-linejoin:round;stroke-miterlimit:4;stroke-dasharray:none;stroke-opacity:1"
     id="rect824"
     width="16"
     height="5"
     x="0.0078125"
     y="5.5429688" />
  <rect
     style="opacity:1;fill:#fdfff5;fill-opacity:1;stroke:none;stroke-width:1.00157475;stroke-linecap:round;stroke-linejoin:round;stroke-miterlimit:4;stroke-dasharray:none;stroke-opacity:1"
     id="rect830"
     width="0.5"
     height="2.5"
     x="1.701903"
     y="7.25" />
  <rect
     style="opacity:1;fill:#fdfff5;fill-opacity:1;stroke:none;stroke-width:1.00157475;stroke-linecap:round;stroke-linejoin:round;stroke-miterlimit:4;stroke-dasharray:none;stroke-opacity:1"
     id="rect830-3"
     width="0.5"
     height="2.5"
     x="5.2019029"
     y="7.25" />
  <path
     style="opacity:1;fill:#fdffff;fill-opacity:1;stroke:none;stroke-width:1.00157475;stroke-linecap:round;stroke-linejoin:round;stroke-miterlimit:4;stroke-dasharray:none;stroke-opacity:1"
     d="m 2.701903,7.25 v 2 a 1,0.5 0 0 0 1,0.5 1,0.5 0 0 0 1,-0.5 v -2 z"
     id="path849"
     inkscape:connector-curvature="0" />
  <path
     style="opacity:1;fill:url(#linearGradient993);fill-opacity:1;stroke:none;stroke-width:1.00157475;stroke-linecap:round;stroke-linejoin:round;stroke-miterlimit:4;stroke-dasharray:none;stroke-opacity:1"
     d="m 3.201903,8.5 h -0.5 v 1 a 0.5,0.25 0 0 0 0.5,0.25 z"
     id="path989"
     inkscape:connector-curvature="0" />
  <path
     style="opacity:1;fill:url(#linearGradient995);fill-opacity:1;stroke:none;stroke-width:1.00157475;stroke-linecap:round;stroke-linejoin:round;stroke-miterlimit:4;stroke-dasharray:none;stroke-opacity:1"
     d="m 3.201903,8.5 v 1.25 a 0.5,0.25 0 0 0 0.5,-0.25 v -1 z"
     id="path849-6"
     inkscape:connector-curvature="0" />
  <path
     inkscape:connector-curvature="0"
     style="opacity:1;fill:#d60b14;fill-opacity:1;stroke:none;stroke-width:1.00157475;stroke-linecap:round;stroke-linejoin:round;stroke-miterlimit:4;stroke-dasharray:none;stroke-opacity:1"
     d="m 3.701903,8.5 v 1 a 0.5,0.25 0 0 0 0.5,0.25 0.5,0.25 0 0 0 0.5,-0.25 v -1 z"
     id="path849-6-7" />
  <rect
     style="opacity:1;fill:#d60b14;fill-opacity:1;stroke:none;stroke-width:1.00157475;stroke-linecap:round;stroke-linejoin:round;stroke-miterlimit:4;stroke-dasharray:none;stroke-opacity:1"
     id="rect907"
     width="1"
     height="1.25"
     x="2.7019029"
     y="7.25" />
  <rect
     style="opacity:1;fill:#ffffff;fill-opacity:1;stroke:none;stroke-width:1.00157475;stroke-linecap:round;stroke-linejoin:round;stroke-miterlimit:4;stroke-dasharray:none;stroke-opacity:1"
     id="rect907-3"
     width="1"
     height="1.25"
     x="3.7019029"
     y="7.25" />
  <rect
     style="opacity:1;fill:#fde212;fill-opacity:1;stroke:none;stroke-width:0.5;stroke-linecap:round;stroke-linejoin:round;stroke-miterlimit:4;stroke-dasharray:none;stroke-opacity:1"
     id="rect1009"
     width="0.66015625"
     height="0.18359375"
     x="2.8815904"
     y="8.2148438" />
  <rect
     style="opacity:1;fill:#fde212;fill-opacity:1;stroke:none;stroke-width:0.5;stroke-linecap:round;stroke-linejoin:round;stroke-miterlimit:4;stroke-dasharray:none;stroke-opacity:1"
     id="rect1031"
     width="0.453125"
     height="0.44140625"
     x="2.9792466"
     y="7.7890625" />
  <rect
     style="opacity:1;fill:#fde212;fill-opacity:1;stroke:none;stroke-width:0.5;stroke-linecap:round;stroke-linejoin:round;stroke-miterlimit:4;stroke-dasharray:none;stroke-opacity:1"
     id="rect1009-5"
     width="0.66015625"
     height="0.18359375"
     x="2.8796372"
     y="7.6269531" />
  <rect
     style="opacity:1;fill:#fde212;fill-opacity:1;stroke:none;stroke-width:0.5;stroke-linecap:round;stroke-linejoin:round;stroke-miterlimit:4;stroke-dasharray:none;stroke-opacity:1"
     id="rect1063"
     width="0.08203125"
     height="0.10546875"
     x="2.9987779"
     y="7.5507812" />
  <rect
     style="opacity:1;fill:#fde212;fill-opacity:1;stroke:none;stroke-width:0.5;stroke-linecap:round;stroke-linejoin:round;stroke-miterlimit:4;stroke-dasharray:none;stroke-opacity:1"
     id="rect1065"
     width="0.08203125"
     height="0.08203125"
     x="3.3347154"
     y="7.5546875" />
  <rect
     style="opacity:1;fill:#fde212;fill-opacity:1;stroke:none;stroke-width:0.5;stroke-linecap:round;stroke-linejoin:round;stroke-miterlimit:4;stroke-dasharray:none;stroke-opacity:1"
     id="rect1067"
     width="0.10546875"
     height="0.1484375"
     x="3.1628404"
     y="7.5" />
  <rect
     style="opacity:1;fill:#fde212;fill-opacity:1;stroke:none;stroke-width:0.5;stroke-linecap:round;stroke-linejoin:round;stroke-miterlimit:4;stroke-dasharray:none;stroke-opacity:1"
     id="rect1069"
     width="0.1484375"
     height="0.078125"
     x="3.1419029"
     y="7.421875" />
  <rect
     style="opacity:1;fill:#fde212;fill-opacity:1;stroke:none;stroke-width:0.5;stroke-linecap:round;stroke-linejoin:round;stroke-miterlimit:4;stroke-dasharray:none;stroke-opacity:1"
     id="rect1069-2"
     width="0.1484375"
     height="0.078125"
     x="2.9619031"
     y="7.4804688" />
  <rect
     style="opacity:1;fill:#fde212;fill-opacity:1;stroke:none;stroke-width:0.5;stroke-linecap:round;stroke-linejoin:round;stroke-miterlimit:4;stroke-dasharray:none;stroke-opacity:1"
     id="rect1069-2-9"
     width="0.1484375"
     height="0.078125"
     x="3.3019028"
     y="7.4765625" />
  <path
     style="fill:#fbbda3;stroke:none;stroke-width:1px;stroke-linecap:butt;stroke-linejoin:miter;stroke-opacity:1;fill-opacity:1"
     d="M 4.3359375,7.5039062 C 4.3190493,7.4996842 4.3256811,7.5 4.3164063,7.5 c -0.0013,0 -0.00274,5.823e-4 -0.00391,0 -0.00165,-8.235e-4 -0.00226,-0.00308 -0.00391,-0.00391 -0.00233,-0.00116 -0.00548,0.00116 -0.00781,0 -0.00165,-8.235e-4 -0.00226,-0.00308 -0.00391,-0.00391 -0.00119,-5.944e-4 -0.00996,0 -0.011719,0 -0.00781,0 -0.015625,0 -0.023437,0 -0.00143,0 -0.015468,-1.572e-4 -0.015625,0 -9.208e-4,9.207e-4 9.207e-4,0.00299 0,0.00391 -0.00206,0.00206 -0.00575,0.00185 -0.00781,0.00391 -0.00184,0.00184 0.00116,0.00548 0,0.00781 -8.236e-4,0.00165 -0.00308,0.00226 -0.00391,0.00391 -5.823e-4,0.00116 0,0.0026 0,0.00391 0,0.0013 0,0.0026 0,0.00391 0,0.00781 0,0.015625 0,0.023437 0,0.023437 0,0.046875 0,0.070312 0,0.010417 0,0.020833 0,0.03125 0,0.00176 5.944e-4,0.01053 0,0.011719 -8.235e-4,0.00165 -0.00308,0.00226 -0.00391,0.00391 -5.824e-4,0.00116 9.207e-4,0.00299 0,0.00391 -9.208e-4,9.207e-4 -0.00299,-9.207e-4 -0.00391,0 -0.00195,0.00195 0.00195,0.00977 0,0.011719 -0.00808,0.00808 3.159e-4,-0.012351 -0.00781,0.00391 -5.823e-4,0.00116 9.207e-4,0.00299 0,0.00391 -9.207e-4,9.208e-4 -0.0026,0 -0.00391,0 -0.0013,0 -0.0026,0 -0.00391,0 -0.00911,0 -0.018229,0 -0.027344,0 -0.013021,0 -0.026042,0 -0.039063,0 -0.00204,0 -0.014598,5.136e-4 -0.015625,0 -0.00165,-8.235e-4 -0.00226,-0.00308 -0.00391,-0.00391 -0.00116,-5.823e-4 -0.00299,9.207e-4 -0.00391,0 -9.208e-4,-9.207e-4 9.207e-4,-0.00299 0,-0.00391 -0.00184,-0.00184 -0.00548,0.00116 -0.00781,0 -0.00384,-0.00192 -0.011781,-0.013703 -0.015625,-0.015625 -0.00116,-5.823e-4 -0.00299,9.208e-4 -0.00391,0 -9.207e-4,-9.207e-4 9.207e-4,-0.00299 0,-0.00391 -0.00206,-0.00206 -0.00575,-0.00185 -0.00781,-0.00391 -9.207e-4,-9.207e-4 5.823e-4,-0.00274 0,-0.00391 -8.235e-4,-0.00165 -0.00308,-0.00226 -0.00391,-0.00391 -5.824e-4,-0.00116 9.207e-4,-0.00299 0,-0.00391 -0.00206,-0.00206 -0.00575,-0.00185 -0.00781,-0.00391 -0.00184,-0.00184 0.00184,-0.00597 0,-0.00781 -9.208e-4,-9.207e-4 -0.00299,9.208e-4 -0.00391,0 -9.207e-4,-9.207e-4 5.823e-4,-0.00274 0,-0.00391 -8.235e-4,-0.00165 -0.00308,-0.00226 -0.00391,-0.00391 -5.824e-4,-0.00116 5.823e-4,-0.00274 0,-0.00391 -0.00165,-0.00329 -0.00617,-0.00452 -0.00781,-0.00781 -5.824e-4,-0.00116 5.823e-4,-0.00274 0,-0.00391 -8.236e-4,-0.00165 -0.00308,-0.00226 -0.00391,-0.00391 -5.823e-4,-0.00116 9.207e-4,-0.00299 0,-0.00391 -9.207e-4,-9.207e-4 -0.00274,5.824e-4 -0.00391,0 -0.016257,-0.00813 0.00418,2.697e-4 -0.00391,-0.00781 -9.207e-4,-9.207e-4 -0.00299,9.208e-4 -0.00391,0 -9.208e-4,-9.207e-4 9.207e-4,-0.00299 0,-0.00391 -0.00808,-0.00808 3.159e-4,0.012351 -0.00781,-0.00391 -5.824e-4,-0.00116 9.207e-4,-0.00299 0,-0.00391 -9.208e-4,-9.207e-4 -0.00274,5.823e-4 -0.00391,0 -0.00329,-0.00165 -0.00452,-0.00617 -0.00781,-0.00781 -0.00116,-5.823e-4 -0.00274,5.823e-4 -0.00391,0 -0.00165,-8.235e-4 -0.00226,-0.00308 -0.00391,-0.00391 -0.00116,-5.823e-4 -0.00274,5.824e-4 -0.00391,0 -0.00165,-8.235e-4 -0.00226,-0.00308 -0.00391,-0.00391 -0.00116,-5.823e-4 -0.00274,5.823e-4 -0.00391,0 -0.00165,-8.235e-4 -0.00216,-0.00332 -0.00391,-0.00391 -0.00247,-8.235e-4 -0.00534,8.236e-4 -0.00781,0 -0.00349,-0.00116 -0.00452,-0.00617 -0.00781,-0.00781 -0.00233,-0.00116 -0.00597,0.00184 -0.00781,0 -9.207e-4,-9.207e-4 9.207e-4,-0.00299 0,-0.00391 -9.207e-4,-9.207e-4 -0.0026,0 -0.00391,0 -0.00651,0 -0.013021,0 -0.019531,0 -0.00911,0 -0.018229,0 -0.027344,0 -0.0013,0 -0.00299,-9.207e-4 -0.00391,0 -9.207e-4,9.207e-4 0,0.0026 0,0.00391 0,0.0013 0,0.0026 0,0.00391 0,0.02474 0,0.049479 0,0.074219 0,0.00277 -5.05e-4,0.022428 0,0.023437 8.235e-4,0.00165 0.00308,0.00226 0.00391,0.00391 5.823e-4,0.00116 -9.208e-4,0.00299 0,0.00391 9.207e-4,9.208e-4 0.00299,-9.207e-4 0.00391,0 9.207e-4,9.208e-4 -5.823e-4,0.00274 0,0.00391 8.235e-4,0.00165 0.0026,0.0026 0.00391,0.00391 0.0013,0.0013 0.00226,0.00308 0.00391,0.00391 0.00233,0.00116 0.00548,-0.00116 0.00781,0 0.00165,8.235e-4 0.00226,0.00308 0.00391,0.00391 0.00237,0.00119 0.021065,-0.00119 0.023437,0 0.00165,8.236e-4 0.00226,0.00308 0.00391,0.00391 0.00233,0.00116 0.00597,-0.00184 0.00781,0 9.207e-4,9.207e-4 -9.207e-4,0.00299 0,0.00391 9.207e-4,9.208e-4 0.00299,-9.207e-4 0.00391,0 0.00184,0.00184 -0.00184,0.00597 0,0.00781 9.207e-4,9.208e-4 0.00299,-9.207e-4 0.00391,0 9.207e-4,9.208e-4 -9.207e-4,0.00299 0,0.00391 9.207e-4,9.207e-4 0.00299,-9.207e-4 0.00391,0 9.207e-4,9.207e-4 -9.208e-4,0.00299 0,0.00391 9.207e-4,9.208e-4 0.00299,-9.207e-4 0.00391,0 9.207e-4,9.208e-4 -5.823e-4,0.00274 0,0.00391 0.00165,0.00329 0.00617,0.00452 0.00781,0.00781 5.823e-4,0.00116 -9.207e-4,0.00299 0,0.00391 0.00476,0.00476 0.00873,0.00183 0.011719,0.00781 5.823e-4,0.00116 -4.118e-4,0.00267 0,0.00391 0.00236,0.00709 0.00334,0.00725 0.00781,0.011719 0.0013,0.0013 0.00308,0.00226 0.00391,0.00391 5.823e-4,0.00116 -5.823e-4,0.00274 0,0.00391 8.235e-4,0.00165 0.0026,0.0026 0.00391,0.00391 0.0013,0.0013 0.00226,0.00308 0.00391,0.00391 0.00116,5.824e-4 0.00299,-9.207e-4 0.00391,0 9.207e-4,9.208e-4 -5.824e-4,0.00274 0,0.00391 0.00234,0.00469 0.00938,0.00703 0.011719,0.011719 5.823e-4,0.00116 0,0.0026 0,0.00391 0,0.0013 0,0.0026 0,0.00391 0,0.0013 9.207e-4,0.00299 0,0.00391 -9.207e-4,9.207e-4 -0.0026,0 -0.00391,0 -0.00781,0 -0.015625,0 -0.023437,0 -0.0013,0 -0.0026,0 -0.00391,0 -0.0013,0 -0.00299,-9.207e-4 -0.00391,0 -9.208e-4,9.207e-4 9.207e-4,0.00299 0,0.00391 -0.00184,0.00184 -0.00548,-0.00116 -0.00781,0 -0.00165,8.236e-4 -0.00226,0.00308 -0.00391,0.00391 -0.00116,5.823e-4 -0.0026,0 -0.00391,0 -0.0026,0 -0.00534,-8.235e-4 -0.00781,0 -0.00349,0.00116 -0.00452,0.00617 -0.00781,0.00781 -0.00116,5.823e-4 -0.00274,-5.823e-4 -0.00391,0 -0.012955,0.012955 0.00368,-0.00184 -0.00781,0.00391 -0.017877,0.00894 0.016576,-0.00162 -0.011719,0.00781 -0.00124,4.118e-4 -0.00274,-5.823e-4 -0.00391,0 -0.00165,8.236e-4 -0.00226,0.00308 -0.00391,0.00391 -0.00116,5.823e-4 -0.00274,-5.823e-4 -0.00391,0 -0.00165,8.235e-4 -0.00216,0.00332 -0.00391,0.00391 -0.00247,8.236e-4 -0.00534,-8.235e-4 -0.00781,0 -0.00175,5.824e-4 -0.00226,0.00308 -0.00391,0.00391 -0.00116,5.823e-4 -0.00274,-5.823e-4 -0.00391,0 -0.00165,8.235e-4 -0.00226,0.00308 -0.00391,0.00391 -0.00116,5.824e-4 -0.00274,-5.823e-4 -0.00391,0 -0.00165,8.236e-4 -0.00226,0.00308 -0.00391,0.00391 -0.00233,0.00116 -0.00548,-0.00116 -0.00781,0 -0.00329,0.00165 -0.00452,0.00617 -0.00781,0.00781 -0.00116,5.823e-4 -0.00274,-5.823e-4 -0.00391,0 -0.00209,0.00104 -0.00966,0.00966 -0.011719,0.011719 -0.0013,0.0013 -0.0026,0.0026 -0.00391,0.00391 -0.0013,0.0013 -0.00308,0.00226 -0.00391,0.00391 -5.823e-4,0.00116 9.207e-4,0.00299 0,0.00391 -9.207e-4,9.207e-4 -0.00299,-9.207e-4 -0.00391,0 -9.208e-4,9.207e-4 9.207e-4,0.00299 0,0.00391 -9.208e-4,9.208e-4 -0.00299,-9.207e-4 -0.00391,0 -1.256e-4,1.257e-4 0,0.010771 0,0.011719 0,0.00477 -0.00152,0.00901 0.00391,0.011719 0.00103,5.136e-4 0.013582,0 0.015625,0 0.011719,0 0.023437,0 0.035156,0 0.013021,0 0.026042,0 0.039063,0 0.0027,0 0.014437,5.939e-4 0.015625,0 0.00165,-8.235e-4 0.00226,-0.00308 0.00391,-0.00391 0.00116,-5.823e-4 0.0026,0 0.00391,0 0.0026,0 0.00534,8.235e-4 0.00781,0 0.014481,-0.00483 -0.00476,-0.00391 0.00781,-0.00391 0.00391,0 0.00781,0 0.011719,0 0.00883,0 -0.00175,5.824e-4 0.011719,-0.00391 0.00124,-4.118e-4 0.0026,0 0.00391,0 0.0013,0 0.0026,0 0.00391,0 0.0013,0 0.00274,5.823e-4 0.00391,0 0.00165,-8.235e-4 0.00226,-0.00308 0.00391,-0.00391 0.00116,-5.823e-4 0.00274,5.824e-4 0.00391,0 0.00165,-8.235e-4 0.00216,-0.00332 0.00391,-0.00391 0.017782,0 2.234e-4,0.00184 0.011719,-0.00391 0.00233,-0.00116 0.00548,0.00116 0.00781,0 0.00165,-8.235e-4 0.00226,-0.00308 0.00391,-0.00391 0.00233,-0.00116 0.00548,0.00116 0.00781,0 0.00165,-8.235e-4 0.00226,-0.00308 0.00391,-0.00391 0.00101,-5.049e-4 0.020669,0 0.023437,0 0.00314,0 0.013173,-8.172e-4 0.015625,0 0.00276,9.208e-4 0.00505,0.00299 0.00781,0.00391 0.00124,4.118e-4 0.00274,-5.823e-4 0.00391,0 0.00165,8.235e-4 0.00237,0.00288 0.00391,0.00391 0.00242,0.00162 0.00539,0.00229 0.00781,0.00391 0.00306,0.00204 0.00452,0.00617 0.00781,0.00781 0.00116,5.823e-4 0.0026,0 0.00391,0 0.0026,0.0013 0.00539,0.00229 0.00781,0.00391 0.00306,0.00204 0.00452,0.00617 0.00781,0.00781 0.00116,5.824e-4 0.00274,-5.823e-4 0.00391,0 0.00469,0.00234 0.00703,0.00937 0.011719,0.011719 0.00116,5.823e-4 0.00274,-5.823e-4 0.00391,0 0.00165,8.235e-4 0.0026,0.0026 0.00391,0.00391 0.0013,0.0013 0.0026,0.0026 0.00391,0.00391 0.00651,0.00651 0.013021,0.013021 0.019531,0.019531 0.0013,0.0013 0.0026,0.0026 0.00391,0.00391 0.0013,0.0013 0.00226,0.00308 0.00391,0.00391 0.00116,5.824e-4 0.00274,-5.823e-4 0.00391,0 0.00469,0.00234 0.00703,0.00937 0.011719,0.011719 0.00116,5.823e-4 0.00274,-5.823e-4 0.00391,0 0.00165,8.235e-4 0.00226,0.00308 0.00391,0.00391 0.00116,5.824e-4 0.00274,-5.823e-4 0.00391,0 0.00165,8.236e-4 0.00237,0.00288 0.00391,0.00391 0.00242,0.00162 0.00539,0.00229 0.00781,0.00391 0.00153,0.00102 0.00226,0.00308 0.00391,0.00391 0.00155,7.744e-4 0.01092,-7.986e-4 0.011719,0 9.207e-4,9.207e-4 0,0.0026 0,0.00391 0.0026,0 0.00548,-0.00116 0.00781,0 0.00116,5.824e-4 -5.823e-4,0.00274 0,0.00391 0.00165,0.00329 0.00617,0.00452 0.00781,0.00781 5.823e-4,0.00116 0,0.0026 0,0.00391 0,0.0013 0,0.0026 0,0.00391 0,0.00272 7.063e-4,0.018119 0,0.019531 -8.235e-4,0.00165 -0.0026,0.0026 -0.00391,0.00391 -0.0013,0.0013 -0.00237,0.00288 -0.00391,0.00391 -0.00485,0.00323 -0.01078,0.00458 -0.015625,0.00781 -0.00153,0.00102 -0.00237,0.00288 -0.00391,0.00391 -0.00242,0.00161 -0.00539,0.00229 -0.00781,0.00391 -0.00153,0.00102 -0.00237,0.00288 -0.00391,0.00391 -0.00242,0.00161 -0.00539,0.00229 -0.00781,0.00391 -0.00153,0.00102 -0.00216,0.00332 -0.00391,0.00391 -0.00247,8.235e-4 -0.00534,-8.235e-4 -0.00781,0 -0.00175,5.823e-4 -0.00216,0.00332 -0.00391,0.00391 -0.00247,8.236e-4 -0.00534,-8.235e-4 -0.00781,0 -0.00175,5.824e-4 -0.00216,0.00332 -0.00391,0.00391 -0.00247,8.235e-4 -0.00521,0 -0.00781,0 -0.0013,0 -0.00274,-5.823e-4 -0.00391,0 -0.00165,8.235e-4 -0.00216,0.00332 -0.00391,0.00391 -0.00247,8.236e-4 -0.00521,0 -0.00781,0 -0.0013,0 -0.00274,-5.823e-4 -0.00391,0 -0.00165,8.236e-4 -0.00216,0.00332 -0.00391,0.00391 -0.00371,0.00124 -0.00781,0 -0.011719,0 -0.00651,0 -0.013021,0 -0.019531,0 -0.00911,0 -0.018229,0 -0.027344,0 -0.00521,0 -0.010417,0 -0.015625,0 -0.0013,0 -0.00274,-5.823e-4 -0.00391,0 -0.0079,0.00395 -0.00125,0.00907 -0.00391,0.011719 -9.207e-4,9.208e-4 -0.00299,-9.207e-4 -0.00391,0 -9.208e-4,9.208e-4 0,0.0026 0,0.00391 0,0.00272 7.063e-4,0.018119 0,0.019531 -8.236e-4,0.00165 -0.00308,0.00226 -0.00391,0.00391 -0.00116,0.00233 0.00116,0.00548 0,0.00781 -8.235e-4,0.00165 -0.00308,0.00226 -0.00391,0.00391 -8.691e-4,0.00174 5.955e-4,0.013838 0,0.015625 -5.824e-4,0.00175 -0.00308,0.00226 -0.00391,0.00391 -0.00156,0.00313 0.00156,0.00859 0,0.011719 -8.235e-4,0.00165 -0.00308,0.00226 -0.00391,0.00391 -5.824e-4,0.00116 0,0.0026 0,0.00391 0,0.0026 5.107e-4,0.00526 0,0.00781 -8.076e-4,0.00404 -0.00291,0.00772 -0.00391,0.011719 -6.316e-4,0.00253 6.316e-4,0.00529 0,0.00781 -9.987e-4,0.00399 -0.00291,0.00772 -0.00391,0.011719 -6.646e-4,0.00266 0.00107,0.00958 0,0.011719 -0.00165,0.00329 -0.00617,0.00452 -0.00781,0.00781 -0.00123,0.00246 0.00123,0.017067 0,0.019531 -6.986e-4,0.0014 -0.014001,0.014542 -0.015625,0.015625 -0.00242,0.00162 -0.00505,0.00299 -0.00781,0.00391 -0.00124,4.118e-4 -0.00274,-5.823e-4 -0.00391,0 -0.00165,8.235e-4 -0.00216,0.00332 -0.00391,0.00391 -0.00247,8.236e-4 -0.00534,-8.235e-4 -0.00781,0 -0.00175,5.824e-4 -0.00226,0.00308 -0.00391,0.00391 -0.00116,5.823e-4 -0.00267,-4.118e-4 -0.00391,0 -0.00276,9.207e-4 -0.00505,0.00299 -0.00781,0.00391 -0.00124,4.118e-4 -0.00274,-5.823e-4 -0.00391,0 -0.00165,8.236e-4 -0.00226,0.00308 -0.00391,0.00391 -0.00116,5.823e-4 -0.00274,-5.823e-4 -0.00391,0 -0.016257,0.00813 0.00418,-2.697e-4 -0.00391,0.00781 -9.208e-4,9.207e-4 -0.00299,-9.207e-4 -0.00391,0 -9.207e-4,9.207e-4 5.823e-4,0.00274 0,0.00391 -0.00483,0.00965 -0.00391,-0.00135 -0.00391,0.00781 0,9.474e-4 -1.257e-4,0.011593 0,0.011719 9.207e-4,9.207e-4 0.00274,-5.823e-4 0.00391,0 0.00329,0.00165 0.00475,0.00577 0.00781,0.00781 0.00197,0.00861 0.00804,0.00206 0.011719,0.00391 0.017877,0.00894 -0.016576,-0.00162 0.011719,0.00781 0.00247,8.236e-4 0.00548,-0.00116 0.00781,0 0.00165,8.236e-4 0.00216,0.00332 0.00391,0.00391 0.00216,7.201e-4 0.019504,0 0.023437,0 0.016927,0 0.033854,0 0.050781,0 9.474e-4,0 0.011593,1.256e-4 0.011719,0 9.207e-4,-9.207e-4 -9.208e-4,-0.00299 0,-0.00391 9.207e-4,-9.207e-4 0.00299,9.208e-4 0.00391,0 9.207e-4,-9.207e-4 -9.207e-4,-0.00299 0,-0.00391 9.207e-4,-9.207e-4 0.00299,9.207e-4 0.00391,0 9.207e-4,-9.207e-4 -5.824e-4,-0.00274 0,-0.00391 0.00165,-0.00329 0.00617,-0.00452 0.00781,-0.00781 5.823e-4,-0.00116 -5.824e-4,-0.00274 0,-0.00391 8.235e-4,-0.00165 0.00308,-0.00226 0.00391,-0.00391 0.00269,-0.00539 -0.00473,-0.00349 0.00391,-0.00781 0.00116,-5.823e-4 0.00299,9.208e-4 0.00391,0 9.207e-4,-9.207e-4 -5.823e-4,-0.00274 0,-0.00391 8.235e-4,-0.00165 0.00308,-0.00226 0.00391,-0.00391 5.823e-4,-0.00116 -9.208e-4,-0.00299 0,-0.00391 9.207e-4,-9.207e-4 0.00299,9.207e-4 0.00391,0 9.207e-4,-9.207e-4 0,-0.0026 0,-0.00391 0,-0.00651 0,-0.013021 0,-0.019531 0,-0.0013 -5.823e-4,-0.00274 0,-0.00391 8.235e-4,-0.00165 0.00308,-0.00226 0.00391,-0.00391 0.00156,-0.00313 -0.00156,-0.00859 0,-0.011719 8.235e-4,-0.00165 0.00308,-0.00226 0.00391,-0.00391 0.00116,-0.00233 -0.00116,-0.00548 0,-0.00781 8.235e-4,-0.00165 0.00308,-0.00226 0.00391,-0.00391 0.00123,-0.00246 -0.00123,-0.017067 0,-0.019531 8.235e-4,-0.00165 0.00308,-0.00226 0.00391,-0.00391 0.00116,-0.00233 -0.00116,-0.00548 0,-0.00781 0.00165,-0.00329 0.00617,-0.00452 0.00781,-0.00781 5.823e-4,-0.00116 -9.207e-4,-0.00299 0,-0.00391 9.207e-4,-9.207e-4 0.00274,5.823e-4 0.00391,0 0.00329,-0.00165 0.00452,-0.00617 0.00781,-0.00781 0.00116,-5.823e-4 0.00299,9.207e-4 0.00391,0 9.207e-4,-9.207e-4 -0.00116,-0.00332 0,-0.00391 0.00233,-0.00116 0.00548,0.00116 0.00781,0 0.00116,-5.823e-4 -5.823e-4,-0.00274 0,-0.00391 8.235e-4,-0.00165 0.00226,-0.00308 0.00391,-0.00391 0.00116,-5.823e-4 0.0026,0 0.00391,0 0.0013,0 0.0026,0 0.00391,0 0.00911,0 0.018229,0 0.027344,0 0.0026,0 0.00521,0 0.00781,0 0.0013,0 0.00274,5.824e-4 0.00391,0 0.00165,-8.235e-4 0.00226,-0.00308 0.00391,-0.00391 0.00116,-5.823e-4 0.0026,0 0.00391,0 0.0026,0 0.00534,8.235e-4 0.00781,0 0.00175,-5.823e-4 0.00226,-0.00308 0.00391,-0.00391 0.00233,-0.00116 0.00548,0.00116 0.00781,0 0.00165,-8.235e-4 0.00226,-0.00308 0.00391,-0.00391 0.00313,-0.00156 0.00859,0.00156 0.011719,0 0.00965,-0.00483 -0.00135,-0.00391 0.00781,-0.00391 0.0013,0 0.0026,0 0.00391,0 0.0013,0 0.00299,-9.207e-4 0.00391,0 9.207e-4,9.208e-4 0,0.0026 0,0.00391 0,0.0013 0,0.0026 0,0.00391 0,0.00277 -5.05e-4,0.022428 0,0.023437 8.235e-4,0.00165 0.00308,0.00226 0.00391,0.00391 7.743e-4,0.00155 -7.986e-4,0.01092 0,0.011719 9.207e-4,9.208e-4 0.00299,-9.207e-4 0.00391,0 0.00107,0.00107 -0.00106,0.013506 0,0.015625 8.235e-4,0.00165 0.00308,0.00226 0.00391,0.00391 0.00156,0.00313 -0.00156,0.00859 0,0.011719 8.235e-4,0.00165 0.00308,0.00226 0.00391,0.00391 0.00156,0.00313 -0.00156,0.00859 0,0.011719 8.235e-4,0.00165 0.00226,0.00308 0.00391,0.00391 0.00116,5.823e-4 0.00391,-0.0013 0.00391,0 0,0.00553 -0.018229,-0.011068 0.00391,0 0.00116,5.823e-4 -9.208e-4,0.00299 0,0.00391 9.207e-4,9.208e-4 0.00299,-9.207e-4 0.00391,0 1.77e-4,1.771e-4 0,0.01769 0,0.019531 0,0.00911 0,0.018229 0,0.027344 0,0.0013 9.207e-4,0.00299 0,0.00391 -9.207e-4,9.207e-4 -0.00274,-5.823e-4 -0.00391,0 -0.00165,8.235e-4 -0.00226,0.00308 -0.00391,0.00391 -0.00116,5.824e-4 -0.00299,-9.207e-4 -0.00391,0 -9.208e-4,9.208e-4 5.823e-4,0.00274 0,0.00391 -9.045e-4,0.00181 -0.013328,0.013328 -0.015625,0.015625 -0.0013,0.0013 -0.00308,0.00226 -0.00391,0.00391 -5.823e-4,0.00116 9.207e-4,0.00299 0,0.00391 -9.207e-4,9.207e-4 -0.00299,-9.207e-4 -0.00391,0 -9.208e-4,9.207e-4 9.207e-4,0.00299 0,0.00391 -9.208e-4,9.208e-4 -0.00274,-5.823e-4 -0.00391,0 -0.00104,5.186e-4 -0.0112,0.010682 -0.011719,0.011719 -5.824e-4,0.00116 9.207e-4,0.00299 0,0.00391 -9.208e-4,9.208e-4 -0.00299,-9.207e-4 -0.00391,0 -9.207e-4,9.208e-4 5.823e-4,0.00274 0,0.00391 -0.00432,0.00864 -0.00242,0.00121 -0.00781,0.00391 -0.00165,8.236e-4 -0.0026,0.0026 -0.00391,0.00391 -7.628e-4,7.627e-4 -0.00678,0.00494 -0.00391,0.00781 1.256e-4,1.256e-4 0.010771,0 0.011719,0 0.019531,0 0.039063,0 0.058594,0 0.010417,0 0.020833,0 0.03125,0 0.00176,0 0.01053,5.944e-4 0.011719,0 0.00165,-8.235e-4 0.0026,-0.0026 0.00391,-0.00391 0.0026,0 0.00548,0.00116 0.00781,0 0.00116,-5.823e-4 -9.207e-4,-0.00299 0,-0.00391 0.00184,-0.00184 0.00548,0.00116 0.00781,0 0.00329,-0.00165 0.00452,-0.00617 0.00781,-0.00781 0.00116,-5.823e-4 0.00274,5.823e-4 0.00391,0 0.00329,-0.00165 0.00452,-0.00617 0.00781,-0.00781 0.00116,-5.823e-4 0.00299,9.207e-4 0.00391,0 0.00808,-0.00808 -0.012351,3.159e-4 0.00391,-0.00781 0.00116,-5.823e-4 0.00299,9.207e-4 0.00391,0 1.572e-4,-1.572e-4 0,-0.01419 0,-0.015625 0,-0.029948 0,-0.059896 0,-0.089844 0,-0.014323 0,-0.028646 0,-0.042969 0,-0.0013 0,-0.0026 0,-0.00391 0,-0.0013 -9.207e-4,-0.00299 0,-0.00391 9.207e-4,-9.207e-4 0.00274,5.823e-4 0.00391,0 0.00165,-8.235e-4 0.00226,-0.00308 0.00391,-0.00391 0.00116,-5.823e-4 0.00299,9.208e-4 0.00391,0 0.00184,-0.00184 -0.00184,-0.00597 0,-0.00781 9.207e-4,-9.207e-4 0.00299,9.208e-4 0.00391,0 9.207e-4,-9.207e-4 -5.823e-4,-0.00274 0,-0.00391 8.235e-4,-0.00165 0.0026,-0.0026 0.00391,-0.00391 0,-0.0026 -8.236e-4,-0.00534 0,-0.00781 8.817e-4,-0.00265 0.010227,-0.00873 0.011719,-0.011719 5.823e-4,-0.00116 -5.823e-4,-0.00274 0,-0.00391 8.235e-4,-0.00165 0.00308,-0.00226 0.00391,-0.00391 2.179e-4,-4.36e-4 2.179e-4,-0.019095 0,-0.019531 -0.00165,-0.00329 -0.00617,-0.00452 -0.00781,-0.00781 -5.824e-4,-0.00116 5.823e-4,-0.00274 0,-0.00391 -8.236e-4,-0.00165 -0.00308,-0.00226 -0.00391,-0.00391 -5.823e-4,-0.00116 9.207e-4,-0.00299 0,-0.00391 -0.00195,-0.00195 -0.00977,0.00195 -0.011719,0 -9.208e-4,-9.207e-4 9.207e-4,-0.00299 0,-0.00391 -9.208e-4,-9.207e-4 -0.00299,9.208e-4 -0.00391,0 -9.207e-4,-9.207e-4 5.823e-4,-0.00274 0,-0.00391 -8.235e-4,-0.00165 -0.00308,-0.00226 -0.00391,-0.00391 -5.824e-4,-0.00116 5.823e-4,-0.00274 0,-0.00391 -8.236e-4,-0.00165 -0.00308,-0.00226 -0.00391,-0.00391 -5.823e-4,-0.00116 9.207e-4,-0.00299 0,-0.00391 -9.207e-4,-9.207e-4 -0.00299,9.207e-4 -0.00391,0 -0.00184,-0.00184 0.00184,-0.00597 0,-0.00781 -9.208e-4,-9.207e-4 -0.00299,9.207e-4 -0.00391,0 -0.00184,-0.00184 0.00116,-0.00548 0,-0.00781 -8.235e-4,-0.00165 -0.00308,-0.00226 -0.00391,-0.00391 -0.00116,-0.00233 0.00116,-0.00548 0,-0.00781 -8.236e-4,-0.00165 -0.00308,-0.00226 -0.00391,-0.00391 -5.823e-4,-0.00116 9.207e-4,-0.00299 0,-0.00391 -9.207e-4,-9.207e-4 -0.00299,9.208e-4 -0.00391,0 -9.208e-4,-9.207e-4 9.207e-4,-0.00299 0,-0.00391 -9.208e-4,-9.207e-4 -0.00299,9.207e-4 -0.00391,0 -9.207e-4,-9.207e-4 9.207e-4,-0.00299 0,-0.00391 -9.207e-4,-9.207e-4 -0.00299,9.208e-4 -0.00391,0 -9.208e-4,-9.207e-4 9.207e-4,-0.00299 0,-0.00391 -9.208e-4,-9.207e-4 -0.00299,9.207e-4 -0.00391,0 -0.00184,-0.00184 0.00184,-0.00597 0,-0.00781 -9.207e-4,-9.207e-4 -0.00299,9.207e-4 -0.00391,0 -9.208e-4,-9.207e-4 5.823e-4,-0.00274 0,-0.00391 -8.236e-4,-0.00165 -0.00308,-0.00226 -0.00391,-0.00391 -0.00116,-0.00233 0.00184,-0.00597 0,-0.00781 -9.207e-4,-9.207e-4 -0.00299,9.207e-4 -0.00391,0 -7.986e-4,-7.986e-4 7.743e-4,-0.01017 0,-0.011719 -8.236e-4,-0.00165 -0.00308,-0.00226 -0.00391,-0.00391 -5.823e-4,-0.00116 0,-0.0026 0,-0.00391 0,-0.00521 0.00165,-0.010684 0,-0.015625 -4.118e-4,-0.00124 -0.00299,9.208e-4 -0.00391,0 -3.8e-6,-3.7e-6 5.9e-6,-0.011701 0,-0.011719 -5.824e-4,-0.00175 -0.00308,-0.00226 -0.00391,-0.00391 -0.00116,-0.00233 0.00116,-0.00548 0,-0.00781 -8.235e-4,-0.00165 -0.00308,-0.00226 -0.00391,-0.00391 -0.00269,-0.00539 0.00473,-0.00349 -0.00391,-0.00781 -0.00116,-5.823e-4 -0.00299,9.207e-4 -0.00391,0 -9.208e-4,-9.207e-4 9.207e-4,-0.00299 0,-0.00391 -9.208e-4,-9.207e-4 -0.00299,9.208e-4 -0.00391,0 -1.256e-4,-1.256e-4 0,-0.010771 0,-0.011719 0,-0.014323 0,-0.028646 0,-0.042969 0,-0.00204 -5.136e-4,-0.014598 0,-0.015625 0.00395,-0.0079 0.00907,-0.00125 0.011719,-0.00391 9.207e-4,-9.207e-4 -0.00116,-0.00332 0,-0.00391 0.00233,-0.00116 0.00534,8.236e-4 0.00781,0 0.00349,-0.00116 0.00452,-0.00617 0.00781,-0.00781 0.00237,-0.00119 0.021066,0.00119 0.023437,0 0.00165,-8.235e-4 0.00226,-0.00308 0.00391,-0.00391 0.00174,-8.691e-4 0.013838,5.956e-4 0.015625,0 0.00175,-5.823e-4 0.00226,-0.00308 0.00391,-0.00391 0.00116,-5.823e-4 0.0026,0 0.00391,0 0.0026,-0.0013 0.00539,-0.00229 0.00781,-0.00391 0.00153,-0.00102 0.00216,-0.00332 0.00391,-0.00391 0.00247,-8.235e-4 0.00534,8.236e-4 0.00781,0 0.00175,-5.823e-4 0.00216,-0.00332 0.00391,-0.00391 0.00247,-8.235e-4 0.00534,8.235e-4 0.00781,0 0.00175,-5.823e-4 0.00237,-0.00288 0.00391,-0.00391 0.00197,-0.00861 0.00804,-0.00206 0.011719,-0.00391 0.00165,-8.235e-4 0.00237,-0.00288 0.00391,-0.00391 0.00242,-0.00162 0.00539,-0.00229 0.00781,-0.00391 0.00153,-0.00102 0.00226,-0.00308 0.00391,-0.00391 0.00116,-5.823e-4 0.00274,5.824e-4 0.00391,0 0.00165,-8.235e-4 0.00226,-0.00308 0.00391,-0.00391 0.00116,-5.823e-4 0.00274,5.823e-4 0.00391,0 0.016257,-0.00813 -0.00418,2.697e-4 0.00391,-0.00781 9.207e-4,-9.207e-4 0.00299,9.207e-4 0.00391,0 9.207e-4,-9.207e-4 -5.824e-4,-0.00274 0,-0.00391 8.235e-4,-0.00165 0.00308,-0.00226 0.00391,-0.00391 0.00116,-0.00233 -0.00116,-0.00548 0,-0.00781 0.00165,-0.00329 0.00665,-0.00432 0.00781,-0.00781 5.9e-6,-1.77e-5 -3.7e-6,-0.011715 0,-0.011719 9.207e-4,-9.207e-4 0.00299,9.208e-4 0.00391,0 9.207e-4,-9.207e-4 -5.824e-4,-0.00274 0,-0.00391 8.235e-4,-0.00165 0.00308,-0.00226 0.00391,-0.00391 7.744e-4,-0.00155 -7.986e-4,-0.01092 0,-0.011719 9.207e-4,-9.207e-4 0.00299,9.207e-4 0.00391,0 1.571e-4,-1.572e-4 0,-0.01419 0,-0.015625 0,-0.00521 0,-0.010417 0,-0.015625 0,-0.0013 -5.824e-4,-0.00274 0,-0.00391 8.235e-4,-0.00165 0.00346,-0.00212 0.00391,-0.00391 0.00126,-0.00505 0,-0.010417 0,-0.015625 0,-0.00911 0,-0.018229 0,-0.027344 0,-0.011719 0,-0.023437 0,-0.035156 0,-0.00204 -5.136e-4,-0.014598 0,-0.015625 8.235e-4,-0.00165 0.00308,-0.00226 0.00391,-0.00391 0.00116,-0.00233 -0.00116,-0.00548 0,-0.00781 8.235e-4,-0.00165 0.00308,-0.00226 0.00391,-0.00391 5.823e-4,-0.00116 -5.823e-4,-0.00274 0,-0.00391 8.235e-4,-0.00165 0.00308,-0.00226 0.00391,-0.00391 0.00116,-0.00233 -0.00184,-0.00597 0,-0.00781 9.207e-4,-9.207e-4 0.00299,9.207e-4 0.00391,0 0.00184,-0.00184 -0.00116,-0.00548 0,-0.00781 8.235e-4,-0.00165 0.00308,-0.00226 0.00391,-0.00391 7.063e-4,-0.00141 0,-0.016814 0,-0.019531 0,-0.0013 -9.208e-4,-0.00299 0,-0.00391 9.207e-4,-9.207e-4 0.00391,-0.0013 0.00391,0 0,0.0013 -0.00391,0.0013 -0.00391,0 0,-0.00184 0.00308,-0.00226 0.00391,-0.00391 4.006e-4,-8.013e-4 5.509e-4,-0.011168 0,-0.011719 -1.256e-4,-1.256e-4 -0.010771,0 -0.011719,0 -0.0013,0 -0.0026,0 -0.00391,0 -0.0013,0 -0.00299,-9.207e-4 -0.00391,0 -9.208e-4,9.208e-4 5.823e-4,0.00274 0,0.00391 -8.236e-4,0.00165 -0.00308,0.00226 -0.00391,0.00391 -0.00116,0.00233 0.00184,0.00597 0,0.00781 -9.207e-4,9.208e-4 -0.00299,-9.207e-4 -0.00391,0 -9.208e-4,9.208e-4 5.823e-4,0.00274 0,0.00391 -0.00813,0.016257 2.696e-4,-0.00418 -0.00781,0.00391 -9.208e-4,9.208e-4 9.207e-4,0.00299 0,0.00391 -9.208e-4,9.207e-4 -0.00299,-9.207e-4 -0.00391,0 -0.00184,0.00184 0.00184,0.00597 0,0.00781 -0.00808,0.00808 3.159e-4,-0.012351 -0.00781,0.00391 -5.823e-4,0.00116 9.207e-4,0.00299 0,0.00391 -9.207e-4,9.207e-4 -0.00299,-9.207e-4 -0.00391,0 -0.00184,0.00184 0.00116,0.00548 0,0.00781 -8.236e-4,0.00165 -0.00308,0.00226 -0.00391,0.00391 -0.00116,0.00233 0.00184,0.00597 0,0.00781 -9.207e-4,9.208e-4 -0.00299,-9.207e-4 -0.00391,0 -9.208e-4,9.208e-4 9.207e-4,0.00299 0,0.00391 -9.208e-4,9.207e-4 -0.00299,-9.207e-4 -0.00391,0 -9.207e-4,9.207e-4 5.823e-4,0.00274 0,0.00391 -8.235e-4,0.00165 -0.00308,0.00226 -0.00391,0.00391 -0.00184,0.00368 -0.00206,0.00804 -0.00391,0.011719 -8.235e-4,0.00165 -0.00308,0.00226 -0.00391,0.00391 -5.945e-4,0.00119 0,0.00996 0,0.011719 0,0.00911 0,0.018229 0,0.027344 0,0.011719 0,0.023437 0,0.035156 0,0.0013 0,0.0026 0,0.00391 0,0.0013 9.207e-4,0.00299 0,0.00391 -9.208e-4,9.208e-4 -0.00299,-9.207e-4 -0.00391,0 -0.00184,0.00184 0.00116,0.00548 0,0.00781 -8.235e-4,0.00165 -0.00308,0.00226 -0.00391,0.00391 -5.824e-4,0.00116 9.207e-4,0.00299 0,0.00391 -9.208e-4,9.208e-4 -0.00299,-9.207e-4 -0.00391,0 -0.00184,0.00184 0.00184,0.00597 0,0.00781 -9.207e-4,9.208e-4 -0.00299,-9.207e-4 -0.00391,0 -9.208e-4,9.208e-4 5.823e-4,0.00274 0,0.00391 -8.236e-4,0.00165 -0.00308,0.00226 -0.00391,0.00391 -5.823e-4,0.00116 9.207e-4,0.00299 0,0.00391 -9.207e-4,9.207e-4 -0.00299,-9.207e-4 -0.00391,0 -0.00184,0.00184 0.00116,0.00548 0,0.00781 -8.236e-4,0.00165 -0.00308,0.00226 -0.00391,0.00391 -0.00116,0.00233 0.00116,0.00548 0,0.00781 -0.00165,0.00329 -0.00617,0.00452 -0.00781,0.00781 -5.823e-4,0.00116 5.823e-4,0.00274 0,0.00391 -0.00165,0.00329 -0.00617,0.00452 -0.00781,0.00781 -5.823e-4,0.00116 9.207e-4,0.00299 0,0.00391 -9.207e-4,9.208e-4 -0.00299,-9.207e-4 -0.00391,0 -9.208e-4,9.208e-4 9.207e-4,0.00299 0,0.00391 -0.00184,0.00184 -0.00548,-0.00116 -0.00781,0 -0.00165,8.235e-4 -0.00226,0.00308 -0.00391,0.00391 -0.00116,5.824e-4 -0.00299,-9.207e-4 -0.00391,0 -9.208e-4,9.208e-4 9.207e-4,0.00299 0,0.00391 -0.00184,0.00184 -0.00548,-0.00116 -0.00781,0 -0.00165,8.235e-4 -0.00226,0.00308 -0.00391,0.00391 -0.00233,0.00116 -0.00548,-0.00116 -0.00781,0 -0.00165,8.236e-4 -0.00226,0.00308 -0.00391,0.00391 -0.00119,5.944e-4 -0.00996,0 -0.011719,0 -0.010417,0 -0.020833,0 -0.03125,0 -0.016927,0 -0.033854,0 -0.050781,0 -0.0013,0 -0.0026,0 -0.00391,0 -0.0013,0 -0.00299,9.207e-4 -0.00391,0 -9.208e-4,-9.207e-4 9.207e-4,-0.00299 0,-0.00391 -0.00184,-0.00184 -0.00548,0.00116 -0.00781,0 -0.00329,-0.00165 -0.00452,-0.00617 -0.00781,-0.00781 -0.00116,-5.823e-4 -0.00299,9.208e-4 -0.00391,0 -9.207e-4,-9.207e-4 9.207e-4,-0.00299 0,-0.00391 -9.207e-4,-9.207e-4 -0.00299,9.207e-4 -0.00391,0 -9.208e-4,-9.207e-4 9.207e-4,-0.00299 0,-0.00391 -9.208e-4,-9.207e-4 -0.00299,9.208e-4 -0.00391,0 -9.207e-4,-9.207e-4 9.207e-4,-0.00299 0,-0.00391 -9.207e-4,-9.207e-4 -0.00299,9.207e-4 -0.00391,0 -9.208e-4,-9.207e-4 0,-0.0026 0,-0.00391 0,-0.00651 0,-0.013021 0,-0.019531 0,-9.474e-4 -1.257e-4,-0.011593 0,-0.011719 9.207e-4,-9.207e-4 0.00299,9.208e-4 0.00391,0 9.207e-4,-9.207e-4 -9.207e-4,-0.00299 0,-0.00391 9.207e-4,-9.207e-4 0.00274,5.823e-4 0.00391,0 0.00165,-8.235e-4 0.00226,-0.00308 0.00391,-0.00391 0.00116,-5.823e-4 0.00299,9.208e-4 0.00391,0 9.207e-4,-9.207e-4 -9.208e-4,-0.00299 0,-0.00391 9.207e-4,-9.207e-4 0.00299,9.207e-4 0.00391,0 9.207e-4,-9.207e-4 -9.207e-4,-0.00299 0,-0.00391 9.207e-4,-9.207e-4 0.00299,9.208e-4 0.00391,0 9.207e-4,-9.207e-4 -9.208e-4,-0.00299 0,-0.00391 9.207e-4,-9.207e-4 0.00299,9.207e-4 0.00391,0 0.00184,-0.00184 -0.00184,-0.00597 0,-0.00781 0.00195,-0.00195 0.00977,0.00195 0.011719,0 9.207e-4,-9.207e-4 -9.208e-4,-0.00299 0,-0.00391 9.207e-4,-9.207e-4 0.00299,9.208e-4 0.00391,0 9.207e-4,-9.207e-4 -9.207e-4,-0.00299 0,-0.00391 9.207e-4,-9.207e-4 0.00299,9.207e-4 0.00391,0 9.207e-4,-9.207e-4 -9.208e-4,-0.00299 0,-0.00391 9.207e-4,-9.207e-4 0.00299,9.208e-4 0.00391,0 9.207e-4,-9.207e-4 -9.207e-4,-0.00299 0,-0.00391 0.00184,-0.00184 0.00597,0.00184 0.00781,0 9.207e-4,-9.207e-4 -9.207e-4,-0.00299 0,-0.00391 9.207e-4,-9.207e-4 0.00274,5.824e-4 0.00391,0 0.00329,-0.00165 0.00452,-0.00617 0.00781,-0.00781 0.00116,-5.823e-4 0.00299,9.208e-4 0.00391,0 9.207e-4,-9.207e-4 -5.823e-4,-0.00274 0,-0.00391 0.00813,-0.016257 -2.697e-4,0.00418 0.00781,-0.00391 9.207e-4,-9.207e-4 -9.207e-4,-0.00299 0,-0.00391 9.207e-4,-9.207e-4 0.00299,9.207e-4 0.00391,0 9.207e-4,-9.207e-4 -9.208e-4,-0.00299 0,-0.00391 9.207e-4,-9.207e-4 0.00299,9.208e-4 0.00391,0 9.207e-4,-9.207e-4 -9.207e-4,-0.00299 0,-0.00391 9.207e-4,-9.207e-4 0.00299,9.207e-4 0.00391,0 9.207e-4,-9.207e-4 -9.208e-4,-0.00299 0,-0.00391 0.00184,-0.00184 0.00597,0.00184 0.00781,0 9.207e-4,-9.207e-4 -9.208e-4,-0.00299 0,-0.00391 0.00184,-0.00184 0.00597,0.00184 0.00781,0 9.207e-4,-9.207e-4 -9.208e-4,-0.00299 0,-0.00391 0.00184,-0.00184 0.00597,0.00184 0.00781,0 9.207e-4,-9.207e-4 -9.208e-4,-0.00299 0,-0.00391 0.00184,-0.00184 0.00597,0.00184 0.00781,0 9.207e-4,-9.207e-4 -9.208e-4,-0.00299 0,-0.00391 0.00808,-0.00808 -3.16e-4,0.012351 0.00781,-0.00391 0.00135,-0.0027 -0.00137,-0.01816 0,-0.019531 9.207e-4,-9.207e-4 0.00299,9.208e-4 0.00391,0 1.256e-4,-1.256e-4 0,-0.010771 0,-0.011719 0,-0.016927 0,-0.033854 0,-0.050781 0,-0.00459 6.613e-4,-0.021454 0,-0.023437 -4.118e-4,-0.00124 -0.0026,0 -0.00391,0 -0.0026,0 -0.00521,0 -0.00781,0 -0.010417,0 0.0013,0.0013 -0.00391,-0.00391 -9.207e-4,-9.207e-4 -0.0026,0 -0.00391,0 -0.010417,0 -0.020833,0 -0.03125,0 -0.0013,0 -0.0026,0 -0.00391,0 -0.0013,0 -0.00299,9.207e-4 -0.00391,0 -9.208e-4,-9.207e-4 9.207e-4,-0.00299 0,-0.00391 -9.208e-4,-9.207e-4 -0.0026,0 -0.00391,0 -0.0013,0 -0.0026,0 -0.00391,0 -0.00651,0 -0.013021,0 -0.019531,0 -0.00521,0 -0.010518,0.00102 -0.015625,0 -0.041121,-0.00822 -0.012602,-0.00781 -0.027344,-0.00781"
     id="path1109"
     inkscape:connector-curvature="0" />
  <path
     inkscape:connector-curvature="0"
     style="opacity:1;fill:#ffd000;fill-opacity:1;stroke:none;stroke-width:1.00157475;stroke-linecap:round;stroke-linejoin:round;stroke-miterlimit:4;stroke-dasharray:none;stroke-opacity:1"
     d="m 3.7995593,8.6367188 v 0.78125 A 0.40234375,0.1953125 0 0 0 4.201903,9.6132813 0.40234375,0.1953125 0 0 0 4.6042468,9.4179688 v -0.78125 z"
     id="path849-6-7-1" />
  <ellipse
     style="opacity:1;fill:#0655ff;fill-opacity:1;stroke:#ff0000;stroke-width:0.1;stroke-linecap:round;stroke-linejoin:round;stroke-miterlimit:4;stroke-dasharray:none;stroke-opacity:1"
     id="path954"
     cx="3.7077622"
     cy="8.4921875"
     rx="0.19335938"
     ry="0.25" />
  <path
     inkscape:connector-curvature="0"
     style="opacity:1;fill:#d60b14;fill-opacity:1;stroke:none;stroke-width:1.00157475;stroke-linecap:round;stroke-linejoin:round;stroke-miterlimit:4;stroke-dasharray:none;stroke-opacity:1"
     d="m 3.8776843,8.71875 v 0.65 a 0.32421875,0.1625 0 0 0 0.3242187,0.1625 0.32421875,0.1625 0 0 0 0.3242188,-0.1625 v -0.65 z"
     id="path849-6-7-1-2" />
  <rect
     style="opacity:1;fill:#ffd000;fill-opacity:1;stroke:none;stroke-width:0.5;stroke-linecap:round;stroke-linejoin:round;stroke-miterlimit:4;stroke-dasharray:none;stroke-opacity:1"
     id="rect1143"
     width="0.0859375"
     height="0.8515625"
     x="4.1601562"
     y="8.7070312" />
  <rect
     style="opacity:1;fill:#ffd000;fill-opacity:1;stroke:none;stroke-width:0.50000006;stroke-linecap:round;stroke-linejoin:round;stroke-miterlimit:4;stroke-dasharray:none;stroke-opacity:1"
     id="rect1143-7"
     width="0.085937448"
     height="0.77345932"
     x="9.0738869"
     y="-4.5517511"
     transform="matrix(0.00248039,0.99999692,-0.99999548,0.00300662,0,0)" />
  <path
     style="fill:none;stroke:#ffd000;stroke-width:0.1;stroke-linecap:butt;stroke-linejoin:miter;stroke-opacity:1;stroke-miterlimit:4;stroke-dasharray:none"
     d="M 3.8776843,8.71875 4.4960938,9.4804687"
     id="path1168"
     inkscape:connector-curvature="0" />
  <path
     style="fill:none;stroke:#ffd000;stroke-width:0.1;stroke-linecap:butt;stroke-linejoin:miter;stroke-miterlimit:4;stroke-dasharray:none;stroke-opacity:1"
     d="M 4.5261218,8.71875 3.9077123,9.4804687"
     id="path1168-9"
     inkscape:connector-curvature="0" />
  <ellipse
     style="opacity:1;fill:#537c6f;fill-opacity:1;stroke:none;stroke-width:0.1;stroke-linecap:round;stroke-linejoin:round;stroke-miterlimit:4;stroke-dasharray:none;stroke-opacity:1"
     id="path1185"
     cx="4.1992188"
     cy="9.1015625"
     rx="0.0859375"
     ry="0.08984375" />
  <ellipse
     style="opacity:1;fill:#ed1114;fill-opacity:1;stroke:none;stroke-width:0.1;stroke-linecap:round;stroke-linejoin:round;stroke-miterlimit:4;stroke-dasharray:none;stroke-opacity:1"
     id="path1189"
     cx="3.6933494"
     cy="6.299602"
     rx="0.94226217"
     ry="0.47531056" />
  <path
     style="opacity:1;fill:#ed1114;fill-opacity:1;stroke:none;stroke-width:0.1;stroke-linecap:round;stroke-linejoin:round;stroke-miterlimit:4;stroke-dasharray:none;stroke-opacity:1"
     id="path1191"
     sodipodi:type="arc"
     sodipodi:cx="3.7067864"
     sodipodi:cy="6.7081752"
     sodipodi:rx="0.75682521"
     sodipodi:ry="0.20992233"
     sodipodi:start="0"
     sodipodi:end="3.1415927"
     sodipodi:open="true"
     d="M 4.4636116,6.7081752 A 0.75682521,0.20992233 0 0 1 4.085199,6.8899733 0.75682521,0.20992233 0 0 1 3.3283738,6.8899732 0.75682521,0.20992233 0 0 1 2.9499612,6.7081752" />
  <path
     style="opacity:1;fill:#ed1114;fill-opacity:1;stroke:none;stroke-width:0.1;stroke-linecap:round;stroke-linejoin:round;stroke-miterlimit:4;stroke-dasharray:none;stroke-opacity:1"
     id="path1191-3"
     sodipodi:type="arc"
     sodipodi:cx="3.703125"
     sodipodi:cy="6.6997261"
     sodipodi:rx="0.75682521"
     sodipodi:ry="0.20992233"
     sodipodi:start="0"
     sodipodi:end="3.1415927"
     sodipodi:open="true"
     d="m 4.4599502,6.6997261 a 0.75682521,0.20992233 0 0 1 -0.3784126,0.1817981 0.75682521,0.20992233 0 0 1 -0.7568252,0 0.75682521,0.20992233 0 0 1 -0.3784126,-0.1817981" />
  <path
     style="fill:none;stroke:#e69600;stroke-width:0.1;stroke-linecap:butt;stroke-linejoin:miter;stroke-miterlimit:4;stroke-dasharray:none;stroke-opacity:1"
     d="m 2.9414063,6.6914062 c 0.4981138,-0.082714 0.9993219,-0.1066347 1.5078125,0.00781"
     id="path1213"
     inkscape:connector-curvature="0"
     sodipodi:nodetypes="cc" />
</svg>
