<?xml version="1.0" encoding="UTF-8" standalone="no"?>
<svg
   xmlns:dc="http://purl.org/dc/elements/1.1/"
   xmlns:cc="http://creativecommons.org/ns#"
   xmlns:rdf="http://www.w3.org/1999/02/22-rdf-syntax-ns#"
   xmlns:svg="http://www.w3.org/2000/svg"
   xmlns="http://www.w3.org/2000/svg"
   xmlns:sodipodi="http://sodipodi.sourceforge.net/DTD/sodipodi-0.dtd"
   xmlns:inkscape="http://www.inkscape.org/namespaces/inkscape"
   height="16"
   width="16"
   version="1.1"
   id="svg5"
   sodipodi:docname="flag-es.svg"
   inkscape:version="0.92.1 r">
  <metadata
     id="metadata9">
    <rdf:RDF>
      <cc:Work
         rdf:about="">
        <dc:format>image/svg+xml</dc:format>
        <dc:type
           rdf:resource="http://purl.org/dc/dcmitype/StillImage" />
        <dc:title></dc:title>
      </cc:Work>
    </rdf:RDF>
  </metadata>
  <defs
     id="defs7" />
  <sodipodi:namedview
     id="namedview1"
     showgrid="true"
     inkscape:zoom="29.5"
     inkscape:cx="11.283628"
     inkscape:cy="7.8332306"
     inkscape:window-width="1680"
     inkscape:window-height="1016"
     inkscape:window-x="0"
     inkscape:window-y="0"
     inkscape:window-maximized="1"
     inkscape:current-layer="svg5">
    <inkscape:grid
       type="xygrid"
       id="grid1px"
       empspacing="4" />
    <inkscape:grid
       type="xygrid"
       id="grid1pxdot"
       empspacing="1"
       dotted="true"
       originy="0.5"
       originx="0.5" />
  </sodipodi:namedview>
  <g
     aria-label="ES!"
     style="font-style:normal;font-variant:normal;font-weight:normal;font-stretch:normal;font-size:8.16057968px;line-height:10.33377171px;font-family:contemporary;-inkscape-font-specification:'contemporary, Normal';text-align:start;letter-spacing:0px;word-spacing:0px;writing-mode:lr-tb;text-anchor:start;fill:#000000;fill-opacity:1;stroke:none;stroke-width:0.99999994px;stroke-linecap:butt;stroke-linejoin:miter;stroke-opacity:1"
     id="text4488">
    <path
       d="m 3.6041549,8.5179288 h 2.4971374 q 0.089766,0 0.155051,-0.065285 0.065285,-0.065285 0.065285,-0.1550511 V 8.0038123 q 0,-0.089766 -0.065285,-0.155051 -0.065285,-0.065285 -0.155051,-0.065285 H 3.6041549 V 6.0615943 H 6.280825 q 0.089766,0 0.155051,-0.065285 0.065285,-0.065285 0.065285,-0.155051 V 5.5474778 q 0,-0.089766 -0.065285,-0.155051 -0.065285,-0.065285 -0.155051,-0.065285 H 3.0492355 q -0.089766,0 -0.155051,0.065285 -0.065285,0.065285 -0.065285,0.155051 v 5.2717342 q 0,0.08977 0.065285,0.155051 0.065285,0.06528 0.155051,0.06528 h 3.2968742 q 0.089766,0 0.155051,-0.06528 0.065285,-0.06528 0.065285,-0.155051 v -0.293781 q 0,-0.08977 -0.065285,-0.155051 -0.065285,-0.06528 -0.155051,-0.06528 H 3.6041549 Z"
       style="stroke-width:0.99999994px"
       id="path4492" />
    <path
       d="m 11.485617,6.7226013 q 0.0082,0.073445 -0.04896,0.1305692 -0.05712,0.048964 -0.130569,0.048964 h -0.334584 q -0.09793,0 -0.14689,-0.032642 Q 10.775647,6.8286888 10.718523,6.7226013 10.587954,6.4696233 10.261531,6.2248059 9.9432679,5.9799885 9.4128302,5.9799885 q -0.4896347,0 -0.8323791,0.2203357 -0.3345837,0.2203356 -0.3345837,0.6283646 0,0.2774597 0.1632115,0.4569925 0.1713722,0.1713721 0.505956,0.3019414 0.3427443,0.1224087 1.028233,0.3019415 0.9303061,0.2448174 1.3138531,0.6038829 0.391708,0.3509049 0.391708,0.9629484 0,0.4896347 -0.27746,0.8650215 -0.269299,0.375387 -0.767094,0.587562 -0.497795,0.212175 -1.1506419,0.212175 -0.6038829,0 -1.1016782,-0.228497 Q 7.8541595,10.664161 7.5685392,10.313256 7.2829189,9.9541908 7.2665978,9.6032859 q 0,-0.073445 0.048963,-0.1224087 0.057124,-0.057124 0.1305692,-0.057124 h 0.3345838 q 0.089766,0 0.1468904,0.040803 0.057124,0.032642 0.1060876,0.1387299 0.1305693,0.2937809 0.4733136,0.5385981 0.3509049,0.244818 0.9466272,0.244818 0.5957219,0 1.0037509,-0.252978 0.41619,-0.261139 0.41619,-0.6773285 0,-0.2692992 -0.220336,-0.4488319 Q 10.441063,8.8198702 10.065677,8.6974616 9.69029,8.5668923 8.9639984,8.3791989 8.1724221,8.1751845 7.8215172,7.7916372 7.4706123,7.3999294 7.4706123,6.8286888 q 0,-0.4243501 0.2203356,-0.7834156 0.2203357,-0.3590656 0.661007,-0.5794012 0.4406713,-0.2203357 1.0608753,-0.2203357 0.6202038,0 1.0853568,0.2448174 0.465153,0.2366568 0.718131,0.5875618 0.252978,0.3509049 0.269299,0.6446858 z"
       style="stroke-width:0.99999994px"
       id="path4494" />
    <path
       d="m 13.35592,9.4237531 q 0,0.089766 -0.06528,0.1550511 -0.06528,0.065285 -0.155051,0.065285 h -0.301942 q -0.08977,0 -0.155051,-0.065285 -0.06528,-0.065285 -0.06528,-0.1550511 V 5.5474778 q 0,-0.089766 0.06528,-0.155051 0.06528,-0.065285 0.155051,-0.065285 h 0.301942 q 0.08977,0 0.155051,0.065285 0.06528,0.065285 0.06528,0.155051 z m 0.08161,1.3954589 q 0,0.08977 -0.06528,0.155051 -0.06528,0.06528 -0.155051,0.06528 h -0.465153 q -0.08977,0 -0.155051,-0.06528 -0.06528,-0.06528 -0.06528,-0.155051 v -0.465153 q 0,-0.08977 0.06528,-0.155051 0.06529,-0.06528 0.155051,-0.06528 h 0.465153 q 0.08977,0 0.155051,0.06528 0.06528,0.06529 0.06528,0.155051 z"
       style="stroke-width:0.99999994px"
       id="path4496" />
  </g>
  <rect
     style="opacity:0.98999999;fill:none;fill-opacity:1;fill-rule:nonzero;stroke:#000000;stroke-width:1;stroke-linecap:round;stroke-linejoin:round;stroke-miterlimit:4;stroke-dasharray:none;stroke-dashoffset:0;stroke-opacity:1;paint-order:fill markers stroke"
     id="rect4490"
     width="15"
     height="11"
     x="0.5"
     y="2.5" />
</svg>
