<?xml version="1.0" encoding="UTF-8" standalone="no"?>
<svg
   xmlns:dc="http://purl.org/dc/elements/1.1/"
   xmlns:cc="http://creativecommons.org/ns#"
   xmlns:rdf="http://www.w3.org/1999/02/22-rdf-syntax-ns#"
   xmlns:svg="http://www.w3.org/2000/svg"
   xmlns="http://www.w3.org/2000/svg"
   xmlns:sodipodi="http://sodipodi.sourceforge.net/DTD/sodipodi-0.dtd"
   xmlns:inkscape="http://www.inkscape.org/namespaces/inkscape"
   height="16"
   width="16"
   version="1.1"
   id="svg5"
   sodipodi:docname="calculator-scientific.svg"
   inkscape:version="0.92.2 2405546, 2018-03-11">
  <metadata
     id="metadata9">
    <rdf:RDF>
      <cc:Work
         rdf:about="">
        <dc:format>image/svg+xml</dc:format>
        <dc:type
           rdf:resource="http://purl.org/dc/dcmitype/StillImage" />
        <dc:title></dc:title>
      </cc:Work>
    </rdf:RDF>
  </metadata>
  <defs
     id="defs7" />
  <sodipodi:namedview
     id="namedview1"
     showgrid="true"
     inkscape:zoom="29.5"
     inkscape:cx="2.3295717"
     inkscape:cy="7.014163"
     inkscape:window-width="1920"
     inkscape:window-height="1046"
     inkscape:window-x="0"
     inkscape:window-y="0"
     inkscape:window-maximized="1"
     inkscape:current-layer="svg5">
    <inkscape:grid
       type="xygrid"
       id="grid1px"
       empspacing="4" />
    <inkscape:grid
       type="xygrid"
       id="grid1pxdot"
       empspacing="1"
       dotted="true"
       originy="0.5"
       originx="0.5" />
  </sodipodi:namedview>
  <path
     style="opacity:1;fill:#000000;fill-opacity:1;stroke:none;stroke-width:1;stroke-linecap:round;stroke-linejoin:round;stroke-miterlimit:4;stroke-dasharray:none;stroke-dashoffset:0;stroke-opacity:1;paint-order:normal"
     d="M 1.5 1 A 0.50005 0.50005 0 0 0 1 1.5 L 1 6.5 A 0.50005 0.50005 0 0 0 1.5 7 L 6.5 7 A 0.50005 0.50005 0 0 0 7 6.5 L 7 1.5 A 0.50005 0.50005 0 0 0 6.5 1 L 1.5 1 z M 3.8476562 1.8496094 L 4.1445312 1.8496094 C 4.2035766 1.8496094 4.255886 1.8711205 4.2988281 1.9140625 C 4.3417701 1.9570045 4.3632813 2.009314 4.3632812 2.0683594 L 4.3632812 3.6464844 L 5.9492188 3.6464844 C 6.0082641 3.6464844 6.0586204 3.6679955 6.1015625 3.7109375 C 6.1445045 3.7538795 6.1660156 3.8042359 6.1660156 3.8632812 L 6.1660156 4.1132812 C 6.1660156 4.1723266 6.1445045 4.2226829 6.1015625 4.265625 C 6.0586205 4.308567 6.0082641 4.3300781 5.9492188 4.3300781 L 4.3632812 4.3300781 L 4.3632812 5.9316406 C 4.3632812 5.990686 4.3417701 6.0429954 4.2988281 6.0859375 C 4.2558861 6.1288795 4.2035767 6.1503906 4.1445312 6.1503906 L 3.8476562 6.1503906 C 3.7886109 6.1503906 3.7363014 6.1288795 3.6933594 6.0859375 C 3.6504174 6.0429955 3.6289062 5.9906861 3.6289062 5.9316406 L 3.6289062 4.3300781 L 2.0507812 4.3300781 C 1.9917359 4.3300781 1.9413796 4.308567 1.8984375 4.265625 C 1.8554954 4.2226829 1.8339844 4.1723266 1.8339844 4.1132812 L 1.8339844 3.8632812 C 1.8339844 3.8042359 1.8554955 3.7538796 1.8984375 3.7109375 C 1.9413795 3.6679955 1.9917358 3.6464844 2.0507812 3.6464844 L 3.6289062 3.6464844 L 3.6289062 2.0683594 C 3.6289063 2.009314 3.6504174 1.9570046 3.6933594 1.9140625 C 3.7363014 1.8711205 3.7886109 1.8496094 3.8476562 1.8496094 z "
     id="rect819" />
  <path
     style="opacity:1;fill:#000000;fill-opacity:1;stroke:none;stroke-width:1;stroke-linecap:round;stroke-linejoin:round;stroke-miterlimit:4;stroke-dasharray:none;stroke-dashoffset:0;stroke-opacity:1;paint-order:normal"
     d="M 9.5 1 A 0.50005 0.50005 0 0 0 9 1.5 L 9 6.5 A 0.50005 0.50005 0 0 0 9.5 7 L 14.5 7 A 0.50005 0.50005 0 0 0 15 6.5 L 15 1.5 A 0.50005 0.50005 0 0 0 14.5 1 L 9.5 1 z M 10.8125 3.6542969 L 13.1875 3.6542969 C 13.246547 3.6542969 13.296903 3.675808 13.339844 3.71875 C 13.382784 3.761692 13.404297 3.8120483 13.404297 3.8710938 L 13.404297 4.1289062 C 13.404297 4.1879516 13.382784 4.2383079 13.339844 4.28125 C 13.296904 4.324192 13.246547 4.3457031 13.1875 4.3457031 L 10.8125 4.3457031 C 10.753453 4.3457031 10.703097 4.324192 10.660156 4.28125 C 10.617216 4.238308 10.595703 4.1879517 10.595703 4.1289062 L 10.595703 3.8710938 C 10.595703 3.8120484 10.617216 3.7616921 10.660156 3.71875 C 10.703096 3.675808 10.753453 3.6542969 10.8125 3.6542969 z "
     id="rect829" />
  <path
     style="opacity:1;fill:#000000;fill-opacity:1;stroke:none;stroke-width:1;stroke-linecap:round;stroke-linejoin:round;stroke-miterlimit:4;stroke-dasharray:none;stroke-dashoffset:0;stroke-opacity:1;paint-order:normal"
     d="M 1.5 9 A 0.50005 0.50005 0 0 0 1 9.5 L 1 14.5 A 0.50005 0.50005 0 0 0 1.5 15 L 14.5 15 A 0.50005 0.50005 0 0 0 15 14.5 L 15 9.5 A 0.50005 0.50005 0 0 0 14.5 9 L 1.5 9 z M 7.5742188 9.6914062 L 7.9433594 9.6914062 C 7.9909694 9.6914062 8.0317809 9.7095153 8.0664062 9.7441406 C 8.1010316 9.778766 8.1191406 9.8195774 8.1191406 9.8671875 L 8.1191406 10.238281 C 8.1191406 10.285895 8.1010317 10.326706 8.0664062 10.361328 C 8.031781 10.395955 7.9909694 10.412109 7.9433594 10.412109 L 7.5742188 10.412109 C 7.5266088 10.412109 7.4838442 10.395955 7.4492188 10.361328 C 7.4145934 10.326701 7.3984375 10.28589 7.3984375 10.238281 L 7.3984375 9.8671875 C 7.3984375 9.8195775 7.4145934 9.7787661 7.4492188 9.7441406 C 7.4838441 9.7095153 7.5266086 9.6914062 7.5742188 9.6914062 z M 5.3027344 10.802734 C 5.5710816 10.802734 5.8013256 10.842015 5.9960938 10.919922 C 6.1908619 10.997829 6.3379519 11.094076 6.4375 11.210938 C 6.5413763 11.327798 6.59375 11.440624 6.59375 11.548828 C 6.59375 11.592108 6.5775941 11.631388 6.5429688 11.666016 C 6.5083434 11.696316 6.4655788 11.710936 6.4179688 11.710938 L 6.2050781 11.710938 C 6.1228427 11.710937 6.0573756 11.681687 6.0097656 11.621094 C 5.875592 11.447967 5.6403325 11.361328 5.3027344 11.361328 C 5.103638 11.361328 4.9399704 11.397124 4.8144531 11.470703 C 4.6932641 11.544282 4.6328125 11.645545 4.6328125 11.775391 C 4.6328125 11.883595 4.6640147 11.96717 4.7246094 12.023438 C 4.785204 12.079704 4.8749048 12.123578 4.9960938 12.158203 C 5.1172828 12.19283 5.3333241 12.245203 5.640625 12.314453 C 6.0215049 12.396688 6.2910292 12.522608 6.4511719 12.691406 C 6.6113146 12.860206 6.6914062 13.066216 6.6914062 13.308594 C 6.6914063 13.486049 6.6359702 13.649295 6.5234375 13.800781 C 6.415233 13.952267 6.2565808 14.076655 6.0488281 14.171875 C 5.8454037 14.262767 5.6066598 14.308594 5.3339844 14.308594 C 5.0656371 14.308594 4.8288464 14.267782 4.6210938 14.185547 C 4.4176689 14.098979 4.259017 13.994236 4.1464844 13.873047 C 4.0339516 13.751858 3.9785156 13.637502 3.9785156 13.529297 C 3.9785156 13.486017 3.9946715 13.448267 4.0292969 13.417969 C 4.0639222 13.383342 4.1047336 13.367188 4.1523438 13.367188 L 4.3867188 13.367188 C 4.4256728 13.367187 4.4599374 13.370253 4.4902344 13.378906 C 4.5205317 13.387566 4.5482501 13.412219 4.5742188 13.451172 C 4.7170488 13.650269 4.9704172 13.75 5.3339844 13.75 C 5.5374088 13.75 5.7157012 13.709189 5.8671875 13.626953 C 6.023002 13.54039 6.1015625 13.434111 6.1015625 13.308594 C 6.1015625 13.204718 6.0622823 13.121142 5.984375 13.060547 C 5.9107964 12.995625 5.8029863 12.945204 5.6601562 12.90625 C 5.5173263 12.862969 5.293207 12.809064 4.9902344 12.744141 C 4.3583199 12.609967 4.0429688 12.286116 4.0429688 11.775391 C 4.0429688 11.597935 4.0903269 11.436222 4.1855469 11.289062 C 4.2807669 11.141905 4.4213101 11.026016 4.6074219 10.939453 C 4.7978618 10.848561 5.030059 10.802734 5.3027344 10.802734 z M 10.619141 10.802734 C 10.891816 10.802734 11.135576 10.859701 11.347656 10.976562 C 11.559737 11.093424 11.722982 11.263638 11.839844 11.484375 C 11.961032 11.700784 12.021484 11.957215 12.021484 12.255859 L 12.021484 14.068359 C 12.021484 14.115973 12.00533 14.156784 11.970703 14.191406 C 11.936076 14.226033 11.895265 14.242188 11.847656 14.242188 L 11.607422 14.242188 C 11.559809 14.242188 11.518997 14.226033 11.484375 14.191406 C 11.449748 14.15678 11.431641 14.115968 11.431641 14.068359 L 11.431641 12.353516 C 11.431641 12.028902 11.351549 11.782081 11.191406 11.613281 C 11.031264 11.444483 10.809098 11.361328 10.523438 11.361328 C 10.242104 11.361328 10.017986 11.444483 9.8535156 11.613281 C 9.6933729 11.782081 9.6132814 12.028902 9.6132812 12.353516 L 9.6132812 14.068359 C 9.6132812 14.115973 9.5971253 14.156784 9.5625 14.191406 C 9.5278747 14.226033 9.4851101 14.242188 9.4375 14.242188 L 9.1972656 14.242188 C 9.1496556 14.242188 9.1088441 14.226033 9.0742188 14.191406 C 9.0395934 14.15678 9.0234375 14.115968 9.0234375 14.068359 L 9.0234375 11.042969 C 9.0234375 10.995355 9.0395933 10.954544 9.0742188 10.919922 C 9.108844 10.885295 9.1496555 10.867186 9.1972656 10.867188 L 9.4375 10.867188 C 9.48511 10.867187 9.5278745 10.885295 9.5625 10.919922 C 9.5971253 10.954549 9.6132812 10.99536 9.6132812 11.042969 L 9.6132812 11.244141 C 9.7085014 11.118623 9.8394355 11.013876 10.003906 10.931641 C 10.172705 10.845077 10.376762 10.802734 10.619141 10.802734 z M 7.6386719 10.867188 L 7.8789062 10.867188 C 7.9265163 10.867187 7.9673277 10.885295 8.0019531 10.919922 C 8.0365785 10.954549 8.0546875 10.99536 8.0546875 11.042969 L 8.0546875 14.068359 C 8.0546875 14.115973 8.0365785 14.156784 8.0019531 14.191406 C 7.9673278 14.226033 7.9265163 14.242188 7.8789062 14.242188 L 7.6386719 14.242188 C 7.5910619 14.242188 7.5502504 14.226033 7.515625 14.191406 C 7.4809997 14.15678 7.4628906 14.115968 7.4628906 14.068359 L 7.4628906 11.042969 C 7.4628906 10.995355 7.4809997 10.954544 7.515625 10.919922 C 7.5502503 10.885295 7.5910618 10.867186 7.6386719 10.867188 z "
     id="rect831" />
</svg>
