<?xml version="1.0" encoding="UTF-8" standalone="no"?>
<svg
   xmlns:dc="http://purl.org/dc/elements/1.1/"
   xmlns:cc="http://creativecommons.org/ns#"
   xmlns:rdf="http://www.w3.org/1999/02/22-rdf-syntax-ns#"
   xmlns:svg="http://www.w3.org/2000/svg"
   xmlns="http://www.w3.org/2000/svg"
   xmlns:sodipodi="http://sodipodi.sourceforge.net/DTD/sodipodi-0.dtd"
   xmlns:inkscape="http://www.inkscape.org/namespaces/inkscape"
   height="16"
   width="16"
   id="svg2"
   version="1.1"
   inkscape:version="0.92.4 5da689c313, 2019-01-14"
   sodipodi:docname="call-hold-start.svg">
  <metadata
     id="metadata9">
    <rdf:RDF>
      <cc:Work
         rdf:about="">
        <dc:format>image/svg+xml</dc:format>
        <dc:type
           rdf:resource="http://purl.org/dc/dcmitype/StillImage" />
        <dc:title></dc:title>
      </cc:Work>
    </rdf:RDF>
  </metadata>
  <defs
     id="defs7" />
  <sodipodi:namedview
     id="namedview1"
     showgrid="true"
     inkscape:zoom="16"
     inkscape:cx="9.9086257"
     inkscape:cy="-2.764725"
     inkscape:window-width="1920"
     inkscape:window-height="1046"
     inkscape:window-x="0"
     inkscape:window-y="0"
     inkscape:window-maximized="1"
     inkscape:current-layer="svg2">
    <inkscape:grid
       type="xygrid"
       id="grid1px"
       empspacing="4" />
    <inkscape:grid
       type="xygrid"
       id="grid1pxdot"
       empspacing="1"
       dotted="true"
       originy="0.5"
       originx="0.5" />
  </sodipodi:namedview>
  <path
     inkscape:connector-curvature="0"
     style="opacity:0.98999999;fill:#000000;fill-opacity:1;fill-rule:nonzero;stroke:none;stroke-width:1;stroke-linecap:round;stroke-linejoin:round;stroke-miterlimit:4;stroke-dasharray:none;stroke-dashoffset:0;stroke-opacity:1;paint-order:fill markers stroke"
     d="M 3.492187,0.99999984 A 0.50005,0.50005 0 0 0 3.146484,1.1464842 l -2,2 A 0.50005,0.50005 0 0 0 1,3.4999998 c 0,3.2222222 2.067917,6.2749477 3.646484,7.8535162 0.632733,0.632732 1.508852,1.339553 2.53125,1.964843 A 5,5 0 0 1 7,12 5,5 0 0 1 7.966797,9.0546873 C 7.667122,8.8775739 7.426974,8.7199423 7.353516,8.6464842 7.221367,8.5143353 6.814962,7.8847132 6.517578,7.2304686 6.247669,6.6366681 6.082711,6.0275383 6.046875,5.660156 L 6.853516,4.8535154 a 0.50005,0.50005 0 0 0 0,-0.7070312 l -3,-3 A 0.50005,0.50005 0 0 0 3.492187,0.99999984 Z"
     id="path4484-3" />
  <path
     style="opacity:1;fill:#000000;fill-opacity:1;stroke:none;stroke-width:1.00157475;stroke-linecap:round;stroke-linejoin:round;stroke-miterlimit:4;stroke-dasharray:none;stroke-dashoffset:0;stroke-opacity:1;paint-order:normal"
     d="M 12,8.0000002 A 4,4 0 0 0 8,12 4,4 0 0 0 12,16 4,4 0 0 0 16,12 4,4 0 0 0 12,8.0000002 Z M 10.150391,10 a 0.16668333,0.16668333 0 0 1 0.01563,0 h 1 a 0.16668333,0.16668333 0 0 1 0.167968,0.166016 v 3.667968 A 0.16668333,0.16668333 0 0 1 11.166021,14 h -1 A 0.16668333,0.16668333 0 0 1 10,13.833984 V 10.166016 A 0.16668333,0.16668333 0 0 1 10.150391,10 Z m 2.666015,0 a 0.16668333,0.16668333 0 0 1 0.01758,0 h 1 a 0.16668333,0.16668333 0 0 1 0.166016,0.166016 v 3.667968 A 0.16668333,0.16668333 0 0 1 13.833986,14 h -1 a 0.16668333,0.16668333 0 0 1 -0.16797,-0.166016 V 10.166016 A 0.16668333,0.16668333 0 0 1 12.816406,10 Z"
     id="path880"
     inkscape:connector-curvature="0" />
</svg>
