<?xml version="1.0" encoding="UTF-8" standalone="no"?>
<svg
   xmlns:dc="http://purl.org/dc/elements/1.1/"
   xmlns:cc="http://creativecommons.org/ns#"
   xmlns:rdf="http://www.w3.org/1999/02/22-rdf-syntax-ns#"
   xmlns:svg="http://www.w3.org/2000/svg"
   xmlns="http://www.w3.org/2000/svg"
   xmlns:sodipodi="http://sodipodi.sourceforge.net/DTD/sodipodi-0.dtd"
   xmlns:inkscape="http://www.inkscape.org/namespaces/inkscape"
   height="16"
   width="16"
   version="1.1"
   id="svg5"
   sodipodi:docname="color-picker.svg"
   inkscape:version="0.92.0 r">
  <metadata
     id="metadata9">
    <rdf:RDF>
      <cc:Work
         rdf:about="">
        <dc:format>image/svg+xml</dc:format>
        <dc:type
           rdf:resource="http://purl.org/dc/dcmitype/StillImage" />
        <dc:title></dc:title>
      </cc:Work>
    </rdf:RDF>
  </metadata>
  <defs
     id="defs7" />
  <sodipodi:namedview
     id="namedview1"
     showgrid="true"
     inkscape:zoom="41.7193"
     inkscape:cx="7.9607993"
     inkscape:cy="7.3416489"
     inkscape:window-width="1680"
     inkscape:window-height="1016"
     inkscape:window-x="-4"
     inkscape:window-y="582"
     inkscape:window-maximized="1"
     inkscape:current-layer="svg5">
    <inkscape:grid
       type="xygrid"
       id="grid1px"
       empspacing="4" />
    <inkscape:grid
       type="xygrid"
       id="grid1pxdot"
       empspacing="1"
       dotted="true"
       originy="0.5"
       originx="0.5" />
  </sodipodi:namedview>
  <path
     style="opacity:1;fill:#000000;fill-opacity:1;fill-rule:nonzero;stroke:none;stroke-width:1;stroke-linecap:round;stroke-linejoin:round;stroke-miterlimit:4;stroke-dasharray:none;stroke-dashoffset:0;stroke-opacity:1"
     d="M 12.492188 1 A 0.50005 0.50005 0 0 0 12.146484 1.1464844 L 1.1464844 12.146484 A 0.50005 0.50005 0 0 0 1 12.5 L 1 14.5 A 0.50005 0.50005 0 0 0 1.5 15 L 3.5 15 A 0.50005 0.50005 0 0 0 3.8535156 14.853516 L 14.853516 3.8535156 A 0.50005 0.50005 0 0 0 14.853516 3.1464844 L 12.853516 1.1464844 A 0.50005 0.50005 0 0 0 12.492188 1 z M 13 2.5 A 0.50005 0.50005 0 0 1 13.363281 3.3574219 L 2.8632812 13.857422 A 0.50005 0.50005 0 1 1 2.15625 13.150391 L 12.65625 2.6503906 A 0.50005 0.50005 0 0 1 13 2.5 z "
     id="path4486" />
</svg>
