<?xml version="1.0" encoding="UTF-8" standalone="no"?>
<svg
   xmlns:dc="http://purl.org/dc/elements/1.1/"
   xmlns:cc="http://creativecommons.org/ns#"
   xmlns:rdf="http://www.w3.org/1999/02/22-rdf-syntax-ns#"
   xmlns:svg="http://www.w3.org/2000/svg"
   xmlns="http://www.w3.org/2000/svg"
   xmlns:sodipodi="http://sodipodi.sourceforge.net/DTD/sodipodi-0.dtd"
   xmlns:inkscape="http://www.inkscape.org/namespaces/inkscape"
   sodipodi:docname="debug-run.svg"
   inkscape:version="1.0 (4035a4fb49, 2020-05-01)"
   version="1.1"
   id="svg2"
   width="16"
   height="16">
  <metadata
     id="metadata9">
    <rdf:RDF>
      <cc:Work
         rdf:about="">
        <dc:format>image/svg+xml</dc:format>
        <dc:type
           rdf:resource="http://purl.org/dc/dcmitype/StillImage" />
        <dc:title></dc:title>
      </cc:Work>
    </rdf:RDF>
  </metadata>
  <defs
     id="defs7" />
  <sodipodi:namedview
     inkscape:document-rotation="0"
     inkscape:current-layer="svg2"
     inkscape:window-maximized="1"
     inkscape:window-y="0"
     inkscape:window-x="0"
     inkscape:window-height="1046"
     inkscape:window-width="1920"
     inkscape:cy="8.9635203"
     inkscape:cx="8.6513588"
     inkscape:zoom="41.7193"
     showgrid="true"
     id="namedview1">
    <inkscape:grid
       empspacing="4"
       id="grid1px"
       type="xygrid" />
    <inkscape:grid
       originx="0.5"
       originy="0.5"
       dotted="true"
       empspacing="1"
       id="grid1pxdot"
       type="xygrid" />
  </sodipodi:namedview>
  <path
     d="M 11.939453 8 A 4 4 0 0 0 8 12 A 4 4 0 0 0 12 16 A 4 4 0 0 0 16 12 A 4 4 0 0 0 12 8 A 4 4 0 0 0 11.939453 8 z M 11.978516 9 A 2 3 0 0 1 12 9 A 2 3 0 0 1 13.748047 10.544922 L 14.146484 10.146484 A 0.5 0.5 0 0 1 14.476562 10 A 0.5 0.5 0 0 1 14.853516 10.146484 A 0.5 0.5 0 0 1 14.853516 10.853516 L 13.990234 11.716797 A 2 3 0 0 1 14 12 A 2 3 0 0 1 13.990234 12.283203 L 14.853516 13.146484 A 0.5 0.5 0 0 1 14.853516 13.853516 A 0.5 0.5 0 0 1 14.146484 13.853516 L 13.748047 13.455078 A 2 3 0 0 1 12 15 A 2 3 0 0 1 10.251953 13.455078 L 9.8535156 13.853516 A 0.5 0.5 0 0 1 9.1464844 13.853516 A 0.5 0.5 0 0 1 9.1464844 13.146484 L 10.009766 12.283203 A 2 3 0 0 1 10 12 A 2 3 0 0 1 10.009766 11.716797 L 9.1464844 10.853516 A 0.5 0.5 0 0 1 9.1464844 10.146484 A 0.5 0.5 0 0 1 9.4765625 10 A 0.5 0.5 0 0 1 9.8535156 10.146484 L 10.251953 10.544922 A 2 3 0 0 1 11.978516 9 z M 12 10 A 1 2 0 0 0 11 12 A 1 2 0 0 0 12 14 A 1 2 0 0 0 13 12 A 1 2 0 0 0 12 10 z "
     style="fill:#000000;stroke:none;stroke-linecap:round;stroke-linejoin:round"
     id="path846" />
  <path
     d="M 4.7265625 1 A 0.50005 0.50005 0 0 0 4.25 1.5 L 4.25 14.5 A 0.50005 0.50005 0 0 0 5.1035156 14.853516 L 7.078125 12.878906 A 5 5 0 0 1 7 12 A 5 5 0 0 1 11.048828 7.0917969 L 5.1035156 1.1464844 A 0.50005 0.50005 0 0 0 4.7265625 1 z "
     style="opacity:0.99;fill:#000000;fill-opacity:1;fill-rule:nonzero;stroke:none;stroke-width:1;stroke-linecap:round;stroke-linejoin:round;stroke-miterlimit:4;stroke-dasharray:none;stroke-opacity:1"
     id="path4137" />
  <g
     style="opacity:0.99"
     id="g891" />
</svg>
