<?xml version="1.0" encoding="UTF-8" standalone="no"?>
<svg
   xmlns:dc="http://purl.org/dc/elements/1.1/"
   xmlns:cc="http://creativecommons.org/ns#"
   xmlns:rdf="http://www.w3.org/1999/02/22-rdf-syntax-ns#"
   xmlns:svg="http://www.w3.org/2000/svg"
   xmlns="http://www.w3.org/2000/svg"
   xmlns:sodipodi="http://sodipodi.sourceforge.net/DTD/sodipodi-0.dtd"
   xmlns:inkscape="http://www.inkscape.org/namespaces/inkscape"
   height="16"
   width="16"
   version="1.1"
   id="svg5"
   sodipodi:docname="dialog-ok-apply.svg"
   inkscape:version="0.92.0 r">
  <metadata
     id="metadata9">
    <rdf:RDF>
      <cc:Work
         rdf:about="">
        <dc:format>image/svg+xml</dc:format>
        <dc:type
           rdf:resource="http://purl.org/dc/dcmitype/StillImage" />
        <dc:title></dc:title>
      </cc:Work>
    </rdf:RDF>
  </metadata>
  <defs
     id="defs7" />
  <sodipodi:namedview
     id="namedview1"
     showgrid="true"
     inkscape:zoom="41.7193"
     inkscape:cx="8.0765647"
     inkscape:cy="8.9035282"
     inkscape:window-width="1680"
     inkscape:window-height="1016"
     inkscape:window-x="0"
     inkscape:window-y="0"
     inkscape:window-maximized="1"
     inkscape:current-layer="svg5">
    <inkscape:grid
       type="xygrid"
       id="grid1px"
       empspacing="4" />
    <inkscape:grid
       type="xygrid"
       id="grid1pxdot"
       empspacing="1"
       dotted="true"
       originy="0.5"
       originx="0.5" />
  </sodipodi:namedview>
  <path
     style="opacity:1;fill:none;fill-opacity:1;fill-rule:nonzero;stroke:#000000;stroke-width:1;stroke-linecap:round;stroke-linejoin:round;stroke-miterlimit:4;stroke-dasharray:none;stroke-dashoffset:0;stroke-opacity:1"
     d="M 1.5050501,6.6170335 4.0735929,9.2150206 10.49495,2.7200528"
     id="path4486"
     inkscape:connector-curvature="0" />
  <g
     aria-label="?"
     style="font-style:normal;font-variant:normal;font-weight:normal;font-stretch:normal;font-size:10.11537075px;line-height:12.80913067px;font-family:contemporary;-inkscape-font-specification:'contemporary, Normal';text-align:start;letter-spacing:0px;word-spacing:0px;writing-mode:lr-tb;text-anchor:start;fill:#000000;fill-opacity:1;stroke:none;stroke-width:0.51236522px;stroke-linecap:butt;stroke-linejoin:miter;stroke-opacity:1"
     id="text4490">
    <path
       d="m 11.543365,7.8962499 q 0.657499,0 1.173383,0.2528843 0.526,0.2427689 0.819345,0.6878452 0.303461,0.4349609 0.303461,0.9710756 0,0.404615 -0.141615,0.718191 -0.1315,0.303461 -0.333807,0.526 -0.192192,0.212422 -0.515884,0.485537 -0.434961,0.374269 -0.647384,0.667615 -0.212422,0.293346 -0.212422,0.728307 v 0.141615 q 0,0.111269 -0.08092,0.192192 -0.08092,0.08092 -0.192192,0.08092 h -0.374269 q -0.111269,0 -0.192192,-0.08092 -0.08092,-0.08092 -0.08092,-0.192192 v -0.212423 q 0,-0.404615 0.141615,-0.708076 0.141615,-0.313576 0.333807,-0.525999 0.202308,-0.212423 0.536115,-0.515884 0.424846,-0.364154 0.627153,-0.637269 0.212423,-0.28323 0.212423,-0.667614 0,-0.4855378 -0.404615,-0.7687682 -0.404615,-0.2832304 -0.971076,-0.2832304 -0.54623,0 -0.910383,0.273115 -0.364153,0.273115 -0.505769,0.8395758 -0.02023,0.1011537 -0.101153,0.1618458 -0.070808,0.06069 -0.1618462,0.06069 h -0.434961 q -0.091038,0 -0.1618459,-0.06069 -0.070808,-0.070807 -0.060692,-0.1618458 0.030346,-0.4754224 0.2933457,-0.9306141 0.273115,-0.4551917 0.7889986,-0.7485374 0.526,-0.2933458 1.254306,-0.2933458 z m 0.54623,6.9087981 q 0,0.111269 -0.08092,0.192192 -0.08092,0.08092 -0.192192,0.08092 h -0.576576 q -0.111269,0 -0.192192,-0.08092 -0.08092,-0.08092 -0.08092,-0.192192 v -0.576576 q 0,-0.111269 0.08092,-0.192192 0.08092,-0.08092 0.192192,-0.08092 h 0.576576 q 0.111269,0 0.192192,0.08092 0.08092,0.08092 0.08092,0.192192 z"
       style="stroke-width:0.51236522px"
       id="path4492" />
  </g>
</svg>
