<?xml version="1.0" encoding="UTF-8" standalone="no"?>
<svg
   xmlns:dc="http://purl.org/dc/elements/1.1/"
   xmlns:cc="http://creativecommons.org/ns#"
   xmlns:rdf="http://www.w3.org/1999/02/22-rdf-syntax-ns#"
   xmlns:svg="http://www.w3.org/2000/svg"
   xmlns="http://www.w3.org/2000/svg"
   xmlns:sodipodi="http://sodipodi.sourceforge.net/DTD/sodipodi-0.dtd"
   xmlns:inkscape="http://www.inkscape.org/namespaces/inkscape"
   height="16"
   width="16"
   id="svg2"
   version="1.1"
   inkscape:version="0.92.2 2405546, 2018-03-11"
   sodipodi:docname="document-save-as.svg">
  <metadata
     id="metadata9">
    <rdf:RDF>
      <cc:Work
         rdf:about="">
        <dc:format>image/svg+xml</dc:format>
        <dc:type
           rdf:resource="http://purl.org/dc/dcmitype/StillImage" />
        <dc:title></dc:title>
      </cc:Work>
    </rdf:RDF>
  </metadata>
  <defs
     id="defs7" />
  <sodipodi:namedview
     id="namedview1"
     showgrid="true"
     inkscape:zoom="29.5"
     inkscape:cx="2.3708128"
     inkscape:cy="9.4574515"
     inkscape:window-width="1920"
     inkscape:window-height="1046"
     inkscape:window-x="0"
     inkscape:window-y="0"
     inkscape:window-maximized="1"
     inkscape:current-layer="svg2">
    <inkscape:grid
       type="xygrid"
       id="grid1px"
       empspacing="4" />
    <inkscape:grid
       type="xygrid"
       id="grid1pxdot"
       empspacing="1"
       dotted="true"
       originy="0.5"
       originx="0.5" />
  </sodipodi:namedview>
  <path
     style="opacity:0.98999999;fill:#000000;fill-opacity:1;fill-rule:nonzero;stroke:none;stroke-width:1.10000002;stroke-linecap:round;stroke-linejoin:round;stroke-miterlimit:4;stroke-dasharray:none;stroke-opacity:1"
     d="M 1.5 0.94921875 C 1.1956455 0.94881664 0.94881664 1.1956455 0.94921875 1.5 L 0.94921875 14.5 C 0.94881678 14.804354 1.1956456 15.051183 1.5 15.050781 L 8.0429688 15.050781 A 5 5 0 0 1 7 12 A 5 5 0 0 1 7.0253906 11.515625 A 2.5 2.5 0 0 1 6 9.5 A 2.5 2.5 0 0 1 8.5 7 A 2.5 2.5 0 0 1 9.9335938 7.453125 A 5 5 0 0 1 12 7 A 5 5 0 0 1 15.050781 8.046875 L 15.050781 6.5 C 15.050442 6.354068 14.992127 6.2142517 14.888672 6.1113281 L 9.8886719 1.1113281 C 9.7857483 1.0078728 9.645932 0.94955744 9.5 0.94921875 L 8 0.94921875 L 8 5 L 3 5 L 3 0.94921875 L 1.5 0.94921875 z "
     id="path4137" />
  <circle
     style="opacity:1;fill:#000000;fill-opacity:1;stroke:none;stroke-width:2;stroke-linecap:round;stroke-linejoin:round;stroke-miterlimit:4;stroke-dasharray:none;stroke-opacity:1;paint-order:normal"
     id="path814"
     cx="12"
     cy="12"
     r="4" />
</svg>
