<?xml version="1.0" encoding="UTF-8" standalone="no"?>
<svg
   xmlns:dc="http://purl.org/dc/elements/1.1/"
   xmlns:cc="http://creativecommons.org/ns#"
   xmlns:rdf="http://www.w3.org/1999/02/22-rdf-syntax-ns#"
   xmlns:svg="http://www.w3.org/2000/svg"
   xmlns="http://www.w3.org/2000/svg"
   xmlns:sodipodi="http://sodipodi.sourceforge.net/DTD/sodipodi-0.dtd"
   xmlns:inkscape="http://www.inkscape.org/namespaces/inkscape"
   height="16"
   width="16"
   version="1.1"
   id="svg5"
   sodipodi:docname="edit-delete-shred.svg"
   inkscape:version="1.0.2 (e86c870879, 2021-01-15)">
  <path
     style="fill:#020000;fill-opacity:1;stroke:none;stroke-width:1px;stroke-linecap:butt;stroke-linejoin:miter;stroke-opacity:1"
     d="m 13,8 c 0,3 1.5,7 2,7 h -1.5 c -0.5,0 -2,-4 -2,-7 z"
     id="path894-3"
     sodipodi:nodetypes="ccccc" />
  <path
     style="fill:#020000;fill-opacity:1;stroke:none;stroke-width:1px;stroke-linecap:butt;stroke-linejoin:miter;stroke-opacity:1"
     d="m 11,8 c 0,3 0,7 1,7 h -1.5 c -1,0 -1,-4 -1,-7 z"
     id="path898-6"
     sodipodi:nodetypes="ccccc" />
  <metadata
     id="metadata9">
    <rdf:RDF>
      <cc:Work
         rdf:about="">
        <dc:format>image/svg+xml</dc:format>
        <dc:type
           rdf:resource="http://purl.org/dc/dcmitype/StillImage" />
        <dc:title></dc:title>
      </cc:Work>
    </rdf:RDF>
  </metadata>
  <defs
     id="defs7" />
  <sodipodi:namedview
     id="namedview1"
     showgrid="true"
     inkscape:document-rotation="0"
     inkscape:zoom="30.361397"
     inkscape:cx="10.123597"
     inkscape:cy="9.0447766"
     inkscape:window-width="1920"
     inkscape:window-height="1044"
     inkscape:window-x="2560"
     inkscape:window-y="0"
     inkscape:window-maximized="1"
     inkscape:current-layer="svg5">
    <inkscape:grid
       type="xygrid"
       id="grid1px"
       empspacing="4" />
    <inkscape:grid
       type="xygrid"
       id="grid1pxdot"
       empspacing="1"
       dotted="true"
       originy="0.5"
       originx="0.5" />
  </sodipodi:namedview>
  <path
     id="path845"
     style="opacity:0.99;fill:#000000;fill-opacity:1;fill-rule:nonzero;stroke:none;stroke-width:1.1;stroke-linecap:round;stroke-linejoin:round;stroke-miterlimit:4;stroke-dasharray:none;stroke-opacity:1"
     d="M 3.5 0.94921875 A 0.55005501 0.55005501 0 0 0 2.9492188 1.5 L 2.9492188 7.5 L 13.050781 7.5 L 13.050781 5.5 A 0.55005501 0.55005501 0 0 0 12.888672 5.1113281 L 8.8886719 1.1113281 A 0.55005501 0.55005501 0 0 0 8.5 0.94921875 L 3.5 0.94921875 z M 8.4921875 1.9414062 A 0.55005501 0.55005501 0 0 1 9.0507812 2.5 L 9.0507812 4.9492188 L 11.5 4.9492188 A 0.5507812 0.5507812 0 1 1 11.5 6.0507812 L 8.5 6.0507812 A 0.55005501 0.55005501 0 0 1 7.9492188 5.5 L 7.9492188 2.5 A 0.55005501 0.55005501 0 0 1 8.4921875 1.9414062 z " />
  <path
     style="fill:none;stroke:#000000;stroke-width:1px;stroke-linecap:round;stroke-linejoin:miter;stroke-opacity:1"
     d="m 1.5,7.5 h 13"
     id="path848" />
  <path
     style="fill:#020000;fill-opacity:1;stroke:none;stroke-width:1px;stroke-linecap:butt;stroke-linejoin:miter;stroke-opacity:1"
     d="m 3,8 c 0,3 -1.5,7 -2,7 h 1.5 c 0.5,0 2,-4 2,-7 z"
     id="path894"
     sodipodi:nodetypes="ccccc" />
  <path
     style="fill:#020000;fill-opacity:1;stroke:none;stroke-width:1px;stroke-linecap:butt;stroke-linejoin:miter;stroke-opacity:1"
     d="m 5,8 c 0,3 0,7 -1,7 h 1.5 c 1,0 1,-4 1,-7 z"
     id="path898"
     sodipodi:nodetypes="ccccc" />
  <path
     style="fill:#020000;stroke:none;stroke-width:1px;stroke-linecap:butt;stroke-linejoin:miter;stroke-opacity:1;fill-opacity:1"
     d="m 7,8 v 7 H 8 V 8 Z"
     id="path902" />
  <path
     style="fill:#020000;fill-opacity:1;stroke:none;stroke-width:1px;stroke-linecap:butt;stroke-linejoin:miter;stroke-opacity:1"
     d="m 9,8 v 7 H 8 V 8 Z"
     id="path902-3" />
</svg>
