<?xml version="1.0" encoding="UTF-8" standalone="no"?>
<svg
   xmlns:dc="http://purl.org/dc/elements/1.1/"
   xmlns:cc="http://creativecommons.org/ns#"
   xmlns:rdf="http://www.w3.org/1999/02/22-rdf-syntax-ns#"
   xmlns:svg="http://www.w3.org/2000/svg"
   xmlns="http://www.w3.org/2000/svg"
   xmlns:sodipodi="http://sodipodi.sourceforge.net/DTD/sodipodi-0.dtd"
   xmlns:inkscape="http://www.inkscape.org/namespaces/inkscape"
   height="16"
   width="16"
   version="1.1"
   id="svg5"
   sodipodi:docname="edit-select.svg"
   inkscape:version="0.92.2 2405546, 2018-03-11">
  <metadata
     id="metadata9">
    <rdf:RDF>
      <cc:Work
         rdf:about="">
        <dc:format>image/svg+xml</dc:format>
        <dc:type
           rdf:resource="http://purl.org/dc/dcmitype/StillImage" />
        <dc:title></dc:title>
      </cc:Work>
    </rdf:RDF>
  </metadata>
  <defs
     id="defs7" />
  <sodipodi:namedview
     id="namedview1"
     showgrid="true"
     showguides="false"
     inkscape:zoom="41.7193"
     inkscape:cx="8.9421993"
     inkscape:cy="8.6036615"
     inkscape:window-width="1920"
     inkscape:window-height="1046"
     inkscape:window-x="0"
     inkscape:window-y="0"
     inkscape:window-maximized="1"
     inkscape:current-layer="svg5">
    <inkscape:grid
       type="xygrid"
       id="grid1px"
       empspacing="4" />
    <inkscape:grid
       type="xygrid"
       id="grid1pxdot"
       empspacing="1"
       dotted="true"
       originy="0.5"
       originx="0.5" />
  </sodipodi:namedview>
  <path
     style="opacity:1;fill:#000000;fill-opacity:1;stroke:none;stroke-width:1;stroke-linecap:round;stroke-linejoin:round;stroke-miterlimit:4;stroke-dasharray:none;stroke-opacity:1"
     d="M 1.5 1 A 0.50005 0.50005 0 0 0 1 1.5 L 1 14.5 A 0.50005 0.50005 0 0 0 1.5 15 L 14.5 15 A 0.50005 0.50005 0 0 0 15 14.5 L 15 1.5 A 0.50005 0.50005 0 0 0 14.5 1 L 1.5 1 z M 3.5 3 L 9.5 3 A 0.50005 0.50005 0 0 1 10 3.5 L 10 9.5 A 0.50005 0.50005 0 0 1 9.5 10 L 3.5 10 A 0.50005 0.50005 0 0 1 3 9.5 L 3 3.5 A 0.50005 0.50005 0 0 1 3.5 3 z "
     id="rect819" />
  <path
     style="fill:none;stroke:#000000;stroke-width:1px;stroke-linecap:round;stroke-linejoin:round;stroke-opacity:1"
     d="m 4.5,7 1,1 3,-3"
     id="path823"
     inkscape:connector-curvature="0"
     sodipodi:nodetypes="ccc" />
</svg>
