<?xml version="1.0" encoding="UTF-8" standalone="no"?>
<svg
   xmlns:dc="http://purl.org/dc/elements/1.1/"
   xmlns:cc="http://creativecommons.org/ns#"
   xmlns:rdf="http://www.w3.org/1999/02/22-rdf-syntax-ns#"
   xmlns:svg="http://www.w3.org/2000/svg"
   xmlns="http://www.w3.org/2000/svg"
   xmlns:sodipodi="http://sodipodi.sourceforge.net/DTD/sodipodi-0.dtd"
   xmlns:inkscape="http://www.inkscape.org/namespaces/inkscape"
   height="16"
   width="16"
   version="1.1"
   id="svg5"
   sodipodi:docname="format-font-size-more.svg"
   inkscape:version="0.92.2 2405546, 2018-03-11">
  <metadata
     id="metadata9">
    <rdf:RDF>
      <cc:Work
         rdf:about="">
        <dc:format>image/svg+xml</dc:format>
        <dc:type
           rdf:resource="http://purl.org/dc/dcmitype/StillImage" />
        <dc:title></dc:title>
      </cc:Work>
    </rdf:RDF>
  </metadata>
  <defs
     id="defs7" />
  <sodipodi:namedview
     id="namedview1"
     showgrid="true"
     showguides="false"
     inkscape:zoom="41.7193"
     inkscape:cx="10.434858"
     inkscape:cy="5.9404101"
     inkscape:window-width="1920"
     inkscape:window-height="1046"
     inkscape:window-x="0"
     inkscape:window-y="0"
     inkscape:window-maximized="1"
     inkscape:current-layer="svg5">
    <inkscape:grid
       type="xygrid"
       id="grid1px"
       empspacing="4" />
    <inkscape:grid
       type="xygrid"
       id="grid1pxdot"
       empspacing="1"
       dotted="true"
       originy="0.5"
       originx="0.5" />
  </sodipodi:namedview>
  <path
     style="opacity:1;fill:#000000;fill-opacity:1;stroke:none;stroke-width:1;stroke-linecap:round;stroke-linejoin:round;stroke-miterlimit:4;stroke-dasharray:none;stroke-opacity:1"
     d="M 12 8 A 4 4 0 0 0 8 12 A 4 4 0 0 0 12 16 A 4 4 0 0 0 16 12 A 4 4 0 0 0 12 8 z M 12.007812 10.246094 A 0.50005 0.50005 0 0 1 12.353516 10.392578 L 14.853516 12.892578 A 0.50005 0.50005 0 0 1 14.5 13.746094 L 9.5 13.746094 A 0.50005 0.50005 0 0 1 9.1464844 12.892578 L 11.646484 10.392578 A 0.50005 0.50005 0 0 1 12.007812 10.246094 z "
     id="path819" />
  <path
     style="font-style:normal;font-variant:normal;font-weight:normal;font-stretch:normal;font-size:medium;line-height:1.25;font-family:Contemporary;-inkscape-font-specification:Contemporary;letter-spacing:0px;word-spacing:0px;fill:#000000;fill-opacity:1;stroke:none;stroke-width:1"
     d="M 7.5800781 3.0136719 C 7.2762026 3.0136719 7.0629025 3.1710033 6.9394531 3.484375 L 3.4492188 12.472656 C 3.4112341 12.558122 3.3925781 12.624395 3.3925781 12.671875 C 3.3925781 12.757339 3.4195858 12.833917 3.4765625 12.900391 C 3.5430353 12.957364 3.6196131 12.986328 3.7050781 12.986328 L 4.2324219 12.986328 C 4.5173052 12.986328 4.7016444 12.866309 4.7871094 12.628906 L 5.5292969 10.734375 L 7.1679688 10.734375 A 5 5 0 0 1 7.703125 9.453125 L 6.0273438 9.453125 L 8.0078125 4.3671875 L 9.3261719 7.7773438 A 5 5 0 0 1 10.523438 7.2285156 L 9.0761719 3.484375 C 8.9527224 3.1710033 8.7374692 3.0136719 8.4335938 3.0136719 L 7.5800781 3.0136719 z "
     id="path821" />
</svg>
