<?xml version="1.0" encoding="UTF-8" standalone="no"?>
<svg
   xmlns:dc="http://purl.org/dc/elements/1.1/"
   xmlns:cc="http://creativecommons.org/ns#"
   xmlns:rdf="http://www.w3.org/1999/02/22-rdf-syntax-ns#"
   xmlns:svg="http://www.w3.org/2000/svg"
   xmlns="http://www.w3.org/2000/svg"
   xmlns:sodipodi="http://sodipodi.sourceforge.net/DTD/sodipodi-0.dtd"
   xmlns:inkscape="http://www.inkscape.org/namespaces/inkscape"
   height="16"
   width="16"
   id="svg2"
   version="1.1"
   inkscape:version="0.91 r13725"
   sodipodi:docname="format-text-bold.svg">
  <metadata
     id="metadata9">
    <rdf:RDF>
      <cc:Work
         rdf:about="">
        <dc:format>image/svg+xml</dc:format>
        <dc:type
           rdf:resource="http://purl.org/dc/dcmitype/StillImage" />
        <dc:title></dc:title>
      </cc:Work>
    </rdf:RDF>
  </metadata>
  <defs
     id="defs7" />
  <sodipodi:namedview
     id="namedview1"
     showgrid="true"
     inkscape:zoom="20.85965"
     inkscape:cx="5.3865031"
     inkscape:cy="6.8071881"
     inkscape:window-width="1280"
     inkscape:window-height="766"
     inkscape:window-x="1680"
     inkscape:window-y="250"
     inkscape:window-maximized="1"
     inkscape:current-layer="svg2">
    <inkscape:grid
       type="xygrid"
       id="grid1px"
       empspacing="4" />
    <inkscape:grid
       type="xygrid"
       id="grid1pxdot"
       empspacing="1"
       dotted="true"
       originy="0.5"
       originx="0.5" />
  </sodipodi:namedview>
  <g
     style="font-style:normal;font-weight:normal;font-size:19.74212837px;line-height:125%;font-family:sans-serif;letter-spacing:0px;word-spacing:0px;fill:#000000;fill-opacity:1;stroke:none;stroke-width:1px;stroke-linecap:butt;stroke-linejoin:miter;stroke-opacity:1"
     id="text4137">
    <path
       d="m 2.7782071,1.6232928 q 0,-0.2171634 0.157937,-0.3751004 0.157937,-0.157937 0.3751004,-0.157937 l 5.2908904,0 q 1.5596281,0 2.5269921,0.6120059 0.967365,0.5922639 1.381949,1.4411754 0.414585,0.8489115 0.414585,1.6583388 0,1.1055592 -0.533037,1.7965337 -0.533038,0.6712323 -1.046333,0.9871064 0.829169,0.5527796 1.342464,1.4214332 0.533038,0.8489116 0.533038,1.8952442 0,1.026591 -0.513295,1.954471 -0.493554,0.908138 -1.48066,1.480659 -0.987106,0.572522 -2.3493133,0.572522 l -5.5672802,0 q -0.2171634,0 -0.3751004,-0.157937 -0.157937,-0.157937 -0.157937,-0.3751 l 0,-12.7534152 z m 1.8755022,5.231664 3.7510043,0 q 1.3029805,0 1.9742124,-0.5132953 0.671233,-0.5132953 0.671233,-1.4806596 0,-0.9673643 -0.671233,-1.4806597 Q 9.7076941,2.8670469 8.4047136,2.8670469 l -3.7510043,0 0,3.9879099 z m 0,6.2779972 4.0273941,0 q 1.2634963,0 1.9544706,-0.631748 0.710717,-0.651491 0.710717,-1.599113 0,-0.9673641 -0.671233,-1.6188544 Q 10.003826,8.6317484 8.6811034,8.6317484 l -4.0273941,0 0,4.5012056 z"
       style="font-style:normal;font-variant:normal;font-weight:normal;font-stretch:normal;font-family:contemporary;-inkscape-font-specification:contemporary"
       id="path4142" />
  </g>
</svg>
