<?xml version="1.0" encoding="UTF-8" standalone="no"?>
<svg
   xmlns:dc="http://purl.org/dc/elements/1.1/"
   xmlns:cc="http://creativecommons.org/ns#"
   xmlns:rdf="http://www.w3.org/1999/02/22-rdf-syntax-ns#"
   xmlns:svg="http://www.w3.org/2000/svg"
   xmlns="http://www.w3.org/2000/svg"
   xmlns:sodipodi="http://sodipodi.sourceforge.net/DTD/sodipodi-0.dtd"
   xmlns:inkscape="http://www.inkscape.org/namespaces/inkscape"
   height="16"
   width="16"
   version="1.1"
   id="svg5"
   sodipodi:docname="im-google.svg"
   inkscape:version="0.92.0 r">
  <metadata
     id="metadata9">
    <rdf:RDF>
      <cc:Work
         rdf:about="">
        <dc:format>image/svg+xml</dc:format>
        <dc:type
           rdf:resource="http://purl.org/dc/dcmitype/StillImage" />
        <dc:title></dc:title>
      </cc:Work>
    </rdf:RDF>
  </metadata>
  <defs
     id="defs7" />
  <sodipodi:namedview
     id="namedview1"
     showgrid="true"
     inkscape:zoom="41.7193"
     inkscape:cx="6.8683213"
     inkscape:cy="8.0936704"
     inkscape:window-width="1680"
     inkscape:window-height="1016"
     inkscape:window-x="0"
     inkscape:window-y="0"
     inkscape:window-maximized="1"
     inkscape:current-layer="svg5">
    <inkscape:grid
       type="xygrid"
       id="grid1px"
       empspacing="4" />
    <inkscape:grid
       type="xygrid"
       id="grid1pxdot"
       empspacing="1"
       dotted="true"
       originy="0.5"
       originx="0.5" />
  </sodipodi:namedview>
  <path
     style="color:#000000;font-style:normal;font-variant:normal;font-weight:normal;font-stretch:normal;font-size:medium;line-height:normal;font-family:sans-serif;font-variant-ligatures:normal;font-variant-position:normal;font-variant-caps:normal;font-variant-numeric:normal;font-variant-alternates:normal;font-feature-settings:normal;text-indent:0;text-align:start;text-decoration:none;text-decoration-line:none;text-decoration-style:solid;text-decoration-color:#000000;letter-spacing:normal;word-spacing:normal;text-transform:none;writing-mode:lr-tb;direction:ltr;text-orientation:mixed;dominant-baseline:auto;baseline-shift:baseline;text-anchor:start;white-space:normal;shape-padding:0;clip-rule:nonzero;display:inline;overflow:visible;visibility:visible;opacity:1;isolation:auto;mix-blend-mode:normal;color-interpolation:sRGB;color-interpolation-filters:linearRGB;solid-color:#000000;solid-opacity:1;vector-effect:none;fill:#000000;fill-opacity:1;fill-rule:nonzero;stroke:none;stroke-width:0;stroke-linecap:round;stroke-linejoin:round;stroke-miterlimit:4;stroke-dasharray:none;stroke-dashoffset:0;stroke-opacity:1;color-rendering:auto;image-rendering:auto;shape-rendering:auto;text-rendering:auto;enable-background:accumulate"
     d="M 8.1640625 0.00390625 C 6.5017834 -0.03236484 4.8263146 0.48210893 3.4335938 1.5507812 C 0.64815172 3.6881261 -0.28067617 7.4878998 1.203125 10.669922 C 2.6869262 13.851944 6.1952982 15.582179 9.6230469 14.822266 C 12.979598 14.078136 15.391224 11.135373 15.490234 7.7167969 A 1.0001 1.0001 0 0 0 15.207031 6.7792969 A 1.0001 1.0001 0 0 0 15.205078 6.7773438 A 1.0001 1.0001 0 0 0 15.199219 6.7714844 A 1.0001 1.0001 0 0 0 15.191406 6.7636719 A 1.0001 1.0001 0 0 0 14.341797 6.5 L 8.5 6.5 A 1.0001 1.0001 0 1 0 8.5 8.5 L 13.404297 8.5 C 13.010529 10.641126 11.379553 12.383607 9.1894531 12.869141 C 6.6661597 13.428541 4.1079063 12.166624 3.015625 9.8242188 C 1.9233437 7.4818138 2.6018762 4.7100978 4.6523438 3.1367188 C 6.7028112 1.5633396 9.5552703 1.6257876 11.535156 3.2871094 A 1.0002922 1.0002922 0 1 0 12.820312 1.7539062 C 11.475532 0.62550139 9.8263416 0.04017734 8.1640625 0.00390625 z "
     id="path4494" />
</svg>
