<?xml version="1.0" encoding="UTF-8" standalone="no"?>
<svg
   xmlns:dc="http://purl.org/dc/elements/1.1/"
   xmlns:cc="http://creativecommons.org/ns#"
   xmlns:rdf="http://www.w3.org/1999/02/22-rdf-syntax-ns#"
   xmlns:svg="http://www.w3.org/2000/svg"
   xmlns="http://www.w3.org/2000/svg"
   xmlns:sodipodi="http://sodipodi.sourceforge.net/DTD/sodipodi-0.dtd"
   xmlns:inkscape="http://www.inkscape.org/namespaces/inkscape"
   height="16"
   width="16"
   version="1.1"
   id="svg5"
   sodipodi:docname="insert-page-break.svg"
   inkscape:version="1.0.2 (e86c870879, 2021-01-15)">
  <metadata
     id="metadata9">
    <rdf:RDF>
      <cc:Work
         rdf:about="">
        <dc:format>image/svg+xml</dc:format>
        <dc:type
           rdf:resource="http://purl.org/dc/dcmitype/StillImage" />
        <dc:title></dc:title>
      </cc:Work>
    </rdf:RDF>
  </metadata>
  <defs
     id="defs7" />
  <sodipodi:namedview
     id="namedview1"
     showgrid="true"
     inkscape:zoom="29.5"
     inkscape:cx="11.039506"
     inkscape:cy="7.1306844"
     inkscape:window-width="1920"
     inkscape:window-height="1044"
     inkscape:window-x="6400"
     inkscape:window-y="720"
     inkscape:window-maximized="1"
     inkscape:current-layer="svg5"
     inkscape:document-rotation="0">
    <inkscape:grid
       type="xygrid"
       id="grid1px"
       empspacing="4" />
    <inkscape:grid
       type="xygrid"
       id="grid1pxdot"
       empspacing="1"
       dotted="true"
       originy="0.5"
       originx="0.5" />
  </sodipodi:namedview>
  <path
     style="fill:#000000;fill-opacity:1;stroke:none;stroke-width:1px;stroke-linecap:butt;stroke-linejoin:round;stroke-opacity:1"
     d="M 3.5,9 C 3.2238691,9.0000276 3.0000276,9.2238691 3,9.5 v 7 H 3.5 4 12 12.5 13 v -3 c -2.5e-5,-0.1326 -0.05272,-0.25976 -0.146484,-0.353516 l -4,-3.9999996 C 8.75976,9.0527162 8.6325996,9.0000254 8.5,9 Z m 4.992188,1.992188 C 8.774454,10.987771 9.0044165,11.217734 9,11.5 V 13 h 1.5 c 0.676161,-0.0096 0.676161,1.009563 0,1 h -2 C 8.2238691,13.999972 8.0000276,13.776131 8,13.5 v -2 c -0.00432,-0.276145 0.216043,-0.503504 0.492188,-0.507812 z"
     id="path821"
     sodipodi:nodetypes="cccccccccccccccccccccc" />
  <path
     style="fill:#000000;fill-opacity:1;stroke:#000000;stroke-width:1px;stroke-linecap:butt;stroke-linejoin:round;stroke-opacity:1"
     d="m 3.5,-0.5 v 6 h 9 v -6"
     id="path819"
     inkscape:connector-curvature="0"
     sodipodi:nodetypes="cccc" />
  <path
     style="fill:none;stroke:#000000;stroke-width:1px;stroke-linecap:round;stroke-linejoin:miter;stroke-opacity:1"
     d="m 1.5,7.5 h 13"
     id="path831"
     inkscape:connector-curvature="0" />
</svg>
