<?xml version="1.0" encoding="UTF-8" standalone="no"?>
<svg
   xmlns:dc="http://purl.org/dc/elements/1.1/"
   xmlns:cc="http://creativecommons.org/ns#"
   xmlns:rdf="http://www.w3.org/1999/02/22-rdf-syntax-ns#"
   xmlns:svg="http://www.w3.org/2000/svg"
   xmlns="http://www.w3.org/2000/svg"
   xmlns:sodipodi="http://sodipodi.sourceforge.net/DTD/sodipodi-0.dtd"
   xmlns:inkscape="http://www.inkscape.org/namespaces/inkscape"
   height="16"
   width="16"
   version="1.1"
   id="svg5"
   sodipodi:docname="insert-math-expression.svg"
   inkscape:version="0.92.0 r">
  <metadata
     id="metadata9">
    <rdf:RDF>
      <cc:Work
         rdf:about="">
        <dc:format>image/svg+xml</dc:format>
        <dc:type
           rdf:resource="http://purl.org/dc/dcmitype/StillImage" />
        <dc:title></dc:title>
      </cc:Work>
    </rdf:RDF>
  </metadata>
  <defs
     id="defs7" />
  <sodipodi:namedview
     id="namedview1"
     showgrid="true"
     inkscape:zoom="29.5"
     inkscape:cx="11.599808"
     inkscape:cy="6.2064544"
     inkscape:window-width="1680"
     inkscape:window-height="1016"
     inkscape:window-x="0"
     inkscape:window-y="0"
     inkscape:window-maximized="1"
     inkscape:current-layer="svg5">
    <inkscape:grid
       type="xygrid"
       id="grid1px"
       empspacing="4" />
    <inkscape:grid
       type="xygrid"
       id="grid1pxdot"
       empspacing="1"
       dotted="true"
       originy="0.5"
       originx="0.5" />
  </sodipodi:namedview>
  <g
     aria-label="f(x)"
     style="font-style:normal;font-variant:normal;font-weight:normal;font-stretch:normal;font-size:9.6636467px;line-height:12.23711014px;font-family:contemporary;-inkscape-font-specification:'contemporary, Normal';text-align:start;letter-spacing:0px;word-spacing:0px;writing-mode:lr-tb;text-anchor:start;fill:#000000;fill-opacity:1;stroke:none;stroke-width:1px;stroke-linecap:butt;stroke-linejoin:miter;stroke-opacity:1"
     id="text4488">
    <path
       d="m 4.0241647,5.9561402 q 0.1063001,0 0.1836092,0.077309 0.077309,0.077309 0.077309,0.1836093 v 0.3092367 q 0,0.1063001 -0.077309,0.1836093 -0.077309,0.077309 -0.1836092,0.077309 H 2.7968815 v 3.9331042 q 0,0.1063 -0.077309,0.183609 -0.077309,0.07731 -0.1836093,0.07731 h -0.357555 q -0.1063001,0 -0.1836093,-0.07731 -0.077309,-0.07731 -0.077309,-0.183609 V 6.7872138 H 1.1057434 q -0.10630016,0 -0.18360934,-0.077309 -0.0773092,-0.077309 -0.0773092,-0.1836093 V 6.2170586 q 0,-0.1063001 0.0773092,-0.1836093 0.0773092,-0.077309 0.18360934,-0.077309 H 1.9174897 V 5.4729578 q 0,-0.8310736 0.3865458,-1.2369467 0.3865459,-0.4058732 1.2079559,-0.4058732 h 0.6088097 q 0.1063001,0 0.1836093,0.077309 0.077309,0.077309 0.077309,0.1836093 v 0.3092367 q 0,0.1063001 -0.077309,0.1836092 -0.077309,0.077309 -0.1836093,0.077309 H 3.6086278 q -0.4735186,0 -0.6474643,0.2222639 -0.164282,0.2222639 -0.164282,0.6378007 v 0.4348641 z"
       style="stroke-width:1px"
       id="path4490" />
    <path
       d="m 4.9869055,7.9951696 q 0,-1.6331563 0.1836093,-2.5898573 0.1836093,-0.9663647 0.6667916,-1.4398833 0.492846,-0.4831824 1.4012288,-0.4831824 0.1063001,0 0.1836093,0.077309 0.077309,0.077309 0.077309,0.1836093 v 0.3092367 q 0,0.1063001 -0.077309,0.1836093 -0.077309,0.077309 -0.1836093,0.077309 -0.5991461,0 -0.8987191,0.4058732 -0.2899094,0.3962095 -0.3865459,1.1596376 -0.086973,0.7634281 -0.086973,2.1163386 0,1.3529106 0.086973,2.1260024 0.096636,0.763428 0.3865459,1.159638 0.299573,0.405873 0.8987191,0.405873 0.1063001,0 0.1836093,0.07731 0.077309,0.07731 0.077309,0.183609 v 0.309237 q 0,0.1063 -0.077309,0.183609 -0.077309,0.07731 -0.1836093,0.07731 -0.9083828,0 -1.4012288,-0.483182 Q 5.3541241,11.561055 5.1705148,10.594691 4.9869055,9.6283259 4.9869055,7.9951696 Z"
       style="stroke-width:1px"
       id="path4492" />
    <path
       d="m 8.6841562,10.797627 q -0.067646,0.07731 -0.1352911,0.135291 -0.067646,0.04832 -0.1739456,0.04832 H 7.9303917 q -0.096637,0 -0.164282,-0.06765 -0.067646,-0.06765 -0.067646,-0.154618 0,-0.07731 0.038655,-0.135291 L 9.5055661,8.4107064 7.8337552,6.3136951 q -0.038654,-0.057982 -0.038654,-0.1352911 0,-0.086973 0.067646,-0.1546183 0.067646,-0.067646 0.164282,-0.067646 h 0.463855 q 0.1063001,0 0.1739457,0.057982 0.067645,0.048318 0.135291,0.1256274 l 1.2852651,1.613829 1.275601,-1.613829 q 0.06765,-0.077309 0.135291,-0.1256274 0.06765,-0.057982 0.173946,-0.057982 h 0.444528 q 0.09664,0 0.164282,0.067646 0.06765,0.067645 0.06765,0.1546183 0,0.077309 -0.03865,0.1352911 l -1.681475,2.1163386 1.74912,2.1936483 q 0.03866,0.05798 0.03866,0.135291 0,0.08697 -0.06765,0.154618 -0.06765,0.06765 -0.164282,0.06765 h -0.463855 q -0.1063,0 -0.173945,-0.04832 -0.06765,-0.05798 -0.135291,-0.135291 L 10.04673,9.0871617 Z"
       style="stroke-width:1px"
       id="path4494" />
    <path
       d="m 12.642627,11.947601 q 0,-0.1063 0.07731,-0.183609 0.07731,-0.07731 0.18361,-0.07731 0.599146,0 0.889055,-0.405873 0.299573,-0.39621 0.386546,-1.159638 0.09664,-0.7730918 0.09664,-2.1260024 0,-1.3529105 -0.09664,-2.1163386 -0.08697,-0.7634281 -0.386546,-1.1596376 -0.289909,-0.4058732 -0.889055,-0.4058732 -0.1063,0 -0.18361,-0.077309 -0.07731,-0.077309 -0.07731,-0.1836093 V 3.7431651 q 0,-0.1063001 0.07731,-0.1836093 0.07731,-0.077309 0.18361,-0.077309 0.908383,0 1.391565,0.4831824 0.492846,0.4735186 0.676455,1.4398833 0.183609,0.956701 0.183609,2.5898573 0,1.6331563 -0.183609,2.5995214 -0.183609,0.966364 -0.676455,1.439883 -0.483182,0.483182 -1.391565,0.483182 -0.1063,0 -0.18361,-0.07731 -0.07731,-0.07731 -0.07731,-0.183609 z"
       style="stroke-width:1px"
       id="path4496" />
  </g>
</svg>
