<?xml version="1.0" encoding="UTF-8" standalone="no"?>
<svg
   xmlns:dc="http://purl.org/dc/elements/1.1/"
   xmlns:cc="http://creativecommons.org/ns#"
   xmlns:rdf="http://www.w3.org/1999/02/22-rdf-syntax-ns#"
   xmlns:svg="http://www.w3.org/2000/svg"
   xmlns="http://www.w3.org/2000/svg"
   xmlns:sodipodi="http://sodipodi.sourceforge.net/DTD/sodipodi-0.dtd"
   xmlns:inkscape="http://www.inkscape.org/namespaces/inkscape"
   height="16"
   width="16"
   version="1.1"
   id="svg5"
   sodipodi:docname="mail-sent.svg"
   inkscape:version="0.92.0 r">
  <metadata
     id="metadata9">
    <rdf:RDF>
      <cc:Work
         rdf:about="">
        <dc:format>image/svg+xml</dc:format>
        <dc:type
           rdf:resource="http://purl.org/dc/dcmitype/StillImage" />
        <dc:title></dc:title>
      </cc:Work>
    </rdf:RDF>
  </metadata>
  <defs
     id="defs7" />
  <sodipodi:namedview
     id="namedview1"
     showgrid="true"
     inkscape:zoom="29.5"
     inkscape:cx="10.465259"
     inkscape:cy="4.6857722"
     inkscape:window-width="1680"
     inkscape:window-height="1016"
     inkscape:window-x="0"
     inkscape:window-y="0"
     inkscape:window-maximized="1"
     inkscape:current-layer="svg5">
    <inkscape:grid
       type="xygrid"
       id="grid1px"
       empspacing="4" />
    <inkscape:grid
       type="xygrid"
       id="grid1pxdot"
       empspacing="1"
       dotted="true"
       originy="0.5"
       originx="0.5" />
  </sodipodi:namedview>
  <path
     style="opacity:1;fill:#000000;fill-opacity:1;fill-rule:nonzero;stroke:none;stroke-width:1;stroke-linecap:round;stroke-linejoin:round;stroke-miterlimit:4;stroke-dasharray:none;stroke-dashoffset:0;stroke-opacity:0.98845269"
     d="M 1.859375 3 L 8 7.3847656 L 14.140625 3 L 1.859375 3 z M 1 3.6132812 L 1 12.5 A 0.50005 0.50005 0 0 0 1.5 13 L 7.1054688 13 A 5 5 0 0 1 7 12 A 5 5 0 0 1 12 7 A 5 5 0 0 1 15 8.0078125 L 15 3.6132812 L 8.2910156 8.40625 A 0.50005 0.50005 0 0 1 7.7089844 8.40625 L 1 3.6132812 z "
     id="rect4492" />
  <path
     style="opacity:1;fill:#000000;fill-opacity:1;fill-rule:nonzero;stroke:none;stroke-width:1;stroke-linecap:round;stroke-linejoin:round;stroke-miterlimit:4;stroke-dasharray:none;stroke-dashoffset:0;stroke-opacity:0.98845269"
     d="M 12 8 A 4 4 0 0 0 8 12 A 4 4 0 0 0 12 16 A 4 4 0 0 0 16 12 A 4 4 0 0 0 12 8 z M 9.8945312 9.3007812 A 0.20000333 0.20000333 0 0 1 9.9726562 9.3144531 L 15.171875 11.3125 A 0.20000333 0.20000333 0 0 1 15.099609 11.699219 L 11.5 11.699219 A 0.20000333 0.20000333 0 0 1 11.34375 11.625 L 9.7441406 9.625 A 0.20000333 0.20000333 0 0 1 9.8945312 9.3007812 z M 11.5 12.5 L 15.099609 12.5 A 0.20000333 0.20000333 0 0 1 15.171875 12.886719 L 9.9726562 14.886719 A 0.20000333 0.20000333 0 0 1 9.7441406 14.574219 L 11.34375 12.574219 A 0.20000333 0.20000333 0 0 1 11.5 12.5 z "
     id="path4484" />
</svg>
