<?xml version="1.0" encoding="UTF-8" standalone="no"?>
<svg
   xmlns:dc="http://purl.org/dc/elements/1.1/"
   xmlns:cc="http://creativecommons.org/ns#"
   xmlns:rdf="http://www.w3.org/1999/02/22-rdf-syntax-ns#"
   xmlns:svg="http://www.w3.org/2000/svg"
   xmlns="http://www.w3.org/2000/svg"
   xmlns:sodipodi="http://sodipodi.sourceforge.net/DTD/sodipodi-0.dtd"
   xmlns:inkscape="http://www.inkscape.org/namespaces/inkscape"
   height="16"
   width="16"
   version="1.1"
   id="svg5"
   sodipodi:docname="mail-mark-important.svg"
   inkscape:version="0.92.0 r">
  <metadata
     id="metadata9">
    <rdf:RDF>
      <cc:Work
         rdf:about="">
        <dc:format>image/svg+xml</dc:format>
        <dc:type
           rdf:resource="http://purl.org/dc/dcmitype/StillImage" />
        <dc:title></dc:title>
      </cc:Work>
    </rdf:RDF>
  </metadata>
  <defs
     id="defs7" />
  <sodipodi:namedview
     id="namedview1"
     showgrid="true"
     inkscape:zoom="59"
     inkscape:cx="10.929713"
     inkscape:cy="5.1457568"
     inkscape:window-width="1680"
     inkscape:window-height="1016"
     inkscape:window-x="0"
     inkscape:window-y="0"
     inkscape:window-maximized="1"
     inkscape:current-layer="svg5">
    <inkscape:grid
       type="xygrid"
       id="grid1px"
       empspacing="4" />
    <inkscape:grid
       type="xygrid"
       id="grid1pxdot"
       empspacing="1"
       dotted="true"
       originy="0.5"
       originx="0.5" />
  </sodipodi:namedview>
  <path
     style="opacity:1;fill:#000000;fill-opacity:1;fill-rule:nonzero;stroke:none;stroke-width:1;stroke-linecap:round;stroke-linejoin:round;stroke-miterlimit:4;stroke-dasharray:none;stroke-dashoffset:0;stroke-opacity:0.98845269"
     d="M 1.859375 3 L 8 7.3847656 L 14.140625 3 L 1.859375 3 z M 1 3.6132812 L 1 12.5 A 0.50005 0.50005 0 0 0 1.5 13 L 7.1054688 13 A 5 5 0 0 1 7 12 A 5 5 0 0 1 12 7 A 5 5 0 0 1 15 8.0078125 L 15 3.6132812 L 8.2910156 8.40625 A 0.50005 0.50005 0 0 1 7.7089844 8.40625 L 1 3.6132812 z "
     id="rect4492" />
  <path
     style="opacity:1;fill:#000000;fill-opacity:1;fill-rule:nonzero;stroke:none;stroke-width:1;stroke-linecap:round;stroke-linejoin:round;stroke-miterlimit:4;stroke-dasharray:none;stroke-dashoffset:0;stroke-opacity:0.98845269"
     d="M 12 8 A 4 4 0 0 0 8 12 A 4 4 0 0 0 12 16 A 4 4 0 0 0 16 12 A 4 4 0 0 0 12 8 z M 12 9 C 13.650932 9 15 10.349068 15 12 C 15 13.650932 13.650932 15 12 15 C 10.349068 15 9 13.650932 9 12 C 9 10.349068 10.349068 9 12 9 z M 12 10 C 10.889508 10 10 10.889508 10 12 C 10 13.110492 10.889508 14 12 14 C 13.110492 14 14 13.110492 14 12 C 14 10.889508 13.110492 10 12 10 z "
     id="path4484" />
</svg>
