<?xml version="1.0" encoding="UTF-8" standalone="no"?>
<svg
   xmlns:dc="http://purl.org/dc/elements/1.1/"
   xmlns:cc="http://creativecommons.org/ns#"
   xmlns:rdf="http://www.w3.org/1999/02/22-rdf-syntax-ns#"
   xmlns:svg="http://www.w3.org/2000/svg"
   xmlns="http://www.w3.org/2000/svg"
   xmlns:sodipodi="http://sodipodi.sourceforge.net/DTD/sodipodi-0.dtd"
   xmlns:inkscape="http://www.inkscape.org/namespaces/inkscape"
   height="16"
   width="16"
   version="1.1"
   id="svg5"
   sodipodi:docname="mail-receive.svg"
   inkscape:version="0.92.0 r">
  <metadata
     id="metadata9">
    <rdf:RDF>
      <cc:Work
         rdf:about="">
        <dc:format>image/svg+xml</dc:format>
        <dc:type
           rdf:resource="http://purl.org/dc/dcmitype/StillImage" />
        <dc:title></dc:title>
      </cc:Work>
    </rdf:RDF>
  </metadata>
  <defs
     id="defs7" />
  <sodipodi:namedview
     id="namedview1"
     showgrid="true"
     inkscape:zoom="41.7193"
     inkscape:cx="11.608652"
     inkscape:cy="4.5924768"
     inkscape:window-width="1680"
     inkscape:window-height="1016"
     inkscape:window-x="0"
     inkscape:window-y="0"
     inkscape:window-maximized="1"
     inkscape:current-layer="svg5">
    <inkscape:grid
       type="xygrid"
       id="grid1px"
       empspacing="4" />
    <inkscape:grid
       type="xygrid"
       id="grid1pxdot"
       empspacing="1"
       dotted="true"
       originy="0.5"
       originx="0.5" />
  </sodipodi:namedview>
  <path
     style="opacity:1;fill:#000000;fill-opacity:1;fill-rule:nonzero;stroke:none;stroke-width:1;stroke-linecap:round;stroke-linejoin:round;stroke-miterlimit:4;stroke-dasharray:none;stroke-dashoffset:0;stroke-opacity:0.98845269"
     d="M 1.859375 3 L 8 7.3847656 L 14.140625 3 L 1.859375 3 z M 1 3.6132812 L 1 12.5 A 0.50005 0.50005 0 0 0 1.5 13 L 7.1054688 13 A 5 5 0 0 1 7 12 A 5 5 0 0 1 12 7 A 5 5 0 0 1 15 8.0078125 L 15 3.6132812 L 8.2910156 8.40625 A 0.50005 0.50005 0 0 1 7.7089844 8.40625 L 1 3.6132812 z "
     id="rect4492" />
  <path
     style="opacity:1;fill:#000000;fill-opacity:1;fill-rule:nonzero;stroke:none;stroke-width:1;stroke-linecap:round;stroke-linejoin:round;stroke-miterlimit:4;stroke-dasharray:none;stroke-dashoffset:0;stroke-opacity:0.98845269"
     d="M 12 8 A 4 4 0 0 0 8 12 A 4 4 0 0 0 12 16 A 4 4 0 0 0 16 12 A 4 4 0 0 0 12 8 z M 10.492188 8.9921875 A 0.50005 0.50005 0 0 1 11 9.5 L 11 11.464844 A 0.50005 0.50005 0 0 1 11.492188 10.992188 A 0.50005 0.50005 0 0 1 12 11.5 A 0.50005 0.50005 0 0 1 12.492188 10.992188 A 0.50005 0.50005 0 0 1 13 11.5 A 0.50005 0.50005 0 0 1 13.492188 10.992188 A 0.50005 0.50005 0 0 1 14 11.5 L 14 12.5 A 0.50005 0.50005 0 0 1 14 12.535156 L 14 14.5 A 0.50005 0.50005 0 0 1 13.5 15 L 11.5 15 A 0.50005 0.50005 0 0 1 11.146484 14.853516 L 10.183594 13.888672 A 0.50005 0.50005 0 0 1 10.146484 13.853516 L 10.117188 13.822266 L 9.1464844 12.853516 A 0.50005 0.50005 0 0 1 9.4941406 11.994141 A 0.50005 0.50005 0 0 1 9.8535156 12.146484 L 10 12.292969 L 10 9.5 A 0.50005 0.50005 0 0 1 10.492188 8.9921875 z "
     id="path4487" />
</svg>
