<?xml version="1.0" encoding="UTF-8" standalone="no"?>
<svg
   xmlns:dc="http://purl.org/dc/elements/1.1/"
   xmlns:cc="http://creativecommons.org/ns#"
   xmlns:rdf="http://www.w3.org/1999/02/22-rdf-syntax-ns#"
   xmlns:svg="http://www.w3.org/2000/svg"
   xmlns="http://www.w3.org/2000/svg"
   xmlns:sodipodi="http://sodipodi.sourceforge.net/DTD/sodipodi-0.dtd"
   xmlns:inkscape="http://www.inkscape.org/namespaces/inkscape"
   height="16"
   width="16"
   version="1.1"
   id="svg5"
   sodipodi:docname="mail-queue.svg"
   inkscape:version="0.92.0 r">
  <metadata
     id="metadata9">
    <rdf:RDF>
      <cc:Work
         rdf:about="">
        <dc:format>image/svg+xml</dc:format>
        <dc:type
           rdf:resource="http://purl.org/dc/dcmitype/StillImage" />
        <dc:title></dc:title>
      </cc:Work>
    </rdf:RDF>
  </metadata>
  <defs
     id="defs7" />
  <sodipodi:namedview
     id="namedview1"
     showgrid="true"
     inkscape:zoom="29.5"
     inkscape:cx="7.3347469"
     inkscape:cy="9.8155733"
     inkscape:window-width="1680"
     inkscape:window-height="1016"
     inkscape:window-x="0"
     inkscape:window-y="0"
     inkscape:window-maximized="1"
     inkscape:current-layer="svg5">
    <inkscape:grid
       type="xygrid"
       id="grid1px"
       empspacing="4" />
    <inkscape:grid
       type="xygrid"
       id="grid1pxdot"
       empspacing="1"
       dotted="true"
       originy="0.5"
       originx="0.5" />
  </sodipodi:namedview>
  <path
     style="opacity:1;fill:#000000;fill-opacity:1;fill-rule:nonzero;stroke:none;stroke-width:1;stroke-linecap:round;stroke-linejoin:round;stroke-miterlimit:4;stroke-dasharray:none;stroke-dashoffset:0;stroke-opacity:0.98845269"
     d="M 1.484375 1 A 0.50005 0.50005 0 0 0 1.109375 1.8125 L 5.109375 6.8125 A 0.50005 0.50005 0 0 0 5.5 7 L 12 7 L 14.5 7 A 0.50005 0.50005 0 0 0 14.679688 6.0332031 L 1.6796875 1.0332031 A 0.50005 0.50005 0 0 0 1.484375 1 z M 5.5 9 A 0.50005 0.50005 0 0 0 5.109375 9.1875 L 1.109375 14.1875 A 0.50005 0.50005 0 0 0 1.6796875 14.966797 L 7.0820312 12.888672 A 5 5 0 0 1 7 12 A 5 5 0 0 1 8.0078125 9 L 5.5 9 z "
     id="path4486" />
  <path
     style="opacity:1;fill:#000000;fill-opacity:1;fill-rule:nonzero;stroke:none;stroke-width:1;stroke-linecap:round;stroke-linejoin:round;stroke-miterlimit:4;stroke-dasharray:none;stroke-dashoffset:0;stroke-opacity:1"
     d="M 12 8 A 4 4 0 0 0 8 12 A 4 4 0 0 0 12 16 A 4 4 0 0 0 16 12 A 4 4 0 0 0 12 8 z M 11.492188 8.9921875 A 0.50005 0.50005 0 0 1 12 9.5 L 12 12 L 14.5 12 A 0.50005 0.50005 0 1 1 14.5 13 L 11.5 13 A 0.50005 0.50005 0 0 1 11 12.5 L 11 9.5 A 0.50005 0.50005 0 0 1 11.492188 8.9921875 z "
     id="path4507" />
</svg>
