<?xml version="1.0" encoding="UTF-8" standalone="no"?>
<svg
   height="16"
   width="16"
   id="svg2"
   version="1.1"
   inkscape:version="1.1.1 (3bf5ae0d25, 2021-09-20, custom)"
   sodipodi:docname="media-optical-erase.svg"
   xmlns:inkscape="http://www.inkscape.org/namespaces/inkscape"
   xmlns:sodipodi="http://sodipodi.sourceforge.net/DTD/sodipodi-0.dtd"
   xmlns="http://www.w3.org/2000/svg"
   xmlns:svg="http://www.w3.org/2000/svg"
   xmlns:rdf="http://www.w3.org/1999/02/22-rdf-syntax-ns#"
   xmlns:cc="http://creativecommons.org/ns#"
   xmlns:dc="http://purl.org/dc/elements/1.1/">
  <metadata
     id="metadata9">
    <rdf:RDF>
      <cc:Work
         rdf:about="">
        <dc:format>image/svg+xml</dc:format>
        <dc:type
           rdf:resource="http://purl.org/dc/dcmitype/StillImage" />
      </cc:Work>
    </rdf:RDF>
  </metadata>
  <defs
     id="defs7" />
  <sodipodi:namedview
     id="namedview1"
     showgrid="true"
     inkscape:zoom="29.5"
     inkscape:cx="8.3220339"
     inkscape:cy="16.084746"
     inkscape:window-width="3840"
     inkscape:window-height="2100"
     inkscape:window-x="0"
     inkscape:window-y="24"
     inkscape:window-maximized="1"
     inkscape:current-layer="svg2"
     pagecolor="#505050"
     bordercolor="#eeeeee"
     borderopacity="1"
     inkscape:pageshadow="0"
     inkscape:pageopacity="0"
     inkscape:pagecheckerboard="0">
    <inkscape:grid
       type="xygrid"
       id="grid1px"
       empspacing="4" />
    <inkscape:grid
       type="xygrid"
       id="grid1pxdot"
       empspacing="1"
       dotted="true"
       originy="0.5"
       originx="0.5" />
  </sodipodi:namedview>
  <path
     id="path4139"
     style="color:#000000;fill:#000000;stroke-linecap:round;stroke-linejoin:round;-inkscape-stroke:none;opacity:0.99"
     d="M 8 6 C 6.9013539 6 6 6.9013539 6 8 C 6 8.3634491 6.099688 8.7052236 6.2714844 9 L 8 9 C 7.4417935 9 7 8.5582065 7 8 C 7 7.4417935 7.4417935 7 8 7 C 8.5582065 7 9 7.4417935 9 8 C 9 8.5582065 8.5582065 9 8 9 L 9.7285156 9 C 9.900312 8.7052236 10 8.3634491 10 8 C 10 6.9013539 9.0986461 6 8 6 z " />
  <path
     id="path2533"
     style="color:#000000;fill:#000000;stroke-linecap:round;stroke-linejoin:round;-inkscape-stroke:none"
     d="M 8 1 C 4.1399329 1 1 4.1399329 1 8 C 1 8.3396473 1.0252939 8.673152 1.0722656 9 L 2.0839844 9 C 2.0296953 8.6748893 2 8.3407935 2 8 C 2 4.6803725 4.6803725 2 8 2 C 11.319627 2 14 4.6803725 14 8 C 14 8.3407935 13.970305 8.6748893 13.916016 9 L 14.927734 9 C 14.974706 8.673152 15 8.3396473 15 8 C 15 4.1399329 11.860067 1 8 1 z " />
  <rect
     style="fill:#000000;fill-opacity:1;stroke:#000000;stroke-linecap:round;stroke-linejoin:round;stroke-opacity:1"
     id="rect2659"
     width="7"
     height="4"
     x="1.5"
     y="10.5" />
  <circle
     style="fill:none;fill-opacity:1;stroke:#000000;stroke-linecap:round;stroke-linejoin:round;stroke-opacity:1"
     id="path2705"
     cx="9.5"
     cy="11.5"
     r="1" />
  <circle
     style="fill:none;fill-opacity:1;stroke:#000000;stroke-linecap:round;stroke-linejoin:round;stroke-opacity:1"
     id="path2737"
     cx="11.25"
     cy="13.25"
     r="1.25" />
  <circle
     style="fill:none;fill-opacity:1;stroke:#000000;stroke-linecap:round;stroke-linejoin:round;stroke-opacity:1"
     id="path2739"
     cx="13.5"
     cy="11.5"
     r="1" />
</svg>
