<?xml version="1.0" encoding="UTF-8" standalone="no"?>
<svg
   height="16"
   width="16"
   version="1.1"
   id="svg5"
   sodipodi:docname="nearby-share.svg"
   inkscape:version="1.2.2 (b0a8486541, 2022-12-01)"
   xmlns:inkscape="http://www.inkscape.org/namespaces/inkscape"
   xmlns:sodipodi="http://sodipodi.sourceforge.net/DTD/sodipodi-0.dtd"
   xmlns="http://www.w3.org/2000/svg"
   xmlns:svg="http://www.w3.org/2000/svg">
  <defs
     id="defs7" />
  <sodipodi:namedview
     id="namedview1"
     showgrid="true"
     pagecolor="#505050"
     bordercolor="#eeeeee"
     borderopacity="1"
     inkscape:showpageshadow="0"
     inkscape:pageopacity="0"
     inkscape:pagecheckerboard="0"
     inkscape:deskcolor="#505050"
     inkscape:zoom="16.046875"
     inkscape:cx="16.420643"
     inkscape:cy="-7.9143135"
     inkscape:window-width="2560"
     inkscape:window-height="1403"
     inkscape:window-x="0"
     inkscape:window-y="0"
     inkscape:window-maximized="1"
     inkscape:current-layer="svg5">
    <inkscape:grid
       type="xygrid"
       id="grid1px"
       empspacing="4" />
    <inkscape:grid
       type="xygrid"
       id="grid1pxdot"
       empspacing="1"
       dotted="true"
       originy="0.5"
       originx="0.5" />
  </sodipodi:namedview>
  <path
     id="path1015"
     style="color:#000000;fill:#ffffff;stroke-linecap:round;stroke-linejoin:round;-inkscape-stroke:none"
     d="M 8 5 C 6.7916691 5 5.703959 5.7199673 4.6074219 6.6875 C 3.5108847 7.6550327 2.3846967 8.9082723 1.1464844 10.146484 A 0.5 0.5 0 0 0 1.1464844 10.853516 A 0.5 0.5 0 0 0 1.8535156 10.853516 C 3.1152983 9.5917327 4.2391196 8.3449635 5.2675781 7.4375 C 6.2960368 6.5300365 7.2083349 6 8 6 C 8.7916651 6 9.7039631 6.5300365 10.732422 7.4375 C 10.810835 7.5066884 10.891162 7.5813073 10.970703 7.6542969 C 11.201435 7.4326179 11.439551 7.1990293 11.683594 6.9511719 C 11.586474 6.8617047 11.489181 6.7727379 11.392578 6.6875 C 10.296041 5.7199673 9.2083309 5 8 5 z M 13.107422 8.3554688 C 12.869476 8.5966318 12.63391 8.8322997 12.398438 9.0585938 C 12.952218 9.6283205 13.532227 10.239258 14.146484 10.853516 A 0.5 0.5 0 0 0 14.853516 10.853516 A 0.5 0.5 0 0 0 14.853516 10.146484 C 14.247678 9.540647 13.66927 8.9332741 13.107422 8.3554688 z " />
  <path
     id="path1021"
     style="color:#000000;fill:#ffffff;stroke-linecap:round;stroke-linejoin:round;-inkscape-stroke:none"
     d="M 1.5 4.9960938 A 0.5 0.5 0 0 0 1.1464844 5.1425781 A 0.5 0.5 0 0 0 1.1464844 5.8496094 C 1.7520024 6.4551273 2.3290548 7.0650441 2.890625 7.6425781 C 3.1292236 7.4007299 3.3654531 7.1644058 3.6015625 6.9375 C 3.0477976 6.3677883 2.4677543 5.7568169 1.8535156 5.1425781 A 0.5 0.5 0 0 0 1.5 4.9960938 z M 14.5 4.9960938 A 0.5 0.5 0 0 0 14.146484 5.1425781 C 12.884703 6.4043611 11.760881 7.6511303 10.732422 8.5585938 C 9.7039631 9.4660572 8.7916651 9.9960938 8 9.9960938 C 7.2083349 9.9960938 6.2960368 9.4660572 5.2675781 8.5585938 C 5.1891646 8.4894053 5.108838 8.4147864 5.0292969 8.3417969 C 4.7985652 8.5634759 4.5604486 8.7970645 4.3164062 9.0449219 C 4.4135258 9.134389 4.5108189 9.2233558 4.6074219 9.3085938 C 5.703959 10.276126 6.7916691 10.996094 8 10.996094 C 9.2083309 10.996094 10.296041 10.276126 11.392578 9.3085938 C 12.489115 8.341061 13.615303 7.0878214 14.853516 5.8496094 A 0.5 0.5 0 0 0 14.853516 5.1425781 A 0.5 0.5 0 0 0 14.5 4.9960938 z " />
</svg>
