<?xml version="1.0" encoding="UTF-8" standalone="no"?>
<svg
   height="16"
   width="16"
   version="1.1"
   id="svg5"
   sodipodi:docname="package-flatpak.svg"
   inkscape:version="1.2.2 (b0a8486541, 2022-12-01)"
   xmlns:inkscape="http://www.inkscape.org/namespaces/inkscape"
   xmlns:sodipodi="http://sodipodi.sourceforge.net/DTD/sodipodi-0.dtd"
   xmlns="http://www.w3.org/2000/svg"
   xmlns:svg="http://www.w3.org/2000/svg">
  <defs
     id="defs7" />
  <sodipodi:namedview
     id="namedview1"
     showgrid="true"
     pagecolor="#505050"
     bordercolor="#eeeeee"
     borderopacity="1"
     inkscape:showpageshadow="0"
     inkscape:pageopacity="0"
     inkscape:pagecheckerboard="0"
     inkscape:deskcolor="#505050"
     inkscape:zoom="11.346854"
     inkscape:cx="32.828482"
     inkscape:cy="32.079376"
     inkscape:window-width="2560"
     inkscape:window-height="1411"
     inkscape:window-x="3840"
     inkscape:window-y="0"
     inkscape:window-maximized="1"
     inkscape:current-layer="svg5">
    <inkscape:grid
       type="xygrid"
       id="grid1px"
       empspacing="4" />
    <inkscape:grid
       type="xygrid"
       id="grid1pxdot"
       empspacing="1"
       dotted="true"
       originy="0.5"
       originx="0.5" />
  </sodipodi:namedview>
  <path
     id="path1232"
     style="color:#000000;opacity:1;fill:#000000;stroke-linecap:round;stroke-linejoin:round;-inkscape-stroke:none"
     d="m 7.9997734,1.0087905 a 0.50005,0.50005 0 0 0 -0.091797,0 0.50005,0.50005 0 0 0 -0.1699219,0.066406 l -6.5,4 a 0.50005,0.50005 0 0 0 0,0.8515624 l 6.5,4 a 0.50005,0.50005 0 0 0 0.2617188,0.066406 z" />
  <path
     id="path1361"
     style="color:#000000;opacity:0.5;fill:#000000;stroke-linecap:round;stroke-linejoin:round;-inkscape-stroke:none"
     d="M 8 1.0078125 L 8 9.9921875 A 0.50005 0.50005 0 0 0 8.2617188 9.9257812 L 14.761719 5.9257812 A 0.50005 0.50005 0 0 0 14.761719 5.0742188 L 8.2617188 1.0742188 A 0.50005 0.50005 0 0 0 8 1.0078125 z " />
  <path
     id="path1369"
     style="color:#000000;opacity:0.5;fill:#000000;stroke-linecap:round;stroke-linejoin:round;-inkscape-stroke:none"
     d="M 8,8.9115655 1.7617188,5.0736749 A 0.50005,0.50005 0 0 0 1.2558594,5.0639092 0.50005,0.50005 0 0 0 1,5.4994561 v 4.9999999 a 0.50005,0.50005 0 0 0 0.2382812,0.425781 l 6.5,4 A 0.50005,0.50005 0 0 0 8,14.991644 Z" />
  <path
     id="path1376"
     style="color:#000000;fill:#000000;stroke-linecap:round;stroke-linejoin:round;-inkscape-stroke:none"
     d="M 8 8.9121094 L 8 14.992188 A 0.50005 0.50005 0 0 0 8.2617188 14.925781 L 14.761719 10.925781 A 0.50005 0.50005 0 0 0 15 10.5 L 15 5.5 A 0.50005 0.50005 0 0 0 14.4375 5.0039062 A 0.50005 0.50005 0 0 0 14.238281 5.0742188 L 8 8.9121094 z " />
</svg>
