<?xml version="1.0" encoding="UTF-8" standalone="no"?>
<svg
   xmlns:dc="http://purl.org/dc/elements/1.1/"
   xmlns:cc="http://creativecommons.org/ns#"
   xmlns:rdf="http://www.w3.org/1999/02/22-rdf-syntax-ns#"
   xmlns:svg="http://www.w3.org/2000/svg"
   xmlns="http://www.w3.org/2000/svg"
   xmlns:sodipodi="http://sodipodi.sourceforge.net/DTD/sodipodi-0.dtd"
   xmlns:inkscape="http://www.inkscape.org/namespaces/inkscape"
   height="16"
   width="16"
   version="1.1"
   id="svg5"
   sodipodi:docname="package-install.svg"
   inkscape:version="0.92.0 r">
  <metadata
     id="metadata9">
    <rdf:RDF>
      <cc:Work
         rdf:about="">
        <dc:format>image/svg+xml</dc:format>
        <dc:type
           rdf:resource="http://purl.org/dc/dcmitype/StillImage" />
        <dc:title></dc:title>
      </cc:Work>
    </rdf:RDF>
  </metadata>
  <defs
     id="defs7" />
  <sodipodi:namedview
     id="namedview1"
     showgrid="true"
     inkscape:zoom="41.7193"
     inkscape:cx="8.6955976"
     inkscape:cy="10.067705"
     inkscape:window-width="1680"
     inkscape:window-height="1016"
     inkscape:window-x="0"
     inkscape:window-y="0"
     inkscape:window-maximized="1"
     inkscape:current-layer="svg5">
    <inkscape:grid
       type="xygrid"
       id="grid1px"
       empspacing="4" />
    <inkscape:grid
       type="xygrid"
       id="grid1pxdot"
       empspacing="1"
       dotted="true"
       originy="0.5"
       originx="0.5" />
  </sodipodi:namedview>
  <path
     style="color:#000000;font-style:normal;font-variant:normal;font-weight:normal;font-stretch:normal;font-size:medium;line-height:normal;font-family:sans-serif;font-variant-ligatures:normal;font-variant-position:normal;font-variant-caps:normal;font-variant-numeric:normal;font-variant-alternates:normal;font-feature-settings:normal;text-indent:0;text-align:start;text-decoration:none;text-decoration-line:none;text-decoration-style:solid;text-decoration-color:#000000;letter-spacing:normal;word-spacing:normal;text-transform:none;writing-mode:lr-tb;direction:ltr;text-orientation:mixed;dominant-baseline:auto;baseline-shift:baseline;text-anchor:start;white-space:normal;shape-padding:0;clip-rule:nonzero;display:inline;overflow:visible;visibility:visible;opacity:1;isolation:auto;mix-blend-mode:normal;color-interpolation:sRGB;color-interpolation-filters:linearRGB;solid-color:#000000;solid-opacity:1;vector-effect:none;fill:#000000;fill-opacity:1;fill-rule:nonzero;stroke:none;stroke-width:1;stroke-linecap:round;stroke-linejoin:round;stroke-miterlimit:4;stroke-dasharray:none;stroke-dashoffset:0;stroke-opacity:1;color-rendering:auto;image-rendering:auto;shape-rendering:auto;text-rendering:auto;enable-background:accumulate"
     d="M 8 1 C 5.2444986 1 3 3.2444986 3 6 C 3 6.3875435 3.0546994 6.7605419 3.1386719 7.1230469 L 1.2949219 8.0429688 A 0.50005 0.50005 0 0 0 1.2832031 8.0488281 L 1.2773438 8.0527344 A 0.50005 0.50005 0 0 0 1.2402344 8.0722656 A 0.50005 0.50005 0 0 0 1.234375 8.0761719 A 0.50005 0.50005 0 0 0 1.1992188 8.0996094 A 0.50005 0.50005 0 0 0 1.1933594 8.1054688 A 0.50005 0.50005 0 0 0 1.1601562 8.1328125 A 0.50005 0.50005 0 0 0 1.1542969 8.1386719 A 0.50005 0.50005 0 0 0 1.125 8.1679688 A 0.50005 0.50005 0 0 0 1.1210938 8.1738281 A 0.50005 0.50005 0 0 0 1.0898438 8.2148438 A 0.50005 0.50005 0 0 0 1.0664062 8.25 A 0.50005 0.50005 0 0 0 1.0625 8.2558594 A 0.50005 0.50005 0 0 0 1.0449219 8.2929688 A 0.50005 0.50005 0 0 0 1.0351562 8.3164062 A 0.50005 0.50005 0 0 0 1.0253906 8.3398438 A 0.50005 0.50005 0 0 0 1.0234375 8.3476562 A 0.50005 0.50005 0 0 0 1.0117188 8.390625 A 0.50005 0.50005 0 0 0 1.0097656 8.3964844 A 0.50005 0.50005 0 0 0 1.0039062 8.4375 A 0.50005 0.50005 0 0 0 1 8.4804688 A 0.50005 0.50005 0 0 0 1 8.4882812 A 0.50005 0.50005 0 0 0 1 8.4960938 A 0.50005 0.50005 0 0 0 1 8.5 L 1 13.5 A 0.50005 0.50005 0 0 0 1.4238281 13.994141 L 7.9238281 14.994141 A 0.50005 0.50005 0 0 0 8.0078125 15 A 5 5 0 0 1 7 12 A 5 5 0 0 1 8.0136719 8.9921875 L 8 8.9941406 L 4.9140625 8.5195312 C 4.3513698 7.830667 4 6.9623202 4 6 C 4 3.7849387 5.7849387 2 8 2 C 10.215061 2 12 3.7849387 12 6 C 12 6.3509693 11.938243 6.6840379 11.851562 7.0058594 A 5 5 0 0 1 12 7 A 5 5 0 0 1 12.869141 7.0800781 C 12.947627 6.7308689 13 6.3724851 13 6 C 13 3.2444986 10.755501 1 8 1 z M 8 4 C 6.9013528 4 6 4.9013528 6 6 C 6 7.0986472 6.9013528 8 8 8 C 9.0986472 8 10 7.0986472 10 6 C 10 4.9013528 9.0986472 4 8 4 z M 8 5 C 8.5582071 5 9 5.4417929 9 6 C 9 6.5582071 8.5582071 7 8 7 C 7.4417929 7 7 6.5582071 7 6 C 7 5.4417929 7.4417929 5 8 5 z "
     id="path4509" />
  <path
     style="opacity:1;fill:#000000;fill-opacity:1;fill-rule:nonzero;stroke:none;stroke-width:1;stroke-linecap:round;stroke-linejoin:round;stroke-miterlimit:4;stroke-dasharray:none;stroke-dashoffset:0;stroke-opacity:1"
     d="m 8,12 a 4,4 0 0 0 4,4 4,4 0 0 0 4,-4 4,4 0 0 0 -4,-4 4,4 0 0 0 -4,4 z m 1,-1.003906 a 0.50005,0.50005 0 0 1 0.5,-0.515625 h 5 a 0.50005,0.50005 0 0 1 0.353516,0.853515 l -2.5,2.5 a 0.50005,0.50005 0 0 1 -0.707032,0 l -2.4999996,-2.5 A 0.50005,0.50005 0 0 1 9,10.996094 Z"
     id="path4490"
     inkscape:connector-curvature="0" />
</svg>
