<?xml version="1.0" encoding="UTF-8" standalone="no"?>
<svg
   xmlns:dc="http://purl.org/dc/elements/1.1/"
   xmlns:cc="http://creativecommons.org/ns#"
   xmlns:rdf="http://www.w3.org/1999/02/22-rdf-syntax-ns#"
   xmlns:svg="http://www.w3.org/2000/svg"
   xmlns="http://www.w3.org/2000/svg"
   xmlns:sodipodi="http://sodipodi.sourceforge.net/DTD/sodipodi-0.dtd"
   xmlns:inkscape="http://www.inkscape.org/namespaces/inkscape"
   height="16"
   width="16"
   version="1.1"
   id="svg5"
   sodipodi:docname="package-available.svg"
   inkscape:version="0.92.0 r">
  <metadata
     id="metadata9">
    <rdf:RDF>
      <cc:Work
         rdf:about="">
        <dc:format>image/svg+xml</dc:format>
        <dc:type
           rdf:resource="http://purl.org/dc/dcmitype/StillImage" />
        <dc:title></dc:title>
      </cc:Work>
    </rdf:RDF>
  </metadata>
  <defs
     id="defs7" />
  <sodipodi:namedview
     id="namedview1"
     showgrid="true"
     inkscape:zoom="10.429825"
     inkscape:cx="11.458466"
     inkscape:cy="12.397119"
     inkscape:window-width="478"
     inkscape:window-height="434"
     inkscape:window-x="809"
     inkscape:window-y="113"
     inkscape:window-maximized="0"
     inkscape:current-layer="svg5">
    <inkscape:grid
       type="xygrid"
       id="grid1px"
       empspacing="4" />
    <inkscape:grid
       type="xygrid"
       id="grid1pxdot"
       empspacing="1"
       dotted="true"
       originy="0.5"
       originx="0.5" />
  </sodipodi:namedview>
  <path
     inkscape:connector-curvature="0"
     style="color:#000000;font-style:normal;font-variant:normal;font-weight:normal;font-stretch:normal;font-size:medium;line-height:normal;font-family:sans-serif;font-variant-ligatures:normal;font-variant-position:normal;font-variant-caps:normal;font-variant-numeric:normal;font-variant-alternates:normal;font-feature-settings:normal;text-indent:0;text-align:start;text-decoration:none;text-decoration-line:none;text-decoration-style:solid;text-decoration-color:#000000;letter-spacing:normal;word-spacing:normal;text-transform:none;writing-mode:lr-tb;direction:ltr;text-orientation:mixed;dominant-baseline:auto;baseline-shift:baseline;text-anchor:start;white-space:normal;shape-padding:0;clip-rule:nonzero;display:inline;overflow:visible;visibility:visible;opacity:1;isolation:auto;mix-blend-mode:normal;color-interpolation:sRGB;color-interpolation-filters:linearRGB;solid-color:#000000;solid-opacity:1;vector-effect:none;fill:#000000;fill-opacity:1;fill-rule:nonzero;stroke:none;stroke-width:1;stroke-linecap:round;stroke-linejoin:round;stroke-miterlimit:4;stroke-dasharray:none;stroke-dashoffset:0;stroke-opacity:1;color-rendering:auto;image-rendering:auto;shape-rendering:auto;text-rendering:auto;enable-background:accumulate"
     d="M 8,1 C 5.2444986,1 3,3.2444986 3,6 3,8.7555014 5.2444986,11 8,11 10.755501,11 13,8.7555014 13,6 13,3.2444986 10.755501,1 8,1 Z m 0,1 c 2.215061,0 4,1.7849387 4,4 0,2.2150613 -1.784939,4 -4,4 C 5.7849387,10 4,8.2150613 4,6 4,3.7849387 5.7849387,2 8,2 Z M 8,4 C 6.9013528,4 6,4.9013528 6,6 6,7.0986472 6.9013528,8 8,8 9.0986472,8 10,7.0986472 10,6 10,4.9013528 9.0986472,4 8,4 Z M 8,5 C 8.5582071,5 9,5.4417929 9,6 9,6.5582071 8.5582071,7 8,7 7.4417929,7 7,6.5582071 7,6 7,5.4417929 7.4417929,5 8,5 Z"
     id="path4509" />
  <path
     inkscape:connector-curvature="0"
     style="opacity:1;fill:#000000;fill-opacity:1;fill-rule:nonzero;stroke:none;stroke-width:1;stroke-linecap:round;stroke-linejoin:round;stroke-miterlimit:4;stroke-dasharray:none;stroke-dashoffset:0;stroke-opacity:1"
     d="M 3.4921875,7 A 0.50005,0.50005 0 0 0 3.2773438,7.0527344 L 1.2949219,8.0429688 a 0.50005,0.50005 0 0 0 -0.011719,0.00586 l -0.00586,0.00391 a 0.50005,0.50005 0 0 0 -0.037109,0.019531 0.50005,0.50005 0 0 0 -0.00586,0.00391 0.50005,0.50005 0 0 0 -0.035156,0.023437 0.50005,0.50005 0 0 0 -0.00586,0.00586 0.50005,0.50005 0 0 0 -0.033203,0.027344 0.50005,0.50005 0 0 0 -0.00586,0.00586 0.50005,0.50005 0 0 0 -0.029297,0.029297 0.50005,0.50005 0 0 0 -0.00391,0.00586 0.50005,0.50005 0 0 0 -0.03125,0.041016 0.50005,0.50005 0 0 0 -0.023438,0.035156 0.50005,0.50005 0 0 0 -0.00391,0.00586 0.50005,0.50005 0 0 0 -0.017578,0.037109 0.50005,0.50005 0 0 0 -0.00977,0.023437 0.50005,0.50005 0 0 0 -0.00977,0.023438 0.50005,0.50005 0 0 0 -0.00195,0.00781 0.50005,0.50005 0 0 0 -0.011719,0.042969 0.50005,0.50005 0 0 0 -0.00195,0.00586 0.50005,0.50005 0 0 0 -0.00585,0.041007 0.50005,0.50005 0 0 0 -0.003906,0.042969 0.50005,0.50005 0 0 0 0,0.00781 0.50005,0.50005 0 0 0 0,0.00781 0.50005,0.50005 0 0 0 0,0.00391 v 5.0000002 a 0.50005,0.50005 0 0 0 0.4238281,0.494142 l 6.5,1 a 0.50005,0.50005 0 0 0 0.1523438,0 l 6.5000002,-1 A 0.50005,0.50005 0 0 0 15,13.5 v -5 a 0.50005,0.50005 0 0 0 -0.05664,-0.2304688 0.50005,0.50005 0 0 0 -0.02539,-0.042969 0.50005,0.50005 0 0 0 -0.0059,-0.00977 0.50005,0.50005 0 0 0 -0.02344,-0.03125 0.50005,0.50005 0 0 0 -0.0059,-0.00781 0.50005,0.50005 0 0 0 -0.02734,-0.029297 0.50005,0.50005 0 0 0 -0.0078,-0.00781 0.50005,0.50005 0 0 0 -0.0293,-0.025391 0.50005,0.50005 0 0 0 -0.04101,-0.029297 0.50005,0.50005 0 0 0 -0.0078,-0.00586 0.50005,0.50005 0 0 0 -0.03516,-0.021484 0.50005,0.50005 0 0 0 -0.0078,-0.00391 0.50005,0.50005 0 0 0 -0.0039,-0.00195 L 14.68164,8.0332032 12.722655,7.0527345 A 0.50005,0.50005 0 0 0 12.482422,7 0.50005,0.50005 0 0 0 12,7.5 V 8.3789062 L 8,8.9941406 4.765625,8.4960938 3.9160156,7.2226562 A 0.50005,0.50005 0 0 0 3.4921875,7 Z"
     id="path4518" />
</svg>
