<?xml version="1.0" encoding="UTF-8" standalone="no"?>
<svg
   height="16"
   width="16"
   version="1.1"
   id="svg17608"
   sodipodi:docname="package-license-nonfree.svg"
   inkscape:version="1.2.2 (b0a8486541, 2022-12-01)"
   xmlns:inkscape="http://www.inkscape.org/namespaces/inkscape"
   xmlns:sodipodi="http://sodipodi.sourceforge.net/DTD/sodipodi-0.dtd"
   xmlns="http://www.w3.org/2000/svg"
   xmlns:svg="http://www.w3.org/2000/svg">
  <defs
     id="defs17610" />
  <sodipodi:namedview
     id="namedview1"
     showgrid="true"
     pagecolor="#505050"
     bordercolor="#eeeeee"
     borderopacity="1"
     inkscape:showpageshadow="0"
     inkscape:pageopacity="0"
     inkscape:pagecheckerboard="0"
     inkscape:deskcolor="#505050"
     inkscape:zoom="32"
     inkscape:cx="23.140625"
     inkscape:cy="12.96875"
     inkscape:window-width="3840"
     inkscape:window-height="2091"
     inkscape:window-x="0"
     inkscape:window-y="0"
     inkscape:window-maximized="1"
     inkscape:current-layer="svg17608">
    <inkscape:grid
       type="xygrid"
       id="grid1px"
       empspacing="4" />
    <inkscape:grid
       type="xygrid"
       id="grid1pxdot"
       empspacing="1"
       dotted="true"
       originy="0.5"
       originx="0.5" />
  </sodipodi:namedview>
  <path
     id="path20716"
     style="color:#000000;fill:#000000;stroke-width:0.617898;stroke-linecap:round;stroke-linejoin:round;-inkscape-stroke:none"
     d="M 11.214844 1.1171875 C 11.081077 1.1248861 10.955089 1.1801939 10.861328 1.2539062 C 10.754172 1.3381492 10.679873 1.4399143 10.617188 1.5488281 C 10.49181 1.7666557 10.408199 2.021666 10.328125 2.2773438 C 10.248051 2.5330214 10.173083 2.7892088 10.09375 2.9882812 C 10.014417 3.187354 9.9181692 3.3145271 9.8945312 3.3300781 C 9.8708935 3.3456291 9.7161682 3.3848589 9.5019531 3.3789062 C 9.2877381 3.3729538 9.0203962 3.3401796 8.7539062 3.3125 C 8.4874165 3.2848204 8.2242744 3.2601567 7.9746094 3.2890625 C 7.8497768 3.3035155 7.7252484 3.331431 7.6054688 3.3964844 C 7.4856888 3.4615375 7.3708878 3.5762161 7.3164062 3.7207031 C 7.2619253 3.8651904 7.2713498 4.0263537 7.3183594 4.1542969 C 7.3653663 4.2822399 7.4411794 4.3852392 7.5253906 4.4785156 C 7.6938135 4.6650685 7.9085334 4.8213988 8.1269531 4.9765625 C 8.2853692 5.0891002 8.4371051 5.1982768 8.5761719 5.3027344 L 11.988281 1.890625 C 11.958903 1.7929448 11.927712 1.6969418 11.886719 1.6074219 C 11.834397 1.4931653 11.770759 1.3848306 11.671875 1.2910156 C 11.572992 1.1972008 11.427687 1.1243534 11.273438 1.1171875 C 11.254156 1.1162913 11.233953 1.1160877 11.214844 1.1171875 z M 14.496094 3.625 L 10.693359 7.4277344 C 10.841892 7.3448146 10.96191 7.3074594 10.986328 7.3085938 C 11.014588 7.3098935 11.162226 7.369273 11.332031 7.5 C 11.501836 7.6307283 11.697161 7.8131559 11.896484 7.9921875 C 12.09581 8.1712196 12.29665 8.3473389 12.515625 8.4707031 C 12.625112 8.5323881 12.741811 8.5837869 12.876953 8.6015625 C 13.012095 8.6193395 13.171777 8.5926782 13.300781 8.5078125 C 13.429786 8.4229438 13.517514 8.2873886 13.554688 8.15625 C 13.591855 8.0251114 13.591425 7.8964453 13.578125 7.7714844 C 13.551518 7.5215643 13.468315 7.2695386 13.382812 7.015625 C 13.297313 6.7617113 13.207128 6.5084646 13.154297 6.3007812 C 13.101467 6.0930979 13.107203 5.932725 13.117188 5.90625 C 13.127185 5.879775 13.227494 5.7578152 13.404297 5.6367188 C 13.5811 5.5156221 13.816962 5.3861988 14.048828 5.2519531 C 14.280693 5.1177078 14.508368 4.9806816 14.693359 4.8105469 C 14.785859 4.7254792 14.871021 4.6308466 14.929688 4.5078125 C 14.988355 4.3847784 15.013506 4.2250877 14.972656 4.0761719 C 14.9318 3.9272559 14.828077 3.8024404 14.714844 3.7265625 C 14.644857 3.6796647 14.57071 3.6492883 14.496094 3.625 z M 1 7 L 1 10 L 1 12 L 1.8789062 12 L 3.0898438 10.789062 C 3.034016 10.709227 3 10.61306 3 10.507812 L 3 10.492188 C 3 10.228008 3.2059946 10.013135 3.4667969 10 L 3.8789062 10 L 6.4921875 7.3867188 A 1.50015 1.50015 0 0 0 5.5 7 L 1 7 z M 8.6210938 9.5 L 6.5 11.621094 L 7.4394531 12.560547 A 1.5 1.5 0 0 0 9.5605469 12.560547 A 1.5 1.5 0 0 0 9.5605469 10.439453 L 8.6210938 9.5 z M 10.943359 12 C 10.84999 12.466216 10.625042 12.910037 10.267578 13.267578 C 9.2996911 14.235259 7.7003097 14.235259 6.7324219 13.267578 L 5.7929688 12.328125 L 5 13.121094 L 6.4394531 14.560547 A 1.50015 1.50015 0 0 0 7.5 15 L 13.5 15 A 1.5 1.5 0 0 0 15 13.5 A 1.5 1.5 0 0 0 13.5 12 L 10.943359 12 z " />
  <path
     style="fill:#000000;stroke:#000000;stroke-width:1;stroke-linecap:round;stroke-linejoin:round;stroke-dasharray:none;stroke-opacity:1"
     d="m 0.5,15.5 15,-15"
     id="path20724"
     sodipodi:nodetypes="cc" />
  <path
     style="color:#000000;fill:#000000;stroke-width:3;stroke-linecap:round;stroke-linejoin:round;-inkscape-stroke:none"
     d="m -0.5,16.5 17,-17"
     id="path21106" />
</svg>
