<?xml version="1.0" encoding="UTF-8" standalone="no"?>
<svg
   xmlns:dc="http://purl.org/dc/elements/1.1/"
   xmlns:cc="http://creativecommons.org/ns#"
   xmlns:rdf="http://www.w3.org/1999/02/22-rdf-syntax-ns#"
   xmlns:svg="http://www.w3.org/2000/svg"
   xmlns="http://www.w3.org/2000/svg"
   xmlns:sodipodi="http://sodipodi.sourceforge.net/DTD/sodipodi-0.dtd"
   xmlns:inkscape="http://www.inkscape.org/namespaces/inkscape"
   height="16"
   width="16"
   version="1.1"
   id="svg5"
   sodipodi:docname="password-show-off.svg"
   inkscape:version="0.92.0 r">
  <metadata
     id="metadata9">
    <rdf:RDF>
      <cc:Work
         rdf:about="">
        <dc:format>image/svg+xml</dc:format>
        <dc:type
           rdf:resource="http://purl.org/dc/dcmitype/StillImage" />
        <dc:title></dc:title>
      </cc:Work>
    </rdf:RDF>
  </metadata>
  <defs
     id="defs7" />
  <sodipodi:namedview
     id="namedview1"
     showgrid="true"
     inkscape:zoom="29.5"
     inkscape:cx="6.4446269"
     inkscape:cy="6.0641131"
     inkscape:window-width="1680"
     inkscape:window-height="1016"
     inkscape:window-x="0"
     inkscape:window-y="0"
     inkscape:window-maximized="1"
     inkscape:current-layer="svg5">
    <inkscape:grid
       type="xygrid"
       id="grid1px"
       empspacing="4" />
    <inkscape:grid
       type="xygrid"
       id="grid1pxdot"
       empspacing="1"
       dotted="true"
       originy="0.5"
       originx="0.5" />
  </sodipodi:namedview>
  <path
     style="opacity:1;fill:#000000;fill-opacity:1;fill-rule:nonzero;stroke:none;stroke-width:1;stroke-linecap:round;stroke-linejoin:round;stroke-miterlimit:4;stroke-dasharray:none;stroke-dashoffset:0;stroke-opacity:1"
     d="M 8 4 A 7 4 0 0 0 1 8 A 7 4 0 0 0 4.0117188 11.28125 L 5.5605469 9.7324219 C 5.2102453 9.2416303 5 8.6459256 5 8 C 5 6.3490681 6.3490681 5 8 5 C 8.6459256 5 9.2416303 5.2102453 9.7324219 5.5605469 L 10.921875 4.3710938 A 7 4 0 0 0 8 4 z M 11.988281 4.71875 L 10.439453 6.2675781 C 10.789755 6.7583697 11 7.3540744 11 8 C 11 9.6509319 9.6509319 11 8 11 C 7.3540744 11 6.7583697 10.789755 6.2675781 10.439453 L 5.078125 11.628906 A 7 4 0 0 0 8 12 A 7 4 0 0 0 15 8 A 7 4 0 0 0 11.988281 4.71875 z M 8 6 C 6.8895082 6 6 6.8895082 6 8 C 6 8.3718438 6.1068821 8.7145279 6.28125 9.0117188 L 9.0117188 6.28125 C 8.7145279 6.1068821 8.3718438 6 8 6 z M 9.71875 6.9882812 L 6.9882812 9.71875 C 7.2854721 9.8931179 7.6281562 10 8 10 C 9.1104918 10 10 9.1104918 10 8 C 10 7.6281562 9.8931179 7.2854721 9.71875 6.9882812 z "
     id="path4486" />
</svg>
