<?xml version="1.0" encoding="UTF-8" standalone="no"?>
<svg
   xmlns:dc="http://purl.org/dc/elements/1.1/"
   xmlns:cc="http://creativecommons.org/ns#"
   xmlns:rdf="http://www.w3.org/1999/02/22-rdf-syntax-ns#"
   xmlns:svg="http://www.w3.org/2000/svg"
   xmlns="http://www.w3.org/2000/svg"
   xmlns:sodipodi="http://sodipodi.sourceforge.net/DTD/sodipodi-0.dtd"
   xmlns:inkscape="http://www.inkscape.org/namespaces/inkscape"
   height="16"
   width="16"
   version="1.1"
   id="svg5"
   sodipodi:docname="path-division.svg"
   inkscape:version="0.92.0 r">
  <metadata
     id="metadata9">
    <rdf:RDF>
      <cc:Work
         rdf:about="">
        <dc:format>image/svg+xml</dc:format>
        <dc:type
           rdf:resource="http://purl.org/dc/dcmitype/StillImage" />
        <dc:title></dc:title>
      </cc:Work>
    </rdf:RDF>
  </metadata>
  <defs
     id="defs7" />
  <sodipodi:namedview
     id="namedview1"
     showgrid="true"
     inkscape:zoom="41.7193"
     inkscape:cx="7.8502238"
     inkscape:cy="7.0778609"
     inkscape:window-width="1680"
     inkscape:window-height="1016"
     inkscape:window-x="0"
     inkscape:window-y="0"
     inkscape:window-maximized="1"
     inkscape:current-layer="svg5">
    <inkscape:grid
       type="xygrid"
       id="grid1px"
       empspacing="4" />
    <inkscape:grid
       type="xygrid"
       id="grid1pxdot"
       empspacing="1"
       dotted="true"
       originy="0.5"
       originx="0.5" />
  </sodipodi:namedview>
  <path
     style="opacity:1;fill:#000000;fill-opacity:1;fill-rule:nonzero;stroke:#000000;stroke-width:1;stroke-linecap:round;stroke-linejoin:round;stroke-miterlimit:4;stroke-dasharray:none;stroke-dashoffset:0;stroke-opacity:1"
     d="M 7.5410156 4.5 L 2.5 4.5 L 2.5 13.5 L 11.5 13.5 L 11.5 8.4609375 A 3.5 3.5 0 0 1 11.248047 8.4921875 A 3.5 3.5 0 0 1 11 8.5 A 3.5 3.5 0 0 1 10.650391 8.4824219 A 3.5 3.5 0 0 1 10.304688 8.4296875 A 3.5 3.5 0 0 1 9.9648438 8.34375 A 3.5 3.5 0 0 1 9.6367188 8.2246094 A 3.5 3.5 0 0 1 9.3222656 8.0722656 A 3.5 3.5 0 0 1 9.0234375 7.8886719 A 3.5 3.5 0 0 1 8.7460938 7.6777344 A 3.5 3.5 0 0 1 8.4882812 7.4375 A 3.5 3.5 0 0 1 8.2578125 7.1757812 A 3.5 3.5 0 0 1 8.0546875 6.890625 A 3.5 3.5 0 0 1 7.8808594 6.5878906 A 3.5 3.5 0 0 1 7.7382812 6.2675781 A 3.5 3.5 0 0 1 7.6269531 5.9355469 A 3.5 3.5 0 0 1 7.5507812 5.5957031 A 3.5 3.5 0 0 1 7.5078125 5.2480469 A 3.5 3.5 0 0 1 7.5 5 A 3.5 3.5 0 0 1 7.5175781 4.6503906 A 3.5 3.5 0 0 1 7.5410156 4.5 z "
     id="path4556" />
  <path
     style="opacity:1;fill:#000000;fill-opacity:1;fill-rule:nonzero;stroke:#000000;stroke-width:1;stroke-linecap:round;stroke-linejoin:round;stroke-miterlimit:4;stroke-dasharray:none;stroke-dashoffset:0;stroke-opacity:1"
     d="M 9.5410156,2.5 A 3.5,3.5 0 0 0 9.5175781,2.6503906 3.5,3.5 0 0 0 9.5,3 a 3.5,3.5 0 0 0 0.00781,0.2480469 3.5,3.5 0 0 0 0.042969,0.3476562 3.5,3.5 0 0 0 0.076172,0.3398438 3.5,3.5 0 0 0 0.1113281,0.3320312 3.5,3.5 0 0 0 0.1425782,0.3203125 3.5,3.5 0 0 0 0.1738286,0.3027344 3.5,3.5 0 0 0 0.203125,0.2851562 3.5,3.5 0 0 0 0.230468,0.2617188 3.5,3.5 0 0 0 0.257813,0.2402344 3.5,3.5 0 0 0 0.277344,0.2109375 3.5,3.5 0 0 0 0.298828,0.1835937 3.5,3.5 0 0 0 0.314453,0.1523438 3.5,3.5 0 0 0 0.328125,0.1191406 3.5,3.5 0 0 0 0.339844,0.085937 3.5,3.5 0 0 0 0.345703,0.052734 A 3.5,3.5 0 0 0 13,6.5 3.5,3.5 0 0 0 13.248047,6.4921875 3.5,3.5 0 0 0 13.5,6.4609375 V 2.5 Z"
     id="rect4490"
     inkscape:connector-curvature="0" />
</svg>
