<?xml version="1.0" encoding="UTF-8" standalone="no"?>
<svg
   height="16"
   width="16"
   version="1.1"
   id="svg240"
   sodipodi:docname="phone-upgrade.svg"
   inkscape:version="1.2.2 (b0a8486541, 2022-12-01)"
   xmlns:inkscape="http://www.inkscape.org/namespaces/inkscape"
   xmlns:sodipodi="http://sodipodi.sourceforge.net/DTD/sodipodi-0.dtd"
   xmlns="http://www.w3.org/2000/svg"
   xmlns:svg="http://www.w3.org/2000/svg">
  <defs
     id="defs242" />
  <sodipodi:namedview
     id="namedview1"
     showgrid="true"
     pagecolor="#505050"
     bordercolor="#eeeeee"
     borderopacity="1"
     inkscape:showpageshadow="0"
     inkscape:pageopacity="0"
     inkscape:pagecheckerboard="0"
     inkscape:deskcolor="#505050"
     inkscape:zoom="45.387417"
     inkscape:cx="10.06887"
     inkscape:cy="8.0749253"
     inkscape:window-width="2560"
     inkscape:window-height="1404"
     inkscape:window-x="3840"
     inkscape:window-y="725"
     inkscape:window-maximized="1"
     inkscape:current-layer="svg240">
    <inkscape:grid
       type="xygrid"
       id="grid1px"
       empspacing="4" />
    <inkscape:grid
       type="xygrid"
       id="grid1pxdot"
       empspacing="1"
       dotted="true"
       originy="0.5"
       originx="0.5" />
  </sodipodi:namedview>
  <path
     id="rect4137"
     style="color:#000000;font-style:normal;font-variant:normal;font-weight:normal;font-stretch:normal;font-size:medium;line-height:normal;font-family:sans-serif;text-indent:0;text-align:start;text-decoration:none;text-decoration-line:none;text-decoration-style:solid;text-decoration-color:#000000;letter-spacing:normal;word-spacing:normal;text-transform:none;writing-mode:lr-tb;direction:ltr;baseline-shift:baseline;text-anchor:start;white-space:normal;clip-rule:nonzero;display:inline;overflow:visible;visibility:visible;opacity:0.99;isolation:auto;mix-blend-mode:normal;color-interpolation:sRGB;color-interpolation-filters:linearRGB;solid-color:#000000;solid-opacity:1;fill:#000000;fill-opacity:1;fill-rule:nonzero;stroke:none;stroke-width:1;stroke-linecap:round;stroke-linejoin:round;stroke-miterlimit:4;stroke-dasharray:none;stroke-dashoffset:0;stroke-opacity:1;color-rendering:auto;image-rendering:auto;shape-rendering:auto;text-rendering:auto;enable-background:accumulate"
     d="M 4.5 1 A 0.50005 0.50005 0 0 0 4 1.5 L 4 14.5 A 0.50005 0.50005 0 0 0 4.5 15 L 8.015625 15 A 5 5 0 0 1 7.4238281 14 L 5 14 L 5 4 L 11 4 L 11 7.1132812 A 5 5 0 0 1 12 7 L 12 1.5 A 0.50005 0.50005 0 0 0 11.5 1 L 4.5 1 z M 6.4648438 2 L 9.5351562 2 A 0.5003089 0.5003089 0 0 1 9.5 3 L 6.5 3 A 0.5003089 0.5003089 0 0 1 6.4648438 2 z " />
  <path
     style="fill:#000000;fill-opacity:1;fill-rule:nonzero;stroke:none;stroke-width:1;stroke-linecap:round;stroke-linejoin:round;stroke-miterlimit:4;stroke-dasharray:none;stroke-dashoffset:0;stroke-opacity:1"
     d="m 16,12 a 4,4 0 0 0 -4,-4 4,4 0 0 0 -4,4 4,4 0 0 0 4,4 4,4 0 0 0 4,-4 z m -1,1.003906 a 0.50005,0.50005 0 0 1 -0.5,0.515625 h -5 A 0.50005,0.50005 0 0 1 9.146484,12.666016 l 2.5,-2.5 a 0.50005,0.50005 0 0 1 0.707032,0 l 2.5,2.5 A 0.50005,0.50005 0 0 1 15,13.003906 Z"
     id="path4490"
     inkscape:connector-curvature="0" />
</svg>
