<?xml version="1.0" encoding="UTF-8" standalone="no"?>
<svg
   xmlns:dc="http://purl.org/dc/elements/1.1/"
   xmlns:cc="http://creativecommons.org/ns#"
   xmlns:rdf="http://www.w3.org/1999/02/22-rdf-syntax-ns#"
   xmlns:svg="http://www.w3.org/2000/svg"
   xmlns="http://www.w3.org/2000/svg"
   xmlns:sodipodi="http://sodipodi.sourceforge.net/DTD/sodipodi-0.dtd"
   xmlns:inkscape="http://www.inkscape.org/namespaces/inkscape"
   height="16"
   width="16"
   version="1.1"
   id="svg5"
   sodipodi:docname="remove-link.svg"
   inkscape:version="0.92.2 2405546, 2018-03-11">
  <metadata
     id="metadata9">
    <rdf:RDF>
      <cc:Work
         rdf:about="">
        <dc:format>image/svg+xml</dc:format>
        <dc:type
           rdf:resource="http://purl.org/dc/dcmitype/StillImage" />
        <dc:title></dc:title>
      </cc:Work>
    </rdf:RDF>
  </metadata>
  <defs
     id="defs7" />
  <sodipodi:namedview
     id="namedview1"
     showgrid="true"
     inkscape:zoom="20.85965"
     inkscape:cx="-1.312613"
     inkscape:cy="6.0982229"
     inkscape:window-width="1920"
     inkscape:window-height="1046"
     inkscape:window-x="0"
     inkscape:window-y="0"
     inkscape:window-maximized="1"
     inkscape:current-layer="svg5"
     inkscape:lockguides="false">
    <inkscape:grid
       type="xygrid"
       id="grid1px"
       empspacing="4" />
    <inkscape:grid
       type="xygrid"
       id="grid1pxdot"
       empspacing="1"
       dotted="true"
       originy="0.5"
       originx="0.5" />
  </sodipodi:namedview>
  <path
     style="color:#000000;font-style:normal;font-variant:normal;font-weight:normal;font-stretch:normal;font-size:medium;line-height:normal;font-family:sans-serif;font-variant-ligatures:normal;font-variant-position:normal;font-variant-caps:normal;font-variant-numeric:normal;font-variant-alternates:normal;font-feature-settings:normal;text-indent:0;text-align:start;text-decoration:none;text-decoration-line:none;text-decoration-style:solid;text-decoration-color:#000000;letter-spacing:normal;word-spacing:normal;text-transform:none;writing-mode:lr-tb;direction:ltr;text-orientation:mixed;dominant-baseline:auto;baseline-shift:baseline;text-anchor:start;white-space:normal;shape-padding:0;clip-rule:nonzero;display:inline;overflow:visible;visibility:visible;opacity:1;isolation:auto;mix-blend-mode:normal;color-interpolation:sRGB;color-interpolation-filters:linearRGB;solid-color:#000000;solid-opacity:1;vector-effect:none;fill:#000000;fill-opacity:1;fill-rule:nonzero;stroke:none;stroke-width:1;stroke-linecap:round;stroke-linejoin:round;stroke-miterlimit:4;stroke-dasharray:none;stroke-dashoffset:0;stroke-opacity:1;color-rendering:auto;image-rendering:auto;shape-rendering:auto;text-rendering:auto;enable-background:accumulate"
     d="M 5.3535156 7.7246094 C 4.9748699 7.7249547 4.5966522 7.8681915 4.3105469 8.1542969 L 2.15625 10.310547 C 1.5840393 10.882758 1.5820851 11.824274 2.1542969 12.396484 L 3.6035156 13.845703 C 4.1757262 14.417914 5.1191954 14.417914 5.6914062 13.845703 L 7.8457031 11.691406 C 8.4179139 11.119195 8.4179137 10.175726 7.8457031 9.6035156 L 7.828125 9.5859375 L 7.1210938 10.292969 L 7.1386719 10.310547 C 7.3313762 10.503252 7.3313765 10.791671 7.1386719 10.984375 L 4.984375 13.138672 C 4.7916703 13.331377 4.5032512 13.331376 4.3105469 13.138672 L 2.8613281 11.689453 C 2.6686238 11.496748 2.6705781 11.210283 2.8632812 11.017578 L 5.0175781 8.8632812 C 5.2102827 8.6705767 5.4967489 8.6686238 5.6894531 8.8613281 L 5.7070312 8.8789062 L 6.4140625 8.171875 L 6.3964844 8.1542969 C 6.1103792 7.8681917 5.7321613 7.7242641 5.3535156 7.7246094 z "
     id="rect933" />
  <path
     style="color:#000000;font-style:normal;font-variant:normal;font-weight:normal;font-stretch:normal;font-size:medium;line-height:normal;font-family:sans-serif;font-variant-ligatures:normal;font-variant-position:normal;font-variant-caps:normal;font-variant-numeric:normal;font-variant-alternates:normal;font-feature-settings:normal;text-indent:0;text-align:start;text-decoration:none;text-decoration-line:none;text-decoration-style:solid;text-decoration-color:#000000;letter-spacing:normal;word-spacing:normal;text-transform:none;writing-mode:lr-tb;direction:ltr;text-orientation:mixed;dominant-baseline:auto;baseline-shift:baseline;text-anchor:start;white-space:normal;shape-padding:0;clip-rule:nonzero;display:inline;overflow:visible;visibility:visible;opacity:1;isolation:auto;mix-blend-mode:normal;color-interpolation:sRGB;color-interpolation-filters:linearRGB;solid-color:#000000;solid-opacity:1;vector-effect:none;fill:#000000;fill-opacity:1;fill-rule:nonzero;stroke:none;stroke-width:1;stroke-linecap:round;stroke-linejoin:round;stroke-miterlimit:4;stroke-dasharray:none;stroke-dashoffset:0;stroke-opacity:1;color-rendering:auto;image-rendering:auto;shape-rendering:auto;text-rendering:auto;enable-background:accumulate"
     d="M 11.353516 1.7265625 C 10.97487 1.7269078 10.596652 1.8701447 10.310547 2.15625 L 8.1542969 4.3105469 C 7.5820862 4.8827576 7.5820865 5.824274 8.1542969 6.3964844 L 8.171875 6.4140625 L 8.8789062 5.7070312 L 8.8613281 5.6894531 C 8.6686238 5.4967489 8.6705767 5.2102827 8.8632812 5.0175781 L 11.017578 2.8632812 C 11.210283 2.6705767 11.496748 2.6686224 11.689453 2.8613281 L 13.138672 4.3105469 C 13.331376 4.5032512 13.331377 4.7916703 13.138672 4.984375 L 10.984375 7.1386719 C 10.791671 7.3313765 10.503252 7.3313762 10.310547 7.1386719 L 10.292969 7.1210938 L 9.5859375 7.828125 L 9.6035156 7.8457031 C 10.175726 8.4179137 11.119195 8.4179139 11.691406 7.8457031 L 13.845703 5.6914062 C 14.417914 5.1191955 14.417914 4.1757262 13.845703 3.6035156 L 12.396484 2.1542969 C 12.110379 1.8681917 11.732161 1.7262172 11.353516 1.7265625 z "
     id="rect933-5" />
  <path
     style="color:#000000;font-style:normal;font-variant:normal;font-weight:normal;font-stretch:normal;font-size:medium;line-height:normal;font-family:sans-serif;font-variant-ligatures:normal;font-variant-position:normal;font-variant-caps:normal;font-variant-numeric:normal;font-variant-alternates:normal;font-feature-settings:normal;text-indent:0;text-align:start;text-decoration:none;text-decoration-line:none;text-decoration-style:solid;text-decoration-color:#000000;letter-spacing:normal;word-spacing:normal;text-transform:none;writing-mode:lr-tb;direction:ltr;text-orientation:mixed;dominant-baseline:auto;baseline-shift:baseline;text-anchor:start;white-space:normal;shape-padding:0;clip-rule:nonzero;display:inline;overflow:visible;visibility:visible;opacity:1;isolation:auto;mix-blend-mode:normal;color-interpolation:sRGB;color-interpolation-filters:linearRGB;solid-color:#000000;solid-opacity:1;vector-effect:none;fill:#000000;fill-opacity:1;fill-rule:nonzero;stroke:none;stroke-width:1px;stroke-linecap:round;stroke-linejoin:round;stroke-miterlimit:4;stroke-dasharray:none;stroke-dashoffset:0;stroke-opacity:1;color-rendering:auto;image-rendering:auto;shape-rendering:auto;text-rendering:auto;enable-background:accumulate"
     d="M 9.9902344 5.4960938 A 0.50005 0.50005 0 0 0 9.6464844 5.6464844 L 8.3535156 6.9394531 L 9.0605469 7.6464844 L 10.353516 6.3535156 A 0.50005 0.50005 0 0 0 9.9902344 5.4960938 z M 6.9394531 8.3535156 L 5.6464844 9.6464844 A 0.50005 0.50005 0 1 0 6.3535156 10.353516 L 7.6464844 9.0605469 L 6.9394531 8.3535156 z "
     id="path990" />
  <path
     style="fill:none;stroke:#000000;stroke-width:1px;stroke-linecap:round;stroke-linejoin:miter;stroke-opacity:1"
     d="m 1.5,1.5 13,13"
     id="path1085"
     inkscape:connector-curvature="0" />
</svg>
