<?xml version="1.0" encoding="UTF-8" standalone="no"?>
<svg
   xmlns:dc="http://purl.org/dc/elements/1.1/"
   xmlns:cc="http://creativecommons.org/ns#"
   xmlns:rdf="http://www.w3.org/1999/02/22-rdf-syntax-ns#"
   xmlns:svg="http://www.w3.org/2000/svg"
   xmlns="http://www.w3.org/2000/svg"
   xmlns:sodipodi="http://sodipodi.sourceforge.net/DTD/sodipodi-0.dtd"
   xmlns:inkscape="http://www.inkscape.org/namespaces/inkscape"
   height="16"
   width="16"
   version="1.1"
   id="svg5"
   sodipodi:docname="show-menu.svg"
   inkscape:version="0.92.2 2405546, 2018-03-11">
  <metadata
     id="metadata9">
    <rdf:RDF>
      <cc:Work
         rdf:about="">
        <dc:format>image/svg+xml</dc:format>
        <dc:type
           rdf:resource="http://purl.org/dc/dcmitype/StillImage" />
        <dc:title></dc:title>
      </cc:Work>
    </rdf:RDF>
  </metadata>
  <defs
     id="defs7" />
  <sodipodi:namedview
     id="namedview1"
     showgrid="true"
     inkscape:zoom="29.5"
     inkscape:cx="8.4119053"
     inkscape:cy="7.8780017"
     inkscape:window-width="1920"
     inkscape:window-height="1046"
     inkscape:window-x="0"
     inkscape:window-y="0"
     inkscape:window-maximized="1"
     inkscape:current-layer="svg5">
    <inkscape:grid
       type="xygrid"
       id="grid1px"
       empspacing="4" />
    <inkscape:grid
       type="xygrid"
       id="grid1pxdot"
       empspacing="1"
       dotted="true"
       originy="0.5"
       originx="0.5" />
  </sodipodi:namedview>
  <path
     style="color:#000000;font-style:normal;font-variant:normal;font-weight:normal;font-stretch:normal;font-size:medium;line-height:normal;font-family:sans-serif;font-variant-ligatures:normal;font-variant-position:normal;font-variant-caps:normal;font-variant-numeric:normal;font-variant-alternates:normal;font-feature-settings:normal;text-indent:0;text-align:start;text-decoration:none;text-decoration-line:none;text-decoration-style:solid;text-decoration-color:#000000;letter-spacing:normal;word-spacing:normal;text-transform:none;writing-mode:lr-tb;direction:ltr;text-orientation:mixed;dominant-baseline:auto;baseline-shift:baseline;text-anchor:start;white-space:normal;shape-padding:0;clip-rule:nonzero;display:inline;overflow:visible;visibility:visible;opacity:1;isolation:auto;mix-blend-mode:normal;color-interpolation:sRGB;color-interpolation-filters:linearRGB;solid-color:#000000;solid-opacity:1;vector-effect:none;fill:#000000;fill-opacity:1;fill-rule:nonzero;stroke:none;stroke-width:0.94868332;stroke-linecap:round;stroke-linejoin:round;stroke-miterlimit:4;stroke-dasharray:none;stroke-dashoffset:0;stroke-opacity:1;paint-order:normal;color-rendering:auto;image-rendering:auto;shape-rendering:auto;text-rendering:auto;enable-background:accumulate"
     d="M 1.5 3.0253906 A 0.47438909 0.47438909 0 0 0 1.0253906 3.5 L 1.0253906 12.5 A 0.47438909 0.47438909 0 0 0 1.5 12.974609 L 7.0996094 12.974609 A 5 5 0 0 1 7 12.025391 L 1.9746094 12.025391 L 1.9746094 3.9746094 L 14.025391 3.9746094 L 14.025391 7.4316406 A 5 5 0 0 1 14.974609 7.9882812 L 14.974609 3.5 A 0.47438909 0.47438909 0 0 0 14.5 3.0253906 L 1.5 3.0253906 z "
     id="rect819" />
  <path
     inkscape:connector-curvature="0"
     id="path829"
     style="font-style:normal;font-variant:normal;font-weight:normal;font-stretch:normal;font-size:medium;line-height:1.25;font-family:Contemporary;-inkscape-font-specification:Contemporary;letter-spacing:0px;word-spacing:0px;fill:#000000;fill-opacity:1;stroke:none;stroke-width:0.15841605"
     d="m 5.9924233,5.7821751 q 0.069703,0 0.1203962,0.050693 0.050693,0.050693 0.050693,0.1203962 v 0.2281191 q 0,0.069703 -0.050693,0.1203962 -0.050693,0.050693 -0.1203962,0.050693 h -2.084755 v 1.4637641 h 1.9580222 q 0.069703,0 0.1203962,0.050693 0.050693,0.050693 0.050693,0.1203961 v 0.2281191 q 0,0.069703 -0.050693,0.1203962 -0.050693,0.050693 -0.1203962,0.050693 H 3.9076683 v 1.6601999 q 0,0.0697 -0.050693,0.120396 -0.050693,0.05069 -0.1203962,0.05069 H 3.4767767 q -0.069703,0 -0.1203962,-0.05069 -0.050693,-0.05069 -0.050693,-0.120396 V 5.9532644 q 0,-0.069703 0.050693,-0.1203962 0.050693,-0.050693 0.1203962,-0.050693 z" />
  <path
     style="font-style:normal;font-variant:normal;font-weight:normal;font-stretch:normal;font-size:medium;line-height:1.25;font-family:Contemporary;-inkscape-font-specification:Contemporary;letter-spacing:0px;word-spacing:0px;fill:#000000;fill-opacity:1;stroke:none;stroke-width:0.15841605"
     d="M 6.9941406 5.7753906 C 6.9476718 5.7753906 6.9087953 5.7923765 6.875 5.8261719 C 6.8412047 5.8599673 6.8242188 5.900797 6.8242188 5.9472656 L 6.8242188 6.3085938 C 6.8242188 6.3550626 6.8412047 6.393939 6.875 6.4277344 C 6.9087955 6.4615297 6.947672 6.4785156 6.9941406 6.4785156 L 7.3554688 6.4785156 C 7.4019375 6.4785156 7.4427672 6.4615297 7.4765625 6.4277344 C 7.5103578 6.3939389 7.5273438 6.3550624 7.5273438 6.3085938 L 7.5273438 5.9472656 C 7.5273437 5.9007969 7.5103578 5.8599672 7.4765625 5.8261719 C 7.442767 5.7923765 7.4019374 5.7753906 7.3554688 5.7753906 L 6.9941406 5.7753906 z M 7.0585938 6.921875 C 7.012125 6.921875 6.9712953 6.9388609 6.9375 6.9726562 C 6.9037047 7.0064517 6.8867188 7.0472813 6.8867188 7.09375 L 6.8867188 10.046875 C 6.8867188 10.093346 6.9037047 10.134175 6.9375 10.167969 C 6.9712955 10.201762 7.0121251 10.21875 7.0585938 10.21875 L 7.2929688 10.21875 C 7.3121079 10.21875 7.3248076 10.202998 7.3417969 10.197266 A 5 5 0 0 1 7.4628906 9.9101562 L 7.4628906 7.09375 C 7.4628906 7.0472812 7.4459047 7.0064516 7.4121094 6.9726562 C 7.3783139 6.9388609 7.3394374 6.921875 7.2929688 6.921875 L 7.0585938 6.921875 z "
     id="path831" />
  <path
     style="font-style:normal;font-variant:normal;font-weight:normal;font-stretch:normal;font-size:medium;line-height:1.25;font-family:Contemporary;-inkscape-font-specification:Contemporary;letter-spacing:0px;word-spacing:0px;fill:#000000;fill-opacity:1;stroke:none;stroke-width:0.15841605"
     d="M 8.5800781 5.71875 C 8.5336093 5.71875 8.4927797 5.7357359 8.4589844 5.7695312 C 8.425189 5.8033267 8.4101562 5.8441563 8.4101562 5.890625 L 8.4101562 8.5273438 A 5 5 0 0 1 8.9863281 8.0175781 L 8.9863281 5.890625 C 8.9863281 5.8441562 8.9693422 5.8033266 8.9355469 5.7695312 C 8.9017514 5.7357359 8.8609218 5.71875 8.8144531 5.71875 L 8.5800781 5.71875 z "
     id="path833" />
  <path
     style="font-style:normal;font-variant:normal;font-weight:normal;font-stretch:normal;font-size:medium;line-height:1.25;font-family:Contemporary;-inkscape-font-specification:Contemporary;letter-spacing:0px;word-spacing:0px;fill:#000000;fill-opacity:1;stroke:none;stroke-width:0.15841605"
     d="M 11.230469 6.859375 C 10.955881 6.859375 10.713174 6.9204603 10.501953 7.0429688 C 10.361842 7.1258916 10.245915 7.2358076 10.142578 7.359375 A 5 5 0 0 1 11.90625 7.0039062 C 11.710726 6.9110762 11.487424 6.859375 11.230469 6.859375 z "
     id="path835" />
  <path
     style="opacity:1;fill:#000000;fill-opacity:1;stroke:none;stroke-width:1;stroke-linecap:round;stroke-linejoin:round;stroke-miterlimit:4;stroke-dasharray:none;stroke-dashoffset:0;stroke-opacity:1;paint-order:normal"
     d="M 12 8 A 4 4 0 0 0 8 12 A 4 4 0 0 0 12 16 A 4 4 0 0 0 16 12 A 4 4 0 0 0 12 8 z M 12.041016 9.9980469 A 4 4 0 0 1 15.5 12 A 4 4 0 0 1 12.041016 13.998047 A 4 4 0 0 1 8.5820312 11.996094 A 4 4 0 0 1 12.041016 9.9980469 z M 12.041016 10.998047 A 1 1 0 0 0 11.041016 11.998047 A 1 1 0 0 0 12.041016 12.998047 A 1 1 0 0 0 13.041016 11.998047 A 1 1 0 0 0 12.041016 10.998047 z "
     id="path825" />
</svg>
