<?xml version="1.0" encoding="UTF-8" standalone="no"?>
<svg
   xmlns:dc="http://purl.org/dc/elements/1.1/"
   xmlns:cc="http://creativecommons.org/ns#"
   xmlns:rdf="http://www.w3.org/1999/02/22-rdf-syntax-ns#"
   xmlns:svg="http://www.w3.org/2000/svg"
   xmlns="http://www.w3.org/2000/svg"
   xmlns:sodipodi="http://sodipodi.sourceforge.net/DTD/sodipodi-0.dtd"
   xmlns:inkscape="http://www.inkscape.org/namespaces/inkscape"
   height="16"
   width="16"
   id="svg2"
   version="1.1"
   inkscape:version="0.92.0 r"
   sodipodi:docname="trash-empty.svg">
  <metadata
     id="metadata9">
    <rdf:RDF>
      <cc:Work
         rdf:about="">
        <dc:format>image/svg+xml</dc:format>
        <dc:type
           rdf:resource="http://purl.org/dc/dcmitype/StillImage" />
        <dc:title></dc:title>
      </cc:Work>
    </rdf:RDF>
  </metadata>
  <defs
     id="defs7" />
  <sodipodi:namedview
     id="namedview1"
     showgrid="true"
     inkscape:zoom="20.85965"
     inkscape:cx="13.618295"
     inkscape:cy="2.4725856"
     inkscape:window-width="1680"
     inkscape:window-height="1016"
     inkscape:window-x="0"
     inkscape:window-y="0"
     inkscape:window-maximized="1"
     inkscape:current-layer="svg2">
    <inkscape:grid
       type="xygrid"
       id="grid1px"
       empspacing="4" />
    <inkscape:grid
       type="xygrid"
       id="grid1pxdot"
       empspacing="1"
       dotted="true"
       originy="0.5"
       originx="0.5" />
  </sodipodi:namedview>
  <path
     style="color:#000000;font-style:normal;font-variant:normal;font-weight:normal;font-stretch:normal;font-size:medium;line-height:normal;font-family:sans-serif;font-variant-ligatures:normal;font-variant-position:normal;font-variant-caps:normal;font-variant-numeric:normal;font-variant-alternates:normal;font-feature-settings:normal;text-indent:0;text-align:start;text-decoration:none;text-decoration-line:none;text-decoration-style:solid;text-decoration-color:#000000;letter-spacing:normal;word-spacing:normal;text-transform:none;writing-mode:lr-tb;direction:ltr;text-orientation:mixed;dominant-baseline:auto;baseline-shift:baseline;text-anchor:start;white-space:normal;shape-padding:0;clip-rule:nonzero;display:inline;overflow:visible;visibility:visible;opacity:0.98999999;isolation:auto;mix-blend-mode:normal;color-interpolation:sRGB;color-interpolation-filters:linearRGB;solid-color:#000000;solid-opacity:1;vector-effect:none;fill:#000000;fill-opacity:1;fill-rule:nonzero;stroke:none;stroke-width:1.10000002;stroke-linecap:round;stroke-linejoin:round;stroke-miterlimit:4;stroke-dasharray:none;stroke-dashoffset:0;stroke-opacity:1;color-rendering:auto;image-rendering:auto;shape-rendering:auto;text-rendering:auto;enable-background:accumulate"
     d="M 4.5 0.94921875 A 0.55005501 0.55005501 0 0 0 3.9492188 1.5 L 3.9492188 2.9492188 L 1 2.9492188 A 0.5507812 0.5507812 0 0 0 1 4.0507812 L 15 4.0507812 A 0.5507812 0.5507812 0 1 0 15 2.9492188 L 12.050781 2.9492188 L 12.050781 1.5 A 0.55005501 0.55005501 0 0 0 11.5 0.94921875 L 4.5 0.94921875 z M 5.0507812 2.0507812 L 10.949219 2.0507812 L 10.949219 2.9492188 L 5.0507812 2.9492188 L 5.0507812 2.0507812 z M 3.4921875 4.9414062 A 0.55005501 0.55005501 0 0 0 2.9492188 5.5 L 2.9492188 14.5 A 0.55005501 0.55005501 0 0 0 3.5 15.050781 L 8.0429688 15.050781 A 5 5 0 0 1 7.4023438 13.949219 L 4.0507812 13.949219 L 4.0507812 5.5 A 0.55005501 0.55005501 0 0 0 3.4921875 4.9414062 z M 6.4921875 4.9414062 A 0.55005501 0.55005501 0 0 0 5.9492188 5.5 L 5.9492188 12.5 A 0.5507812 0.5507812 0 0 0 7.0410156 12.597656 A 5 5 0 0 1 7 12 A 5 5 0 0 1 7.0507812 11.330078 L 7.0507812 5.5 A 0.55005501 0.55005501 0 0 0 6.4921875 4.9414062 z M 9.4921875 4.9414062 A 0.55005501 0.55005501 0 0 0 8.9492188 5.5 L 8.9492188 8.0429688 A 5 5 0 0 1 10.050781 7.4023438 L 10.050781 5.5 A 0.55005501 0.55005501 0 0 0 9.4921875 4.9414062 z M 12.484375 4.9492188 A 0.550781 0.550781 0 0 0 11.949219 5.5 L 11.949219 7.0019531 A 5 5 0 0 1 12 7 A 5 5 0 0 1 13.050781 7.1132812 L 13.050781 5.5 A 0.550781 0.550781 0 0 0 12.484375 4.9492188 z "
     id="path4137" />
  <path
     style="opacity:1;fill:#000006;fill-opacity:1;fill-rule:nonzero;stroke:none;stroke-width:1;stroke-linecap:round;stroke-linejoin:round;stroke-miterlimit:4;stroke-dasharray:none;stroke-dashoffset:0;stroke-opacity:1"
     d="M 12 8 A 4 4 0 0 0 8 12 A 4 4 0 0 0 12 16 A 4 4 0 0 0 16 12 A 4 4 0 0 0 12 8 z M 10.494141 9.9941406 A 0.50005 0.50005 0 0 1 10.853516 10.146484 L 12 11.292969 L 13.146484 10.146484 A 0.50005 0.50005 0 0 1 13.490234 9.9960938 A 0.50005 0.50005 0 0 1 13.853516 10.853516 L 12.707031 12 L 13.853516 13.146484 A 0.50005 0.50005 0 1 1 13.146484 13.853516 L 12 12.707031 L 10.853516 13.853516 A 0.50005 0.50005 0 1 1 10.146484 13.146484 L 11.292969 12 L 10.146484 10.853516 A 0.50005 0.50005 0 0 1 10.494141 9.9941406 z "
     id="path834" />
</svg>
