<?xml version="1.0" encoding="UTF-8" standalone="no"?>
<svg
   height="16"
   width="16"
   version="1.1"
   id="svg5"
   sodipodi:docname="vcs-resolve-left.svg"
   inkscape:version="1.2.2 (b0a8486541, 2022-12-01)"
   xmlns:inkscape="http://www.inkscape.org/namespaces/inkscape"
   xmlns:sodipodi="http://sodipodi.sourceforge.net/DTD/sodipodi-0.dtd"
   xmlns="http://www.w3.org/2000/svg"
   xmlns:svg="http://www.w3.org/2000/svg">
  <defs
     id="defs7" />
  <sodipodi:namedview
     id="namedview1"
     showgrid="true"
     pagecolor="#505050"
     bordercolor="#eeeeee"
     borderopacity="1"
     inkscape:showpageshadow="0"
     inkscape:pageopacity="0"
     inkscape:pagecheckerboard="0"
     inkscape:deskcolor="#505050"
     inkscape:zoom="65.8125"
     inkscape:cx="4.7635328"
     inkscape:cy="8.045584"
     inkscape:window-width="2560"
     inkscape:window-height="1404"
     inkscape:window-x="3840"
     inkscape:window-y="725"
     inkscape:window-maximized="1"
     inkscape:current-layer="svg5">
    <inkscape:grid
       type="xygrid"
       id="grid1px"
       empspacing="4" />
    <inkscape:grid
       type="xygrid"
       id="grid1pxdot"
       empspacing="1"
       dotted="true"
       originy="0.5"
       originx="0.5" />
  </sodipodi:namedview>
  <path
     id="rect341"
     style="fill:#000000;stroke-width:2;stroke-linecap:round;stroke-linejoin:round;stop-color:#000000;fill-opacity:1"
     d="M 3 1 C 1.8920011 1 1 1.8920011 1 3 L 1 13 C 1 14.107999 1.8920011 15 3 15 L 13 15 C 14.107999 15 15 14.107999 15 13 L 15 3 C 15 1.8920011 14.107999 1 13 1 L 3 1 z M 9.5 3 A 1 1 0 0 1 10.207031 3.2929688 A 1 1 0 0 1 10.207031 4.7070312 L 6.9140625 8 L 9 10.085938 L 9.7070312 9.3789062 A 1.0001 1.0001 0 0 1 10.796875 9.1621094 A 1.0001 1.0001 0 0 1 11.414062 10.085938 L 11.414062 12.914062 A 1.0001 1.0001 0 0 1 10.414062 13.914062 L 7.5859375 13.914062 A 1.0001 1.0001 0 0 1 6.8789062 12.207031 L 7.5859375 11.5 L 4.7929688 8.7070312 A 1.0001 1.0001 0 0 1 4.7929688 7.2929688 L 8.7929688 3.2929688 A 1 1 0 0 1 9.5 3 z " />
</svg>
