<?xml version="1.0" encoding="UTF-8" standalone="no"?>
<svg
   height="16"
   width="16"
   version="1.1"
   id="svg5"
   sodipodi:docname="vcs-resolve-none.svg"
   inkscape:version="1.2.2 (b0a8486541, 2022-12-01)"
   xmlns:inkscape="http://www.inkscape.org/namespaces/inkscape"
   xmlns:sodipodi="http://sodipodi.sourceforge.net/DTD/sodipodi-0.dtd"
   xmlns="http://www.w3.org/2000/svg"
   xmlns:svg="http://www.w3.org/2000/svg">
  <defs
     id="defs7" />
  <sodipodi:namedview
     id="namedview1"
     showgrid="true"
     pagecolor="#505050"
     bordercolor="#eeeeee"
     borderopacity="1"
     inkscape:showpageshadow="0"
     inkscape:pageopacity="0"
     inkscape:pagecheckerboard="0"
     inkscape:deskcolor="#505050"
     inkscape:zoom="65.8125"
     inkscape:cx="5.1282051"
     inkscape:cy="8.0151947"
     inkscape:window-width="2560"
     inkscape:window-height="1404"
     inkscape:window-x="3840"
     inkscape:window-y="725"
     inkscape:window-maximized="1"
     inkscape:current-layer="svg5">
    <inkscape:grid
       type="xygrid"
       id="grid1px"
       empspacing="4" />
    <inkscape:grid
       type="xygrid"
       id="grid1pxdot"
       empspacing="1"
       dotted="true"
       originy="0.5"
       originx="0.5" />
  </sodipodi:namedview>
  <path
     id="rect234"
     style="fill:#000000;stroke-width:16;stroke-linecap:round;stroke-linejoin:round;stop-color:#000000;fill-opacity:1"
     d="M 3 -1 C 1.8920011 -1 1 -1.8920011 1 -3 L 1 -13 C 1 -14.107999 1.8920011 -15 3 -15 L 13 -15 C 14.107999 -15 15 -14.107999 15 -13 L 15 -3 C 15 -1.8920011 14.107999 -1 13 -1 L 3 -1 z M 8 -2 A 1 -1 0 0 0 9 -3 L 9 -10 A 1 -1 0 0 0 8 -11 A 1 -1 0 0 0 7 -10 L 7 -3 A 1 -1 0 0 0 8 -2 z M 8 -12 A 1 -1 0 0 0 9 -13 A 1 -1 0 0 0 8 -14 A 1 -1 0 0 0 7 -13 A 1 -1 0 0 0 8 -12 z "
     transform="scale(1,-1)" />
</svg>
