<?xml version="1.0" encoding="UTF-8" standalone="no"?>
<svg
   height="16"
   width="16"
   version="1.1"
   id="svg5"
   sodipodi:docname="vcs-resolve-right.svg"
   inkscape:version="1.2 (dc2aedaf03, 2022-05-15)"
   xmlns:inkscape="http://www.inkscape.org/namespaces/inkscape"
   xmlns:sodipodi="http://sodipodi.sourceforge.net/DTD/sodipodi-0.dtd"
   xmlns="http://www.w3.org/2000/svg"
   xmlns:svg="http://www.w3.org/2000/svg">
  <defs
     id="defs7" />
  <sodipodi:namedview
     id="namedview1"
     showgrid="true"
     pagecolor="#505050"
     bordercolor="#eeeeee"
     borderopacity="1"
     inkscape:showpageshadow="0"
     inkscape:pageopacity="0"
     inkscape:pagecheckerboard="0"
     inkscape:deskcolor="#505050"
     inkscape:zoom="65.8125"
     inkscape:cx="7.0883191"
     inkscape:cy="8.0075973"
     inkscape:window-width="2560"
     inkscape:window-height="1403"
     inkscape:window-x="0"
     inkscape:window-y="0"
     inkscape:window-maximized="1"
     inkscape:current-layer="svg5">
    <inkscape:grid
       type="xygrid"
       id="grid1px"
       empspacing="4" />
    <inkscape:grid
       type="xygrid"
       id="grid1pxdot"
       empspacing="1"
       dotted="true"
       originy="0.5"
       originx="0.5" />
  </sodipodi:namedview>
  <path
     id="rect234"
     style="fill:#ffffff;stroke-width:16;stroke-linecap:round;stroke-linejoin:round;stop-color:#000000"
     d="M 3,1 C 1.892001,1 1,1.8920011 1,3 v 10 c 0,1.107999 0.892001,2 2,2 h 10 c 1.107999,0 2,-0.892001 2,-2 V 3 C 15,1.8920011 14.107999,1 13,1 Z M 4.921875,5.003906 A 1.0001,1.0001 0 0 1 5.382812,5.076176 1.0001,1.0001 0 0 1 6,6 v 1 h 7 a 1,1 0 0 1 1,1 1,1 0 0 1 -1,1 H 6 v 1 a 1.0001,1.0001 0 0 1 -1.707031,0.707031 l -2,-2 A 1.0001,1.0001 0 0 1 2.146484,8.515625 1,1 0 0 1 2.105464,8.429685 1.0001,1.0001 0 0 1 2.048824,8.296872 1,1 0 0 1 2.025384,8.191403 1.0001,1.0001 0 0 1 2.005854,8.044919 1,1 0 0 1 2,8 1,1 0 0 1 2.0059,7.95508 1.0001,1.0001 0 0 1 2.02543,7.808596 1,1 0 0 1 2.04887,7.703127 1.0001,1.0001 0 0 1 2.10551,7.570315 1,1 0 0 1 2.14653,7.484375 1.0001,1.0001 0 0 1 2.293015,7.292969 l 2,-2 A 1.0001,1.0001 0 0 1 4.921921,5.003906 Z" />
</svg>
