<?xml version="1.0" encoding="UTF-8" standalone="no"?>
<svg
   height="16"
   width="16"
   version="1.1"
   id="svg5"
   sodipodi:docname="vcs-resolve-left-right.svg"
   inkscape:version="1.2 (dc2aedaf03, 2022-05-15)"
   xmlns:inkscape="http://www.inkscape.org/namespaces/inkscape"
   xmlns:sodipodi="http://sodipodi.sourceforge.net/DTD/sodipodi-0.dtd"
   xmlns="http://www.w3.org/2000/svg"
   xmlns:svg="http://www.w3.org/2000/svg">
  <defs
     id="defs7" />
  <sodipodi:namedview
     id="namedview1"
     showgrid="true"
     pagecolor="#505050"
     bordercolor="#eeeeee"
     borderopacity="1"
     inkscape:showpageshadow="0"
     inkscape:pageopacity="0"
     inkscape:pagecheckerboard="0"
     inkscape:deskcolor="#505050"
     inkscape:zoom="65.8125"
     inkscape:cx="7.0731244"
     inkscape:cy="8.0075973"
     inkscape:window-width="2560"
     inkscape:window-height="1403"
     inkscape:window-x="0"
     inkscape:window-y="0"
     inkscape:window-maximized="1"
     inkscape:current-layer="svg5">
    <inkscape:grid
       type="xygrid"
       id="grid1px"
       empspacing="4" />
    <inkscape:grid
       type="xygrid"
       id="grid1pxdot"
       empspacing="1"
       dotted="true"
       originy="0.5"
       originx="0.5" />
  </sodipodi:namedview>
  <path
     id="rect234"
     style="fill:#ffffff;stroke-width:16;stroke-linecap:round;stroke-linejoin:round;stop-color:#000000"
     d="M 3 -1 C 1.8920011 -1 1 -1.8920011 1 -3 L 1 -13 C 1 -14.107999 1.8920011 -15 3 -15 L 13 -15 C 14.107999 -15 15 -14.107999 15 -13 L 15 -3 C 15 -1.8920011 14.107999 -1 13 -1 L 3 -1 z M 8 -7 L 13 -7 A 1 -1 0 0 0 14 -8 A 1 -1 0 0 0 13 -9 L 8.4140625 -9 L 6.0175781 -11.396484 L 6.828125 -12.207031 A 1.0001 -1.0001 0 0 0 6.1210938 -13.914062 L 3.2929688 -13.914062 A 1.0001 -1.0001 0 0 0 2.2929688 -12.914062 L 2.2929688 -10.085938 A 1.0001 -1.0001 0 0 0 2.9101562 -9.1621094 A 1.0001 -1.0001 0 0 0 4 -9.3789062 L 4.6035156 -9.9824219 L 7.2929688 -7.2929688 A 1.0001 -1.0001 0 0 0 8 -7 z "
     transform="scale(1,-1)" />
</svg>
