<?xml version="1.0" encoding="UTF-8" standalone="no"?>
<svg
   height="16"
   width="16"
   version="1.1"
   id="svg5"
   sodipodi:docname="vcs-cherry-pick.svg"
   inkscape:version="1.1.2 (0a00cf5339, 2022-02-04, custom)"
   xmlns:inkscape="http://www.inkscape.org/namespaces/inkscape"
   xmlns:sodipodi="http://sodipodi.sourceforge.net/DTD/sodipodi-0.dtd"
   xmlns="http://www.w3.org/2000/svg"
   xmlns:svg="http://www.w3.org/2000/svg">
  <defs
     id="defs7" />
  <sodipodi:namedview
     id="namedview1"
     showgrid="true"
     pagecolor="#505050"
     bordercolor="#eeeeee"
     borderopacity="1"
     inkscape:pageshadow="0"
     inkscape:pageopacity="0"
     inkscape:pagecheckerboard="0"
     inkscape:snap-object-midpoints="true"
     inkscape:zoom="56.1875"
     inkscape:cx="8"
     inkscape:cy="7.9911012"
     inkscape:window-width="2560"
     inkscape:window-height="1403"
     inkscape:window-x="0"
     inkscape:window-y="0"
     inkscape:window-maximized="1"
     inkscape:current-layer="svg5">
    <inkscape:grid
       type="xygrid"
       id="grid1px"
       empspacing="4" />
    <inkscape:grid
       type="xygrid"
       id="grid1pxdot"
       empspacing="1"
       dotted="true"
       originy="0.5"
       originx="0.5" />
  </sodipodi:namedview>
  <path
     id="circle950"
     style="fill:#000000;stroke:none;stroke-linecap:round;stroke-linejoin:round;stop-color:#000000"
     d="M 5 5 A 4 4 0 0 0 1 9 A 4 4 0 0 0 5 13 A 4 4 0 0 0 6.5625 12.673828 C 6.2047168 12.028842 6 11.287654 6 10.5 C 6 8.8534652 6.8919503 7.4094618 8.2167969 6.625 A 4 4 0 0 0 5 5 z " />
  <circle
     style="fill:#000000;stroke:none;stroke-linecap:round;stroke-linejoin:round;stop-color:#000000"
     id="circle952"
     cx="10.5"
     cy="10.5"
     r="4" />
  <path
     style="fill:none;stroke:#000000;stroke-width:1px;stroke-linecap:butt;stroke-linejoin:miter;stroke-opacity:1"
     d="M 5,6 C 6.4199649,3.9736961 7.6972831,1.8490332 13,2.5 11.75186,3.8386507 10.311603,4.9481895 10.5,8"
     id="path1178"
     sodipodi:nodetypes="ccc" />
</svg>
