<?xml version="1.0" encoding="UTF-8" standalone="no"?>
<svg
   height="16"
   width="16"
   id="svg2"
   version="1.1"
   inkscape:version="1.4.2 (ebf0e940, 2025-05-08)"
   sodipodi:docname="video-display-share.svg"
   xmlns:inkscape="http://www.inkscape.org/namespaces/inkscape"
   xmlns:sodipodi="http://sodipodi.sourceforge.net/DTD/sodipodi-0.dtd"
   xmlns="http://www.w3.org/2000/svg"
   xmlns:svg="http://www.w3.org/2000/svg"
   xmlns:rdf="http://www.w3.org/1999/02/22-rdf-syntax-ns#"
   xmlns:cc="http://creativecommons.org/ns#"
   xmlns:dc="http://purl.org/dc/elements/1.1/">
  <metadata
     id="metadata9">
    <rdf:RDF>
      <cc:Work
         rdf:about="">
        <dc:format>image/svg+xml</dc:format>
        <dc:type
           rdf:resource="http://purl.org/dc/dcmitype/StillImage" />
      </cc:Work>
    </rdf:RDF>
  </metadata>
  <defs
     id="defs7" />
  <sodipodi:namedview
     id="namedview1"
     showgrid="true"
     inkscape:zoom="14.239463"
     inkscape:cx="7.5845556"
     inkscape:cy="12.67604"
     inkscape:window-width="1680"
     inkscape:window-height="1026"
     inkscape:window-x="158"
     inkscape:window-y="45"
     inkscape:window-maximized="0"
     inkscape:current-layer="svg2"
     pagecolor="#505050"
     bordercolor="#eeeeee"
     borderopacity="1"
     inkscape:showpageshadow="0"
     inkscape:pageopacity="0"
     inkscape:pagecheckerboard="0"
     inkscape:deskcolor="#d1d1d1">
    <inkscape:grid
       type="xygrid"
       id="grid1px"
       empspacing="4"
       originx="0"
       originy="0"
       spacingy="1"
       spacingx="1"
       units="px" />
    <inkscape:grid
       type="xygrid"
       id="grid1pxdot"
       empspacing="1"
       dotted="true"
       originy="0.5"
       originx="0.5"
       spacingy="1"
       spacingx="1"
       units="px" />
  </sodipodi:namedview>
  <path
     id="path5"
     style="baseline-shift:baseline;display:inline;overflow:visible;opacity:0.99;vector-effect:none;stroke-linecap:round;stroke-linejoin:round;enable-background:accumulate;stop-color:#000000"
     d="M 1.5 1 A 0.50005 0.50005 0 0 0 1 1.5 L 1 12.5 A 0.50005 0.50005 0 0 0 1.5 13 L 14.5 13 A 0.50005 0.50005 0 0 0 15 12.5 L 15 1.5 A 0.50005 0.50005 0 0 0 14.5 1 L 1.5 1 z M 8 4 A 0.50005 0.50005 0 0 1 8.3769531 4.1699219 L 11.876953 8.1699219 A 0.50005 0.50005 0 0 1 11.5 9 L 4.5 9 A 0.50005 0.50005 0 0 1 4.1230469 8.1699219 L 7.6230469 4.1699219 A 0.50005 0.50005 0 0 1 8 4 z " />
  <path
     style="opacity:0.98999999;fill:none;fill-opacity:1;fill-rule:nonzero;stroke:#000000;stroke-width:1;stroke-linecap:round;stroke-linejoin:round;stroke-miterlimit:4;stroke-dasharray:none;stroke-opacity:1"
     d="m 4.5,14.5 7,0"
     id="path4143"
     inkscape:connector-curvature="0" />
</svg>
