<?xml version="1.0" encoding="UTF-8" standalone="no"?>
<svg
   xmlns:dc="http://purl.org/dc/elements/1.1/"
   xmlns:cc="http://creativecommons.org/ns#"
   xmlns:rdf="http://www.w3.org/1999/02/22-rdf-syntax-ns#"
   xmlns:svg="http://www.w3.org/2000/svg"
   xmlns="http://www.w3.org/2000/svg"
   xmlns:sodipodi="http://sodipodi.sourceforge.net/DTD/sodipodi-0.dtd"
   xmlns:inkscape="http://www.inkscape.org/namespaces/inkscape"
   height="16"
   width="16"
   version="1.1"
   id="svg5"
   sodipodi:docname="view-bank-account-savings.svg"
   inkscape:version="0.92.0 r">
  <metadata
     id="metadata9">
    <rdf:RDF>
      <cc:Work
         rdf:about="">
        <dc:format>image/svg+xml</dc:format>
        <dc:type
           rdf:resource="http://purl.org/dc/dcmitype/StillImage" />
        <dc:title></dc:title>
      </cc:Work>
    </rdf:RDF>
  </metadata>
  <defs
     id="defs7" />
  <sodipodi:namedview
     id="namedview1"
     showgrid="true"
     inkscape:zoom="59"
     inkscape:cx="9.9535538"
     inkscape:cy="7.8972778"
     inkscape:window-width="1680"
     inkscape:window-height="1016"
     inkscape:window-x="0"
     inkscape:window-y="0"
     inkscape:window-maximized="1"
     inkscape:current-layer="svg5">
    <inkscape:grid
       type="xygrid"
       id="grid1px"
       empspacing="4" />
    <inkscape:grid
       type="xygrid"
       id="grid1pxdot"
       empspacing="1"
       dotted="true"
       originy="0.5"
       originx="0.5" />
  </sodipodi:namedview>
  <g
     aria-label="SAV"
     style="font-style:normal;font-variant:normal;font-weight:normal;font-stretch:normal;font-size:7.27300787px;line-height:9.20983601px;font-family:contemporary;-inkscape-font-specification:'contemporary, Normal';text-align:start;letter-spacing:0px;word-spacing:0px;writing-mode:lr-tb;text-anchor:start;fill:#000000;fill-opacity:1;stroke:none;stroke-width:1px;stroke-linecap:butt;stroke-linejoin:miter;stroke-opacity:1"
     id="text4489"
     transform="translate(-0.3590148,-0.0138553)">
    <path
       d="m 5.5073146,6.711987 q 0.00727,0.065457 -0.043638,0.1163682 -0.050911,0.043638 -0.1163681,0.043638 H 5.0491151 q -0.087276,0 -0.1309141,-0.029092 Q 4.874563,6.8065361 4.8236519,6.711987 4.7072838,6.4865238 4.4163635,6.2683335 4.1327162,6.0501433 3.6599706,6.0501433 q -0.4363804,0 -0.7418468,0.1963712 -0.2981933,0.1963712 -0.2981933,0.5600216 0,0.2472823 0.1454602,0.4072885 0.1527331,0.1527331 0.4509265,0.2691013 0.3054663,0.1090951 0.916399,0.2691013 0.8291229,0.2181902 1.1709542,0.5382025 0.3491044,0.3127394 0.3491044,0.858215 0,0.4363804 -0.2472823,0.7709388 -0.2400092,0.3345585 -0.6836627,0.5236565 -0.4436535,0.189098 -1.0254941,0.189098 -0.5382026,0 -0.9818561,-0.203644 Q 2.2708261,10.22485 2.0162709,9.9121105 1.7617156,9.5920981 1.7471696,9.2793588 q 0,-0.065457 0.043638,-0.1090951 0.050911,-0.050911 0.1163681,-0.050911 h 0.2981934 q 0.080003,0 0.1309141,0.036365 0.050911,0.029092 0.094549,0.1236411 0.1163681,0.2618283 0.4218345,0.4800185 0.3127393,0.2181903 0.8436689,0.2181903 0.5309296,0 0.8945799,-0.2254633 Q 4.961839,9.5193681 4.961839,9.1484447 4.961839,8.9084354 4.7654677,8.7484292 4.5763696,8.58115 4.2418113,8.4720549 3.9072529,8.3556868 3.2599552,8.1884076 2.5544734,8.0065824 2.2417341,7.6647511 1.9289948,7.3156467 1.9289948,6.8065361 q 0,-0.3781964 0.1963712,-0.6982087 Q 2.3217372,5.788315 2.7144796,5.5919438 3.107222,5.3955726 3.6599706,5.3955726 q 0.5527486,0 0.9673101,0.2181902 0.4145614,0.2109173 0.6400247,0.5236566 0.2254632,0.3127393 0.2400092,0.5745676 z"
       style="stroke-width:1px"
       id="path4491"
       inkscape:connector-curvature="0" />
    <path
       d="M 7.1101038,9.4102729 6.7319074,10.377583 q -0.065457,0.181825 -0.2836473,0.181825 H 6.1791588 q -0.065457,0 -0.1163682,-0.04364 -0.043638,-0.05091 -0.043638,-0.116368 0,-0.03636 0.029092,-0.101822 L 7.8301316,5.7083119 Q 7.9246807,5.4683027 8.1574169,5.4683027 h 0.4363805 q 0.2327362,0 0.3272853,0.2400092 L 10.695697,10.29758 q 0.02909,0.06546 0.02909,0.101822 0,0.06546 -0.05091,0.116368 -0.04364,0.04364 -0.109095,0.04364 H 10.29568 q -0.21819,0 -0.283647,-0.181825 L 9.6338375,9.4102729 Z M 9.3792822,8.7557022 8.3756071,6.1592384 7.364659,8.7557022 Z"
       style="stroke-width:1px"
       id="path4493"
       inkscape:connector-curvature="0" />
    <path
       d="m 14.258106,5.6501279 q 0.06546,-0.1818252 0.283648,-0.1818252 h 0.269101 q 0.06546,0 0.109095,0.050911 0.05091,0.043638 0.05091,0.1090952 0,0.036365 -0.01455,0.07273 l -1.57097,4.5674491 q -0.04364,0.138187 -0.14546,0.21819 -0.09455,0.07273 -0.240009,0.07273 h -0.29092 q -0.283648,0 -0.378197,-0.29092 L 10.752517,5.7010389 q -0.01455,-0.036365 -0.01455,-0.07273 0,-0.065457 0.04364,-0.1090952 0.05091,-0.050911 0.116368,-0.050911 h 0.269101 q 0.21819,0 0.283647,0.1818252 l 1.403691,4.1819795 z"
       style="stroke-width:1px"
       id="path4495"
       inkscape:connector-curvature="0" />
  </g>
</svg>
