<?xml version="1.0" encoding="UTF-8" standalone="no"?>
<svg
   xmlns:dc="http://purl.org/dc/elements/1.1/"
   xmlns:cc="http://creativecommons.org/ns#"
   xmlns:rdf="http://www.w3.org/1999/02/22-rdf-syntax-ns#"
   xmlns:svg="http://www.w3.org/2000/svg"
   xmlns="http://www.w3.org/2000/svg"
   xmlns:sodipodi="http://sodipodi.sourceforge.net/DTD/sodipodi-0.dtd"
   xmlns:inkscape="http://www.inkscape.org/namespaces/inkscape"
   height="16"
   width="16"
   version="1.1"
   id="svg5"
   sodipodi:docname="view-bank-account-checking.svg"
   inkscape:version="0.92.0 r">
  <metadata
     id="metadata9">
    <rdf:RDF>
      <cc:Work
         rdf:about="">
        <dc:format>image/svg+xml</dc:format>
        <dc:type
           rdf:resource="http://purl.org/dc/dcmitype/StillImage" />
        <dc:title></dc:title>
      </cc:Work>
    </rdf:RDF>
  </metadata>
  <defs
     id="defs7" />
  <sodipodi:namedview
     id="namedview1"
     showgrid="true"
     inkscape:zoom="14.75"
     inkscape:cx="8.8612769"
     inkscape:cy="8"
     inkscape:window-width="1680"
     inkscape:window-height="1016"
     inkscape:window-x="0"
     inkscape:window-y="0"
     inkscape:window-maximized="1"
     inkscape:current-layer="svg5">
    <inkscape:grid
       type="xygrid"
       id="grid1px"
       empspacing="4" />
    <inkscape:grid
       type="xygrid"
       id="grid1pxdot"
       empspacing="1"
       dotted="true"
       originy="0.5"
       originx="0.5" />
  </sodipodi:namedview>
  <g
     aria-label="CHQ"
     style="font-style:normal;font-variant:normal;font-weight:normal;font-stretch:normal;font-size:6.79553509px;line-height:8.60521126px;font-family:contemporary;-inkscape-font-specification:'contemporary, Normal';text-align:start;letter-spacing:0px;word-spacing:0px;writing-mode:lr-tb;text-anchor:start;fill:#000000;fill-opacity:1;stroke:none;stroke-width:1px;stroke-linecap:butt;stroke-linejoin:miter;stroke-opacity:1"
     id="text4488">
    <path
       d="m 2.0681351,8.3839475 q 0.020387,0.5776204 0.3465723,0.9241927 0.3329812,0.3397768 0.9241927,0.3397768 0.5980071,0 0.8834196,-0.2582303 0.2854125,-0.2582304 0.38055,-0.6659625 0.013591,-0.067955 0.06116,-0.1087285 0.054364,-0.040773 0.1155241,-0.040773 h 0.3125946 q 0.06116,0 0.101933,0.047569 0.047569,0.040773 0.047569,0.101933 -0.013591,0.3329812 -0.2174572,0.6931446 -0.203866,0.3533678 -0.6319847,0.5980072 -0.4213232,0.244639 -1.053308,0.244639 -0.5708249,0 -0.9989436,-0.237844 Q 1.9118378,9.7838277 1.673994,9.3693 1.4429458,8.9479769 1.4225592,8.4179251 q -0.0068,-0.203866 -0.0068,-0.6048026 0,-0.4009366 0.0068,-0.6048026 Q 1.4429458,6.6782682 1.673994,6.2637405 1.9118378,5.8424173 2.3399565,5.6045736 2.7680752,5.3667299 3.3389001,5.3667299 q 0.6319848,0 1.053308,0.2446392 0.4281187,0.2446393 0.6319847,0.6048027 0.2038661,0.3533678 0.2174572,0.686349 0,0.06116 -0.047569,0.1087286 -0.040773,0.040773 -0.101933,0.040773 H 4.7795536 q -0.06116,0 -0.1155241,-0.040773 Q 4.6164607,6.9704762 4.6028697,6.9025208 4.5077322,6.4947887 4.2223197,6.2365584 3.9369072,5.978328 3.3389001,5.978328 q -0.5912115,0 -0.9241927,0.3465723 -0.3261857,0.3397768 -0.3465723,0.9173973 -0.0068,0.203866 -0.0068,0.5708249 0,0.3669589 0.0068,0.570825 z"
       style="stroke-width:1px"
       id="path4490" />
    <path
       d="m 9.6381488,5.4346852 q 0.074751,0 0.1291152,0.054364 0.054364,0.054364 0.054364,0.1291152 V 10.00808 q 0,0.07475 -0.054364,0.129116 -0.054364,0.05436 -0.1291152,0.05436 H 9.3595319 q -0.074751,0 -0.1291152,-0.05436 -0.054364,-0.05436 -0.054364,-0.129116 V 8.0917394 H 6.7840241 V 10.00808 q 0,0.07475 -0.054364,0.129116 -0.054364,0.05436 -0.1291152,0.05436 H 6.3219277 q -0.074751,0 -0.1291152,-0.04757 -0.054364,-0.05436 -0.054364,-0.135911 V 5.6181647 q 0,-0.074751 0.054364,-0.1291152 0.054364,-0.054364 0.1291152,-0.054364 h 0.2786169 q 0.074751,0 0.1291152,0.054364 0.054364,0.054364 0.054364,0.1291152 V 7.4801413 H 9.1760524 V 5.6181647 q 0,-0.074751 0.054364,-0.1291152 0.054364,-0.054364 0.1291152,-0.054364 z"
       style="stroke-width:1px"
       id="path4492" />
    <path
       d="m 12.695078,5.978328 q -0.543643,0 -0.876624,0.3193902 -0.332982,0.3193901 -0.353368,0.9445794 -0.0068,0.203866 -0.0068,0.5708249 0,0.3669589 0.0068,0.570825 0.02039,0.6251892 0.353368,0.9445793 0.332981,0.3193902 0.876624,0.3193902 0.299003,0 0.530051,-0.095137 L 12.742646,8.8936126 q -0.02039,-0.040773 -0.02039,-0.067955 0,-0.06116 0.03398,-0.101933 0.04077,-0.040773 0.101933,-0.040773 h 0.319391 q 0.108728,0 0.169888,0.047569 0.06796,0.040773 0.115524,0.1087286 l 0.244639,0.3329812 q 0.203866,-0.3057991 0.217457,-0.788282 0.01359,-0.4077321 0.01359,-0.570825 0,-0.1630928 -0.01359,-0.5708249 Q 13.904683,6.6171083 13.571702,6.2977182 13.23872,5.978328 12.695078,5.978328 Z m 0,-0.6115981 q 0.57762,0 0.998943,0.2446392 0.421323,0.2446393 0.638781,0.6659625 0.224252,0.4145276 0.237843,0.9309883 0.01359,0.4077321 0.01359,0.6048026 0,0.1970705 -0.01359,0.6048026 -0.01359,0.3941411 -0.149501,0.7339178 -0.129116,0.3397768 -0.373755,0.584416 l 0.50287,0.6863491 q 0.02039,0.04077 0.02039,0.06795 0,0.06116 -0.04077,0.101933 -0.03398,0.04077 -0.09514,0.04077 h -0.319391 q -0.108728,0 -0.176683,-0.04757 -0.06116,-0.04077 -0.108729,-0.108729 L 13.54452,10.089627 q -0.373755,0.169888 -0.849442,0.169888 -0.577621,0 -0.998944,-0.244639 -0.414528,-0.2446394 -0.63878,-0.659167 -0.217457,-0.4213232 -0.237844,-0.9377839 -0.0068,-0.203866 -0.0068,-0.6048026 0,-0.4009366 0.0068,-0.6048026 0.01359,-0.5164607 0.231048,-0.9309883 0.224253,-0.4213232 0.645576,-0.6659625 0.421323,-0.2446392 0.998944,-0.2446392 z"
       style="stroke-width:1px"
       id="path4494" />
  </g>
</svg>
