<?xml version="1.0" encoding="UTF-8" standalone="no"?>
<svg
   xmlns:dc="http://purl.org/dc/elements/1.1/"
   xmlns:cc="http://creativecommons.org/ns#"
   xmlns:rdf="http://www.w3.org/1999/02/22-rdf-syntax-ns#"
   xmlns:svg="http://www.w3.org/2000/svg"
   xmlns="http://www.w3.org/2000/svg"
   xmlns:sodipodi="http://sodipodi.sourceforge.net/DTD/sodipodi-0.dtd"
   xmlns:inkscape="http://www.inkscape.org/namespaces/inkscape"
   height="16"
   width="16"
   id="svg2"
   version="1.1"
   inkscape:version="0.92.2 5c3e80d, 2017-08-06"
   sodipodi:docname="visibility.svg">
  <metadata
     id="metadata9">
    <rdf:RDF>
      <cc:Work
         rdf:about="">
        <dc:format>image/svg+xml</dc:format>
        <dc:type
           rdf:resource="http://purl.org/dc/dcmitype/StillImage" />
        <dc:title></dc:title>
      </cc:Work>
    </rdf:RDF>
  </metadata>
  <defs
     id="defs7" />
  <sodipodi:namedview
     id="namedview1"
     showgrid="true"
     inkscape:zoom="41.7193"
     inkscape:cx="9.6917114"
     inkscape:cy="6.0083989"
     inkscape:window-width="1680"
     inkscape:window-height="1016"
     inkscape:window-x="0"
     inkscape:window-y="0"
     inkscape:window-maximized="1"
     inkscape:current-layer="svg2">
    <inkscape:grid
       type="xygrid"
       id="grid1px"
       empspacing="4" />
    <inkscape:grid
       type="xygrid"
       id="grid1pxdot"
       empspacing="1"
       dotted="true"
       originy="0.5"
       originx="0.5" />
  </sodipodi:namedview>
  <path
     style="opacity:0.98999999;fill:#000000;fill-opacity:1;fill-rule:nonzero;stroke:none;stroke-width:1;stroke-linecap:round;stroke-linejoin:round;stroke-miterlimit:4;stroke-dasharray:none;stroke-dashoffset:0;stroke-opacity:1;paint-order:fill markers stroke"
     d="M 8 3.796875 A 7.9395357 7.9395357 0 0 0 1 7.9980469 A 7.9395357 7.9395357 0 0 0 8 12.203125 A 7.9395357 7.9395357 0 0 0 15 8.0019531 A 7.9395357 7.9395357 0 0 0 8 3.796875 z M 10.996094 9.0058594 A 0.50005 0.50005 0 0 1 11.353516 9.8671875 C 10.464234 10.756469 9.2576345 11.257813 8 11.257812 C 6.7423655 11.257813 5.5357663 10.756469 4.6464844 9.8671875 A 0.50005 0.50005 0 0 1 4.9941406 9.0097656 A 0.50005 0.50005 0 0 1 5.3535156 9.1601562 C 6.0555328 9.8621734 7.0071978 10.257812 8 10.257812 C 8.9928022 10.257814 9.9444676 9.8621735 10.646484 9.1601562 A 0.50005 0.50005 0 0 1 10.996094 9.0058594 z "
     id="path1434" />
</svg>
