<?xml version="1.0" encoding="UTF-8" standalone="no"?>
<svg
   xmlns:dc="http://purl.org/dc/elements/1.1/"
   xmlns:cc="http://creativecommons.org/ns#"
   xmlns:rdf="http://www.w3.org/1999/02/22-rdf-syntax-ns#"
   xmlns:svg="http://www.w3.org/2000/svg"
   xmlns="http://www.w3.org/2000/svg"
   xmlns:xlink="http://www.w3.org/1999/xlink"
   xmlns:sodipodi="http://sodipodi.sourceforge.net/DTD/sodipodi-0.dtd"
   xmlns:inkscape="http://www.inkscape.org/namespaces/inkscape"
   height="32"
   width="32"
   id="svg2"
   version="1.1"
   inkscape:version="0.91 r13725"
   sodipodi:docname="dialog-warning.svg">
  <metadata
     id="metadata9">
    <rdf:RDF>
      <cc:Work
         rdf:about="">
        <dc:format>image/svg+xml</dc:format>
        <dc:type
           rdf:resource="http://purl.org/dc/dcmitype/StillImage" />
        <dc:title></dc:title>
      </cc:Work>
    </rdf:RDF>
  </metadata>
  <defs
     id="defs7">
    <linearGradient
       inkscape:collect="always"
       id="linearGradient4139">
      <stop
         style="stop-color:#646400;stop-opacity:1"
         offset="0"
         id="stop4141" />
      <stop
         style="stop-color:#c8c800;stop-opacity:1"
         offset="1"
         id="stop4143" />
    </linearGradient>
    <linearGradient
       inkscape:collect="always"
       xlink:href="#linearGradient4139"
       id="linearGradient4145"
       x1="0"
       y1="32"
       x2="32"
       y2="0"
       gradientUnits="userSpaceOnUse" />
  </defs>
  <sodipodi:namedview
     id="namedview1"
     showgrid="true"
     inkscape:zoom="14.75"
     inkscape:cx="14.337814"
     inkscape:cy="13.36761"
     inkscape:window-width="1280"
     inkscape:window-height="766"
     inkscape:window-x="1680"
     inkscape:window-y="250"
     inkscape:window-maximized="1"
     inkscape:current-layer="svg2">
    <inkscape:grid
       type="xygrid"
       id="grid1px"
       empspacing="4" />
    <inkscape:grid
       type="xygrid"
       id="grid1pxdot"
       empspacing="1"
       dotted="true"
       originy="0.5"
       originx="0.5" />
  </sodipodi:namedview>
  <path
     style="opacity:0.98999999;fill:url(#linearGradient4145);fill-opacity:1;fill-rule:nonzero;stroke:none;stroke-width:1;stroke-linecap:round;stroke-linejoin:round;stroke-miterlimit:4;stroke-dasharray:none;stroke-opacity:1"
     d="M 16 0 A 16 16 0 0 0 0 16 A 16 16 0 0 0 16 32 A 16 16 0 0 0 32 16 A 16 16 0 0 0 16 0 z M 15.996094 2 A 0.50005 0.50005 0 0 1 16.003906 2 A 0.50005 0.50005 0 0 1 16.447266 2.2773438 L 27.947266 25.277344 A 0.50005 0.50005 0 0 1 27.5 26 L 4.5 26 A 0.50005 0.50005 0 0 1 4.0527344 25.277344 L 15.552734 2.2773438 A 0.50005 0.50005 0 0 1 15.996094 2 z M 15.634766 9.0898438 C 15.489988 9.0898438 15.365059 9.1427535 15.259766 9.2480469 C 15.154472 9.3533402 15.101562 9.4782685 15.101562 9.6230469 L 15.101562 19 C 15.101562 19.144778 15.154472 19.269707 15.259766 19.375 C 15.365059 19.480293 15.489988 19.533203 15.634766 19.533203 L 16.365234 19.533203 C 16.510012 19.533203 16.634941 19.480293 16.740234 19.375 C 16.845528 19.269707 16.898438 19.144778 16.898438 19 L 16.898438 9.6230469 C 16.898438 9.4782685 16.845528 9.3533402 16.740234 9.2480469 C 16.634941 9.1427535 16.510012 9.0898438 16.365234 9.0898438 L 15.634766 9.0898438 z M 15.4375 20.71875 C 15.292722 20.71875 15.167793 20.77166 15.0625 20.876953 C 14.957207 20.982246 14.904297 21.107174 14.904297 21.251953 L 14.904297 22.376953 C 14.904297 22.521732 14.957207 22.64666 15.0625 22.751953 C 15.167793 22.857246 15.292722 22.910156 15.4375 22.910156 L 16.5625 22.910156 C 16.707278 22.910156 16.832207 22.857246 16.9375 22.751953 C 17.042793 22.64666 17.095703 22.521732 17.095703 22.376953 L 17.095703 21.251953 C 17.095703 21.107174 17.042793 20.982246 16.9375 20.876953 C 16.832207 20.77166 16.707278 20.71875 16.5625 20.71875 L 15.4375 20.71875 z "
     id="path4137" />
</svg>
