<?xml version="1.0" encoding="UTF-8" standalone="no"?>
<svg
   xmlns:dc="http://purl.org/dc/elements/1.1/"
   xmlns:cc="http://creativecommons.org/ns#"
   xmlns:rdf="http://www.w3.org/1999/02/22-rdf-syntax-ns#"
   xmlns:svg="http://www.w3.org/2000/svg"
   xmlns="http://www.w3.org/2000/svg"
   xmlns:xlink="http://www.w3.org/1999/xlink"
   xmlns:sodipodi="http://sodipodi.sourceforge.net/DTD/sodipodi-0.dtd"
   xmlns:inkscape="http://www.inkscape.org/namespaces/inkscape"
   height="32"
   width="32"
   id="svg2"
   version="1.1"
   inkscape:version="0.91 r13725"
   sodipodi:docname="dialog-question.svg">
  <metadata
     id="metadata9">
    <rdf:RDF>
      <cc:Work
         rdf:about="">
        <dc:format>image/svg+xml</dc:format>
        <dc:type
           rdf:resource="http://purl.org/dc/dcmitype/StillImage" />
        <dc:title></dc:title>
      </cc:Work>
    </rdf:RDF>
  </metadata>
  <defs
     id="defs7">
    <linearGradient
       inkscape:collect="always"
       id="linearGradient4139">
      <stop
         style="stop-color:#0064ff;stop-opacity:1"
         offset="0"
         id="stop4141" />
      <stop
         style="stop-color:#00c8ff;stop-opacity:1"
         offset="1"
         id="stop4143" />
    </linearGradient>
    <linearGradient
       inkscape:collect="always"
       xlink:href="#linearGradient4139"
       id="linearGradient4145"
       x1="0"
       y1="32"
       x2="32"
       y2="0"
       gradientUnits="userSpaceOnUse" />
  </defs>
  <sodipodi:namedview
     id="namedview1"
     showgrid="true"
     inkscape:zoom="14.75"
     inkscape:cx="13.841426"
     inkscape:cy="14.234265"
     inkscape:window-width="1280"
     inkscape:window-height="766"
     inkscape:window-x="1680"
     inkscape:window-y="250"
     inkscape:window-maximized="1"
     inkscape:current-layer="svg2">
    <inkscape:grid
       type="xygrid"
       id="grid1px"
       empspacing="4" />
    <inkscape:grid
       type="xygrid"
       id="grid1pxdot"
       empspacing="1"
       dotted="true"
       originy="0.5"
       originx="0.5" />
  </sodipodi:namedview>
  <path
     style="opacity:0.98999999;fill:url(#linearGradient4145);fill-opacity:1;fill-rule:nonzero;stroke:none;stroke-width:1;stroke-linecap:round;stroke-linejoin:round;stroke-miterlimit:4;stroke-dasharray:none;stroke-opacity:1"
     d="M 16 0 A 16 16 0 0 0 0 16 A 16 16 0 0 0 16 32 A 16 16 0 0 0 32 16 A 16 16 0 0 0 16 0 z M 16.0625 5.3398438 C 17.363821 5.3398438 18.523886 5.5893359 19.544922 6.0898438 C 20.585979 6.5703313 21.397926 7.2519186 21.978516 8.1328125 C 22.579125 8.9936861 22.878906 9.9545485 22.878906 11.015625 C 22.878906 11.816438 22.739269 12.525854 22.458984 13.146484 C 22.19872 13.747094 21.867203 14.268537 21.466797 14.708984 C 21.086411 15.129411 20.576198 15.609843 19.935547 16.150391 C 19.074674 16.891143 18.434099 17.552223 18.013672 18.132812 C 17.593245 18.713401 17.382812 19.434048 17.382812 20.294922 L 17.382812 20.714844 C 17.382812 20.935068 17.302741 21.124994 17.142578 21.285156 C 16.982416 21.445319 16.79249 21.525391 16.572266 21.525391 L 15.460938 21.525391 C 15.240714 21.525391 15.050788 21.445319 14.890625 21.285156 C 14.730462 21.124994 14.650391 20.935068 14.650391 20.714844 L 14.650391 20.083984 C 14.650391 19.283172 14.790028 18.583031 15.070312 17.982422 C 15.350597 17.361793 15.682114 16.840349 16.0625 16.419922 C 16.462907 15.999495 16.993627 15.489282 17.654297 14.888672 C 18.49515 14.167941 19.115218 13.536642 19.515625 12.996094 C 19.936052 12.435524 20.146484 11.776397 20.146484 11.015625 C 20.146484 10.05465 19.746125 9.2929907 18.945312 8.7324219 C 18.1445 8.171853 17.183638 7.8925781 16.0625 7.8925781 C 14.981403 7.8925781 14.080106 8.1625765 13.359375 8.703125 C 12.638644 9.2436735 12.137707 10.074175 11.857422 11.195312 C 11.817382 11.395516 11.716804 11.555659 11.556641 11.675781 C 11.416499 11.795903 11.256355 11.855469 11.076172 11.855469 L 9.7851562 11.855469 C 9.6049734 11.855469 9.4448297 11.795903 9.3046875 11.675781 C 9.1645453 11.535639 9.1049797 11.375495 9.125 11.195312 C 9.185061 10.254358 9.4755655 9.3325548 9.9960938 8.4316406 C 10.536642 7.5307264 11.316854 6.7915266 12.337891 6.2109375 C 13.378947 5.6303484 14.621037 5.3398437 16.0625 5.3398438 z M 15.160156 23.328125 L 16.873047 23.328125 C 17.09327 23.328125 17.283197 23.408197 17.443359 23.568359 C 17.603522 23.728522 17.683594 23.918449 17.683594 24.138672 L 17.683594 25.849609 C 17.683594 26.069833 17.603522 26.25976 17.443359 26.419922 C 17.283197 26.580085 17.09327 26.660156 16.873047 26.660156 L 15.160156 26.660156 C 14.939933 26.660156 14.750006 26.580085 14.589844 26.419922 C 14.429681 26.25976 14.349609 26.069833 14.349609 25.849609 L 14.349609 24.138672 C 14.349609 23.918449 14.429681 23.728522 14.589844 23.568359 C 14.750006 23.408197 14.939933 23.328125 15.160156 23.328125 z "
     id="path4137" />
</svg>
