<?xml version="1.0" encoding="UTF-8" standalone="no"?>
<svg
   xmlns:dc="http://purl.org/dc/elements/1.1/"
   xmlns:cc="http://creativecommons.org/ns#"
   xmlns:rdf="http://www.w3.org/1999/02/22-rdf-syntax-ns#"
   xmlns:svg="http://www.w3.org/2000/svg"
   xmlns="http://www.w3.org/2000/svg"
   xmlns:sodipodi="http://sodipodi.sourceforge.net/DTD/sodipodi-0.dtd"
   xmlns:inkscape="http://www.inkscape.org/namespaces/inkscape"
   height="16"
   width="16"
   id="svg2"
   version="1.1"
   inkscape:version="0.92.1 r"
   sodipodi:docname="application-x-executable.svg">
  <metadata
     id="metadata9">
    <rdf:RDF>
      <cc:Work
         rdf:about="">
        <dc:format>image/svg+xml</dc:format>
        <dc:type
           rdf:resource="http://purl.org/dc/dcmitype/StillImage" />
        <dc:title></dc:title>
      </cc:Work>
    </rdf:RDF>
  </metadata>
  <defs
     id="defs7" />
  <sodipodi:namedview
     id="namedview1"
     showgrid="true"
     inkscape:zoom="29.5"
     inkscape:cx="3.6575129"
     inkscape:cy="8.1841502"
     inkscape:window-width="1680"
     inkscape:window-height="1016"
     inkscape:window-x="0"
     inkscape:window-y="0"
     inkscape:window-maximized="1"
     inkscape:current-layer="svg2">
    <inkscape:grid
       type="xygrid"
       id="grid1px"
       empspacing="4" />
    <inkscape:grid
       type="xygrid"
       id="grid1pxdot"
       empspacing="1"
       dotted="true"
       originy="0.5"
       originx="0.5" />
  </sodipodi:namedview>
  <path
     style="opacity:0.98999999;fill:#ffc805;fill-opacity:1;fill-rule:nonzero;stroke:#fbc800;stroke-width:1.10000002;stroke-linecap:round;stroke-linejoin:round;stroke-miterlimit:4;stroke-dasharray:none;stroke-opacity:1"
     d="m 3.5,1.5 v 13 h 9 v -9 l -4,-4 z"
     id="path4139"
     inkscape:connector-curvature="0" />
  <path
     inkscape:connector-curvature="0"
     style="color:#000000;font-style:normal;font-variant:normal;font-weight:normal;font-stretch:normal;font-size:medium;line-height:normal;font-family:sans-serif;font-variant-ligatures:normal;font-variant-position:normal;font-variant-caps:normal;font-variant-numeric:normal;font-variant-alternates:normal;font-feature-settings:normal;text-indent:0;text-align:start;text-decoration:none;text-decoration-line:none;text-decoration-style:solid;text-decoration-color:#000000;letter-spacing:normal;word-spacing:normal;text-transform:none;writing-mode:lr-tb;direction:ltr;text-orientation:mixed;dominant-baseline:auto;baseline-shift:baseline;text-anchor:start;white-space:normal;shape-padding:0;clip-rule:nonzero;display:inline;overflow:visible;visibility:visible;opacity:1;isolation:auto;mix-blend-mode:normal;color-interpolation:sRGB;color-interpolation-filters:linearRGB;solid-color:#000000;solid-opacity:1;vector-effect:none;fill:#000000;fill-opacity:1;fill-rule:nonzero;stroke:none;stroke-width:0.99999994;stroke-linecap:round;stroke-linejoin:round;stroke-miterlimit:4;stroke-dasharray:none;stroke-dashoffset:0;stroke-opacity:1;color-rendering:auto;image-rendering:auto;shape-rendering:auto;text-rendering:auto;enable-background:accumulate"
     d="m 8.0137997,6.0121359 c -1.7613542,0 -3.1977861,1.4364322 -3.1977861,3.1977861 0,1.761354 1.4364319,3.197787 3.1977861,3.197787 1.7613542,0 3.1977863,-1.436433 3.1977863,-3.197787 0,-1.7613539 -1.4364321,-3.1977861 -3.1977863,-3.1977861 z m 0,0.7994465 c 1.329301,0 2.3983393,1.0690386 2.3983393,2.3983396 0,1.329301 -1.0690383,2.39834 -2.3983393,2.39834 -1.329301,0 -2.3983396,-1.069039 -2.3983396,-2.39834 0,-1.329301 1.0690386,-2.3983396 2.3983396,-2.3983396 z m 0,1.5988931 c -0.4367875,0 -0.7994465,0.362659 -0.7994465,0.7994465 0,0.4367875 0.362659,0.799447 0.7994465,0.799447 0.4367875,0 0.7994465,-0.3626595 0.7994465,-0.799447 0,-0.4367875 -0.362659,-0.7994465 -0.7994465,-0.7994465 z"
     id="path4503" />
  <path
     inkscape:connector-curvature="0"
     style="color:#000000;font-style:normal;font-variant:normal;font-weight:normal;font-stretch:normal;font-size:medium;line-height:normal;font-family:sans-serif;font-variant-ligatures:normal;font-variant-position:normal;font-variant-caps:normal;font-variant-numeric:normal;font-variant-alternates:normal;font-feature-settings:normal;text-indent:0;text-align:start;text-decoration:none;text-decoration-line:none;text-decoration-style:solid;text-decoration-color:#000000;letter-spacing:normal;word-spacing:normal;text-transform:none;writing-mode:lr-tb;direction:ltr;text-orientation:mixed;dominant-baseline:auto;baseline-shift:baseline;text-anchor:start;white-space:normal;shape-padding:0;clip-rule:nonzero;display:inline;overflow:visible;visibility:visible;opacity:1;isolation:auto;mix-blend-mode:normal;color-interpolation:sRGB;color-interpolation-filters:linearRGB;solid-color:#000000;solid-opacity:1;vector-effect:none;fill:#000000;fill-opacity:1;fill-rule:nonzero;stroke:none;stroke-width:0.99999994;stroke-linecap:round;stroke-linejoin:round;stroke-miterlimit:4;stroke-dasharray:none;stroke-dashoffset:0;stroke-opacity:1;color-rendering:auto;image-rendering:auto;shape-rendering:auto;text-rendering:auto;enable-background:accumulate"
     d="M 5.2032455,8.4104755 A 0.39976324,0.39976324 0 0 0 4.9331197,8.5275819 l -0.7978852,0.7978851 -0.00152,0.00156 a 0.39976324,0.39976324 0 0 0 -0.024983,0.028105 0.39976324,0.39976324 0 0 0 -0.00472,0.00468 0.39976324,0.39976324 0 0 0 -0.057776,0.098369 0.39976324,0.39976324 0 0 0 0,0.00156 0.39976324,0.39976324 0 0 0 -0.012495,0.035913 0.39976324,0.39976324 0 0 0 -0.015613,0.073387 0.39976324,0.39976324 0 0 0 0,0.00468 0.39976324,0.39976324 0 0 0 0,0.00156 0.39976324,0.39976324 0 0 0 -0.00157,0.034358 0.39976324,0.39976324 0 0 0 0,0.00624 v 3.191542 a 0.39976324,0.39976324 0 0 0 0.3122838,0.390354 l 3.5975093,0.799447 a 0.39976324,0.39976324 0 0 0 0.174879,0 l 3.5975094,-0.799447 a 0.39976324,0.39976324 0 0 0 0.312286,-0.390354 V 9.6096453 a 0.39976324,0.39976324 0 0 0 0,-0.00624 0.39976324,0.39976324 0 0 0 0,-0.00624 0.39976324,0.39976324 0 0 0 -0.0016,-0.028105 0.39976324,0.39976324 0 0 0 -0.0016,-0.01093 0.39976324,0.39976324 0 0 0 -0.0047,-0.028105 0.39976324,0.39976324 0 0 0 -0.0031,-0.01093 0.39976324,0.39976324 0 0 0 -0.01093,-0.039035 0.39976324,0.39976324 0 0 0 -0.0094,-0.026544 0.39976324,0.39976324 0 0 0 -0.0047,-0.01093 0.39976324,0.39976324 0 0 0 -0.01249,-0.024983 0.39976324,0.39976324 0 0 0 -0.0062,-0.00937 0.39976324,0.39976324 0 0 0 -0.01561,-0.024983 0.39976324,0.39976324 0 0 0 -0.0062,-0.00937 0.39976324,0.39976324 0 0 0 -0.01718,-0.02186 0.39976324,0.39976324 0 0 0 -0.0078,-0.00937 0.39976324,0.39976324 0 0 0 -0.01561,-0.015614 l -0.0047,-0.00468 L 11.094443,8.527594 A 0.39976324,0.39976324 0 0 0 10.805617,8.4104755 0.39976324,0.39976324 0 0 0 10.412139,8.8101988 V 9.4659947 L 8.0137997,10 5.6154601,9.4659947 V 8.8101988 A 0.39976324,0.39976324 0 0 0 5.2032455,8.4104755 Z"
     id="path4513" />
  <path
     style="opacity:0.98999999;fill:none;fill-opacity:1;fill-rule:nonzero;stroke:#000000;stroke-width:1.10000002;stroke-linecap:round;stroke-linejoin:round;stroke-miterlimit:4;stroke-dasharray:none;stroke-opacity:1"
     d="m 8.5,2.5 v 3 h 3"
     id="path4141"
     inkscape:connector-curvature="0"
     sodipodi:nodetypes="ccc" />
</svg>
