<?xml version="1.0" encoding="UTF-8" standalone="no"?>
<svg
   xmlns:dc="http://purl.org/dc/elements/1.1/"
   xmlns:cc="http://creativecommons.org/ns#"
   xmlns:rdf="http://www.w3.org/1999/02/22-rdf-syntax-ns#"
   xmlns:svg="http://www.w3.org/2000/svg"
   xmlns="http://www.w3.org/2000/svg"
   xmlns:sodipodi="http://sodipodi.sourceforge.net/DTD/sodipodi-0.dtd"
   xmlns:inkscape="http://www.inkscape.org/namespaces/inkscape"
   height="16"
   width="16"
   id="svg2"
   version="1.1"
   inkscape:version="1.0.2 (e86c870879, 2021-01-15)"
   sodipodi:docname="application-x-bittorrent.svg">
  <metadata
     id="metadata9">
    <rdf:RDF>
      <cc:Work
         rdf:about="">
        <dc:format>image/svg+xml</dc:format>
        <dc:type
           rdf:resource="http://purl.org/dc/dcmitype/StillImage" />
        <dc:title></dc:title>
      </cc:Work>
    </rdf:RDF>
  </metadata>
  <defs
     id="defs7" />
  <sodipodi:namedview
     id="namedview1"
     showgrid="true"
     inkscape:zoom="29.5"
     inkscape:cx="8.3354265"
     inkscape:cy="7.5083581"
     inkscape:window-width="1920"
     inkscape:window-height="1044"
     inkscape:window-x="2560"
     inkscape:window-y="0"
     inkscape:window-maximized="1"
     inkscape:current-layer="svg2"
     inkscape:document-rotation="0">
    <inkscape:grid
       type="xygrid"
       id="grid1px"
       empspacing="4" />
    <inkscape:grid
       type="xygrid"
       id="grid1pxdot"
       empspacing="1"
       dotted="true"
       originy="0.5"
       originx="0.5" />
  </sodipodi:namedview>
  <path
     id="path4139"
     style="opacity:0.98999999;fill:#ff6400;fill-opacity:1;fill-rule:nonzero;stroke:none;stroke-width:1.10000002;stroke-linecap:round;stroke-linejoin:round;stroke-miterlimit:4;stroke-dasharray:none;stroke-opacity:1"
     d="M 3.5 0.94921875 A 0.55005501 0.55005501 0 0 0 2.9492188 1.5 L 2.9492188 14.5 A 0.55005501 0.55005501 0 0 0 3.5 15.050781 L 12.5 15.050781 A 0.55005501 0.55005501 0 0 0 13.050781 14.5 L 13.050781 5.5 A 0.55005501 0.55005501 0 0 0 12.888672 5.1113281 L 8.8886719 1.1113281 A 0.55005501 0.55005501 0 0 0 8.5 0.94921875 L 3.5 0.94921875 z " />
  <path
     id="rect832"
     style="fill:#000000;fill-opacity:1;stroke:none;stroke-width:1.00157;stroke-linecap:round;stroke-linejoin:round"
     d="M 9 7 A 1 1 0 0 0 8 8 A 1 1 0 0 0 8.015625 8.1699219 L 6.34375 9.5625 A 1 1 0 0 0 6 9.5 A 1 1 0 0 0 5 10.5 A 1 1 0 0 0 6 11.5 A 1 1 0 0 0 6.34375 11.4375 L 8.0136719 12.830078 A 1 1 0 0 0 8 13 A 1 1 0 0 0 9 14 A 1 1 0 0 0 10 13 A 1 1 0 0 0 9 12 A 1 1 0 0 0 8.65625 12.0625 L 6.9863281 10.669922 A 1 1 0 0 1 6.9863281 10.667969 A 1 1 0 0 0 7 10.5 A 1 1 0 0 0 6.984375 10.330078 L 8.65625 8.9375 A 1 1 0 0 0 9 9 A 1 1 0 0 0 10 8 A 1 1 0 0 0 9 7 z " />
  <path
     id="path855"
     style="fill:#000000;stroke:none;stroke-width:1px;stroke-linecap:butt;stroke-linejoin:miter;stroke-opacity:1;fill-opacity:1"
     d="M 8.4921875 1.9414062 A 0.55005501 0.55005501 0 0 0 7.9492188 2.5 L 7.9492188 5.5 A 0.55005501 0.55005501 0 0 0 8.5 6.0507812 L 11.5 6.0507812 A 0.5507812 0.5507812 0 1 0 11.5 4.9492188 L 9.0507812 4.9492188 L 9.0507812 2.5 A 0.55005501 0.55005501 0 0 0 8.4921875 1.9414062 z " />
</svg>
