<?xml version="1.0" encoding="UTF-8" standalone="no"?>
<svg
   height="16"
   width="16"
   id="svg2"
   version="1.1"
   inkscape:version="1.1.1 (3bf5ae0d25, 2021-09-20, custom)"
   sodipodi:docname="application-x-partial-download.svg"
   xmlns:inkscape="http://www.inkscape.org/namespaces/inkscape"
   xmlns:sodipodi="http://sodipodi.sourceforge.net/DTD/sodipodi-0.dtd"
   xmlns="http://www.w3.org/2000/svg"
   xmlns:svg="http://www.w3.org/2000/svg"
   xmlns:rdf="http://www.w3.org/1999/02/22-rdf-syntax-ns#"
   xmlns:cc="http://creativecommons.org/ns#"
   xmlns:dc="http://purl.org/dc/elements/1.1/">
  <metadata
     id="metadata9">
    <rdf:RDF>
      <cc:Work
         rdf:about="">
        <dc:format>image/svg+xml</dc:format>
        <dc:type
           rdf:resource="http://purl.org/dc/dcmitype/StillImage" />
      </cc:Work>
    </rdf:RDF>
  </metadata>
  <defs
     id="defs7" />
  <sodipodi:namedview
     id="namedview1"
     showgrid="true"
     inkscape:zoom="41.7193"
     inkscape:cx="10.247056"
     inkscape:cy="13.770605"
     inkscape:window-width="2560"
     inkscape:window-height="1404"
     inkscape:window-x="3840"
     inkscape:window-y="725"
     inkscape:window-maximized="1"
     inkscape:current-layer="svg2"
     pagecolor="#505050"
     bordercolor="#eeeeee"
     borderopacity="1"
     inkscape:pageshadow="0"
     inkscape:pageopacity="0"
     inkscape:pagecheckerboard="0">
    <inkscape:grid
       type="xygrid"
       id="grid1px"
       empspacing="4" />
    <inkscape:grid
       type="xygrid"
       id="grid1pxdot"
       empspacing="1"
       dotted="true"
       originy="0.5"
       originx="0.5" />
  </sodipodi:namedview>
  <path
     id="path1528"
     style="opacity:0.98999999;fill:#000000;fill-opacity:1;fill-rule:nonzero;stroke:none;stroke-width:1.10000002;stroke-linecap:round;stroke-linejoin:round;stroke-miterlimit:4;stroke-dasharray:none;stroke-opacity:1"
     d="M 3.5 0.94921875 A 0.55005501 0.55005501 0 0 0 2.9492188 1.5 L 2.9492188 8.9492188 L 3.5 9.5 L 4.5 8.5 L 5.5 9.5 L 6.5 8.5 L 7.5 9.5 L 8.5 8.5 L 9.5 9.5 L 10.5 8.5 L 11.5 9.5 L 12.5 8.5 L 13.050781 9.0507812 L 13.050781 5.5 A 0.55005501 0.55005501 0 0 0 12.888672 5.1113281 L 8.8886719 1.1113281 A 0.55005501 0.55005501 0 0 0 8.5 0.94921875 L 3.5 0.94921875 z M 8.4921875 1.9414062 A 0.55005501 0.55005501 0 0 1 9.0507812 2.5 L 9.0507812 4.9492188 L 11.5 4.9492188 A 0.5507812 0.5507812 0 1 1 11.5 6.0507812 L 8.5 6.0507812 A 0.55005501 0.55005501 0 0 1 7.9492188 5.5 L 7.9492188 2.5 A 0.55005501 0.55005501 0 0 1 8.4921875 1.9414062 z " />
  <path
     id="path857"
     style="fill:none;stroke:#000000;stroke-width:1;stroke-linecap:butt;stroke-linejoin:miter;stroke-miterlimit:4;stroke-dasharray:1,1;stroke-dashoffset:0.5;stroke-opacity:1"
     d="M 12.5 7.5 L 3.5 7.5 L 3.5 14.5 L 12.5 14.5 L 12.5 7.5 z " />
</svg>
