<?xml version="1.0" encoding="UTF-8" standalone="no"?>
<svg
   xmlns:dc="http://purl.org/dc/elements/1.1/"
   xmlns:cc="http://creativecommons.org/ns#"
   xmlns:rdf="http://www.w3.org/1999/02/22-rdf-syntax-ns#"
   xmlns:svg="http://www.w3.org/2000/svg"
   xmlns="http://www.w3.org/2000/svg"
   xmlns:sodipodi="http://sodipodi.sourceforge.net/DTD/sodipodi-0.dtd"
   xmlns:inkscape="http://www.inkscape.org/namespaces/inkscape"
   height="16"
   width="16"
   id="svg2"
   version="1.1"
   inkscape:version="0.92.0 r"
   sodipodi:docname="application-pdf.svg">
  <metadata
     id="metadata9">
    <rdf:RDF>
      <cc:Work
         rdf:about="">
        <dc:format>image/svg+xml</dc:format>
        <dc:type
           rdf:resource="http://purl.org/dc/dcmitype/StillImage" />
        <dc:title></dc:title>
      </cc:Work>
    </rdf:RDF>
  </metadata>
  <defs
     id="defs7" />
  <sodipodi:namedview
     id="namedview1"
     showgrid="true"
     inkscape:zoom="41.7193"
     inkscape:cx="6.7497741"
     inkscape:cy="6.920546"
     inkscape:window-width="1680"
     inkscape:window-height="1016"
     inkscape:window-x="0"
     inkscape:window-y="0"
     inkscape:window-maximized="1"
     inkscape:current-layer="svg2">
    <inkscape:grid
       type="xygrid"
       id="grid1px"
       empspacing="4" />
    <inkscape:grid
       type="xygrid"
       id="grid1pxdot"
       empspacing="1"
       dotted="true"
       originy="0.5"
       originx="0.5" />
  </sodipodi:namedview>
  <path
     style="color:#000000;font-style:normal;font-variant:normal;font-weight:normal;font-stretch:normal;font-size:medium;line-height:normal;font-family:sans-serif;font-variant-ligatures:normal;font-variant-position:normal;font-variant-caps:normal;font-variant-numeric:normal;font-variant-alternates:normal;font-feature-settings:normal;text-indent:0;text-align:start;text-decoration:none;text-decoration-line:none;text-decoration-style:solid;text-decoration-color:#000000;letter-spacing:normal;word-spacing:normal;text-transform:none;writing-mode:lr-tb;direction:ltr;text-orientation:mixed;dominant-baseline:auto;baseline-shift:baseline;text-anchor:start;white-space:normal;shape-padding:0;clip-rule:nonzero;display:inline;overflow:visible;visibility:visible;opacity:0.98999999;isolation:auto;mix-blend-mode:normal;color-interpolation:sRGB;color-interpolation-filters:linearRGB;solid-color:#000000;solid-opacity:1;vector-effect:none;fill:#000000;fill-opacity:1;fill-rule:nonzero;stroke:none;stroke-width:1;stroke-linecap:round;stroke-linejoin:round;stroke-miterlimit:4;stroke-dasharray:none;stroke-dashoffset:0;stroke-opacity:1;color-rendering:auto;image-rendering:auto;shape-rendering:auto;text-rendering:auto;enable-background:accumulate"
     d="M 1.5 1 A 0.50005 0.50005 0 0 0 1 1.5 L 1 14.5 A 0.50005 0.50005 0 0 0 1.5 15 L 14.5 15 A 0.50005 0.50005 0 0 0 15 14.5 L 15 1.5 A 0.50005 0.50005 0 0 0 14.5 1 L 1.5 1 z M 2 2 L 14 2 L 14 4 L 2 4 L 2 2 z M 12.914062 4.5507812 L 13.382812 4.5507812 C 13.437207 4.5507812 13.483882 4.5717715 13.523438 4.6113281 C 13.562998 4.6508855 13.582031 4.6975625 13.582031 4.7519531 L 13.582031 4.9882812 C 13.582031 5.0426719 13.562997 5.0893491 13.523438 5.1289062 C 13.483877 5.1684629 13.437201 5.1894531 13.382812 5.1894531 L 12.988281 5.1894531 C 12.745995 5.1894531 12.58119 5.2456486 12.492188 5.359375 C 12.408128 5.4731014 12.365234 5.6369904 12.365234 5.8496094 L 12.365234 6.1835938 L 13.308594 6.1835938 C 13.362987 6.1835936 13.409664 6.2026302 13.449219 6.2421875 C 13.488779 6.2817448 13.507814 6.3284219 13.507812 6.3828125 L 13.507812 6.6210938 C 13.507814 6.6754844 13.488779 6.7221615 13.449219 6.7617188 C 13.409659 6.801276 13.362982 6.8203125 13.308594 6.8203125 L 12.365234 6.8203125 L 12.365234 9.8398438 C 12.365234 9.8942344 12.346201 9.9409114 12.306641 9.9804688 C 12.267081 10.020026 12.220404 10.039062 12.166016 10.039062 L 11.890625 10.039062 C 11.836232 10.039063 11.789555 10.020026 11.75 9.9804688 C 11.71044 9.940912 11.691406 9.8942349 11.691406 9.8398438 L 11.691406 6.8203125 L 11.068359 6.8203125 C 11.013966 6.8203125 10.967288 6.8012761 10.927734 6.7617188 C 10.888174 6.7221621 10.867186 6.675485 10.867188 6.6210938 L 10.867188 6.3828125 C 10.867187 6.3284218 10.888174 6.2817448 10.927734 6.2421875 C 10.967294 6.2026302 11.013972 6.1835938 11.068359 6.1835938 L 11.691406 6.1835938 L 11.691406 5.8125 C 11.691406 5.3872621 11.790496 5.0709556 11.988281 4.8632812 C 12.186066 4.6556071 12.49377 4.5507812 12.914062 4.5507812 z M 9.6992188 4.7734375 L 9.9726562 4.7734375 C 10.027047 4.7734375 10.073724 4.7924746 10.113281 4.8320312 C 10.152841 4.8715886 10.173828 4.9202188 10.173828 4.9746094 L 10.173828 9.8398438 C 10.173828 9.8942344 10.152841 9.9409114 10.113281 9.9804688 C 10.073721 10.020026 10.027044 10.039064 9.9726562 10.039062 L 9.6992188 10.039062 C 9.644828 10.039063 9.5961978 10.020026 9.5566406 9.9804688 C 9.5170833 9.940912 9.4980469 9.8942349 9.4980469 9.8398438 L 9.4980469 9.609375 C 9.2458712 9.9456096 8.8618974 10.113281 8.3476562 10.113281 C 8.0410894 10.113281 7.7619416 10.041832 7.5097656 9.8984375 C 7.2625344 9.7550434 7.0634397 9.550213 6.9101562 9.2832031 C 6.7618175 9.0161933 6.6788964 8.7036694 6.6640625 8.3476562 L 6.6582031 8.1035156 L 6.6640625 7.8671875 C 6.6788964 7.5111744 6.7618175 7.2015183 6.9101562 6.9394531 C 7.0634397 6.6724433 7.2625344 6.4676129 7.5097656 6.3242188 C 7.756997 6.1808244 8.0361449 6.109375 8.3476562 6.109375 C 8.6245554 6.109375 8.8570261 6.15892 9.0449219 6.2578125 C 9.2377623 6.3517604 9.3892651 6.4698871 9.4980469 6.6132812 L 9.4980469 4.9746094 C 9.4980469 4.9202187 9.5170833 4.8715884 9.5566406 4.8320312 C 9.596198 4.7924746 9.6448281 4.7734375 9.6992188 4.7734375 z M 4.2421875 6.109375 C 4.5487544 6.109375 4.8250344 6.1808245 5.0722656 6.3242188 C 5.3244416 6.4676129 5.5254893 6.6724433 5.6738281 6.9394531 C 5.8271115 7.206463 5.9109475 7.5170338 5.9257812 7.8730469 C 5.9307279 7.9224929 5.9335938 8.0025461 5.9335938 8.1113281 C 5.9335938 8.2250545 5.9307279 8.3060224 5.9257812 8.3554688 C 5.9109472 8.7114819 5.8271114 9.0240058 5.6738281 9.2910156 C 5.5254893 9.5530808 5.3273094 9.7550434 5.0800781 9.8984375 C 4.8328468 10.041832 4.553699 10.113281 4.2421875 10.113281 C 3.9652884 10.113281 3.7299498 10.066604 3.5371094 9.9726562 C 3.3492136 9.8737637 3.2005787 9.7527691 3.0917969 9.609375 L 3.0917969 11.248047 C 3.0917969 11.30244 3.0727598 11.349118 3.0332031 11.388672 C 2.9936465 11.428232 2.9469693 11.449219 2.8925781 11.449219 L 2.6171875 11.449219 C 2.5627968 11.449219 2.5161197 11.428232 2.4765625 11.388672 C 2.4370058 11.349119 2.4179688 11.302441 2.4179688 11.248047 L 2.4179688 6.3828125 C 2.4179688 6.3284218 2.4370058 6.2817448 2.4765625 6.2421875 C 2.5161192 6.2026302 2.5627963 6.1835938 2.6171875 6.1835938 L 2.8925781 6.1835938 C 2.9469688 6.1835938 2.9936459 6.2026302 3.0332031 6.2421875 C 3.0727598 6.2817448 3.0917969 6.3284219 3.0917969 6.3828125 L 3.0917969 6.6132812 C 3.3439728 6.2770466 3.7279464 6.109375 4.2421875 6.109375 z M 4.1679688 6.7460938 C 3.861402 6.7460938 3.6098944 6.8423159 3.4121094 7.0351562 C 3.2143243 7.223052 3.1066307 7.4765126 3.0917969 7.7929688 L 3.0859375 8.0820312 L 3.0917969 8.3789062 C 3.1066309 8.7250301 3.2114565 8.9946596 3.4042969 9.1875 C 3.5971373 9.3803405 3.8515127 9.4765625 4.1679688 9.4765625 C 4.4893695 9.4765625 4.7437448 9.3717368 4.9316406 9.1640625 C 5.124481 8.9563882 5.2302215 8.6743725 5.25 8.3183594 C 5.2549467 8.2689134 5.2578125 8.2003317 5.2578125 8.1113281 C 5.2578125 8.0223249 5.2549467 7.9537431 5.25 7.9042969 C 5.2302215 7.5482838 5.124481 7.266268 4.9316406 7.0585938 C 4.7437448 6.8509194 4.4893694 6.7460938 4.1679688 6.7460938 z M 8.421875 6.7460938 C 8.1004743 6.7460937 7.8451841 6.8509194 7.6523438 7.0585938 C 7.4644478 7.266268 7.3596223 7.5482838 7.3398438 7.9042969 L 7.3320312 8.1113281 L 7.3398438 8.3183594 C 7.3596224 8.6743725 7.4644481 8.9563882 7.6523438 9.1640625 C 7.8451841 9.3717368 8.1004743 9.4765625 8.421875 9.4765625 C 8.7284419 9.4765625 8.9819024 9.3812552 9.1796875 9.1933594 C 9.3774725 9.0005189 9.483213 8.7461436 9.4980469 8.4296875 C 9.5029935 8.3802415 9.5058594 8.2811515 9.5058594 8.1328125 C 9.5058594 7.9894183 9.5029935 7.8931963 9.4980469 7.84375 C 9.483213 7.4976262 9.3803404 7.2279967 9.1875 7.0351562 C 8.9946596 6.8423158 8.7383311 6.7460938 8.421875 6.7460938 z M 2 12 L 14 12 L 14 14 L 2 14 L 2 12 z "
     id="rect4137" />
</svg>
