<?xml version="1.0" encoding="UTF-8" standalone="no"?>
<svg
   xmlns:dc="http://purl.org/dc/elements/1.1/"
   xmlns:cc="http://creativecommons.org/ns#"
   xmlns:rdf="http://www.w3.org/1999/02/22-rdf-syntax-ns#"
   xmlns:svg="http://www.w3.org/2000/svg"
   xmlns="http://www.w3.org/2000/svg"
   xmlns:sodipodi="http://sodipodi.sourceforge.net/DTD/sodipodi-0.dtd"
   xmlns:inkscape="http://www.inkscape.org/namespaces/inkscape"
   height="16"
   width="16"
   id="svg2"
   version="1.1"
   inkscape:version="0.92.0 r"
   sodipodi:docname="application-x-executable.svg">
  <metadata
     id="metadata9">
    <rdf:RDF>
      <cc:Work
         rdf:about="">
        <dc:format>image/svg+xml</dc:format>
        <dc:type
           rdf:resource="http://purl.org/dc/dcmitype/StillImage" />
        <dc:title></dc:title>
      </cc:Work>
    </rdf:RDF>
  </metadata>
  <defs
     id="defs7" />
  <sodipodi:namedview
     id="namedview1"
     showgrid="true"
     inkscape:zoom="10.429825"
     inkscape:cx="1.7434897"
     inkscape:cy="7.3419671"
     inkscape:window-width="478"
     inkscape:window-height="434"
     inkscape:window-x="187"
     inkscape:window-y="208"
     inkscape:window-maximized="0"
     inkscape:current-layer="svg2">
    <inkscape:grid
       type="xygrid"
       id="grid1px"
       empspacing="4" />
    <inkscape:grid
       type="xygrid"
       id="grid1pxdot"
       empspacing="1"
       dotted="true"
       originy="0.5"
       originx="0.5" />
  </sodipodi:namedview>
  <rect
     style="opacity:1;fill:none;fill-opacity:1;fill-rule:nonzero;stroke:#000000;stroke-width:1;stroke-linecap:round;stroke-linejoin:round;stroke-miterlimit:4;stroke-dasharray:none;stroke-dashoffset:0;stroke-opacity:1"
     id="rect4497"
     width="13"
     height="13"
     x="1.5138"
     y="1.613276" />
  <path
     inkscape:connector-curvature="0"
     style="color:#000000;font-style:normal;font-variant:normal;font-weight:normal;font-stretch:normal;font-size:medium;line-height:normal;font-family:sans-serif;font-variant-ligatures:normal;font-variant-position:normal;font-variant-caps:normal;font-variant-numeric:normal;font-variant-alternates:normal;font-feature-settings:normal;text-indent:0;text-align:start;text-decoration:none;text-decoration-line:none;text-decoration-style:solid;text-decoration-color:#000000;letter-spacing:normal;word-spacing:normal;text-transform:none;writing-mode:lr-tb;direction:ltr;text-orientation:mixed;dominant-baseline:auto;baseline-shift:baseline;text-anchor:start;white-space:normal;shape-padding:0;clip-rule:nonzero;display:inline;overflow:visible;visibility:visible;opacity:1;isolation:auto;mix-blend-mode:normal;color-interpolation:sRGB;color-interpolation-filters:linearRGB;solid-color:#000000;solid-opacity:1;vector-effect:none;fill:#000000;fill-opacity:1;fill-rule:nonzero;stroke:none;stroke-width:1;stroke-linecap:round;stroke-linejoin:round;stroke-miterlimit:4;stroke-dasharray:none;stroke-dashoffset:0;stroke-opacity:1;color-rendering:auto;image-rendering:auto;shape-rendering:auto;text-rendering:auto;enable-background:accumulate"
     d="m 8.0138,3.113276 c -2.203217,0 -4,1.7967833 -4,4 0,2.203217 1.796783,4 4,4 2.203217,0 4,-1.796783 4,-4 0,-2.2032167 -1.796783,-4 -4,-4 z m 0,1 c 1.6627766,0 3,1.3372234 3,3 0,1.662777 -1.3372234,3 -3,3 -1.6627766,0 -3,-1.337223 -3,-3 0,-1.6627766 1.3372234,-3 3,-3 z m 0,2 c -0.5463624,0 -1,0.4536376 -1,1 0,0.5463624 0.4536376,1 1,1 0.5463624,0 1,-0.4536376 1,-1 0,-0.5463624 -0.4536376,-1 -1,-1 z"
     id="path4503" />
  <path
     inkscape:connector-curvature="0"
     style="color:#000000;font-style:normal;font-variant:normal;font-weight:normal;font-stretch:normal;font-size:medium;line-height:normal;font-family:sans-serif;font-variant-ligatures:normal;font-variant-position:normal;font-variant-caps:normal;font-variant-numeric:normal;font-variant-alternates:normal;font-feature-settings:normal;text-indent:0;text-align:start;text-decoration:none;text-decoration-line:none;text-decoration-style:solid;text-decoration-color:#000000;letter-spacing:normal;word-spacing:normal;text-transform:none;writing-mode:lr-tb;direction:ltr;text-orientation:mixed;dominant-baseline:auto;baseline-shift:baseline;text-anchor:start;white-space:normal;shape-padding:0;clip-rule:nonzero;display:inline;overflow:visible;visibility:visible;opacity:1;isolation:auto;mix-blend-mode:normal;color-interpolation:sRGB;color-interpolation-filters:linearRGB;solid-color:#000000;solid-opacity:1;vector-effect:none;fill:#000000;fill-opacity:1;fill-rule:nonzero;stroke:none;stroke-width:1;stroke-linecap:round;stroke-linejoin:round;stroke-miterlimit:4;stroke-dasharray:none;stroke-dashoffset:0;stroke-opacity:1;color-rendering:auto;image-rendering:auto;shape-rendering:auto;text-rendering:auto;enable-background:accumulate"
     d="M 4.498175,6.113276 A 0.50005,0.50005 0 0 0 4.160284,6.2597604 l -0.998047,0.9980468 -0.0019,0.00195 a 0.50005,0.50005 0 0 0 -0.03125,0.035156 0.50005,0.50005 0 0 0 -0.0059,0.00586 0.50005,0.50005 0 0 0 -0.07227,0.1230469 0.50005,0.50005 0 0 0 0,0.00195 0.50005,0.50005 0 0 0 -0.01563,0.044922 0.50005,0.50005 0 0 0 -0.01953,0.091797 0.50005,0.50005 0 0 0 0,0.00586 0.50005,0.50005 0 0 0 0,0.00195 0.50005,0.50005 0 0 0 -0.00196,0.042977 0.50005,0.50005 0 0 0 0,0.00781 v 3.99219 a 0.50005,0.50005 0 0 0 0.390625,0.488281 l 4.5,1 a 0.50005,0.50005 0 0 0 0.21875,0 l 4.5,-1 A 0.50005,0.50005 0 0 0 13.0138,11.613276 v -4 a 0.50005,0.50005 0 0 0 0,-0.00781 0.50005,0.50005 0 0 0 0,-0.00781 A 0.50005,0.50005 0 0 0 13.0118,7.5625 0.50005,0.50005 0 0 0 13.0098,7.548828 0.50005,0.50005 0 0 0 13.0039,7.513672 0.50005,0.50005 0 0 0 13,7.5 0.50005,0.50005 0 0 0 12.98633,7.451172 0.50005,0.50005 0 0 0 12.97461,7.417969 0.50005,0.50005 0 0 0 12.96871,7.404297 0.50005,0.50005 0 0 0 12.95308,7.373047 0.50005,0.50005 0 0 0 12.94528,7.361328 0.50005,0.50005 0 0 0 12.92575,7.330078 0.50005,0.50005 0 0 0 12.91795,7.318359 0.50005,0.50005 0 0 0 12.89646,7.291015 0.50005,0.50005 0 0 0 12.88666,7.279296 0.50005,0.50005 0 0 0 12.86713,7.259765 l -0.0059,-0.00586 -0.99414,-0.9941406 a 0.50005,0.50005 0 0 0 -0.361102,-0.1464884 0.50005,0.50005 0 0 0 -0.492188,0.5 v 0.8203125 l -3,0.6679687 -3,-0.6679687 V 6.613276 a 0.50005,0.50005 0 0 0 -0.515625,-0.5 z"
     id="path4513" />
</svg>
