<?xml version="1.0" encoding="UTF-8" standalone="no"?>
<svg
   xmlns:dc="http://purl.org/dc/elements/1.1/"
   xmlns:cc="http://creativecommons.org/ns#"
   xmlns:rdf="http://www.w3.org/1999/02/22-rdf-syntax-ns#"
   xmlns:svg="http://www.w3.org/2000/svg"
   xmlns="http://www.w3.org/2000/svg"
   xmlns:sodipodi="http://sodipodi.sourceforge.net/DTD/sodipodi-0.dtd"
   xmlns:inkscape="http://www.inkscape.org/namespaces/inkscape"
   height="16"
   width="16"
   id="svg2"
   version="1.1"
   inkscape:version="1.0.2 (e86c870879, 2021-01-15)"
   sodipodi:docname="application-x-shellscript.svg">
  <metadata
     id="metadata9">
    <rdf:RDF>
      <cc:Work
         rdf:about="">
        <dc:format>image/svg+xml</dc:format>
        <dc:type
           rdf:resource="http://purl.org/dc/dcmitype/StillImage" />
        <dc:title></dc:title>
      </cc:Work>
    </rdf:RDF>
  </metadata>
  <defs
     id="defs7" />
  <sodipodi:namedview
     id="namedview1"
     showgrid="true"
     inkscape:zoom="29.5"
     inkscape:cx="3.7501016"
     inkscape:cy="8.9033629"
     inkscape:window-width="1920"
     inkscape:window-height="1044"
     inkscape:window-x="2560"
     inkscape:window-y="0"
     inkscape:window-maximized="1"
     inkscape:current-layer="svg2"
     inkscape:document-rotation="0">
    <inkscape:grid
       type="xygrid"
       id="grid1px"
       empspacing="4" />
    <inkscape:grid
       type="xygrid"
       id="grid1pxdot"
       empspacing="1"
       dotted="true"
       originy="0.5"
       originx="0.5" />
  </sodipodi:namedview>
  <path
     style="opacity:0.98999999;fill:#ffc805;fill-opacity:1;fill-rule:nonzero;stroke:#fbc800;stroke-width:1.10000002;stroke-linecap:round;stroke-linejoin:round;stroke-miterlimit:4;stroke-dasharray:none;stroke-opacity:1"
     d="m 3.5,1.5 v 13 h 9 v -9 l -4,-4 z"
     id="path4139"
     inkscape:connector-curvature="0" />
  <path
     style="opacity:0.98999999;fill:none;fill-opacity:1;fill-rule:nonzero;stroke:#000000;stroke-width:1.10000002;stroke-linecap:round;stroke-linejoin:round;stroke-miterlimit:4;stroke-dasharray:none;stroke-opacity:1"
     d="m 8.5,2.5 v 3 h 3"
     id="path4141"
     inkscape:connector-curvature="0"
     sodipodi:nodetypes="ccc" />
  <path
     id="path890"
     style="font-size:9.69741px;line-height:1.25;font-family:Contemporary;-inkscape-font-specification:Contemporary;stroke-width:1"
     d="m 6.4355469,7.6621094 c -0.058185,0 -0.1090419,0.019805 -0.1542969,0.058594 -0.038789,0.038789 -0.065195,0.086346 -0.078125,0.1445313 L 6.0292969,9 H 4.9335938 C 4.8624793,9 4.7997659,9.026406 4.7480469,9.078125 4.6963279,9.1298445 4.671875,9.1906048 4.671875,9.2617188 v 0.3105468 c 0,0.071115 0.024453,0.1318745 0.076172,0.1835938 0.051719,0.051719 0.1144329,0.078125 0.1855469,0.078125 h 0.96875 L 5.6601562,11.462891 H 4.6796875 c -0.071115,0 -0.1318747,0.0264 -0.1835937,0.07813 -0.051719,0.05172 -0.078125,0.112483 -0.078125,0.183593 v 0.310547 c 0,0.07111 0.026406,0.131874 0.078125,0.183594 0.051719,0.05172 0.1124797,0.07813 0.1835937,0.07813 h 0.8535156 l -0.1640625,1.105469 v 0.01953 c 0,0.05819 0.019804,0.111 0.058594,0.15625 0.045254,0.03879 0.096112,0.05664 0.1542968,0.05664 H 6 c 0.064649,0 0.1155069,-0.01785 0.1542969,-0.05664 0.045255,-0.03879 0.074961,-0.08829 0.087891,-0.146484 L 6.40625,12.296875 h 1.328125 l -0.1640625,1.105469 v 0.01953 c 0,0.05819 0.019804,0.111 0.058594,0.15625 0.045254,0.03879 0.096112,0.05664 0.1542969,0.05664 h 0.4179688 c 0.06465,0 0.1155079,-0.01785 0.1542969,-0.05664 0.045255,-0.03879 0.074961,-0.08829 0.087891,-0.146484 l 0.1640625,-1.134766 h 1.9218751 c 0.0069,0 0.0109,-0.0073 0.01758,-0.0078 h 0.02539 c 0.07111,1e-6 0.136955,-0.02445 0.197265,-0.07617 0.06031,-0.05172 0.09756,-0.114437 0.109375,-0.185547 l 0.677735,-4.0703128 c 0.01182,-0.071114 -0.0057,-0.1318747 -0.04883,-0.1835937 -0.04312,-0.051719 -0.09881,-0.078125 -0.169921,-0.078125 h -0.359375 c -0.07112,0 -0.136956,0.026406 -0.197266,0.078125 -0.06031,0.051719 -0.0956,0.1124798 -0.107422,0.1835937 L 10.5,9 H 9.1035156 L 9.2675781,7.9042969 V 7.875 c 0,-0.058185 -0.023104,-0.1057422 -0.068359,-0.1445312 -0.03879,-0.045255 -0.086346,-0.068359 -0.1445313,-0.068359 H 8.6367188 c -0.058185,0 -0.1090419,0.019805 -0.1542969,0.058594 -0.038789,0.038789 -0.065195,0.086346 -0.078125,0.1445313 L 8.2304688,9 H 6.9003906 L 7.0664062,7.9042969 V 7.875 c 10e-8,-0.058185 -0.023104,-0.1057422 -0.068359,-0.1445312 -0.038789,-0.045255 -0.086346,-0.068359 -0.1445313,-0.068359 z m 0.3398437,2.171875 h 1.328125 L 7.8613281,11.462891 h -1.328125 z m 2.2011719,0 H 10.361328 L 10.089844,11.462891 H 8.734375 Z m 1.0429685,3.0371096 c -0.071115,0 -0.135002,0.02641 -0.195312,0.07813 -0.060311,0.05172 -0.097555,0.112473 -0.1093752,0.183593 l -0.091797,0.552735 c -0.01182,0.07111 0.00375,0.133827 0.046875,0.185547 0.043126,0.05172 0.10076,0.07617 0.1718751,0.07617 h 0.552734 c 0.07111,0 0.136956,-0.02445 0.197266,-0.07617 0.06032,-0.05172 0.0956,-0.114427 0.107422,-0.185547 l 0.0918,-0.552735 c 0.01182,-0.07111 -0.0037,-0.131873 -0.04687,-0.183593 -0.04313,-0.05172 -0.100755,-0.07813 -0.171875,-0.07813 z" />
</svg>
