<?xml version="1.0" encoding="UTF-8" standalone="no"?>
<svg
   xmlns:dc="http://purl.org/dc/elements/1.1/"
   xmlns:cc="http://creativecommons.org/ns#"
   xmlns:rdf="http://www.w3.org/1999/02/22-rdf-syntax-ns#"
   xmlns:svg="http://www.w3.org/2000/svg"
   xmlns="http://www.w3.org/2000/svg"
   xmlns:sodipodi="http://sodipodi.sourceforge.net/DTD/sodipodi-0.dtd"
   xmlns:inkscape="http://www.inkscape.org/namespaces/inkscape"
   height="16"
   width="16"
   id="svg2"
   version="1.1"
   inkscape:version="1.0.2 (e86c870879, 2021-01-15)"
   sodipodi:docname="application-x-java-archive.svg">
  <metadata
     id="metadata9">
    <rdf:RDF>
      <cc:Work
         rdf:about="">
        <dc:format>image/svg+xml</dc:format>
        <dc:type
           rdf:resource="http://purl.org/dc/dcmitype/StillImage" />
        <dc:title></dc:title>
      </cc:Work>
    </rdf:RDF>
  </metadata>
  <defs
     id="defs7" />
  <sodipodi:namedview
     id="namedview1"
     showgrid="true"
     inkscape:zoom="29.5"
     inkscape:cx="8.0898201"
     inkscape:cy="9.3532071"
     inkscape:window-width="1920"
     inkscape:window-height="1044"
     inkscape:window-x="2560"
     inkscape:window-y="0"
     inkscape:window-maximized="1"
     inkscape:current-layer="svg2"
     inkscape:document-rotation="0">
    <inkscape:grid
       type="xygrid"
       id="grid1px"
       empspacing="4" />
    <inkscape:grid
       type="xygrid"
       id="grid1pxdot"
       empspacing="1"
       dotted="true"
       originy="0.5"
       originx="0.5" />
  </sodipodi:namedview>
  <path
     id="path4139"
     style="opacity:0.99;fill:#ff6400;fill-opacity:1;fill-rule:nonzero;stroke:none;stroke-width:1.1;stroke-linecap:round;stroke-linejoin:round;stroke-miterlimit:4;stroke-dasharray:none;stroke-opacity:1"
     d="M 3.5,0.94921875 A 0.55005501,0.55005501 0 0 0 2.9492188,1.5 v 13 A 0.55005501,0.55005501 0 0 0 3.5,15.050781 h 9 A 0.55005501,0.55005501 0 0 0 13.050781,14.5 v -9 A 0.55005501,0.55005501 0 0 0 12.888672,5.1113281 l -4.0000001,-4 A 0.55005501,0.55005501 0 0 0 8.5,0.94921875 Z" />
  <path
     id="rect832"
     style="fill:#000000;stroke-width:1.00157;stroke-linecap:round;stroke-linejoin:round"
     d="M 5.4902344 6.9589844 A 0.5 0.5 0 0 0 5.3730469 6.9765625 C 4.8890224 7.0192384 4.4487247 7.2835932 4.203125 7.7089844 C 3.935437 8.1726336 3.935437 8.7453352 4.203125 9.2089844 C 4.470813 9.6726334 4.9665771 9.9589844 5.5019531 9.9589844 L 6.0019531 9.9589844 A 0.5 0.5 0 0 0 6.0058594 10.019531 C 6.0272054 11.067285 6.5919004 12.033179 7.5019531 12.558594 C 8.4297039 13.094232 9.5742024 13.094232 10.501953 12.558594 C 11.408549 12.035171 11.970704 11.074402 11.996094 10.03125 A 0.5 0.5 0 0 0 12 10 C 12.000136 9.99013 12.001853 9.9805908 12.001953 9.9707031 A 0.5 0.5 0 0 0 12.001953 9.9589844 L 12.001953 7.4589844 A 0.5 0.5 0 0 0 11.501953 6.9589844 A 0.5 0.5 0 0 0 11.001953 7.4589844 L 11.001953 9.9589844 C 11.001953 10.674038 10.621208 11.331926 10.001953 11.689453 C 9.3826987 12.04698 8.6212077 12.04698 8.0019531 11.689453 C 7.3826986 11.331926 7.0019531 10.674038 7.0019531 9.9589844 L 7.0019531 7.4589844 A 0.50005 0.50005 0 0 0 6.5019531 6.9589844 L 6.0019531 6.9589844 L 5.5019531 6.9589844 A 0.5 0.5 0 0 0 5.4902344 6.9589844 z M 5.5019531 7.9589844 L 6.0019531 7.9589844 L 6.0019531 8.9589844 L 5.5019531 8.9589844 C 5.3227979 8.9589844 5.1598905 8.8641374 5.0703125 8.7089844 C 4.9807345 8.5538315 4.9807345 8.3641373 5.0703125 8.2089844 C 5.1598905 8.0538314 5.3227979 7.9589844 5.5019531 7.9589844 z M 6.4882812 13 A 0.5 0.5 0 0 0 6 13.5 A 0.5 0.5 0 0 0 6.5 14 L 11.5 14 A 0.5 0.5 0 0 0 12 13.5 A 0.5 0.5 0 0 0 11.5 13 L 6.5 13 A 0.5 0.5 0 0 0 6.4882812 13 z " />
  <path
     style="opacity:0.99;fill:none;fill-opacity:1;fill-rule:nonzero;stroke:#000000;stroke-width:1.1;stroke-linecap:round;stroke-linejoin:round;stroke-miterlimit:4;stroke-dasharray:none;stroke-opacity:1"
     d="m 8.5,2.5 v 3 h 3"
     id="path4141"
     inkscape:connector-curvature="0"
     sodipodi:nodetypes="ccc" />
</svg>
