<?xml version="1.0" encoding="UTF-8" standalone="no"?>
<svg
   height="16"
   width="16"
   id="svg2"
   version="1.1"
   inkscape:version="1.1.1 (3bf5ae0d25, 2021-09-20, custom)"
   sodipodi:docname="application-x-theframe-project.svg"
   xmlns:inkscape="http://www.inkscape.org/namespaces/inkscape"
   xmlns:sodipodi="http://sodipodi.sourceforge.net/DTD/sodipodi-0.dtd"
   xmlns="http://www.w3.org/2000/svg"
   xmlns:svg="http://www.w3.org/2000/svg"
   xmlns:rdf="http://www.w3.org/1999/02/22-rdf-syntax-ns#"
   xmlns:cc="http://creativecommons.org/ns#"
   xmlns:dc="http://purl.org/dc/elements/1.1/">
  <metadata
     id="metadata9">
    <rdf:RDF>
      <cc:Work
         rdf:about="">
        <dc:format>image/svg+xml</dc:format>
        <dc:type
           rdf:resource="http://purl.org/dc/dcmitype/StillImage" />
      </cc:Work>
    </rdf:RDF>
  </metadata>
  <defs
     id="defs7" />
  <sodipodi:namedview
     id="namedview1"
     showgrid="true"
     inkscape:zoom="20.85965"
     inkscape:cx="24.856601"
     inkscape:cy="12.679983"
     inkscape:window-width="2560"
     inkscape:window-height="1404"
     inkscape:window-x="3840"
     inkscape:window-y="725"
     inkscape:window-maximized="1"
     inkscape:current-layer="svg2"
     pagecolor="#505050"
     bordercolor="#eeeeee"
     borderopacity="1"
     inkscape:pageshadow="0"
     inkscape:pageopacity="0"
     inkscape:pagecheckerboard="0">
    <inkscape:grid
       type="xygrid"
       id="grid1px"
       empspacing="4" />
    <inkscape:grid
       type="xygrid"
       id="grid1pxdot"
       empspacing="1"
       dotted="true"
       originy="0.5"
       originx="0.5" />
  </sodipodi:namedview>
  <path
     inkscape:connector-curvature="0"
     style="opacity:0.98999999;fill:#ff9696;fill-opacity:1;fill-rule:nonzero;stroke:none;stroke-width:1.10000002;stroke-linecap:round;stroke-linejoin:round;stroke-miterlimit:4;stroke-dasharray:none;stroke-opacity:1"
     d="M 3.5,0.94921848 A 0.55005501,0.55005501 0 0 0 2.9492188,1.4999997 V 14.5 A 0.55005501,0.55005501 0 0 0 3.5,15.050781 h 9 A 0.55005501,0.55005501 0 0 0 13.050781,14.5 V 5.4999997 A 0.55005501,0.55005501 0 0 0 12.888672,5.1113278 l -4.0000001,-4 A 0.55005501,0.55005501 0 0 0 8.5,0.94921848 Z M 8.4921875,1.9414059 A 0.55005501,0.55005501 0 0 1 9.0507812,2.4999997 V 4.9492185 H 11.5 a 0.5507812,0.5507812 0 1 1 0,1.1015624 h -3 A 0.55005501,0.55005501 0 0 1 7.9492188,5.4999997 v -3 A 0.55005501,0.55005501 0 0 1 8.4921875,1.9414059 Z"
     id="path4139" />
  <path
     style="fill:none;stroke:#000000;stroke-width:1px;stroke-linecap:round;stroke-linejoin:round;stroke-opacity:1"
     d="m 6.5,13.5 c 0,-3 2,-5 5,-5"
     id="path911"
     sodipodi:nodetypes="cc" />
</svg>
