<?xml version="1.0" encoding="UTF-8" standalone="no"?>
<svg
   xmlns:dc="http://purl.org/dc/elements/1.1/"
   xmlns:cc="http://creativecommons.org/ns#"
   xmlns:rdf="http://www.w3.org/1999/02/22-rdf-syntax-ns#"
   xmlns:svg="http://www.w3.org/2000/svg"
   xmlns="http://www.w3.org/2000/svg"
   xmlns:sodipodi="http://sodipodi.sourceforge.net/DTD/sodipodi-0.dtd"
   xmlns:inkscape="http://www.inkscape.org/namespaces/inkscape"
   sodipodi:docname="folder-root.svg"
   inkscape:version="1.0 (4035a4fb49, 2020-05-01)"
   version="1.1"
   id="svg2"
   width="16"
   height="16">
  <metadata
     id="metadata9">
    <rdf:RDF>
      <cc:Work
         rdf:about="">
        <dc:format>image/svg+xml</dc:format>
        <dc:type
           rdf:resource="http://purl.org/dc/dcmitype/StillImage" />
        <dc:title></dc:title>
      </cc:Work>
    </rdf:RDF>
  </metadata>
  <defs
     id="defs7" />
  <sodipodi:namedview
     inkscape:document-rotation="0"
     inkscape:current-layer="svg2"
     inkscape:window-maximized="1"
     inkscape:window-y="304"
     inkscape:window-x="1920"
     inkscape:window-height="742"
     inkscape:window-width="1280"
     inkscape:cy="17.066902"
     inkscape:cx="5.2778642"
     inkscape:zoom="10.429825"
     showgrid="true"
     id="namedview1">
    <inkscape:grid
       empspacing="4"
       id="grid1px"
       type="xygrid" />
    <inkscape:grid
       originx="0.5"
       originy="0.5"
       dotted="true"
       empspacing="1"
       id="grid1pxdot"
       type="xygrid" />
  </sodipodi:namedview>
  <path
     d="M 1.5 1 A 0.50005 0.50005 0 0 0 1 1.5 L 1 14.5 A 0.50005 0.50005 0 0 0 1.5 15 L 14.5 15 A 0.50005 0.50005 0 0 0 15 14.5 L 15 4.5 A 0.50005 0.50005 0 0 0 14.5 4 L 8 4 L 8 1.5 A 0.50005 0.50005 0 0 0 7.5 1 L 1.5 1 z M 2.4609375 3 A 0.50005 0.50005 0 0 1 2.5 3 L 6.5 3 A 0.50005 0.50005 0 1 1 6.5 4 L 2.5 4 A 0.50005 0.50005 0 0 1 2.4609375 3 z M 9.484375 5.7929688 L 9.7675781 5.7929688 C 9.8190941 5.7929688 9.86214 5.8134476 9.8964844 5.8535156 C 9.9365524 5.8878596 9.9550781 5.9309055 9.9550781 5.9824219 C 9.9550781 6.0053179 9.9509011 6.0299738 9.9394531 6.0585938 L 7.0371094 13.005859 C 6.968421 13.17758 6.841372 13.263672 6.6582031 13.263672 L 6.4023438 13.263672 C 6.3508277 13.263672 6.3037403 13.243192 6.2636719 13.203125 C 6.2293279 13.168778 6.2128906 13.125733 6.2128906 13.074219 C 6.2128906 13.051325 6.2190208 13.024714 6.2304688 12.996094 L 9.1054688 6.0507812 C 9.1798811 5.8790604 9.3069302 5.7929688 9.484375 5.7929688 z "
     style="opacity:0.98999999;fill:#000000;fill-opacity:1;fill-rule:nonzero;stroke:none;stroke-width:1;stroke-linecap:round;stroke-linejoin:round;stroke-miterlimit:4;stroke-dasharray:none;stroke-dashoffset:0;stroke-opacity:1;paint-order:fill markers stroke"
     id="path4485" />
</svg>
