<?xml version="1.0" encoding="UTF-8" standalone="no"?>
<svg
   xmlns:dc="http://purl.org/dc/elements/1.1/"
   xmlns:cc="http://creativecommons.org/ns#"
   xmlns:rdf="http://www.w3.org/1999/02/22-rdf-syntax-ns#"
   xmlns:svg="http://www.w3.org/2000/svg"
   xmlns="http://www.w3.org/2000/svg"
   xmlns:sodipodi="http://sodipodi.sourceforge.net/DTD/sodipodi-0.dtd"
   xmlns:inkscape="http://www.inkscape.org/namespaces/inkscape"
   sodipodi:docname="folder-home.svg"
   inkscape:version="1.0 (4035a4fb49, 2020-05-01)"
   version="1.1"
   id="svg2"
   width="16"
   height="16">
  <metadata
     id="metadata9">
    <rdf:RDF>
      <cc:Work
         rdf:about="">
        <dc:format>image/svg+xml</dc:format>
        <dc:type
           rdf:resource="http://purl.org/dc/dcmitype/StillImage" />
        <dc:title></dc:title>
      </cc:Work>
    </rdf:RDF>
  </metadata>
  <defs
     id="defs7" />
  <sodipodi:namedview
     inkscape:document-rotation="0"
     inkscape:current-layer="svg2"
     inkscape:window-maximized="1"
     inkscape:window-y="0"
     inkscape:window-x="0"
     inkscape:window-height="1046"
     inkscape:window-width="1920"
     inkscape:cy="8.5780471"
     inkscape:cx="9.8245348"
     inkscape:zoom="41.7193"
     showgrid="true"
     id="namedview1">
    <inkscape:grid
       empspacing="4"
       id="grid1px"
       type="xygrid" />
    <inkscape:grid
       originx="0.5"
       originy="0.5"
       dotted="true"
       empspacing="1"
       id="grid1pxdot"
       type="xygrid" />
  </sodipodi:namedview>
  <path
     d="M 1.5 1 A 0.50005 0.50005 0 0 0 1 1.5 L 1 14.5 A 0.50005 0.50005 0 0 0 1.5 15 L 14.5 15 A 0.50005 0.50005 0 0 0 15 14.5 L 15 4.5 A 0.50005 0.50005 0 0 0 14.5 4 L 8 4 L 8 1.5 A 0.50005 0.50005 0 0 0 7.5 1 L 1.5 1 z M 2.4609375 3 A 0.50005 0.50005 0 0 1 2.5 3 L 6.5 3 A 0.50005 0.50005 0 1 1 6.5 4 L 2.5 4 A 0.50005 0.50005 0 0 1 2.4609375 3 z M 7.9707031 6 A 0.50005 0.50005 0 0 1 8.203125 6.0429688 L 12.703125 8.0429688 A 0.5 0.5 0 0 1 12.957031 8.703125 A 0.5 0.5 0 0 1 12.296875 8.9570312 L 11 8.3808594 L 11 12.5 A 0.50005 0.50005 0 0 1 10.5 13 L 7.5 13 L 7.4882812 13 L 5.5 13 A 0.50005 0.50005 0 0 1 5 12.5 L 5 8.3808594 L 3.703125 8.9570312 A 0.5 0.5 0 0 1 3.0429688 8.703125 A 0.5 0.5 0 0 1 3.296875 8.0429688 L 7.796875 6.0429688 A 0.50005 0.50005 0 0 1 7.9707031 6 z M 8 7.046875 L 5.9960938 7.9375 A 0.5 0.5 0 0 1 6 8 L 6 12 L 7 12 L 7 10.5 A 0.5 0.5 0 0 1 7.5 10 A 0.5 0.5 0 0 1 8 10.5 L 8 12 L 10 12 L 10 8 A 0.5 0.5 0 0 1 10.003906 7.9375 L 8 7.046875 z "
     style="opacity:0.98999999;fill:#000000;fill-opacity:1;fill-rule:nonzero;stroke:none;stroke-width:1;stroke-linecap:round;stroke-linejoin:round;stroke-miterlimit:4;stroke-dasharray:none;stroke-dashoffset:0;stroke-opacity:1;paint-order:fill markers stroke"
     id="path4485" />
</svg>
