<?xml version="1.0" encoding="UTF-8" standalone="no"?>
<svg
   xmlns:dc="http://purl.org/dc/elements/1.1/"
   xmlns:cc="http://creativecommons.org/ns#"
   xmlns:rdf="http://www.w3.org/1999/02/22-rdf-syntax-ns#"
   xmlns:svg="http://www.w3.org/2000/svg"
   xmlns="http://www.w3.org/2000/svg"
   xmlns:sodipodi="http://sodipodi.sourceforge.net/DTD/sodipodi-0.dtd"
   xmlns:inkscape="http://www.inkscape.org/namespaces/inkscape"
   height="16"
   width="16"
   id="svg2"
   version="1.1"
   inkscape:version="0.92.4 5da689c313, 2019-01-14"
   sodipodi:docname="folder-videos.svg">
  <metadata
     id="metadata9">
    <rdf:RDF>
      <cc:Work
         rdf:about="">
        <dc:format>image/svg+xml</dc:format>
        <dc:type
           rdf:resource="http://purl.org/dc/dcmitype/StillImage" />
        <dc:title></dc:title>
      </cc:Work>
    </rdf:RDF>
  </metadata>
  <defs
     id="defs7" />
  <sodipodi:namedview
     id="namedview1"
     showgrid="true"
     inkscape:zoom="41.7193"
     inkscape:cx="5.6552596"
     inkscape:cy="10.110814"
     inkscape:window-width="1920"
     inkscape:window-height="1046"
     inkscape:window-x="0"
     inkscape:window-y="0"
     inkscape:window-maximized="1"
     inkscape:current-layer="svg2">
    <inkscape:grid
       type="xygrid"
       id="grid1px"
       empspacing="4" />
    <inkscape:grid
       type="xygrid"
       id="grid1pxdot"
       empspacing="1"
       dotted="true"
       originy="0.5"
       originx="0.5" />
  </sodipodi:namedview>
  <path
     style="opacity:0.98999999;fill:#000000;fill-opacity:1;fill-rule:nonzero;stroke:none;stroke-width:1;stroke-linecap:round;stroke-linejoin:round;stroke-miterlimit:4;stroke-dasharray:none;stroke-dashoffset:0;stroke-opacity:1;paint-order:fill markers stroke"
     d="M 1.5 1 A 0.50005 0.50005 0 0 0 1 1.5 L 1 14.5 A 0.50005 0.50005 0 0 0 1.5 15 L 14.5 15 A 0.50005 0.50005 0 0 0 15 14.5 L 15 4.5 A 0.50005 0.50005 0 0 0 14.5 4 L 8 4 L 8 1.5 A 0.50005 0.50005 0 0 0 7.5 1 L 1.5 1 z M 2.4648438 3 A 0.50005 0.50005 0 0 1 2.5 3 L 6.5 3 A 0.50005 0.50005 0 1 1 6.5 4 L 2.5 4 A 0.50005 0.50005 0 0 1 2.4648438 3 z M 5.4921875 5.9921875 A 0.50005 0.50005 0 0 1 5.5917969 6 L 10.417969 6 A 0.50005 0.50005 0 0 1 10.492188 5.9921875 A 0.50005 0.50005 0 0 1 10.591797 6 L 12.5 6 A 0.50005 0.50005 0 1 1 12.5 7 L 11 7 L 11 12 L 12.5 12 A 0.50005 0.50005 0 1 1 12.5 13 L 10.582031 13 A 0.50005 0.50005 0 0 1 10.419922 13 L 5.5820312 13 A 0.50005 0.50005 0 0 1 5.4199219 13 L 3.5 13 A 0.50005 0.50005 0 1 1 3.5 12 L 5 12 L 5 7 L 3.5 7 A 0.50005 0.50005 0 1 1 3.5 6 L 5.4179688 6 A 0.50005 0.50005 0 0 1 5.4921875 5.9921875 z M 6 7 L 6 12 L 10 12 L 10 7 L 6 7 z "
     id="path4485" />
</svg>
