<?xml version="1.0" encoding="UTF-8" standalone="no"?>
<svg
   xmlns:dc="http://purl.org/dc/elements/1.1/"
   xmlns:cc="http://creativecommons.org/ns#"
   xmlns:rdf="http://www.w3.org/1999/02/22-rdf-syntax-ns#"
   xmlns:svg="http://www.w3.org/2000/svg"
   xmlns="http://www.w3.org/2000/svg"
   xmlns:sodipodi="http://sodipodi.sourceforge.net/DTD/sodipodi-0.dtd"
   xmlns:inkscape="http://www.inkscape.org/namespaces/inkscape"
   height="16"
   width="16"
   id="svg2"
   version="1.1"
   inkscape:version="0.92.4 5da689c313, 2019-01-14"
   sodipodi:docname="folder-pictures.svg">
  <metadata
     id="metadata9">
    <rdf:RDF>
      <cc:Work
         rdf:about="">
        <dc:format>image/svg+xml</dc:format>
        <dc:type
           rdf:resource="http://purl.org/dc/dcmitype/StillImage" />
        <dc:title></dc:title>
      </cc:Work>
    </rdf:RDF>
  </metadata>
  <defs
     id="defs7" />
  <sodipodi:namedview
     id="namedview1"
     showgrid="true"
     inkscape:zoom="14.75"
     inkscape:cx="21.4351"
     inkscape:cy="9.5185687"
     inkscape:window-width="1920"
     inkscape:window-height="1046"
     inkscape:window-x="0"
     inkscape:window-y="0"
     inkscape:window-maximized="1"
     inkscape:current-layer="svg2">
    <inkscape:grid
       type="xygrid"
       id="grid1px"
       empspacing="4" />
    <inkscape:grid
       type="xygrid"
       id="grid1pxdot"
       empspacing="1"
       dotted="true"
       originy="0.5"
       originx="0.5" />
  </sodipodi:namedview>
  <path
     style="opacity:0.98999999;fill:#000000;fill-opacity:1;fill-rule:nonzero;stroke:none;stroke-width:1;stroke-linecap:round;stroke-linejoin:round;stroke-miterlimit:4;stroke-dasharray:none;stroke-dashoffset:0;stroke-opacity:1;paint-order:fill markers stroke"
     d="M 1.5 1 A 0.50005 0.50005 0 0 0 1 1.5 L 1 14.5 A 0.50005 0.50005 0 0 0 1.5 15 L 14.5 15 A 0.50005 0.50005 0 0 0 15 14.5 L 15 4.5 A 0.50005 0.50005 0 0 0 14.5 4 L 8 4 L 8 1.5 A 0.50005 0.50005 0 0 0 7.5 1 L 1.5 1 z M 2.4648438 3 A 0.50005 0.50005 0 0 1 2.5 3 L 6.5 3 A 0.50005 0.50005 0 1 1 6.5 4 L 2.5 4 A 0.50005 0.50005 0 0 1 2.4648438 3 z M 4.609375 6.015625 A 0.50005 0.50005 0 0 1 5.0800781 6.7441406 L 4.0800781 8.7441406 A 0.50005814 0.50005814 0 1 1 3.1855469 8.296875 L 4.1855469 6.296875 A 0.50005 0.50005 0 0 1 4.609375 6.015625 z M 8.1289062 8.0175781 A 0.50005 0.50005 0 0 1 8.4453125 8.9121094 L 5.9453125 10.912109 A 0.50024408 0.50024408 0 0 1 5.3203125 10.130859 L 7.8203125 8.1308594 A 0.50005 0.50005 0 0 1 8.1289062 8.0175781 z M 2.6328125 10.152344 A 0.50005 0.50005 0 0 1 2.78125 10.169922 C 4.3462063 10.5832 5.5712189 11.808058 5.984375 13.373047 A 0.50073566 0.50073566 0 0 1 5.015625 13.626953 C 4.6939049 12.408314 3.7440049 11.458534 2.5253906 11.136719 A 0.50005 0.50005 0 0 1 2.6328125 10.152344 z M 9.1445312 12.019531 A 0.50005 0.50005 0 0 1 9.2539062 13.005859 L 7.2539062 13.505859 A 0.50022971 0.50022971 0 1 1 7.0117188 12.535156 L 9.0117188 12.035156 A 0.50005 0.50005 0 0 1 9.1445312 12.019531 z "
     id="path4485" />
</svg>
