<?xml version="1.0" encoding="UTF-8" standalone="no"?>
<svg
   xmlns:dc="http://purl.org/dc/elements/1.1/"
   xmlns:cc="http://creativecommons.org/ns#"
   xmlns:rdf="http://www.w3.org/1999/02/22-rdf-syntax-ns#"
   xmlns:svg="http://www.w3.org/2000/svg"
   xmlns="http://www.w3.org/2000/svg"
   xmlns:sodipodi="http://sodipodi.sourceforge.net/DTD/sodipodi-0.dtd"
   xmlns:inkscape="http://www.inkscape.org/namespaces/inkscape"
   height="16"
   width="16"
   version="1.1"
   id="svg5"
   sodipodi:docname="input-keyboard.svg"
   inkscape:version="0.92.2 2405546, 2018-03-11">
  <metadata
     id="metadata9">
    <rdf:RDF>
      <cc:Work
         rdf:about="">
        <dc:format>image/svg+xml</dc:format>
        <dc:type
           rdf:resource="http://purl.org/dc/dcmitype/StillImage" />
        <dc:title></dc:title>
      </cc:Work>
    </rdf:RDF>
  </metadata>
  <defs
     id="defs7" />
  <sodipodi:namedview
     id="namedview1"
     showgrid="true"
     inkscape:zoom="41.7193"
     inkscape:cx="4.9546545"
     inkscape:cy="10.67136"
     inkscape:window-width="1920"
     inkscape:window-height="1046"
     inkscape:window-x="0"
     inkscape:window-y="0"
     inkscape:window-maximized="1"
     inkscape:current-layer="svg5">
    <inkscape:grid
       type="xygrid"
       id="grid1px"
       empspacing="4" />
    <inkscape:grid
       type="xygrid"
       id="grid1pxdot"
       empspacing="1"
       dotted="true"
       originy="0.5"
       originx="0.5" />
  </sodipodi:namedview>
  <path
     style="opacity:1;fill:#000000;fill-opacity:1;stroke:none;stroke-width:0.99999994;stroke-linecap:round;stroke-linejoin:round;stroke-miterlimit:4;stroke-dasharray:none;stroke-opacity:1"
     d="M 1.5 4 A 0.50004997 0.50004997 0 0 0 1 4.5 L 1 12.5 A 0.50004997 0.50004997 0 0 0 1.5 13 L 13.5 13 A 0.50004997 0.50004997 0 0 0 14 12.5 L 14 4.5 A 0.50004997 0.50004997 0 0 0 13.5 4 L 1.5 4 z M 2 5 L 3 5 L 3 6 L 2 6 L 2 5 z M 4 5 L 5 5 L 5 6 L 4 6 L 4 5 z M 6 5 L 7 5 L 7 6 L 6 6 L 6 5 z M 8 5 L 9 5 L 9 6 L 8 6 L 8 5 z M 10 5 L 11 5 L 11 6 L 10 6 L 10 5 z M 12 5 L 13 5 L 13 6 L 12 6 L 12 5 z M 2 7 L 3 7 L 3 8 L 2 8 L 2 7 z M 4 7 L 5 7 L 5 8 L 4 8 L 4 7 z M 6 7 L 7 7 L 7 8 L 6 8 L 6 7 z M 8 7 L 9 7 L 9 8 L 8 8 L 8 7 z M 10 7 L 11 7 L 11 8 L 10 8 L 10 7 z M 12 7 L 13 7 L 13 8 L 12 8 L 12 7 z M 2 9 L 3 9 L 3 10 L 2 10 L 2 9 z M 4 9 L 5 9 L 5 10 L 4 10 L 4 9 z M 6 9 L 7 9 L 7 10 L 6 10 L 6 9 z M 8 9 L 9 9 L 9 10 L 8 10 L 8 9 z M 10 9 L 11 9 L 11 10 L 10 10 L 10 9 z M 12 9 L 13 9 L 13 10 L 12 10 L 12 9 z M 2 11 L 3 11 L 3 12 L 2 12 L 2 11 z M 4 11 L 11 11 L 11 12 L 4 12 L 4 11 z M 12 11 L 13 11 L 13 12 L 12 12 L 12 11 z "
     id="rect819" />
  <path
     style="fill:none;stroke:#000000;stroke-width:1px;stroke-linecap:round;stroke-linejoin:round;stroke-opacity:1"
     d="m 9.5,4.5 c 0,-1.5 0.5,-2 2,-2 1.5,0 2,-0.5 2,-2 v -2"
     id="path1008"
     inkscape:connector-curvature="0"
     sodipodi:nodetypes="cccc" />
</svg>
