<?xml version="1.0" encoding="UTF-8" standalone="no"?>
<svg
   xmlns:dc="http://purl.org/dc/elements/1.1/"
   xmlns:cc="http://creativecommons.org/ns#"
   xmlns:rdf="http://www.w3.org/1999/02/22-rdf-syntax-ns#"
   xmlns:svg="http://www.w3.org/2000/svg"
   xmlns="http://www.w3.org/2000/svg"
   xmlns:sodipodi="http://sodipodi.sourceforge.net/DTD/sodipodi-0.dtd"
   xmlns:inkscape="http://www.inkscape.org/namespaces/inkscape"
   height="16"
   width="16"
   id="svg2"
   version="1.1"
   inkscape:version="0.92.0 r"
   sodipodi:docname="media-optical-dvd.svg">
  <metadata
     id="metadata9">
    <rdf:RDF>
      <cc:Work
         rdf:about="">
        <dc:format>image/svg+xml</dc:format>
        <dc:type
           rdf:resource="http://purl.org/dc/dcmitype/StillImage" />
        <dc:title></dc:title>
      </cc:Work>
    </rdf:RDF>
  </metadata>
  <defs
     id="defs7" />
  <sodipodi:namedview
     id="namedview1"
     showgrid="true"
     inkscape:zoom="29.5"
     inkscape:cx="3.0845599"
     inkscape:cy="7.9455597"
     inkscape:window-width="1280"
     inkscape:window-height="766"
     inkscape:window-x="0"
     inkscape:window-y="0"
     inkscape:window-maximized="1"
     inkscape:current-layer="svg2">
    <inkscape:grid
       type="xygrid"
       id="grid1px"
       empspacing="4" />
    <inkscape:grid
       type="xygrid"
       id="grid1pxdot"
       empspacing="1"
       dotted="true"
       originy="0.5"
       originx="0.5" />
  </sodipodi:namedview>
  <path
     inkscape:connector-curvature="0"
     style="color:#000000;font-style:normal;font-variant:normal;font-weight:normal;font-stretch:normal;font-size:medium;line-height:normal;font-family:sans-serif;text-indent:0;text-align:start;text-decoration:none;text-decoration-line:none;text-decoration-style:solid;text-decoration-color:#000000;letter-spacing:normal;word-spacing:normal;text-transform:none;writing-mode:lr-tb;direction:ltr;baseline-shift:baseline;text-anchor:start;white-space:normal;clip-rule:nonzero;display:inline;overflow:visible;visibility:visible;opacity:0.98999999;isolation:auto;mix-blend-mode:normal;color-interpolation:sRGB;color-interpolation-filters:linearRGB;solid-color:#000000;solid-opacity:1;fill:#000000;fill-opacity:1;fill-rule:nonzero;stroke:none;stroke-width:1;stroke-linecap:round;stroke-linejoin:round;stroke-miterlimit:4;stroke-dasharray:none;stroke-dashoffset:0;stroke-opacity:1;color-rendering:auto;image-rendering:auto;shape-rendering:auto;text-rendering:auto;enable-background:accumulate"
     d="M 8,0 C 3.5876443,0 0,3.5876443 0,8 c 0,4.412356 3.5876443,8 8,8 0.3610545,0 0.7140299,-0.03354 1.0625,-0.08008 A 6,6 0 0 1 6.4375,14.818359 C 3.3215021,14.109278 1,11.333708 1,8 1,4.1280844 4.1280844,1 8,1 c 3.333048,0 6.108598,2.3204818 6.818359,5.4355469 a 6,6 0 0 1 1.101563,2.6132812 C 15.965252,8.7043405 16,8.3567211 16,8 16,3.5876443 12.412356,0 8,0 Z"
     id="path4137" />
  <path
     style="opacity:0.98999999;fill:#000000;fill-opacity:1;fill-rule:nonzero;stroke:none;stroke-width:1;stroke-linecap:round;stroke-linejoin:round;stroke-miterlimit:4;stroke-dasharray:none;stroke-opacity:1"
     d="m 10,5 a 5,5 0 0 0 -5,5 5,5 0 0 0 5,5 5,5 0 0 0 5,-5 5,5 0 0 0 -5,-5 z M 5.9414062,8.4394531 h 1.0800782 c 0.2606936,0 0.4903894,0.050648 0.6914062,0.1542969 0.2041577,0.1005084 0.364256,0.2486244 0.4804688,0.4433594 0.1162128,0.1915941 0.1765466,0.4170406 0.1796875,0.6777344 0.00314,0.094227 0.00391,0.2191429 0.00391,0.3730472 0,0.153903 -7.662e-4,0.278819 -0.00391,0.373047 -0.00314,0.260694 -0.060755,0.486905 -0.1738281,0.68164 -0.113072,0.191594 -0.2689211,0.339709 -0.4667969,0.44336 -0.197876,0.100507 -0.426041,0.15039 -0.6835938,0.15039 H 5.9414062 c -0.03455,0 -0.064717,-0.01198 -0.089844,-0.03711 -0.025127,-0.02513 -0.037109,-0.05529 -0.037109,-0.08984 V 8.5664062 c 0,-0.03455 0.011982,-0.064717 0.037109,-0.089844 0.025127,-0.025127 0.055294,-0.037109 0.089844,-0.037109 z m 2.8691407,0 H 8.984375 c 0.094227,0 0.1553256,0.038665 0.1835938,0.1171875 l 0.9101562,2.7089844 0.910156,-2.7089844 c 0.02827,-0.078522 0.08937,-0.1171875 0.183594,-0.1171875 h 0.173828 c 0.02827,0 0.05147,0.011217 0.07031,0.033203 0.02199,0.018846 0.0332,0.042045 0.0332,0.070313 0,0.015705 -0.0035,0.031171 -0.0098,0.046875 l -1.017578,2.9589842 c -0.01885,0.05968 -0.04978,0.106078 -0.09375,0.140625 -0.04083,0.03141 -0.09343,0.04687 -0.15625,0.04687 h -0.1875 c -0.1224946,0 -0.2052621,-0.06187 -0.2460938,-0.1875 L 8.7167969,8.5898438 c -0.00628,-0.015705 -0.00977,-0.031171 -0.00977,-0.046875 0,-0.028268 0.010452,-0.051467 0.029297,-0.070313 0.021986,-0.021986 0.045951,-0.033203 0.074219,-0.033203 z m 3.3242191,0 h 1.078125 c 0.260693,0 0.492342,0.050648 0.693359,0.1542969 0.204157,0.1005084 0.364256,0.2486244 0.480469,0.4433594 0.116213,0.1915941 0.176547,0.4170406 0.179687,0.6777344 0.0031,0.094227 0.0039,0.2191429 0.0039,0.3730472 1e-6,0.153903 -7.72e-4,0.278819 -0.0039,0.373047 -0.0031,0.260692 -0.0627,0.486905 -0.175781,0.68164 -0.113072,0.191594 -0.266968,0.339709 -0.464844,0.44336 -0.197876,0.100507 -0.426042,0.15039 -0.683593,0.15039 h -1.107422 c -0.03455,0 -0.06471,-0.01198 -0.08984,-0.03711 -0.02513,-0.02513 -0.03711,-0.05529 -0.03711,-0.08984 V 8.5664062 c 1e-6,-0.03455 0.01198,-0.064717 0.03711,-0.089844 0.02513,-0.025127 0.05529,-0.037109 0.08984,-0.037109 z M 6.2617188,8.8632812 V 11.3125 h 0.7636718 c 0.3140887,0 0.5395353,-0.08081 0.6777344,-0.244141 0.1413399,-0.163326 0.2163745,-0.373306 0.2226562,-0.630859 0.00314,-0.09423 0.00391,-0.21141 0.00391,-0.349609 0,-0.1381998 -7.662e-4,-0.25343 -0.00391,-0.3476566 -0.00628,-0.2544119 -0.082847,-0.4636269 -0.2304687,-0.6269532 -0.1476217,-0.166467 -0.3792706,-0.25 -0.6933594,-0.25 z m 6.1933592,0 V 11.3125 h 0.763672 c 0.314089,0 0.539535,-0.08081 0.677734,-0.244141 0.14134,-0.163326 0.214421,-0.373306 0.220704,-0.630859 0.0031,-0.09423 0.0059,-0.21141 0.0059,-0.349609 0,-0.1381998 -0.0027,-0.25343 -0.0059,-0.3476566 -0.0063,-0.2544119 -0.08283,-0.4636269 -0.230469,-0.6269532 -0.147622,-0.166467 -0.377317,-0.25 -0.691407,-0.25 z"
     id="path4145"
     inkscape:connector-curvature="0" />
</svg>
