<?xml version="1.0" encoding="UTF-8" standalone="no"?>
<svg
   xmlns:dc="http://purl.org/dc/elements/1.1/"
   xmlns:cc="http://creativecommons.org/ns#"
   xmlns:rdf="http://www.w3.org/1999/02/22-rdf-syntax-ns#"
   xmlns:svg="http://www.w3.org/2000/svg"
   xmlns="http://www.w3.org/2000/svg"
   xmlns:sodipodi="http://sodipodi.sourceforge.net/DTD/sodipodi-0.dtd"
   xmlns:inkscape="http://www.inkscape.org/namespaces/inkscape"
   height="16"
   width="16"
   id="svg2"
   version="1.1"
   inkscape:version="0.91 r13725"
   sodipodi:docname="media-optical-audio.svg">
  <metadata
     id="metadata9">
    <rdf:RDF>
      <cc:Work
         rdf:about="">
        <dc:format>image/svg+xml</dc:format>
        <dc:type
           rdf:resource="http://purl.org/dc/dcmitype/StillImage" />
        <dc:title></dc:title>
      </cc:Work>
    </rdf:RDF>
  </metadata>
  <defs
     id="defs7" />
  <sodipodi:namedview
     id="namedview1"
     showgrid="true"
     inkscape:zoom="20.85965"
     inkscape:cx="4.5081077"
     inkscape:cy="8.0676722"
     inkscape:window-width="1280"
     inkscape:window-height="766"
     inkscape:window-x="1680"
     inkscape:window-y="250"
     inkscape:window-maximized="1"
     inkscape:current-layer="svg2">
    <inkscape:grid
       type="xygrid"
       id="grid1px"
       empspacing="4" />
    <inkscape:grid
       type="xygrid"
       id="grid1pxdot"
       empspacing="1"
       dotted="true"
       originy="0.5"
       originx="0.5" />
  </sodipodi:namedview>
  <path
     style="color:#000000;font-style:normal;font-variant:normal;font-weight:normal;font-stretch:normal;font-size:medium;line-height:normal;font-family:sans-serif;text-indent:0;text-align:start;text-decoration:none;text-decoration-line:none;text-decoration-style:solid;text-decoration-color:#000000;letter-spacing:normal;word-spacing:normal;text-transform:none;direction:ltr;block-progression:tb;writing-mode:lr-tb;baseline-shift:baseline;text-anchor:start;white-space:normal;clip-rule:nonzero;display:inline;overflow:visible;visibility:visible;opacity:0.98999999;isolation:auto;mix-blend-mode:normal;color-interpolation:sRGB;color-interpolation-filters:linearRGB;solid-color:#000000;solid-opacity:1;fill:#000000;fill-opacity:1;fill-rule:nonzero;stroke:none;stroke-width:1;stroke-linecap:round;stroke-linejoin:round;stroke-miterlimit:4;stroke-dasharray:none;stroke-dashoffset:0;stroke-opacity:1;color-rendering:auto;image-rendering:auto;shape-rendering:auto;text-rendering:auto;enable-background:accumulate"
     d="M 8 0 C 3.5876443 0 0 3.5876443 0 8 C 0 12.412356 3.5876443 16 8 16 C 8.3610545 16 8.7140299 15.966463 9.0625 15.919922 A 6 6 0 0 1 6.4375 14.818359 C 3.3215021 14.109278 1 11.333708 1 8 C 1 4.1280844 4.1280844 1 8 1 C 11.333048 1 14.108598 3.3204818 14.818359 6.4355469 A 6 6 0 0 1 15.919922 9.0488281 C 15.965252 8.7043405 16 8.3567211 16 8 C 16 3.5876443 12.412356 0 8 0 z "
     id="path4137" />
  <path
     style="opacity:0.98999999;fill:#000000;fill-opacity:1;fill-rule:nonzero;stroke:none;stroke-width:1;stroke-linecap:round;stroke-linejoin:round;stroke-miterlimit:4;stroke-dasharray:none;stroke-opacity:1"
     d="M 10 5 A 5 5 0 0 0 5 10 A 5 5 0 0 0 10 15 A 5 5 0 0 0 15 10 A 5 5 0 0 0 10 5 z M 8.1777344 7.9980469 C 8.5366997 7.9980469 8.8349084 8.068077 9.0742188 8.2070312 C 9.3173887 8.3459856 9.4974861 8.5161315 9.6132812 8.7207031 C 9.7290765 8.9214149 9.7911084 9.1175084 9.7988281 9.3066406 C 9.7988281 9.3413793 9.7848312 9.3714188 9.7578125 9.3984375 C 9.7346532 9.4215968 9.706613 9.4335938 9.671875 9.4335938 L 9.4042969 9.4335938 C 9.3695582 9.4335938 9.3375193 9.4215968 9.3066406 9.3984375 C 9.2796212 9.3752786 9.261626 9.345239 9.2539062 9.3066406 C 9.1998686 9.0750501 9.0918009 8.8849553 8.9296875 8.7382812 C 8.7675742 8.5916072 8.5174005 8.5195314 8.1777344 8.5195312 C 7.8419281 8.5195312 7.5797573 8.6176011 7.390625 8.8144531 C 7.2053525 9.0074452 7.1053295 9.2676165 7.09375 9.5957031 C 7.08989 9.7114984 7.0878906 9.8736004 7.0878906 10.082031 C 7.0878906 10.290463 7.08989 10.452564 7.09375 10.568359 C 7.1053293 10.896445 7.2053523 11.158617 7.390625 11.355469 C 7.5797573 11.548461 7.8419281 11.644531 8.1777344 11.644531 C 8.5174005 11.644531 8.7675742 11.572455 8.9296875 11.425781 C 9.0918009 11.279107 9.1998685 11.089013 9.2539062 10.857422 C 9.2616257 10.818822 9.2796213 10.788785 9.3066406 10.765625 C 9.3375193 10.742465 9.3695582 10.730469 9.4042969 10.730469 L 9.671875 10.730469 C 9.7066137 10.730469 9.7346538 10.744464 9.7578125 10.771484 C 9.7848312 10.794644 9.7988281 10.822682 9.7988281 10.857422 C 9.7911081 11.046554 9.7290763 11.244647 9.6132812 11.449219 C 9.4974861 11.64993 9.3173887 11.82003 9.0742188 11.958984 C 8.8349084 12.097938 8.5366997 12.166016 8.1777344 12.166016 C 7.8535076 12.166016 7.5693419 12.099938 7.3261719 11.964844 C 7.0830022 11.829749 6.892907 11.643654 6.7578125 11.408203 C 6.6265778 11.168893 6.5565014 10.898724 6.5449219 10.597656 C 6.5410619 10.481862 6.5390625 10.309763 6.5390625 10.082031 C 6.5390625 9.8543011 6.5410619 9.6822016 6.5449219 9.5664062 C 6.5565014 9.2653387 6.6265778 8.9971691 6.7578125 8.7617188 C 6.892907 8.5224085 7.0830018 8.3362664 7.3261719 8.2011719 C 7.5693419 8.0660774 7.8535076 7.9980469 8.1777344 7.9980469 z M 10.71875 8.0566406 L 12.044922 8.0566406 C 12.365289 8.0566406 12.649454 8.1187188 12.896484 8.2460938 C 13.147374 8.3696086 13.343514 8.5517054 13.486328 8.7910156 C 13.629142 9.026466 13.703171 9.3046331 13.707031 9.625 C 13.710898 9.7407953 13.712891 9.8928996 13.712891 10.082031 C 13.712891 10.271164 13.710898 10.423267 13.707031 10.539062 C 13.703165 10.85943 13.631134 11.139596 13.492188 11.378906 C 13.353232 11.614357 13.161139 11.796453 12.917969 11.923828 C 12.674799 12.047343 12.396585 12.109375 12.080078 12.109375 L 10.71875 12.109375 C 10.67629 12.109375 10.640252 12.09338 10.609375 12.0625 C 10.578495 12.03162 10.5625 11.995582 10.5625 11.953125 L 10.5625 8.2128906 C 10.5625 8.1704326 10.578495 8.1324415 10.609375 8.1015625 C 10.640255 8.0706838 10.676293 8.0566406 10.71875 8.0566406 z M 11.113281 8.5761719 L 11.113281 11.587891 L 12.050781 11.587891 C 12.436765 11.587891 12.714932 11.487821 12.884766 11.287109 C 13.058458 11.086398 13.14853 10.826273 13.15625 10.509766 C 13.160117 10.39397 13.162109 10.251865 13.162109 10.082031 C 13.162109 9.9121987 13.160117 9.7700921 13.15625 9.6542969 C 13.14853 9.3416496 13.05446 9.0835243 12.873047 8.8828125 C 12.691634 8.6782409 12.407468 8.5761719 12.021484 8.5761719 L 11.113281 8.5761719 z "
     id="path4142" />
</svg>
