<?xml version="1.0" encoding="UTF-8" standalone="no"?>
<svg
   xmlns:dc="http://purl.org/dc/elements/1.1/"
   xmlns:cc="http://creativecommons.org/ns#"
   xmlns:rdf="http://www.w3.org/1999/02/22-rdf-syntax-ns#"
   xmlns:svg="http://www.w3.org/2000/svg"
   xmlns="http://www.w3.org/2000/svg"
   xmlns:sodipodi="http://sodipodi.sourceforge.net/DTD/sodipodi-0.dtd"
   xmlns:inkscape="http://www.inkscape.org/namespaces/inkscape"
   height="16"
   width="16"
   id="svg2"
   version="1.1"
   inkscape:version="0.91 r13725"
   sodipodi:docname="media-optical-blu-ray.svg">
  <metadata
     id="metadata9">
    <rdf:RDF>
      <cc:Work
         rdf:about="">
        <dc:format>image/svg+xml</dc:format>
        <dc:type
           rdf:resource="http://purl.org/dc/dcmitype/StillImage" />
        <dc:title></dc:title>
      </cc:Work>
    </rdf:RDF>
  </metadata>
  <defs
     id="defs7" />
  <sodipodi:namedview
     id="namedview1"
     showgrid="true"
     inkscape:zoom="29.5"
     inkscape:cx="3.203945"
     inkscape:cy="6.5695282"
     inkscape:window-width="1680"
     inkscape:window-height="1016"
     inkscape:window-x="0"
     inkscape:window-y="0"
     inkscape:window-maximized="1"
     inkscape:current-layer="svg2">
    <inkscape:grid
       type="xygrid"
       id="grid1px"
       empspacing="4" />
    <inkscape:grid
       type="xygrid"
       id="grid1pxdot"
       empspacing="1"
       dotted="true"
       originy="0.5"
       originx="0.5" />
  </sodipodi:namedview>
  <path
     inkscape:connector-curvature="0"
     style="color:#000000;font-style:normal;font-variant:normal;font-weight:normal;font-stretch:normal;font-size:medium;line-height:normal;font-family:sans-serif;text-indent:0;text-align:start;text-decoration:none;text-decoration-line:none;text-decoration-style:solid;text-decoration-color:#000000;letter-spacing:normal;word-spacing:normal;text-transform:none;direction:ltr;block-progression:tb;writing-mode:lr-tb;baseline-shift:baseline;text-anchor:start;white-space:normal;clip-rule:nonzero;display:inline;overflow:visible;visibility:visible;opacity:0.98999999;isolation:auto;mix-blend-mode:normal;color-interpolation:sRGB;color-interpolation-filters:linearRGB;solid-color:#000000;solid-opacity:1;fill:#000000;fill-opacity:1;fill-rule:nonzero;stroke:none;stroke-width:1;stroke-linecap:round;stroke-linejoin:round;stroke-miterlimit:4;stroke-dasharray:none;stroke-dashoffset:0;stroke-opacity:1;color-rendering:auto;image-rendering:auto;shape-rendering:auto;text-rendering:auto;enable-background:accumulate"
     d="M 8,0 C 3.5876443,0 0,3.5876443 0,8 c 0,4.412356 3.5876443,8 8,8 0.3610545,0 0.7140299,-0.03354 1.0625,-0.08008 A 6,6 0 0 1 6.4375,14.818359 C 3.3215021,14.109278 1,11.333708 1,8 1,4.1280844 4.1280844,1 8,1 c 3.333048,0 6.108598,2.3204818 6.818359,5.4355469 a 6,6 0 0 1 1.101563,2.6132812 C 15.965252,8.7043405 16,8.3567211 16,8 16,3.5876443 12.412356,0 8,0 Z"
     id="path4137" />
  <path
     style="opacity:0.98999999;fill:#000000;fill-opacity:1;fill-rule:nonzero;stroke:none;stroke-width:1;stroke-linecap:round;stroke-linejoin:round;stroke-miterlimit:4;stroke-dasharray:none;stroke-opacity:1"
     d="M 10 5 A 5 5 0 0 0 5 10 A 5 5 0 0 0 10 15 A 5 5 0 0 0 15 10 A 5 5 0 0 0 10 5 z M 6.7226562 7.90625 L 8.3671875 7.90625 C 8.6904374 7.90625 8.951847 7.9688583 9.1523438 8.0957031 C 9.3528404 8.2184563 9.4961041 8.3689757 9.5820312 8.5449219 C 9.6679585 8.7208679 9.7109375 8.8927843 9.7109375 9.0605469 C 9.7109375 9.289686 9.6573528 9.4759287 9.546875 9.6191406 C 9.4363973 9.7582608 9.3270892 9.860313 9.2207031 9.9257812 C 9.3925575 10.040351 9.5322858 10.187148 9.6386719 10.367188 C 9.7491497 10.543134 9.8046875 10.740167 9.8046875 10.957031 C 9.8046875 11.169803 9.7509173 11.37214 9.6445312 11.564453 C 9.5422371 11.752674 9.3881821 11.904775 9.1835938 12.023438 C 8.9790051 12.142098 8.7354571 12.203125 8.453125 12.203125 L 6.7226562 12.203125 C 6.6776469 12.203125 6.638203 12.185077 6.6054688 12.152344 C 6.5727347 12.11961 6.5566406 12.082119 6.5566406 12.037109 L 6.5566406 8.0722656 C 6.5566406 8.0272563 6.5727347 7.9878124 6.6054688 7.9550781 C 6.6382028 7.9223441 6.6776466 7.90625 6.7226562 7.90625 z M 10.822266 7.90625 L 12.228516 7.90625 C 12.568132 7.90625 12.868986 7.9723935 13.130859 8.1074219 C 13.396825 8.2383585 13.604464 8.4318571 13.755859 8.6855469 C 13.907255 8.9351449 13.986142 9.2287424 13.990234 9.5683594 C 13.994301 9.6911125 13.996094 9.8541907 13.996094 10.054688 C 13.996094 10.255183 13.994301 10.41631 13.990234 10.539062 C 13.986168 10.878681 13.909047 11.175997 13.761719 11.429688 C 13.614415 11.679285 13.412078 11.870831 13.154297 12.005859 C 12.896515 12.136796 12.60115 12.203125 12.265625 12.203125 L 10.822266 12.203125 C 10.777252 12.203125 10.737809 12.185077 10.705078 12.152344 C 10.672345 12.11961 10.65625 12.082119 10.65625 12.037109 L 10.65625 8.0722656 C 10.65625 8.0272563 10.672345 7.9878124 10.705078 7.9550781 C 10.737811 7.9223441 10.777255 7.90625 10.822266 7.90625 z M 7.140625 8.4589844 L 7.140625 9.6972656 L 8.3066406 9.6972656 C 8.5766974 9.6972656 8.7808017 9.6454486 8.9199219 9.5390625 C 9.0590421 9.4326765 9.1289064 9.2786217 9.1289062 9.078125 C 9.1289063 8.8776283 9.0590421 8.7235736 8.9199219 8.6171875 C 8.7808017 8.5108015 8.5766974 8.4589844 8.3066406 8.4589844 L 7.140625 8.4589844 z M 11.240234 8.4589844 L 11.240234 11.650391 L 12.234375 11.650391 C 12.643552 11.650391 12.937148 11.54285 13.117188 11.330078 C 13.301316 11.117306 13.398066 10.843338 13.40625 10.507812 C 13.410317 10.38506 13.412109 10.234724 13.412109 10.054688 C 13.412109 9.8746493 13.410317 9.7223624 13.40625 9.5996094 C 13.398066 9.268176 13.297782 8.9959752 13.105469 8.7832031 C 12.913156 8.5663393 12.612302 8.4589844 12.203125 8.4589844 L 11.240234 8.4589844 z M 7.140625 10.25 L 7.140625 11.650391 L 8.3925781 11.650391 C 8.6544514 11.650391 8.8567881 11.584062 9 11.453125 C 9.1473037 11.318096 9.2207031 11.153436 9.2207031 10.957031 C 9.2207031 10.756535 9.1508388 10.588154 9.0117188 10.453125 C 8.8725985 10.318096 8.6667267 10.25 8.3925781 10.25 L 7.140625 10.25 z "
     id="path4145" />
</svg>
