<?xml version="1.0" encoding="UTF-8" standalone="no"?>
<svg
   xmlns:dc="http://purl.org/dc/elements/1.1/"
   xmlns:cc="http://creativecommons.org/ns#"
   xmlns:rdf="http://www.w3.org/1999/02/22-rdf-syntax-ns#"
   xmlns:svg="http://www.w3.org/2000/svg"
   xmlns="http://www.w3.org/2000/svg"
   xmlns:sodipodi="http://sodipodi.sourceforge.net/DTD/sodipodi-0.dtd"
   xmlns:inkscape="http://www.inkscape.org/namespaces/inkscape"
   height="16"
   width="16"
   version="1.1"
   id="svg5"
   sodipodi:docname="network-cellular-disconnected.svg"
   inkscape:version="1.0.2 (e86c870879, 2021-01-15)">
  <metadata
     id="metadata9">
    <rdf:RDF>
      <cc:Work
         rdf:about="">
        <dc:format>image/svg+xml</dc:format>
        <dc:type
           rdf:resource="http://purl.org/dc/dcmitype/StillImage" />
        <dc:title></dc:title>
      </cc:Work>
    </rdf:RDF>
  </metadata>
  <defs
     id="defs7" />
  <sodipodi:namedview
     id="namedview1"
     showgrid="true"
     inkscape:zoom="41.7193"
     inkscape:cx="10.639596"
     inkscape:cy="9.859385"
     inkscape:window-width="1920"
     inkscape:window-height="1044"
     inkscape:window-x="6400"
     inkscape:window-y="720"
     inkscape:window-maximized="1"
     inkscape:current-layer="svg5"
     showguides="false"
     inkscape:document-rotation="0">
    <inkscape:grid
       type="xygrid"
       id="grid1px"
       empspacing="4" />
    <inkscape:grid
       type="xygrid"
       id="grid1pxdot"
       empspacing="1"
       dotted="true"
       originy="0.5"
       originx="0.5" />
  </sodipodi:namedview>
  <path
     id="path833"
     style="fill:#000000;stroke:none;stroke-width:1px;stroke-linecap:butt;stroke-linejoin:miter;stroke-opacity:1;fill-opacity:0.5"
     d="M 14.5 1.5 L 1.5 14.5 L 8.46875 14.5 A 4.5 4.5 0 0 1 8 12.5 A 4.5 4.5 0 0 1 12.5 8 A 4.5 4.5 0 0 1 14.5 8.4707031 L 14.5 1.5 z " />
  <path
     style="color:#000000;font-style:normal;font-variant:normal;font-weight:normal;font-stretch:normal;font-size:medium;line-height:normal;font-family:sans-serif;font-variant-ligatures:normal;font-variant-position:normal;font-variant-caps:normal;font-variant-numeric:normal;font-variant-alternates:normal;font-feature-settings:normal;text-indent:0;text-align:start;text-decoration:none;text-decoration-line:none;text-decoration-style:solid;text-decoration-color:#000000;letter-spacing:normal;word-spacing:normal;text-transform:none;writing-mode:lr-tb;direction:ltr;text-orientation:mixed;dominant-baseline:auto;baseline-shift:baseline;text-anchor:start;white-space:normal;shape-padding:0;clip-rule:nonzero;display:inline;overflow:visible;visibility:visible;opacity:0.98999999;isolation:auto;mix-blend-mode:normal;color-interpolation:sRGB;color-interpolation-filters:linearRGB;solid-color:#000000;solid-opacity:1;vector-effect:none;fill:#000000;fill-opacity:1;fill-rule:nonzero;stroke:none;stroke-width:1;stroke-linecap:round;stroke-linejoin:round;stroke-miterlimit:4;stroke-dasharray:none;stroke-dashoffset:0;stroke-opacity:1;paint-order:fill markers stroke;color-rendering:auto;image-rendering:auto;shape-rendering:auto;text-rendering:auto;enable-background:accumulate"
     d="M 14.484375 1 A 0.50005 0.50005 0 0 0 14.146484 1.1464844 L 1.1464844 14.146484 A 0.50005 0.50005 0 0 0 1.5 15 L 8.7617188 15 A 4.5 4.5 0 0 1 8.2636719 14 L 2.7070312 14 L 14 2.7070312 L 14 8.2636719 A 4.5 4.5 0 0 1 15 8.7597656 L 15 1.5 A 0.50005 0.50005 0 0 0 14.484375 1 z "
     id="path4485" />
  <path
     inkscape:connector-curvature="0"
     style="opacity:0.98999999;fill:#000000;fill-opacity:1;fill-rule:nonzero;stroke:none;stroke-width:1;stroke-linecap:round;stroke-linejoin:round;stroke-miterlimit:4;stroke-dasharray:none;stroke-dashoffset:0;stroke-opacity:1;paint-order:fill markers stroke"
     d="M 12.5,9 A 3.5,3.5 0 0 0 9,12.5 3.5,3.5 0 0 0 12.5,16 3.5,3.5 0 0 0 16,12.5 3.5,3.5 0 0 0 12.5,9 Z m -1.505859,1.494141 a 0.50083746,0.50083746 0 0 1 0.359375,0.152343 L 12.5,11.792969 13.646484,10.646484 a 0.50083746,0.50083746 0 0 1 0.34375,-0.152343 0.50083746,0.50083746 0 0 1 0.363282,0.859375 L 13.207031,12.5 l 1.146485,1.146484 a 0.50083746,0.50083746 0 1 1 -0.707032,0.707032 L 12.5,13.207031 11.353516,14.353516 A 0.50083746,0.50083746 0 1 1 10.646484,13.646484 L 11.792969,12.5 10.646484,11.353516 a 0.50083746,0.50083746 0 0 1 0.347657,-0.859375 z m 1.263671,4.453125 C 12.3372,14.969434 12.414171,15 12.5,15 c 0.07893,0 0.149085,-0.02998 0.222656,-0.04883 A 0.50005,0.50005 0 0 1 12.5,15 0.50030896,0.50030896 0 0 1 12.257812,14.947266 Z"
     id="path4495" />
</svg>
