<?xml version="1.0" encoding="UTF-8" standalone="no"?>
<svg
   xmlns:dc="http://purl.org/dc/elements/1.1/"
   xmlns:cc="http://creativecommons.org/ns#"
   xmlns:rdf="http://www.w3.org/1999/02/22-rdf-syntax-ns#"
   xmlns:svg="http://www.w3.org/2000/svg"
   xmlns="http://www.w3.org/2000/svg"
   xmlns:sodipodi="http://sodipodi.sourceforge.net/DTD/sodipodi-0.dtd"
   xmlns:inkscape="http://www.inkscape.org/namespaces/inkscape"
   height="16"
   width="16"
   id="svg2"
   version="1.1"
   inkscape:version="0.92.4 5da689c313, 2019-01-14"
   sodipodi:docname="network-wireless-error-50.svg">
  <metadata
     id="metadata9">
    <rdf:RDF>
      <cc:Work
         rdf:about="">
        <dc:format>image/svg+xml</dc:format>
        <dc:type
           rdf:resource="http://purl.org/dc/dcmitype/StillImage" />
        <dc:title></dc:title>
      </cc:Work>
    </rdf:RDF>
  </metadata>
  <defs
     id="defs7" />
  <sodipodi:namedview
     id="namedview1"
     showgrid="true"
     inkscape:zoom="41.7193"
     inkscape:cx="8.1065135"
     inkscape:cy="6.6132147"
     inkscape:window-width="1920"
     inkscape:window-height="1046"
     inkscape:window-x="0"
     inkscape:window-y="0"
     inkscape:window-maximized="1"
     inkscape:current-layer="svg2">
    <inkscape:grid
       type="xygrid"
       id="grid1px"
       empspacing="4" />
    <inkscape:grid
       type="xygrid"
       id="grid1pxdot"
       empspacing="1"
       dotted="true"
       originy="0.5"
       originx="0.5" />
  </sodipodi:namedview>
  <path
     style="color:#000000;font-style:normal;font-variant:normal;font-weight:normal;font-stretch:normal;font-size:medium;line-height:normal;font-family:sans-serif;font-variant-ligatures:normal;font-variant-position:normal;font-variant-caps:normal;font-variant-numeric:normal;font-variant-alternates:normal;font-feature-settings:normal;text-indent:0;text-align:start;text-decoration:none;text-decoration-line:none;text-decoration-style:solid;text-decoration-color:#000000;letter-spacing:normal;word-spacing:normal;text-transform:none;writing-mode:lr-tb;direction:ltr;text-orientation:mixed;dominant-baseline:auto;baseline-shift:baseline;text-anchor:start;white-space:normal;shape-padding:0;clip-rule:nonzero;display:inline;overflow:visible;visibility:visible;opacity:0.98999999;isolation:auto;mix-blend-mode:normal;color-interpolation:sRGB;color-interpolation-filters:linearRGB;solid-color:#000000;solid-opacity:1;vector-effect:none;fill:#000000;fill-opacity:1;fill-rule:nonzero;stroke:none;stroke-width:1;stroke-linecap:round;stroke-linejoin:round;stroke-miterlimit:4;stroke-dasharray:none;stroke-dashoffset:0;stroke-opacity:1;color-rendering:auto;image-rendering:auto;shape-rendering:auto;text-rendering:auto;enable-background:accumulate"
     d="M 8 2.0820312 C 5.7610709 2.0733406 3.5221731 2.5505808 1.296875 3.5429688 A 0.50005 0.50005 0 0 0 1.1035156 4.3046875 L 7.6035156 12.804688 A 0.50005 0.50005 0 0 0 8.0332031 12.998047 A 4.5 4.5 0 0 1 8 12.5 A 4.5 4.5 0 0 1 8.1074219 11.537109 L 8 11.677734 L 2.3222656 4.2519531 C 4.2209948 3.4899349 6.111067 3.0626814 8 3.0703125 C 9.8864831 3.0779325 11.775402 3.5138053 13.675781 4.2539062 L 10.419922 8.5117188 A 4.5 4.5 0 0 1 12.048828 8.0273438 L 14.896484 4.3046875 A 0.50005 0.50005 0 0 0 14.697266 3.5410156 C 12.477072 2.5860553 10.238929 2.0907221 8 2.0820312 z "
     id="path4150-8" />
  <path
     style="opacity:0.98999999;fill:#000000;fill-opacity:1;fill-rule:nonzero;stroke:none;stroke-width:1;stroke-linecap:round;stroke-linejoin:round;stroke-miterlimit:4;stroke-dasharray:none;stroke-dashoffset:0;stroke-opacity:1;paint-order:fill markers stroke"
     d="M 12.5 9 A 3.5 3.5 0 0 0 9 12.5 A 3.5 3.5 0 0 0 12.5 16 A 3.5 3.5 0 0 0 16 12.5 A 3.5 3.5 0 0 0 12.5 9 z M 12.492188 9.9921875 A 0.50005 0.50005 0 0 1 13 10.5 L 13 12.5 A 0.50005 0.50005 0 1 1 12 12.5 L 12 10.5 A 0.50005 0.50005 0 0 1 12.492188 9.9921875 z M 12.464844 14 A 0.50005 0.50005 0 0 1 12.5 14 A 0.50005 0.50005 0 1 1 12.5 15 A 0.50005 0.50005 0 0 1 12.464844 14 z "
     id="path4495" />
  <path
     style="opacity:0.98999999;fill:#000000;fill-opacity:1;fill-rule:nonzero;stroke:none;stroke-width:1;stroke-linecap:round;stroke-linejoin:round;stroke-miterlimit:4;stroke-dasharray:none;stroke-opacity:1"
     d="M 8 7.5410156 C 6.9294969 7.5370428 5.8586528 7.7569538 4.8007812 8.2167969 A 0.50005 0.50005 0 0 0 4.6074219 8.984375 L 7.6074219 12.808594 A 0.50005 0.50005 0 0 0 8.0332031 12.996094 A 4.5 4.5 0 0 1 8 12.5 A 4.5 4.5 0 0 1 11.169922 8.2070312 C 10.124573 7.7719583 9.0626791 7.5449595 8 7.5410156 z "
     id="path4150-8-9" />
</svg>
