<?xml version="1.0" encoding="UTF-8" standalone="no"?>
<svg
   xmlns:dc="http://purl.org/dc/elements/1.1/"
   xmlns:cc="http://creativecommons.org/ns#"
   xmlns:rdf="http://www.w3.org/1999/02/22-rdf-syntax-ns#"
   xmlns:svg="http://www.w3.org/2000/svg"
   xmlns="http://www.w3.org/2000/svg"
   xmlns:sodipodi="http://sodipodi.sourceforge.net/DTD/sodipodi-0.dtd"
   xmlns:inkscape="http://www.inkscape.org/namespaces/inkscape"
   sodipodi:docname="network-wired-error.svg"
   inkscape:version="1.0 (4035a4fb49, 2020-05-01)"
   version="1.1"
   id="svg2"
   width="16"
   height="16">
  <metadata
     id="metadata9">
    <rdf:RDF>
      <cc:Work
         rdf:about="">
        <dc:format>image/svg+xml</dc:format>
        <dc:type
           rdf:resource="http://purl.org/dc/dcmitype/StillImage" />
        <dc:title></dc:title>
      </cc:Work>
    </rdf:RDF>
  </metadata>
  <defs
     id="defs7" />
  <sodipodi:namedview
     inkscape:document-rotation="0"
     inkscape:current-layer="svg2"
     inkscape:window-maximized="1"
     inkscape:window-y="304"
     inkscape:window-x="1920"
     inkscape:window-height="742"
     inkscape:window-width="1280"
     inkscape:cy="8.3448653"
     inkscape:cx="8.783025"
     inkscape:zoom="29.5"
     showgrid="true"
     id="namedview1">
    <inkscape:grid
       empspacing="4"
       id="grid1px"
       type="xygrid" />
    <inkscape:grid
       originx="0.5"
       originy="0.5"
       dotted="true"
       empspacing="1"
       id="grid1pxdot"
       type="xygrid" />
  </sodipodi:namedview>
  <path
     id="path819"
     d="M 12.5 9 A 3.5 3.5 0 0 0 9 12.5 A 3.5 3.5 0 0 0 12.5 16 A 3.5 3.5 0 0 0 16 12.5 A 3.5 3.5 0 0 0 12.5 9 z M 12.492188 9.9921875 A 0.50005 0.50005 0 0 1 13 10.5 L 13 12.5 A 0.50005 0.50005 0 1 1 12 12.5 L 12 10.5 A 0.50005 0.50005 0 0 1 12.492188 9.9921875 z M 12.464844 14 A 0.50005 0.50005 0 0 1 12.5 14 A 0.50005 0.50005 0 1 1 12.5 15 A 0.50005 0.50005 0 0 1 12.464844 14 z "
     style="opacity:0.98999999;fill:#000000;fill-opacity:1;fill-rule:nonzero;stroke:none;stroke-width:1;stroke-linecap:round;stroke-linejoin:round;stroke-miterlimit:4;stroke-dasharray:none;stroke-dashoffset:0;stroke-opacity:1;paint-order:fill markers stroke" />
  <path
     d="M 10 2 C 7.2444986 2 5 4.2444986 5 7 C 5 9.078107 6.2782706 10.861985 8.0878906 11.615234 A 4.5 4.5 0 0 1 8.8300781 9.8964844 C 8.7066278 9.635857 8.6010163 9.3308173 8.5117188 9 L 9.6738281 9 A 4.5 4.5 0 0 1 12.5 8 A 4.5 4.5 0 0 1 14.6875 8.5683594 C 14.832548 8.1307751 14.941264 7.6762316 14.960938 7.1953125 A 0.5 0.5 0 0 0 15 7 A 0.5 0.5 0 0 0 14.960938 6.8085938 C 14.854128 4.1465313 12.687638 2 10 2 z M 10 3 C 10.3511 3 10.782856 3.3176658 11.144531 4.0410156 C 11.280539 4.3130314 11.392309 4.644456 11.488281 5 L 8.5117188 5 C 8.6076907 4.644456 8.7194607 4.3130314 8.8554688 4.0410156 C 9.2171435 3.3176658 9.6488997 3 10 3 z M 7.9785156 3.5644531 C 7.9732156 3.5748591 7.9661695 3.583285 7.9609375 3.59375 C 7.7545379 4.0065489 7.5941232 4.4842605 7.4746094 5 L 6.5527344 5 C 6.8976698 4.4054608 7.386306 3.9129131 7.9785156 3.5644531 z M 12.021484 3.5644531 C 12.613694 3.9129131 13.10233 4.4054608 13.447266 5 L 12.525391 5 C 12.405877 4.4842605 12.245463 4.006549 12.039062 3.59375 C 12.033862 3.583285 12.026784 3.5748591 12.021484 3.5644531 z M 6.140625 6 L 7.3027344 6 C 7.2684451 6.3237979 7.25 6.6568282 7.25 7 C 7.25 7.3431718 7.2684454 7.6762021 7.3027344 8 L 6.140625 8 C 6.0579396 7.678801 6 7.3476224 6 7 C 6 6.6523776 6.0579396 6.321199 6.140625 6 z M 8.3164062 6 L 11.683594 6 C 11.722944 6.3215861 11.75 6.6526467 11.75 7 C 11.75 7.3473533 11.722954 7.6784139 11.683594 8 L 8.3164062 8 C 8.2770538 7.6784139 8.25 7.3473533 8.25 7 C 8.25 6.6526467 8.2770541 6.3215861 8.3164062 6 z M 12.697266 6 L 13.859375 6 C 13.94206 6.321199 14 6.6523776 14 7 C 14 7.3476224 13.94206 7.678801 13.859375 8 L 12.697266 8 C 12.731555 7.6762021 12.75 7.3431718 12.75 7 C 12.75 6.6568282 12.731556 6.3237979 12.697266 6 z M 6.5527344 9 L 7.4746094 9 C 7.5941232 9.515739 7.754538 9.993451 7.9609375 10.40625 C 7.9661675 10.41671 7.9732186 10.425137 7.9785156 10.435547 C 7.3863061 10.087084 6.8976698 9.594539 6.5527344 9 z "
     style="color:#000000;font-style:normal;font-variant:normal;font-weight:normal;font-stretch:normal;font-size:medium;line-height:normal;font-family:sans-serif;font-variant-ligatures:normal;font-variant-position:normal;font-variant-caps:normal;font-variant-numeric:normal;font-variant-alternates:normal;font-variant-east-asian:normal;font-feature-settings:normal;font-variation-settings:normal;text-indent:0;text-align:start;text-decoration:none;text-decoration-line:none;text-decoration-style:solid;text-decoration-color:#000000;letter-spacing:normal;word-spacing:normal;text-transform:none;writing-mode:lr-tb;direction:ltr;text-orientation:mixed;dominant-baseline:auto;baseline-shift:baseline;text-anchor:start;white-space:normal;shape-padding:0;shape-margin:0;inline-size:0;clip-rule:nonzero;display:inline;overflow:visible;visibility:visible;opacity:1;isolation:auto;mix-blend-mode:normal;color-interpolation:sRGB;color-interpolation-filters:linearRGB;solid-color:#000000;solid-opacity:1;vector-effect:none;fill:#000000;fill-opacity:1;fill-rule:nonzero;stroke:none;stroke-width:1;stroke-linecap:round;stroke-linejoin:round;stroke-miterlimit:4;stroke-dasharray:none;stroke-dashoffset:0;stroke-opacity:1;color-rendering:auto;image-rendering:auto;shape-rendering:auto;text-rendering:auto;enable-background:accumulate;stop-color:#000000;stop-opacity:1"
     id="path1040" />
  <rect
     style="fill:#000000;fill-opacity:1;stroke:#000000;stroke-linecap:round;stroke-linejoin:round;stroke-opacity:1"
     id="rect1018"
     width="2"
     height="3"
     x="1.5"
     y="0.5" />
  <path
     style="fill:none;stroke:#000000;stroke-width:1px;stroke-linecap:butt;stroke-linejoin:miter;stroke-opacity:1"
     d="M 2.5,3.5 V 15"
     id="path1020" />
</svg>
