<?xml version="1.0" encoding="UTF-8" standalone="no"?>
<svg
   xmlns:dc="http://purl.org/dc/elements/1.1/"
   xmlns:cc="http://creativecommons.org/ns#"
   xmlns:rdf="http://www.w3.org/1999/02/22-rdf-syntax-ns#"
   xmlns:svg="http://www.w3.org/2000/svg"
   xmlns="http://www.w3.org/2000/svg"
   xmlns:sodipodi="http://sodipodi.sourceforge.net/DTD/sodipodi-0.dtd"
   xmlns:inkscape="http://www.inkscape.org/namespaces/inkscape"
   sodipodi:docname="network-wired.svg"
   inkscape:version="1.0 (4035a4fb49, 2020-05-01)"
   version="1.1"
   id="svg2"
   width="16"
   height="16">
  <metadata
     id="metadata9">
    <rdf:RDF>
      <cc:Work
         rdf:about="">
        <dc:format>image/svg+xml</dc:format>
        <dc:type
           rdf:resource="http://purl.org/dc/dcmitype/StillImage" />
        <dc:title></dc:title>
      </cc:Work>
    </rdf:RDF>
  </metadata>
  <defs
     id="defs7" />
  <sodipodi:namedview
     inkscape:document-rotation="0"
     inkscape:current-layer="svg2"
     inkscape:window-maximized="1"
     inkscape:window-y="0"
     inkscape:window-x="0"
     inkscape:window-height="1046"
     inkscape:window-width="1920"
     inkscape:cy="6.8963788"
     inkscape:cx="4.1836202"
     inkscape:zoom="32"
     showgrid="true"
     id="namedview1">
    <inkscape:grid
       empspacing="4"
       id="grid1px"
       type="xygrid" />
    <inkscape:grid
       originx="0.5"
       originy="0.5"
       dotted="true"
       empspacing="1"
       id="grid1pxdot"
       type="xygrid" />
  </sodipodi:namedview>
  <path
     d="M 10 3 C 7.2444986 3 5 5.2444986 5 8 C 5 10.755501 7.2444986 13 10 13 C 12.686308 13 14.852111 10.855536 14.960938 8.1953125 A 0.5 0.5 0 0 0 15 8 A 0.5 0.5 0 0 0 14.960938 7.8085938 C 14.854129 5.1465313 12.687638 3 10 3 z M 10 4 C 10.3511 4 10.782856 4.3176658 11.144531 5.0410156 C 11.280539 5.3130314 11.392309 5.644456 11.488281 6 L 8.5117188 6 C 8.6076908 5.644456 8.7194608 5.3130314 8.8554688 5.0410156 C 9.2171436 4.3176658 9.6488997 4 10 4 z M 7.9785156 4.5644531 C 7.9732187 4.5748589 7.9661698 4.5832855 7.9609375 4.59375 C 7.754538 5.006549 7.5941232 5.4842605 7.4746094 6 L 6.5527344 6 C 6.8976698 5.4054608 7.386306 4.9129131 7.9785156 4.5644531 z M 12.021484 4.5644531 C 12.613694 4.9129131 13.10233 5.4054608 13.447266 6 L 12.525391 6 C 12.405877 5.4842605 12.245462 5.006549 12.039062 4.59375 C 12.03383 4.5832855 12.026781 4.5748589 12.021484 4.5644531 z M 6.140625 7 L 7.3027344 7 C 7.2684451 7.3237979 7.25 7.6568282 7.25 8 C 7.25 8.3431718 7.2684451 8.6762021 7.3027344 9 L 6.140625 9 C 6.0579396 8.678801 6 8.3476224 6 8 C 6 7.6523776 6.0579396 7.321199 6.140625 7 z M 8.3164062 7 L 11.683594 7 C 11.722946 7.3215861 11.75 7.6526467 11.75 8 C 11.75 8.3473533 11.722946 8.6784139 11.683594 9 L 8.3164062 9 C 8.2770538 8.6784139 8.25 8.3473533 8.25 8 C 8.25 7.6526467 8.2770538 7.3215861 8.3164062 7 z M 12.697266 7 L 13.859375 7 C 13.94206 7.321199 14 7.6523776 14 8 C 14 8.3476224 13.94206 8.678801 13.859375 9 L 12.697266 9 C 12.731555 8.6762021 12.75 8.3431718 12.75 8 C 12.75 7.6568282 12.731555 7.3237979 12.697266 7 z M 6.5527344 10 L 7.4746094 10 C 7.5941232 10.515739 7.754538 10.993451 7.9609375 11.40625 C 7.9661698 11.416715 7.9732187 11.425141 7.9785156 11.435547 C 7.386306 11.087087 6.8976698 10.594539 6.5527344 10 z M 8.5117188 10 L 11.488281 10 C 11.392309 10.355544 11.280539 10.686969 11.144531 10.958984 C 10.782856 11.682334 10.3511 12 10 12 C 9.6488997 12 9.2171437 11.682334 8.8554688 10.958984 C 8.7194608 10.686969 8.6076908 10.355544 8.5117188 10 z M 12.525391 10 L 13.447266 10 C 13.10233 10.594539 12.613694 11.087087 12.021484 11.435547 C 12.026781 11.425141 12.03383 11.416715 12.039062 11.40625 C 12.245462 10.993451 12.405877 10.515739 12.525391 10 z "
     style="color:#000000;font-style:normal;font-variant:normal;font-weight:normal;font-stretch:normal;font-size:medium;line-height:normal;font-family:sans-serif;font-variant-ligatures:normal;font-variant-position:normal;font-variant-caps:normal;font-variant-numeric:normal;font-variant-alternates:normal;font-variant-east-asian:normal;font-feature-settings:normal;font-variation-settings:normal;text-indent:0;text-align:start;text-decoration:none;text-decoration-line:none;text-decoration-style:solid;text-decoration-color:#000000;letter-spacing:normal;word-spacing:normal;text-transform:none;writing-mode:lr-tb;direction:ltr;text-orientation:mixed;dominant-baseline:auto;baseline-shift:baseline;text-anchor:start;white-space:normal;shape-padding:0;shape-margin:0;inline-size:0;clip-rule:nonzero;display:inline;overflow:visible;visibility:visible;isolation:auto;mix-blend-mode:normal;color-interpolation:sRGB;color-interpolation-filters:linearRGB;solid-color:#000000;solid-opacity:1;vector-effect:none;fill:#000000;fill-opacity:1;fill-rule:nonzero;stroke:none;stroke-width:1;stroke-linecap:round;stroke-linejoin:round;stroke-miterlimit:4;stroke-dasharray:none;stroke-dashoffset:0;stroke-opacity:1;color-rendering:auto;image-rendering:auto;shape-rendering:auto;text-rendering:auto;enable-background:accumulate;stop-color:#000000;stop-opacity:1;opacity:1"
     id="path1040" />
  <rect
     y="1.5"
     x="1.5"
     height="3"
     width="2"
     id="rect1018"
     style="fill:#000000;fill-opacity:1;stroke:#000000;stroke-linecap:round;stroke-linejoin:round;stroke-opacity:1" />
  <path
     id="path1020"
     d="M 2.5,4.5 V 16"
     style="fill:none;stroke:#000000;stroke-width:1px;stroke-linecap:butt;stroke-linejoin:miter;stroke-opacity:1" />
</svg>
