<?xml version="1.0" encoding="UTF-8" standalone="no"?>
<svg
   xmlns:dc="http://purl.org/dc/elements/1.1/"
   xmlns:cc="http://creativecommons.org/ns#"
   xmlns:rdf="http://www.w3.org/1999/02/22-rdf-syntax-ns#"
   xmlns:svg="http://www.w3.org/2000/svg"
   xmlns="http://www.w3.org/2000/svg"
   xmlns:sodipodi="http://sodipodi.sourceforge.net/DTD/sodipodi-0.dtd"
   xmlns:inkscape="http://www.inkscape.org/namespaces/inkscape"
   height="16"
   width="16"
   id="svg2"
   version="1.1"
   inkscape:version="1.0 (4035a4fb49, 2020-05-01)"
   sodipodi:docname="network-wired-unavailable.svg">
  <metadata
     id="metadata9">
    <rdf:RDF>
      <cc:Work
         rdf:about="">
        <dc:format>image/svg+xml</dc:format>
        <dc:type
           rdf:resource="http://purl.org/dc/dcmitype/StillImage" />
        <dc:title></dc:title>
      </cc:Work>
    </rdf:RDF>
  </metadata>
  <defs
     id="defs7" />
  <sodipodi:namedview
     id="namedview1"
     showgrid="true"
     inkscape:zoom="14.75"
     inkscape:cx="14.354538"
     inkscape:cy="16.639985"
     inkscape:window-width="1280"
     inkscape:window-height="742"
     inkscape:window-x="1920"
     inkscape:window-y="304"
     inkscape:window-maximized="1"
     inkscape:current-layer="svg2"
     inkscape:document-rotation="0">
    <inkscape:grid
       type="xygrid"
       id="grid1px"
       empspacing="4" />
    <inkscape:grid
       type="xygrid"
       id="grid1pxdot"
       empspacing="1"
       dotted="true"
       originy="0.5"
       originx="0.5" />
  </sodipodi:namedview>
  <path
     d="M 10 3 C 7.2444986 3 5 5.2444986 5 8 C 5 9.628184 5.79011 11.069079 7 11.982422 A 5 5 0 0 1 7.1503906 10.785156 C 6.9212048 10.55029 6.7193706 10.287218 6.5527344 10 L 7.4179688 10 A 5 5 0 0 1 8.2929688 8.6464844 C 8.2743415 8.4337017 8.25 8.2245594 8.25 8 C 8.25 7.6526467 8.2770542 7.3215861 8.3164062 7 L 11.683594 7 C 11.684053 7.003752 11.683138 7.0079641 11.683594 7.0117188 A 5 5 0 0 1 12 7 A 5 5 0 0 1 12.699219 7.0507812 C 12.697561 7.0343031 12.699006 7.0164305 12.697266 7 L 13.859375 7 C 13.892492 7.1286531 13.918361 7.2603075 13.941406 7.3925781 A 5 5 0 0 1 15 8 A 0.5 0.5 0 0 0 14.960938 7.8085938 C 14.854127 5.1465313 12.687638 3 10 3 z M 10 4 C 10.3511 4 10.782856 4.3176658 11.144531 5.0410156 C 11.280539 5.3130314 11.392309 5.644456 11.488281 6 L 8.5117188 6 C 8.6076906 5.644456 8.7194606 5.3130314 8.8554688 5.0410156 C 9.2171435 4.3176658 9.6488997 4 10 4 z M 7.9785156 4.5644531 C 7.9732156 4.5748591 7.9661695 4.583285 7.9609375 4.59375 C 7.7545379 5.0065489 7.5941232 5.4842605 7.4746094 6 L 6.5527344 6 C 6.8976698 5.4054608 7.386306 4.9129131 7.9785156 4.5644531 z M 12.021484 4.5644531 C 12.613694 4.9129131 13.10233 5.4054608 13.447266 6 L 12.525391 6 C 12.405877 5.4842605 12.245464 5.006549 12.039062 4.59375 C 12.033862 4.583285 12.026784 4.5748591 12.021484 4.5644531 z M 6.140625 7 L 7.3027344 7 C 7.2684451 7.3237979 7.25 7.6568282 7.25 8 C 7.25 8.3431718 7.2684454 8.6762021 7.3027344 9 L 6.140625 9 C 6.0579396 8.678801 6 8.3476224 6 8 C 6 7.6523776 6.0579396 7.321199 6.140625 7 z "
     style="color:#000000;font-style:normal;font-variant:normal;font-weight:normal;font-stretch:normal;font-size:medium;line-height:normal;font-family:sans-serif;font-variant-ligatures:normal;font-variant-position:normal;font-variant-caps:normal;font-variant-numeric:normal;font-variant-alternates:normal;font-variant-east-asian:normal;font-feature-settings:normal;font-variation-settings:normal;text-indent:0;text-align:start;text-decoration:none;text-decoration-line:none;text-decoration-style:solid;text-decoration-color:#000000;letter-spacing:normal;word-spacing:normal;text-transform:none;writing-mode:lr-tb;direction:ltr;text-orientation:mixed;dominant-baseline:auto;baseline-shift:baseline;text-anchor:start;white-space:normal;shape-padding:0;shape-margin:0;inline-size:0;clip-rule:nonzero;display:inline;overflow:visible;visibility:visible;opacity:1;isolation:auto;mix-blend-mode:normal;color-interpolation:sRGB;color-interpolation-filters:linearRGB;solid-color:#000000;solid-opacity:1;vector-effect:none;fill:#000000;fill-opacity:1;fill-rule:nonzero;stroke:none;stroke-width:1;stroke-linecap:round;stroke-linejoin:round;stroke-miterlimit:4;stroke-dasharray:none;stroke-dashoffset:0;stroke-opacity:1;color-rendering:auto;image-rendering:auto;shape-rendering:auto;text-rendering:auto;enable-background:accumulate;stop-color:#000000;stop-opacity:1"
     id="path1040" />
  <rect
     style="fill:#000000;fill-opacity:1;stroke:#000000;stroke-linecap:round;stroke-linejoin:round;stroke-opacity:1"
     id="rect1018"
     width="2"
     height="3"
     x="1.5"
     y="1.5" />
  <path
     style="fill:none;stroke:#000000;stroke-width:1px;stroke-linecap:butt;stroke-linejoin:miter;stroke-opacity:1"
     d="M 2.5,4.5 V 16"
     id="path1020" />
  <path
     d="M 11.939453 8 A 4 4 0 0 0 8 12 A 4 4 0 0 0 12 16 A 4 4 0 0 0 16 12 A 4 4 0 0 0 12 8 A 4 4 0 0 0 11.939453 8 z M 10.476562 10 A 0.5 0.5 0 0 1 10.853516 10.146484 L 12 11.292969 L 13.146484 10.146484 A 0.5 0.5 0 0 1 13.476562 10 A 0.5 0.5 0 0 1 13.853516 10.146484 A 0.5 0.5 0 0 1 13.853516 10.853516 L 12.707031 12 L 13.853516 13.146484 A 0.5 0.5 0 0 1 13.853516 13.853516 A 0.5 0.5 0 0 1 13.146484 13.853516 L 12 12.707031 L 10.853516 13.853516 A 0.5 0.5 0 0 1 10.146484 13.853516 A 0.5 0.5 0 0 1 10.146484 13.146484 L 11.292969 12 L 10.146484 10.853516 A 0.5 0.5 0 0 1 10.146484 10.146484 A 0.5 0.5 0 0 1 10.476562 10 z "
     style="fill:#000000;stroke:none;stroke-linecap:round;stroke-linejoin:round"
     id="path835" />
</svg>
