<?xml version="1.0" encoding="UTF-8" standalone="no"?>
<svg
   xmlns:dc="http://purl.org/dc/elements/1.1/"
   xmlns:cc="http://creativecommons.org/ns#"
   xmlns:rdf="http://www.w3.org/1999/02/22-rdf-syntax-ns#"
   xmlns:svg="http://www.w3.org/2000/svg"
   xmlns="http://www.w3.org/2000/svg"
   xmlns:sodipodi="http://sodipodi.sourceforge.net/DTD/sodipodi-0.dtd"
   xmlns:inkscape="http://www.inkscape.org/namespaces/inkscape"
   height="16"
   width="16"
   version="1.1"
   id="svg5"
   sodipodi:docname="network-vpn.svg"
   inkscape:version="0.92.2 5c3e80d, 2017-08-06">
  <metadata
     id="metadata9">
    <rdf:RDF>
      <cc:Work
         rdf:about="">
        <dc:format>image/svg+xml</dc:format>
        <dc:type
           rdf:resource="http://purl.org/dc/dcmitype/StillImage" />
        <dc:title></dc:title>
      </cc:Work>
    </rdf:RDF>
  </metadata>
  <defs
     id="defs7" />
  <sodipodi:namedview
     id="namedview1"
     showgrid="true"
     inkscape:zoom="41.7193"
     inkscape:cx="7.8299394"
     inkscape:cy="8.5906218"
     inkscape:window-width="1680"
     inkscape:window-height="1016"
     inkscape:window-x="0"
     inkscape:window-y="0"
     inkscape:window-maximized="1"
     inkscape:current-layer="svg5">
    <inkscape:grid
       type="xygrid"
       id="grid1px"
       empspacing="4" />
    <inkscape:grid
       type="xygrid"
       id="grid1pxdot"
       empspacing="1"
       dotted="true"
       originy="0.5"
       originx="0.5" />
  </sodipodi:namedview>
  <path
     style="fill:#030000;stroke:none;stroke-width:1px;stroke-linecap:round;stroke-linejoin:round;stroke-opacity:1;fill-opacity:1"
     d="M 1.5 3 A 0.50005 0.50005 0 0 0 1 3.5 L 1 12.5 A 0.50005 0.50005 0 0 0 1.5 13 L 14.5 13 A 0.50005 0.50005 0 0 0 15 12.5 L 15 3.5 A 0.50005 0.50005 0 0 0 14.5 3 L 1.5 3 z M 6.484375 5 A 0.50005 0.50005 0 0 1 7 5.5 L 7 10.5 A 0.50005 0.50005 0 0 1 6.1464844 10.853516 L 3.6464844 8.3535156 A 0.50005 0.50005 0 0 1 3.6464844 7.6464844 L 6.1464844 5.1464844 A 0.50005 0.50005 0 0 1 6.484375 5 z M 9.4921875 5 A 0.50005 0.50005 0 0 1 9.8535156 5.1464844 L 12.353516 7.6464844 A 0.50005 0.50005 0 0 1 12.353516 8.3535156 L 9.8535156 10.853516 A 0.50005 0.50005 0 0 1 9 10.5 L 9 5.5 A 0.50005 0.50005 0 0 1 9.4921875 5 z "
     id="path823" />
</svg>
