<?xml version="1.0" encoding="UTF-8" standalone="no"?>
<svg
   xmlns:dc="http://purl.org/dc/elements/1.1/"
   xmlns:cc="http://creativecommons.org/ns#"
   xmlns:rdf="http://www.w3.org/1999/02/22-rdf-syntax-ns#"
   xmlns:svg="http://www.w3.org/2000/svg"
   xmlns="http://www.w3.org/2000/svg"
   xmlns:sodipodi="http://sodipodi.sourceforge.net/DTD/sodipodi-0.dtd"
   xmlns:inkscape="http://www.inkscape.org/namespaces/inkscape"
   sodipodi:docname="network-wired-activated.svg"
   inkscape:version="1.0 (4035a4fb49, 2020-05-01)"
   version="1.1"
   id="svg2"
   width="16"
   height="16">
  <metadata
     id="metadata9">
    <rdf:RDF>
      <cc:Work
         rdf:about="">
        <dc:format>image/svg+xml</dc:format>
        <dc:type
           rdf:resource="http://purl.org/dc/dcmitype/StillImage" />
        <dc:title></dc:title>
      </cc:Work>
    </rdf:RDF>
  </metadata>
  <defs
     id="defs7" />
  <sodipodi:namedview
     inkscape:document-rotation="0"
     inkscape:current-layer="svg2"
     inkscape:window-maximized="1"
     inkscape:window-y="0"
     inkscape:window-x="0"
     inkscape:window-height="1046"
     inkscape:window-width="1920"
     inkscape:cy="7.8722515"
     inkscape:cx="7.4609814"
     inkscape:zoom="29.5"
     showgrid="true"
     id="namedview1">
    <inkscape:grid
       empspacing="4"
       id="grid1px"
       type="xygrid" />
    <inkscape:grid
       originx="0.5"
       originy="0.5"
       dotted="true"
       empspacing="1"
       id="grid1pxdot"
       type="xygrid" />
  </sodipodi:namedview>
  <path
     id="path4155"
     d="M 12 9 A 3 3 0 0 0 9 12 A 3 3 0 0 0 12 15 A 3 3 0 0 0 15 12 A 3 3 0 0 0 12 9 z M 13.490234 10.496094 A 0.50005 0.50005 0 0 1 13.853516 11.353516 L 11.853516 13.353516 A 0.50005 0.50005 0 0 1 11.146484 13.353516 L 10.146484 12.353516 A 0.50005 0.50005 0 1 1 10.853516 11.646484 L 11.5 12.292969 L 13.146484 10.646484 A 0.50005 0.50005 0 0 1 13.490234 10.496094 z "
     style="opacity:0.98999999;fill:#000000;fill-opacity:1;fill-rule:nonzero;stroke:none;stroke-width:1;stroke-linecap:round;stroke-linejoin:round;stroke-miterlimit:4;stroke-dasharray:none;stroke-opacity:1" />
  <path
     d="M 10 3 C 7.2444986 3 5 5.2444986 5 8 C 5 10.06196 6.2576266 11.836311 8.0449219 12.599609 A 4 4 0 0 1 8 12 A 4 4 0 0 1 8.5195312 10.027344 C 8.5169587 10.017931 8.5142688 10.009447 8.5117188 10 L 8.5371094 10 A 4 4 0 0 1 9.3554688 9 L 8.3164062 9 C 8.2770538 8.6784139 8.25 8.3473533 8.25 8 C 8.25 7.6526467 8.2770541 7.3215861 8.3164062 7 L 11.683594 7 C 11.722944 7.3215861 11.75 7.6526467 11.75 8 C 11.75 8.0027018 11.750003 8.0051127 11.75 8.0078125 A 4 4 0 0 1 12 8 A 4 4 0 0 1 12.746094 8.0703125 C 12.746275 8.0462796 12.75 8.0241328 12.75 8 C 12.75 7.6568282 12.731556 7.3237979 12.697266 7 L 13.859375 7 C 13.94206 7.321199 14 7.6523776 14 8 C 14 8.1751392 13.986107 8.346054 13.960938 8.5136719 A 4 4 0 0 1 14.826172 9.1679688 C 14.901313 8.854176 14.947308 8.5284848 14.960938 8.1953125 A 0.5 0.5 0 0 0 15 8 A 0.5 0.5 0 0 0 14.960938 7.8085938 C 14.854128 5.1465313 12.687638 3 10 3 z M 10 4 C 10.3511 4 10.782856 4.3176658 11.144531 5.0410156 C 11.280539 5.3130314 11.392309 5.644456 11.488281 6 L 8.5117188 6 C 8.6076907 5.644456 8.7194607 5.3130314 8.8554688 5.0410156 C 9.2171435 4.3176658 9.6488997 4 10 4 z M 7.9785156 4.5644531 C 7.9732156 4.5748591 7.9661695 4.583285 7.9609375 4.59375 C 7.7545379 5.0065489 7.5941232 5.4842605 7.4746094 6 L 6.5527344 6 C 6.8976698 5.4054608 7.386306 4.9129131 7.9785156 4.5644531 z M 12.021484 4.5644531 C 12.613694 4.9129131 13.10233 5.4054608 13.447266 6 L 12.525391 6 C 12.405877 5.4842605 12.245463 5.006549 12.039062 4.59375 C 12.033862 4.583285 12.026784 4.5748591 12.021484 4.5644531 z M 6.140625 7 L 7.3027344 7 C 7.2684451 7.3237979 7.25 7.6568282 7.25 8 C 7.25 8.3431718 7.2684454 8.6762021 7.3027344 9 L 6.140625 9 C 6.0579396 8.678801 6 8.3476224 6 8 C 6 7.6523776 6.0579396 7.321199 6.140625 7 z M 6.5527344 10 L 7.4746094 10 C 7.5941232 10.515739 7.754538 10.993451 7.9609375 11.40625 C 7.9661675 11.41671 7.9732186 11.425137 7.9785156 11.435547 C 7.3863061 11.087084 6.8976698 10.594539 6.5527344 10 z "
     style="color:#000000;font-style:normal;font-variant:normal;font-weight:normal;font-stretch:normal;font-size:medium;line-height:normal;font-family:sans-serif;font-variant-ligatures:normal;font-variant-position:normal;font-variant-caps:normal;font-variant-numeric:normal;font-variant-alternates:normal;font-variant-east-asian:normal;font-feature-settings:normal;font-variation-settings:normal;text-indent:0;text-align:start;text-decoration:none;text-decoration-line:none;text-decoration-style:solid;text-decoration-color:#000000;letter-spacing:normal;word-spacing:normal;text-transform:none;writing-mode:lr-tb;direction:ltr;text-orientation:mixed;dominant-baseline:auto;baseline-shift:baseline;text-anchor:start;white-space:normal;shape-padding:0;shape-margin:0;inline-size:0;clip-rule:nonzero;display:inline;overflow:visible;visibility:visible;opacity:1;isolation:auto;mix-blend-mode:normal;color-interpolation:sRGB;color-interpolation-filters:linearRGB;solid-color:#000000;solid-opacity:1;vector-effect:none;fill:#000000;fill-opacity:1;fill-rule:nonzero;stroke:none;stroke-width:1;stroke-linecap:round;stroke-linejoin:round;stroke-miterlimit:4;stroke-dasharray:none;stroke-dashoffset:0;stroke-opacity:1;color-rendering:auto;image-rendering:auto;shape-rendering:auto;text-rendering:auto;enable-background:accumulate;stop-color:#000000;stop-opacity:1"
     id="path1040" />
  <rect
     style="fill:#000000;fill-opacity:1;stroke:#000000;stroke-linecap:round;stroke-linejoin:round;stroke-opacity:1"
     id="rect1018"
     width="2"
     height="3"
     x="1.5"
     y="1.5" />
  <path
     style="fill:none;stroke:#000000;stroke-width:1px;stroke-linecap:butt;stroke-linejoin:miter;stroke-opacity:1"
     d="M 2.5,4.5 V 16"
     id="path1020" />
</svg>
