<?xml version="1.0" encoding="UTF-8" standalone="no"?>
<svg
   height="16"
   width="16"
   version="1.1"
   id="svg5"
   sodipodi:docname="thunderbolt.svg"
   inkscape:version="1.1.1 (3bf5ae0d25, 2021-09-20, custom)"
   xmlns:inkscape="http://www.inkscape.org/namespaces/inkscape"
   xmlns:sodipodi="http://sodipodi.sourceforge.net/DTD/sodipodi-0.dtd"
   xmlns="http://www.w3.org/2000/svg"
   xmlns:svg="http://www.w3.org/2000/svg">
  <defs
     id="defs7" />
  <sodipodi:namedview
     id="namedview1"
     showgrid="true"
     pagecolor="#505050"
     bordercolor="#eeeeee"
     borderopacity="1"
     inkscape:pageshadow="0"
     inkscape:pageopacity="0"
     inkscape:pagecheckerboard="0"
     inkscape:zoom="28.09375"
     inkscape:cx="7.3503893"
     inkscape:cy="12.226919"
     inkscape:window-width="2560"
     inkscape:window-height="1404"
     inkscape:window-x="3840"
     inkscape:window-y="725"
     inkscape:window-maximized="1"
     inkscape:current-layer="svg5">
    <inkscape:grid
       type="xygrid"
       id="grid1px"
       empspacing="4" />
    <inkscape:grid
       type="xygrid"
       id="grid1pxdot"
       empspacing="1"
       dotted="true"
       originy="0.5"
       originx="0.5" />
  </sodipodi:namedview>
  <path
     id="path2576"
     style="fill:#000000;fill-opacity:1;stroke:none;stroke-linecap:round;stroke-linejoin:round;stroke-opacity:1"
     d="M 6.859375 2.1230469 A 6 6 0 0 0 2 8 A 6 6 0 0 0 6.515625 13.802734 L 6 12 L 7 13 L 8 9 L 6 9 L 6.859375 2.1230469 z M 10.445312 2.5371094 L 8.7285156 7 L 10.712891 7 L 8.7148438 12.5 L 10.041016 12.5 L 8.9121094 13.910156 A 6 6 0 0 0 14 8 A 6 6 0 0 0 10.445312 2.5371094 z " />
  <path
     style="fill:none;fill-opacity:1;stroke:#000000;stroke-width:1px;stroke-linecap:butt;stroke-linejoin:miter;stroke-opacity:1"
     d="M 8,15.5 10,13 H 9 L 11,7.5 H 9 L 11.5,1"
     id="path881"
     sodipodi:nodetypes="cccccc" />
</svg>
