<?xml version="1.0" encoding="UTF-8" standalone="no"?>
<svg
   xmlns:dc="http://purl.org/dc/elements/1.1/"
   xmlns:cc="http://creativecommons.org/ns#"
   xmlns:rdf="http://www.w3.org/1999/02/22-rdf-syntax-ns#"
   xmlns:svg="http://www.w3.org/2000/svg"
   xmlns="http://www.w3.org/2000/svg"
   xmlns:xlink="http://www.w3.org/1999/xlink"
   xmlns:sodipodi="http://sodipodi.sourceforge.net/DTD/sodipodi-0.dtd"
   xmlns:inkscape="http://www.inkscape.org/namespaces/inkscape"
   height="16"
   width="16"
   id="svg2"
   version="1.1"
   inkscape:version="0.91 r13725"
   sodipodi:docname="geogebra.svg">
  <metadata
     id="metadata9">
    <rdf:RDF>
      <cc:Work
         rdf:about="">
        <dc:format>image/svg+xml</dc:format>
        <dc:type
           rdf:resource="http://purl.org/dc/dcmitype/StillImage" />
        <dc:title></dc:title>
      </cc:Work>
    </rdf:RDF>
  </metadata>
  <defs
     id="defs7">
    <linearGradient
       inkscape:collect="always"
       xlink:href="#linearGradient4141"
       id="linearGradient4163"
       x1="-2.3431458"
       y1="9.7979593"
       x2="13.656854"
       y2="9.7979593"
       gradientUnits="userSpaceOnUse"
       gradientTransform="matrix(0.96592583,-0.25881905,0.25881905,0.96592583,0,0)" />
    <linearGradient
       inkscape:collect="always"
       id="linearGradient4141">
      <stop
         style="stop-color:#6400ff;stop-opacity:1"
         offset="0"
         id="stop4143" />
      <stop
         style="stop-color:#6464ff;stop-opacity:1"
         offset="1"
         id="stop4145" />
    </linearGradient>
  </defs>
  <sodipodi:namedview
     id="namedview1"
     showgrid="true"
     inkscape:zoom="29.5"
     inkscape:cx="4.8106928"
     inkscape:cy="5.7832245"
     inkscape:window-width="1680"
     inkscape:window-height="1016"
     inkscape:window-x="0"
     inkscape:window-y="0"
     inkscape:window-maximized="1"
     inkscape:current-layer="svg2">
    <inkscape:grid
       type="xygrid"
       id="grid1px"
       empspacing="4" />
    <inkscape:grid
       type="xygrid"
       id="grid1pxdot"
       empspacing="1"
       dotted="true"
       originy="0.5"
       originx="0.5" />
  </sodipodi:namedview>
  <path
     style="opacity:0.98999999;fill:url(#linearGradient4163);fill-opacity:1;fill-rule:nonzero;stroke:none;stroke-width:2;stroke-linecap:round;stroke-linejoin:round;stroke-miterlimit:4;stroke-dasharray:none;stroke-dashoffset:0;stroke-opacity:1"
     d="M 11 1 A 2 2 0 0 0 9 3 A 2 2 0 0 0 11 5 A 2 2 0 0 0 13 3 A 2 2 0 0 0 11 1 z M 8.0097656 2.8984375 A 5 8 75 0 0 6.7050781 3.1699219 A 5 8 75 0 0 5.59375 3.5273438 C 5.8449271 3.96512 6 4.4636483 6 5 C 6 6.6450096 4.6450096 8 3 8 C 2.1547776 8 1.3894294 7.6393369 0.84179688 7.0683594 A 5 8 75 0 0 0.19140625 9.6289062 C 0.69711748 9.2409226 1.3198663 9 2 9 C 3.6450096 9 5 10.35499 5 12 C 5 12.410601 4.9139955 12.802254 4.7617188 13.160156 A 5 8 75 0 0 6.0253906 13.248047 C 6.0183347 13.164932 6 13.084802 6 13 C 6 11.35499 7.3549904 10 9 10 C 9.8521735 10 10.621461 10.368066 11.169922 10.947266 C 11.068049 10.647323 11 10.332416 11 10 C 11 8.3549904 12.35499 7 14 7 C 14.645568 7 15.242505 7.2134107 15.734375 7.5664062 A 5 8 75 0 0 15.726562 5.9296875 A 5 8 75 0 0 13.904297 3.7128906 C 13.579445 5.0172479 12.39856 6 11 6 C 9.3549904 6 8 4.6450096 8 3 C 8 2.9652994 8.0085697 2.93287 8.0097656 2.8984375 z M 3 3 A 2 2 0 0 0 1 5 A 2 2 0 0 0 3 7 A 2 2 0 0 0 5 5 A 2 2 0 0 0 3 3 z M 14 8 A 2 2 0 0 0 12 10 A 2 2 0 0 0 14 12 A 2 2 0 0 0 16 10 A 2 2 0 0 0 14 8 z M 2 10 A 2 2 0 0 0 0 12 A 2 2 0 0 0 2 14 A 2 2 0 0 0 4 12 A 2 2 0 0 0 2 10 z M 9 11 A 2 2 0 0 0 7 13 A 2 2 0 0 0 9 15 A 2 2 0 0 0 11 13 A 2 2 0 0 0 9 11 z "
     id="path4153" />
</svg>
