<?xml version="1.0" encoding="UTF-8" standalone="no"?>
<svg
   xmlns:dc="http://purl.org/dc/elements/1.1/"
   xmlns:cc="http://creativecommons.org/ns#"
   xmlns:rdf="http://www.w3.org/1999/02/22-rdf-syntax-ns#"
   xmlns:svg="http://www.w3.org/2000/svg"
   xmlns="http://www.w3.org/2000/svg"
   xmlns:xlink="http://www.w3.org/1999/xlink"
   xmlns:sodipodi="http://sodipodi.sourceforge.net/DTD/sodipodi-0.dtd"
   xmlns:inkscape="http://www.inkscape.org/namespaces/inkscape"
   height="16"
   width="16"
   id="svg2"
   version="1.1"
   inkscape:version="0.91 r13725"
   sodipodi:docname="mail-client.svg">
  <metadata
     id="metadata9">
    <rdf:RDF>
      <cc:Work
         rdf:about="">
        <dc:format>image/svg+xml</dc:format>
        <dc:type
           rdf:resource="http://purl.org/dc/dcmitype/StillImage" />
        <dc:title></dc:title>
      </cc:Work>
    </rdf:RDF>
  </metadata>
  <defs
     id="defs7">
    <linearGradient
       gradientTransform="scale(0.5,0.5)"
       inkscape:collect="always"
       xlink:href="#linearGradient4139"
       id="linearGradient4363"
       x1="0"
       y1="16.5"
       x2="32"
       y2="16.5"
       gradientUnits="userSpaceOnUse" />
    <linearGradient
       inkscape:collect="always"
       id="linearGradient4139">
      <stop
         style="stop-color:#c80000;stop-opacity:1"
         offset="0"
         id="stop4141" />
      <stop
         style="stop-color:#ff6464;stop-opacity:1"
         offset="1"
         id="stop4143" />
    </linearGradient>
  </defs>
  <sodipodi:namedview
     id="namedview1"
     showgrid="true"
     inkscape:zoom="14.75"
     inkscape:cx="6.2980308"
     inkscape:cy="5.4737785"
     inkscape:window-width="1680"
     inkscape:window-height="1016"
     inkscape:window-x="0"
     inkscape:window-y="0"
     inkscape:window-maximized="1"
     inkscape:current-layer="svg2">
    <inkscape:grid
       type="xygrid"
       id="grid1px"
       empspacing="4" />
    <inkscape:grid
       type="xygrid"
       id="grid1pxdot"
       empspacing="1"
       dotted="true"
       originy="0.5"
       originx="0.5" />
  </sodipodi:namedview>
  <path
     style="opacity:0.98999999;fill:url(#linearGradient4363);fill-opacity:1;fill-rule:nonzero;stroke:none;stroke-width:1;stroke-linecap:round;stroke-linejoin:round;stroke-miterlimit:4;stroke-dasharray:none;stroke-dashoffset:0;stroke-opacity:1"
     d="M 3.75,0.5 A 0.250025,0.250025 0 0 0 3.5,0.75 L 3.5,4 8,7.375 12.5,4 12.5,0.75 A 0.250025,0.250025 0 0 0 12.25,0.5 l -8.5,0 z M 4,1.1855469 4,1.3144531 A 0.25015445,0.25015445 0 0 1 4,1.1855469 Z m 8,0.024414 a 0.250025,0.250025 0 0 1 0,0.081055 L 12,1.209961 Z M 4,2.1855469 4,2.3144531 A 0.25015445,0.25015445 0 0 1 4,2.1855469 Z m 8,0.024414 a 0.250025,0.250025 0 0 1 0,0.081055 L 12,2.209961 Z M 4,3.1855469 4,3.3144531 A 0.25015445,0.25015445 0 0 1 4,3.1855469 Z M 14.393555,3.2050781 8,8 1.6074219,3.2060547 A 8,8 0 0 0 0,8 8,8 0 0 0 8,16 8,8 0 0 0 16,8 8,8 0 0 0 14.393555,3.2050781 Z M 12,3.209961 a 0.250025,0.250025 0 0 1 0,0.081055 l 0,-0.081055 z m -7.5,0.9755859 0,0.1289062 a 0.25015445,0.25015445 0 0 1 0,-0.1289062 z m 7,0.024414 a 0.250025,0.250025 0 0 1 0,0.081055 l 0,-0.081055 z M 6,5.1855469 6,5.3144531 A 0.25015448,0.25015448 0 0 1 6,5.1855469 Z m 4,0.024414 a 0.250025,0.250025 0 0 1 0,0.081055 l 0,-0.081055 z M 7,6.1855469 7,6.3144531 A 0.25015448,0.25015448 0 0 1 7,6.1855469 Z m 2,0.024414 a 0.250025,0.250025 0 0 1 0,0.081055 l 0,-0.081055 z"
     id="rect4150-9"
     inkscape:connector-curvature="0" />
</svg>
