<?xml version="1.0" encoding="UTF-8" standalone="no"?>
<svg
   xmlns:dc="http://purl.org/dc/elements/1.1/"
   xmlns:cc="http://creativecommons.org/ns#"
   xmlns:rdf="http://www.w3.org/1999/02/22-rdf-syntax-ns#"
   xmlns:svg="http://www.w3.org/2000/svg"
   xmlns="http://www.w3.org/2000/svg"
   xmlns:sodipodi="http://sodipodi.sourceforge.net/DTD/sodipodi-0.dtd"
   xmlns:inkscape="http://www.inkscape.org/namespaces/inkscape"
   height="16"
   width="16"
   version="1.1"
   id="svg5"
   sodipodi:docname="preferences-system-bluetooth.svg"
   inkscape:version="0.92.0 r">
  <metadata
     id="metadata9">
    <rdf:RDF>
      <cc:Work
         rdf:about="">
        <dc:format>image/svg+xml</dc:format>
        <dc:type
           rdf:resource="http://purl.org/dc/dcmitype/StillImage" />
        <dc:title></dc:title>
      </cc:Work>
    </rdf:RDF>
  </metadata>
  <defs
     id="defs7" />
  <sodipodi:namedview
     id="namedview1"
     showgrid="true"
     inkscape:zoom="29.5"
     inkscape:cx="8.4561009"
     inkscape:cy="8.4248832"
     inkscape:window-width="1280"
     inkscape:window-height="766"
     inkscape:window-x="1680"
     inkscape:window-y="250"
     inkscape:window-maximized="1"
     inkscape:current-layer="svg5">
    <inkscape:grid
       type="xygrid"
       id="grid1px"
       empspacing="4" />
    <inkscape:grid
       type="xygrid"
       id="grid1pxdot"
       empspacing="1"
       dotted="true"
       originy="0.5"
       originx="0.5" />
  </sodipodi:namedview>
  <path
     style="opacity:1;fill:#000000;fill-opacity:1;fill-rule:nonzero;stroke:none;stroke-width:1;stroke-linecap:round;stroke-linejoin:round;stroke-miterlimit:4;stroke-dasharray:none;stroke-dashoffset:0;stroke-opacity:1"
     d="M 8 0 A 8 8 0 0 0 0 8 A 8 8 0 0 0 8 16 A 8 8 0 0 0 16 8 A 8 8 0 0 0 8 0 z M 8.4980469 0.75 A 0.50005 0.50005 0 0 1 8.859375 0.89648438 L 12.109375 4.1464844 A 0.50005 0.50005 0 0 1 12.121094 4.8398438 L 9.0742188 8.1113281 L 12.109375 11.146484 A 0.50005 0.50005 0 0 1 12.109375 11.853516 L 8.859375 15.103516 A 0.50005 0.50005 0 0 1 8.0058594 14.75 L 8.0058594 9.2597656 L 5.3710938 12.089844 A 0.50005 0.50005 0 1 1 4.6386719 11.410156 L 7.6855469 8.1367188 L 4.6523438 5.1035156 A 0.50005 0.50005 0 1 1 5.359375 4.3964844 L 8.0058594 7.0429688 L 8.0058594 1.25 A 0.50005 0.50005 0 0 1 8.4980469 0.75 z M 9.0058594 2.4570312 L 9.0058594 6.71875 L 11.060547 4.5117188 L 9.0058594 2.4570312 z M 9.0058594 9.4570312 L 9.0058594 13.542969 L 11.048828 11.5 L 9.0058594 9.4570312 z "
     id="path4492" />
</svg>
