<?xml version="1.0" encoding="UTF-8" standalone="no"?>
<svg
   xmlns:dc="http://purl.org/dc/elements/1.1/"
   xmlns:cc="http://creativecommons.org/ns#"
   xmlns:rdf="http://www.w3.org/1999/02/22-rdf-syntax-ns#"
   xmlns:svg="http://www.w3.org/2000/svg"
   xmlns="http://www.w3.org/2000/svg"
   xmlns:sodipodi="http://sodipodi.sourceforge.net/DTD/sodipodi-0.dtd"
   xmlns:inkscape="http://www.inkscape.org/namespaces/inkscape"
   height="16"
   width="16"
   version="1.1"
   id="svg5"
   sodipodi:docname="battery-charging-020.svg"
   inkscape:version="0.92.1 r15371">
  <metadata
     id="metadata9">
    <rdf:RDF>
      <cc:Work
         rdf:about="">
        <dc:format>image/svg+xml</dc:format>
        <dc:type
           rdf:resource="http://purl.org/dc/dcmitype/StillImage" />
        <dc:title></dc:title>
      </cc:Work>
    </rdf:RDF>
  </metadata>
  <defs
     id="defs7" />
  <sodipodi:namedview
     id="namedview1"
     showgrid="true"
     inkscape:zoom="20.85965"
     inkscape:cx="16.588817"
     inkscape:cy="6.3920911"
     inkscape:window-width="1680"
     inkscape:window-height="987"
     inkscape:window-x="-8"
     inkscape:window-y="-8"
     inkscape:window-maximized="1"
     inkscape:current-layer="svg5">
    <inkscape:grid
       type="xygrid"
       id="grid1px"
       empspacing="4" />
    <inkscape:grid
       type="xygrid"
       id="grid1pxdot"
       empspacing="1"
       dotted="true"
       originy="0.5"
       originx="0.5" />
  </sodipodi:namedview>
  <path
     style="color:#000000;font-style:normal;font-variant:normal;font-weight:normal;font-stretch:normal;font-size:medium;line-height:normal;font-family:sans-serif;font-variant-ligatures:normal;font-variant-position:normal;font-variant-caps:normal;font-variant-numeric:normal;font-variant-alternates:normal;font-feature-settings:normal;text-indent:0;text-align:start;text-decoration:none;text-decoration-line:none;text-decoration-style:solid;text-decoration-color:#000000;letter-spacing:normal;word-spacing:normal;text-transform:none;writing-mode:lr-tb;direction:ltr;text-orientation:mixed;dominant-baseline:auto;baseline-shift:baseline;text-anchor:start;white-space:normal;shape-padding:0;clip-rule:nonzero;display:inline;overflow:visible;visibility:visible;opacity:1;isolation:auto;mix-blend-mode:normal;color-interpolation:sRGB;color-interpolation-filters:linearRGB;solid-color:#000000;solid-opacity:1;vector-effect:none;fill:#000000;fill-opacity:1;fill-rule:nonzero;stroke:none;stroke-width:1;stroke-linecap:butt;stroke-linejoin:miter;stroke-miterlimit:4;stroke-dasharray:none;stroke-dashoffset:0;stroke-opacity:1;color-rendering:auto;image-rendering:auto;shape-rendering:auto;text-rendering:auto;enable-background:accumulate"
     d="M 8 1 C 4.1399291 1 1 4.1399291 1 8 C 1 11.860071 4.1399291 15 8 15 C 8.0019722 15 8.0038876 15.000002 8.0058594 15 A 5 5 0 0 1 7 12 A 5 5 0 0 1 7.0253906 11.5 L 3.1308594 11.5 C 2.4223267 10.514883 2 9.3091443 2 8 C 2 4.6803692 4.6803692 2 8 2 C 11.119414 2 13.673858 4.366274 13.970703 7.40625 A 5 5 0 0 1 15 8.0078125 C 15.000003 8.0051836 15 8.0026296 15 8 C 15 4.1399291 11.860071 1 8 1 z "
     id="path4486" />
  <path
     style="fill:#000000;fill-opacity:1;stroke:none;stroke-width:1;stroke-miterlimit:4;stroke-dasharray:none;stroke-opacity:1"
     d="M 12 8 A 4 4 0 0 0 8 12 A 4 4 0 0 0 12 16 A 4 4 0 0 0 13 15.869141 L 13 12 L 12 12 L 12 13 L 9 13 L 9 12 L 10 12 L 10 11 L 9 11 L 9 10 L 12 10 L 12 11 L 14 11 L 14 15.458984 A 4 4 0 0 0 16 12 A 4 4 0 0 0 12 8 z "
     id="path4506" />
</svg>
