<?xml version="1.0" encoding="UTF-8" standalone="no"?>
<svg
   height="16"
   width="16"
   version="1.1"
   id="svg5"
   sodipodi:docname="battery-stretch.svg"
   inkscape:version="1.1.1 (3bf5ae0d25, 2021-09-20, custom)"
   xmlns:inkscape="http://www.inkscape.org/namespaces/inkscape"
   xmlns:sodipodi="http://sodipodi.sourceforge.net/DTD/sodipodi-0.dtd"
   xmlns="http://www.w3.org/2000/svg"
   xmlns:svg="http://www.w3.org/2000/svg"
   xmlns:rdf="http://www.w3.org/1999/02/22-rdf-syntax-ns#"
   xmlns:cc="http://creativecommons.org/ns#"
   xmlns:dc="http://purl.org/dc/elements/1.1/">
  <metadata
     id="metadata9">
    <rdf:RDF>
      <cc:Work
         rdf:about="">
        <dc:format>image/svg+xml</dc:format>
        <dc:type
           rdf:resource="http://purl.org/dc/dcmitype/StillImage" />
      </cc:Work>
    </rdf:RDF>
  </metadata>
  <defs
     id="defs7" />
  <sodipodi:namedview
     id="namedview1"
     showgrid="true"
     inkscape:zoom="90.509668"
     inkscape:cx="9.9381648"
     inkscape:cy="11.628592"
     inkscape:window-width="3840"
     inkscape:window-height="2100"
     inkscape:window-x="0"
     inkscape:window-y="24"
     inkscape:window-maximized="1"
     inkscape:current-layer="svg5"
     pagecolor="#505050"
     bordercolor="#eeeeee"
     borderopacity="1"
     inkscape:pageshadow="0"
     inkscape:pageopacity="0"
     inkscape:pagecheckerboard="0">
    <inkscape:grid
       type="xygrid"
       id="grid1px"
       empspacing="4" />
    <inkscape:grid
       type="xygrid"
       id="grid1pxdot"
       empspacing="1"
       dotted="true"
       originy="0.5"
       originx="0.5" />
  </sodipodi:namedview>
  <path
     id="path4516"
     style="fill:#000000;fill-opacity:1;stroke-width:2;stroke-miterlimit:4;stroke-dasharray:none"
     d="M 8 1 A 7 7 0 0 0 1 8 A 7 7 0 0 0 8 15 A 7 7 0 0 0 15 8 A 7 7 0 0 0 8 1 z M 8 3.25 A 0.50005 0.50005 0 0 1 8.4472656 3.5253906 L 9.9472656 6.5253906 A 0.5 0.5 0 0 1 9.7226562 7.1972656 A 0.5 0.5 0 0 1 9.0527344 6.9726562 L 8 4.8671875 L 6.9472656 6.9726562 A 0.5 0.5 0 0 1 6.2773438 7.1972656 A 0.5 0.5 0 0 1 6.0527344 6.5253906 L 7.5527344 3.5253906 A 0.50005 0.50005 0 0 1 8 3.25 z M 5.46875 8.25 A 0.5 0.5 0 0 1 5.7226562 8.3027344 A 0.5 0.5 0 0 1 5.9472656 8.9726562 L 5.3085938 10.25 L 7.2929688 10.25 L 6.6464844 9.6035156 A 0.5 0.5 0 0 1 6.6464844 8.8964844 A 0.5 0.5 0 0 1 7 8.75 A 0.5 0.5 0 0 1 7.3535156 8.8964844 L 8.8535156 10.396484 A 0.50005 0.50005 0 0 1 8.8828125 10.427734 A 0.5 0.5 0 0 1 8.8867188 10.433594 A 0.50005 0.50005 0 0 1 8.9101562 10.462891 A 0.5 0.5 0 0 1 8.9160156 10.472656 A 0.50005 0.50005 0 0 1 8.9335938 10.5 A 0.5 0.5 0 0 1 8.9414062 10.513672 A 0.50005 0.50005 0 0 1 8.953125 10.539062 A 0.5 0.5 0 0 1 8.9628906 10.558594 A 0.50005 0.50005 0 0 1 8.9707031 10.578125 A 0.5 0.5 0 0 1 8.9785156 10.605469 A 0.50005 0.50005 0 0 1 8.9824219 10.621094 A 0.5 0.5 0 0 1 8.9902344 10.652344 A 0.50005 0.50005 0 0 1 8.9921875 10.664062 A 0.5 0.5 0 0 1 8.9980469 10.701172 A 0.50005 0.50005 0 0 1 8.9980469 10.708984 A 0.50005 0.50005 0 0 1 9 10.722656 A 0.50005 0.50005 0 0 1 9 10.740234 A 0.50005 0.50005 0 0 1 9 10.75 A 0.50005 0.50005 0 0 1 8.9824219 10.878906 A 0.50005 0.50005 0 0 1 8.9335938 11 A 0.50005 0.50005 0 0 1 8.8535156 11.103516 L 7.3535156 12.603516 A 0.5 0.5 0 0 1 6.6464844 12.603516 A 0.5 0.5 0 0 1 6.6464844 11.896484 L 7.2929688 11.25 L 4.5 11.25 A 0.50005 0.50005 0 0 1 4.0527344 10.525391 L 5.0527344 8.5253906 A 0.5 0.5 0 0 1 5.3417969 8.2753906 A 0.5 0.5 0 0 1 5.46875 8.25 z M 10.464844 8.2519531 A 0.5 0.5 0 0 1 10.658203 8.2753906 A 0.5 0.5 0 0 1 10.947266 8.5253906 L 11.947266 10.525391 A 0.50005 0.50005 0 0 1 11.5 11.25 L 10.5 11.25 A 0.5 0.5 0 0 1 10 10.75 A 0.5 0.5 0 0 1 10.5 10.25 L 10.691406 10.25 L 10.052734 8.9726562 A 0.5 0.5 0 0 1 10.277344 8.3027344 A 0.5 0.5 0 0 1 10.464844 8.2519531 z " />
</svg>
