<?xml version="1.0" encoding="UTF-8" standalone="no"?>
<svg
   xmlns:dc="http://purl.org/dc/elements/1.1/"
   xmlns:cc="http://creativecommons.org/ns#"
   xmlns:rdf="http://www.w3.org/1999/02/22-rdf-syntax-ns#"
   xmlns:svg="http://www.w3.org/2000/svg"
   xmlns="http://www.w3.org/2000/svg"
   xmlns:sodipodi="http://sodipodi.sourceforge.net/DTD/sodipodi-0.dtd"
   xmlns:inkscape="http://www.inkscape.org/namespaces/inkscape"
   height="16"
   width="16"
   version="1.1"
   id="svg5"
   sodipodi:docname="flight-mode.svg"
   inkscape:version="0.92.1 r">
  <metadata
     id="metadata9">
    <rdf:RDF>
      <cc:Work
         rdf:about="">
        <dc:format>image/svg+xml</dc:format>
        <dc:type
           rdf:resource="http://purl.org/dc/dcmitype/StillImage" />
        <dc:title></dc:title>
      </cc:Work>
    </rdf:RDF>
  </metadata>
  <defs
     id="defs7" />
  <sodipodi:namedview
     id="namedview1"
     showgrid="true"
     inkscape:zoom="20.85965"
     inkscape:cx="9.5268142"
     inkscape:cy="8.693306"
     inkscape:window-width="1280"
     inkscape:window-height="742"
     inkscape:window-x="0"
     inkscape:window-y="24"
     inkscape:window-maximized="1"
     inkscape:current-layer="svg5">
    <inkscape:grid
       type="xygrid"
       id="grid1px"
       empspacing="4" />
    <inkscape:grid
       type="xygrid"
       id="grid1pxdot"
       empspacing="1"
       dotted="true"
       originy="0.5"
       originx="0.5" />
  </sodipodi:namedview>
  <path
     style="opacity:1;fill:#000000;fill-opacity:1;fill-rule:nonzero;stroke:none;stroke-width:1;stroke-linecap:round;stroke-linejoin:round;stroke-miterlimit:4;stroke-dasharray:none;stroke-dashoffset:0;stroke-opacity:1;paint-order:fill markers stroke"
     d="M 13.470703 0.98632812 A 1.50015 1.50015 0 0 0 12.439453 1.4394531 L 9.5058594 4.3730469 L 3.6132812 3.0136719 A 0.50005 0.50005 0 0 0 3.5136719 3 A 0.50005 0.50005 0 0 0 3.1464844 3.1464844 L 2.1464844 4.1464844 A 0.50005 0.50005 0 0 0 2.1464844 4.8535156 L 5.5859375 8.2929688 L 4.3496094 9.5292969 L 2.1132812 9.0136719 A 0.50005 0.50005 0 0 0 2.0136719 9 A 0.50005 0.50005 0 0 0 1.6464844 9.1464844 L 1.1464844 9.6464844 A 0.50005 0.50005 0 0 0 1.1464844 10.353516 L 2.5097656 11.714844 L 2.5097656 11.716797 A 1.50015 1.50015 0 0 0 4.2832031 13.490234 L 5.6464844 14.853516 A 0.50005 0.50005 0 0 0 6.3535156 14.853516 L 6.8535156 14.353516 A 0.50005 0.50005 0 0 0 6.9863281 13.886719 L 6.4707031 11.650391 L 7.7070312 10.414062 L 11.146484 13.853516 A 0.50005 0.50005 0 0 0 11.853516 13.853516 L 12.853516 12.853516 A 0.50005 0.50005 0 0 0 12.986328 12.386719 L 11.626953 6.4941406 L 14.560547 3.5605469 A 1.50015 1.50015 0 0 0 13.470703 0.98632812 z "
     id="path4492" />
</svg>
