<?xml version="1.0" encoding="UTF-8" standalone="no"?>
<svg
   xmlns:dc="http://purl.org/dc/elements/1.1/"
   xmlns:cc="http://creativecommons.org/ns#"
   xmlns:rdf="http://www.w3.org/1999/02/22-rdf-syntax-ns#"
   xmlns:svg="http://www.w3.org/2000/svg"
   xmlns="http://www.w3.org/2000/svg"
   xmlns:sodipodi="http://sodipodi.sourceforge.net/DTD/sodipodi-0.dtd"
   xmlns:inkscape="http://www.inkscape.org/namespaces/inkscape"
   height="16"
   width="16"
   id="svg2"
   version="1.1"
   inkscape:version="0.92.4 5da689c313, 2019-01-14"
   sodipodi:docname="mic-off.svg">
  <metadata
     id="metadata9">
    <rdf:RDF>
      <cc:Work
         rdf:about="">
        <dc:format>image/svg+xml</dc:format>
        <dc:type
           rdf:resource="http://purl.org/dc/dcmitype/StillImage" />
        <dc:title></dc:title>
      </cc:Work>
    </rdf:RDF>
  </metadata>
  <defs
     id="defs7" />
  <sodipodi:namedview
     id="namedview1"
     showgrid="true"
     inkscape:zoom="20.85965"
     inkscape:cx="7.282349"
     inkscape:cy="8.16426"
     inkscape:window-width="1280"
     inkscape:window-height="742"
     inkscape:window-x="1920"
     inkscape:window-y="304"
     inkscape:window-maximized="1"
     inkscape:current-layer="svg2">
    <inkscape:grid
       type="xygrid"
       id="grid1px"
       empspacing="4" />
    <inkscape:grid
       type="xygrid"
       id="grid1pxdot"
       empspacing="1"
       dotted="true"
       originy="0.5"
       originx="0.5" />
  </sodipodi:namedview>
  <path
     style="color:#000000;font-style:normal;font-variant:normal;font-weight:normal;font-stretch:normal;font-size:medium;line-height:normal;font-family:sans-serif;font-variant-ligatures:normal;font-variant-position:normal;font-variant-caps:normal;font-variant-numeric:normal;font-variant-alternates:normal;font-feature-settings:normal;text-indent:0;text-align:start;text-decoration:none;text-decoration-line:none;text-decoration-style:solid;text-decoration-color:#000000;letter-spacing:normal;word-spacing:normal;text-transform:none;writing-mode:lr-tb;direction:ltr;text-orientation:mixed;dominant-baseline:auto;baseline-shift:baseline;text-anchor:start;white-space:normal;shape-padding:0;clip-rule:nonzero;display:inline;overflow:visible;visibility:visible;opacity:1;isolation:auto;mix-blend-mode:normal;color-interpolation:sRGB;color-interpolation-filters:linearRGB;solid-color:#000000;solid-opacity:1;vector-effect:none;fill:#000000;fill-opacity:1;fill-rule:nonzero;stroke:none;stroke-width:1.00157475;stroke-linecap:round;stroke-linejoin:round;stroke-miterlimit:4;stroke-dasharray:none;stroke-dashoffset:0;stroke-opacity:1;paint-order:normal;color-rendering:auto;image-rendering:auto;shape-rendering:auto;text-rendering:auto;enable-background:accumulate"
     d="M 8 1 C 6.3193486 1 5 2.48216 5 4.25 L 5 6.7382812 L 6 6.2949219 L 6 4.25 C 6 2.97084 6.9106514 2 8 2 C 9.0893486 2 10 2.97084 10 4.25 L 10 4.515625 L 10.984375 4.0800781 C 10.901542 2.3897125 9.6254423 1 8 1 z M 11 6.2617188 L 10 6.7050781 L 10 9.75 C 10 11.02916 9.0893486 12 8 12 C 6.9106514 12 6 11.02916 6 9.75 L 6 8.484375 L 5 8.9277344 L 5 9.75 C 5 11.51784 6.3193486 13 8 13 C 9.6806514 13 11 11.51784 11 9.75 L 11 6.2617188 z "
     id="rect819" />
  <path
     style="opacity:1;fill:none;fill-opacity:1;stroke:#000000;stroke-width:1.00157475;stroke-linecap:round;stroke-linejoin:round;stroke-miterlimit:4;stroke-dasharray:none;stroke-dashoffset:0;stroke-opacity:1;paint-order:normal"
     id="path825"
     sodipodi:type="arc"
     sodipodi:cx="8"
     sodipodi:cy="10"
     sodipodi:rx="4.5"
     sodipodi:ry="4.5"
     sodipodi:start="0"
     sodipodi:end="3.1415927"
     sodipodi:open="true"
     d="m 12.5,10 a 4.5,4.5 0 0 1 -2.25,3.897114 4.5,4.5 0 0 1 -4.5000001,0 A 4.5,4.5 0 0 1 3.5,9.9999998" />
  <path
     style="fill:none;stroke:#000000;stroke-width:1px;stroke-linecap:round;stroke-linejoin:miter;stroke-opacity:1"
     d="m 3.5,8.5 9,-4"
     id="path827"
     inkscape:connector-curvature="0" />
</svg>
